<?xml version="1.0" encoding="UTF-8"?>
<svg id="Capa_1" data-name="Capa 1" xmlns="http://www.w3.org/2000/svg" viewBox="0 0 400 400">
  <defs>
    <style>
      .cls-1 {
        fill: none;
      }

      .cls-1, .cls-2 {
        stroke-width: 0px;
      }
    </style>
  </defs>
  <g>
    <path class="cls-1" d="M201.32,183.4h-13.27c-1.62,0-2.93,1.24-2.93,2.76v10.12h19.13v-10.12c0-1.52-1.32-2.76-2.93-2.76Z"/>
    <path class="cls-1" d="M171.56,183.4h-13.27c-1.62,0-2.93,1.24-2.93,2.76v10.12h19.13v-10.12c0-1.52-1.32-2.76-2.93-2.76Z"/>
    <path class="cls-1" d="M153.23,186.16c0-2.63,2.27-4.76,5.06-4.76h13.27c2.79,0,5.06,2.14,5.06,4.76v10.12h6.38v-10.12c0-2.63,2.27-4.76,5.06-4.76h13.27c2.79,0,5.06,2.14,5.06,4.76v10.12h7.44v-17.11c0-4.63-3.77-8.4-8.4-8.4h-49.1c-4.63,0-8.4,3.77-8.4,8.4v17.11h5.31v-10.12Z"/>
    <path class="cls-1" d="M221.26,216.22v-9.41c0-4.63-3.77-8.4-8.4-8.4h-63.98c-4.63,0-8.4,3.77-8.4,8.4v9.41h80.78Z"/>
    <rect class="cls-1" x="140.48" y="230.29" width="4.25" height="6.38"/>
    <polygon class="cls-1" points="140.48 218.34 140.48 228.17 146.86 228.17 214.88 228.17 221.26 228.17 221.26 218.34 140.48 218.34"/>
    <rect class="cls-1" x="217.01" y="230.29" width="4.25" height="6.38"/>
    <path class="cls-2" d="M215.94,196.8v-17.62c0-5.8-4.72-10.53-10.53-10.53h-49.1c-5.8,0-10.53,4.72-10.53,10.53v17.62c-4.29,1.33-7.44,5.29-7.44,10.01v31.99h8.5v-8.5h68.02v8.5h8.5v-31.99c0-4.72-3.15-8.68-7.44-10.01ZM147.92,196.28v-17.11c0-4.63,3.77-8.4,8.4-8.4h49.1c4.63,0,8.4,3.77,8.4,8.4v17.11h-7.44v-10.12c0-2.63-2.27-4.76-5.06-4.76h-13.27c-2.79,0-5.06,2.14-5.06,4.76v10.12h-6.38v-10.12c0-2.63-2.27-4.76-5.06-4.76h-13.27c-2.79,0-5.06,2.14-5.06,4.76v10.12h-5.31ZM185.12,196.28v-10.12c0-1.52,1.32-2.76,2.93-2.76h13.27c1.62,0,2.93,1.24,2.93,2.76v10.12h-19.13ZM155.36,196.28v-10.12c0-1.52,1.32-2.76,2.93-2.76h13.27c1.62,0,2.93,1.24,2.93,2.76v10.12h-19.13ZM148.88,198.41h63.98c4.63,0,8.4,3.77,8.4,8.4v9.41h-80.78v-9.41c0-4.63,3.77-8.4,8.4-8.4ZM144.73,236.67h-4.25v-6.38h4.25v6.38ZM221.26,236.67h-4.25v-6.38h4.25v6.38ZM214.88,228.17h-74.4v-9.83h80.78v9.83h-6.38Z"/>
  </g>
  <g>
    <path class="cls-1" d="M258.36,196.28h-25.32c-.64,0-1.16.52-1.16,1.16v12.56c0,.64.52,1.16,1.16,1.16h25.32c.64,0,1.16-.52,1.16-1.16v-12.56c0-.64-.52-1.16-1.16-1.16ZM249.96,205.01c0,.46-.38.84-.84.84h-6.83c-.46,0-.84-.38-.84-.84v-1.51c0-.46.38-.84.84-.84h6.83c.46,0,.84.38.84.84v1.51Z"/>
    <path class="cls-2" d="M258.36,194.15h-25.32c-1.81,0-3.29,1.47-3.29,3.29v30.73h2.13v-15.1c.36.14.75.22,1.16.22h25.32c.41,0,.8-.08,1.16-.22v15.1h2.13v-30.73c0-1.81-1.47-3.29-3.29-3.29ZM259.52,210c0,.64-.52,1.16-1.16,1.16h-25.32c-.64,0-1.16-.52-1.16-1.16v-12.56c0-.64.52-1.16,1.16-1.16h25.32c.64,0,1.16.52,1.16,1.16v12.56Z"/>
    <rect class="cls-2" x="241.45" y="202.66" width="8.5" height="3.19" rx=".84" ry=".84"/>
  </g>
  <g>
    <path class="cls-1" d="M249,163.55c-.05-.13-.18-.22-.32-.22h-6.82c-.14,0-.26.08-.32.21l-5.43,12.06c-.07.15-.01.27.02.33s.13.16.29.16h17.16c.16,0,.25-.1.29-.15.04-.06.09-.18.03-.32l-4.91-12.06Z"/>
    <path class="cls-2" d="M255.88,174.81l-4.91-12.06c-.38-.94-1.28-1.54-2.29-1.54h-6.82c-.97,0-1.85.57-2.26,1.46l-5.43,12.06c-.35.77-.28,1.65.18,2.36.46.71,1.23,1.13,2.08,1.13h6.72v9.57h-3.45v2.13h10.63v-2.13h-3.45v-9.57h6.72c.82,0,1.59-.41,2.05-1.09.46-.68.55-1.55.24-2.31ZM253.87,175.93c-.04.06-.13.15-.29.15h-17.16c-.16,0-.25-.1-.29-.16s-.09-.18-.02-.33l5.43-12.06c.06-.12.18-.21.32-.21h6.82c.14,0,.27.09.32.22l4.91,12.06c.06.15,0,.27-.03.32Z"/>
  </g>
</svg>