<?xml version="1.0" encoding="UTF-8"?>
<svg id="Capa_1" data-name="Capa 1" xmlns="http://www.w3.org/2000/svg" viewBox="0 0 400 400">
  <defs>
    <style>
      .cls-1 {
        fill: none;
      }

      .cls-1, .cls-2 {
        stroke-width: 0px;
      }
    </style>
  </defs>
  <path class="cls-2" d="M171.58,209.57h-6.93c-2.78,0-5.04-2.26-5.04-5.04v-6.93c0-2.78,2.26-5.04,5.04-5.04h6.93c2.78,0,5.04,2.26,5.04,5.04v6.93c0,2.78-2.26,5.04-5.04,5.04ZM164.65,194.69c-1.61,0-2.91,1.31-2.91,2.91v6.93c0,1.61,1.31,2.91,2.91,2.91h6.93c1.61,0,2.91-1.31,2.91-2.91v-6.93c0-1.61-1.31-2.91-2.91-2.91h-6.93Z"/>
  <path class="cls-2" d="M203.47,209.57h-6.93c-2.78,0-5.04-2.26-5.04-5.04v-6.93c0-2.78,2.26-5.04,5.04-5.04h6.93c2.78,0,5.04,2.26,5.04,5.04v6.93c0,2.78-2.26,5.04-5.04,5.04ZM196.53,194.69c-1.61,0-2.91,1.31-2.91,2.91v6.93c0,1.61,1.31,2.91,2.91,2.91h6.93c1.61,0,2.91-1.31,2.91-2.91v-6.93c0-1.61-1.31-2.91-2.91-2.91h-6.93Z"/>
  <path class="cls-2" d="M171.58,237.2h-6.93c-2.78,0-5.04-2.26-5.04-5.04v-6.93c0-2.78,2.26-5.04,5.04-5.04h6.93c2.78,0,5.04,2.26,5.04,5.04v6.93c0,2.78-2.26,5.04-5.04,5.04ZM164.65,222.32c-1.61,0-2.91,1.31-2.91,2.91v6.93c0,1.61,1.31,2.91,2.91,2.91h6.93c1.61,0,2.91-1.31,2.91-2.91v-6.93c0-1.61-1.31-2.91-2.91-2.91h-6.93Z"/>
  <path class="cls-2" d="M203.47,237.2h-6.93c-2.78,0-5.04-2.26-5.04-5.04v-6.93c0-2.78,2.26-5.04,5.04-5.04h6.93c2.78,0,5.04,2.26,5.04,5.04v6.93c0,2.78-2.26,5.04-5.04,5.04ZM196.53,222.32c-1.61,0-2.91,1.31-2.91,2.91v6.93c0,1.61,1.31,2.91,2.91,2.91h6.93c1.61,0,2.91-1.31,2.91-2.91v-6.93c0-1.61-1.31-2.91-2.91-2.91h-6.93Z"/>
  <path class="cls-2" d="M233.23,237.2h-6.93c-2.78,0-5.04-2.26-5.04-5.04v-6.93c0-2.78,2.26-5.04,5.04-5.04h6.93c2.78,0,5.04,2.26,5.04,5.04v6.93c0,2.78-2.26,5.04-5.04,5.04ZM226.29,222.32c-1.61,0-2.91,1.31-2.91,2.91v6.93c0,1.61,1.31,2.91,2.91,2.91h6.93c1.61,0,2.91-1.31,2.91-2.91v-6.93c0-1.61-1.31-2.91-2.91-2.91h-6.93Z"/>
  <path class="cls-2" d="M228.23,208.92l-5.91-5.91c-.83-.83-.83-2.18,0-3.01h0c.83-.83,2.18-.83,3.01,0l3.22,3.22c.09.09.23.09.31,0l9.59-9.59c.83-.83,2.18-.83,3.01,0h0c.83.83.83,2.18,0,3.01l-12.29,12.29c-.26.26-.67.26-.93,0Z"/>
  <g>
    <path class="cls-1" d="M210.63,164.93c2.34,0,4.25-1.91,4.25-4.25v-8.5c0-2.34-1.91-4.25-4.25-4.25s-4.25,1.91-4.25,4.25v8.5c0,2.34,1.91,4.25,4.25,4.25Z"/>
    <path class="cls-1" d="M187.25,164.93c2.34,0,4.25-1.91,4.25-4.25v-8.5c0-2.34-1.91-4.25-4.25-4.25s-4.25,1.91-4.25,4.25v8.5c0,2.34,1.91,4.25,4.25,4.25Z"/>
    <path class="cls-1" d="M234.01,164.93c2.34,0,4.25-1.91,4.25-4.25v-8.5c0-2.34-1.91-4.25-4.25-4.25s-4.25,1.91-4.25,4.25v8.5c0,2.34,1.91,4.25,4.25,4.25Z"/>
    <path class="cls-1" d="M240.39,158.83v1.85c0,3.52-2.86,6.38-6.38,6.38s-6.38-2.86-6.38-6.38v-1.87h-10.63v1.87c0,3.52-2.86,6.38-6.38,6.38s-6.38-2.86-6.38-6.38v-1.87h-10.63v1.87c0,3.52-2.86,6.38-6.38,6.38s-6.38-2.86-6.38-6.38v-1.87h-10.63v1.87c0,3.52-2.86,6.38-6.38,6.38s-6.38-2.86-6.38-6.38v-1.61c-6.05,1.21-10.63,6.56-10.63,12.97v5.65h106.29v-5.65c0-7.13-5.68-12.95-12.75-13.2Z"/>
    <path class="cls-1" d="M163.86,164.93c2.34,0,4.25-1.91,4.25-4.25v-8.5c0-2.34-1.91-4.25-4.25-4.25s-4.25,1.91-4.25,4.25v8.5c0,2.34,1.91,4.25,4.25,4.25Z"/>
    <path class="cls-1" d="M146.86,238.85c0,7.29,5.93,13.23,13.23,13.23h79.83c7.29,0,13.23-5.93,13.23-13.23v-59.05h-106.29v59.05Z"/>
    <path class="cls-2" d="M240.39,156.7v-4.53c0-3.52-2.86-6.38-6.38-6.38s-6.38,2.86-6.38,6.38v4.51h-10.63v-4.51c0-3.52-2.86-6.38-6.38-6.38s-6.38,2.86-6.38,6.38v4.51h-10.63v-4.51c0-3.52-2.86-6.38-6.38-6.38s-6.38,2.86-6.38,6.38v4.51h-10.63v-4.51c0-3.52-2.86-6.38-6.38-6.38s-6.38,2.86-6.38,6.38v4.74c-7.23,1.24-12.75,7.54-12.75,15.12v66.82c0,8.47,6.89,15.35,15.35,15.35h79.83c8.47,0,15.35-6.89,15.35-15.35v-66.82c0-8.31-6.63-15.08-14.88-15.33ZM229.76,158.8v-6.63c0-2.34,1.91-4.25,4.25-4.25s4.25,1.91,4.25,4.25v8.5c0,2.34-1.91,4.25-4.25,4.25s-4.25-1.91-4.25-4.25v-1.87ZM206.38,158.8v-6.63c0-2.34,1.91-4.25,4.25-4.25s4.25,1.91,4.25,4.25v8.5c0,2.34-1.91,4.25-4.25,4.25s-4.25-1.91-4.25-4.25v-1.87ZM182.99,158.8v-6.63c0-2.34,1.91-4.25,4.25-4.25s4.25,1.91,4.25,4.25v8.5c0,2.34-1.91,4.25-4.25,4.25s-4.25-1.91-4.25-4.25v-1.87ZM159.61,158.83v-6.66c0-2.34,1.91-4.25,4.25-4.25s4.25,1.91,4.25,4.25v8.5c0,2.34-1.91,4.25-4.25,4.25s-4.25-1.91-4.25-4.25v-1.85ZM253.14,238.85c0,7.29-5.93,13.23-13.23,13.23h-79.83c-7.29,0-13.23-5.93-13.23-13.23v-59.05h106.29v59.05ZM146.86,177.68v-5.65c0-6.4,4.58-11.76,10.63-12.97v1.61c0,3.52,2.86,6.38,6.38,6.38s6.38-2.86,6.38-6.38v-1.87h10.63v1.87c0,3.52,2.86,6.38,6.38,6.38s6.38-2.86,6.38-6.38v-1.87h10.63v1.87c0,3.52,2.86,6.38,6.38,6.38s6.38-2.86,6.38-6.38v-1.87h10.63v1.87c0,3.52,2.86,6.38,6.38,6.38s6.38-2.86,6.38-6.38v-1.85c7.07.25,12.75,6.07,12.75,13.2v5.65h-106.29Z"/>
  </g>
</svg>