<?xml version="1.0" encoding="UTF-8"?>
<svg id="Capa_1" data-name="Capa 1" xmlns="http://www.w3.org/2000/svg" viewBox="0 0 148.9 148.9">
  <defs>
    <style>
      .cls-1 {
        fill: none;
      }

      .cls-1, .cls-2 {
        stroke-width: 0px;
      }
    </style>
  </defs>
  <g>
    <path class="cls-1" d="M75.51,123.82c-4.74-5.74-4.68-14.34-4.33-18.37H8.96v8.55c.31,1.43,2.82,11.3,12.41,11.55,11.64.31,46.14,0,46.49,0h.02c.25,0,.48.05.7.14h8.78c-.66-.56-1.28-1.18-1.85-1.87Z"/>
    <path class="cls-1" d="M34.77,23.21c-.76.07-7.71.89-8.23,7.61l-.4,70.87h47.17c.56,0,1.08.25,1.44.67.36.42.51.99.42,1.53-.02.11-1.87,11.33,3.27,17.54,2.19,2.65,5.45,4.04,9.67,4.11,3.71.07,6.61-.95,8.63-3.03,3.68-3.79,3.8-10.2,3.68-12.79-.07-1.52-.1-2.91-.1-4.24l.14-55.81.15-18.59c0-.08,0-.16.02-.25.27-1.95,1.34-4.8,3.61-7.08l-69.46-.55Z"/>
    <path class="cls-1" d="M113.81,23.84c-7.87,0-9.27,6.46-9.44,7.42l-.13,16.74,18.36-.18v-18.23c-.1-.8-1.04-5.75-8.79-5.75Z"/>
    <path class="cls-2" d="M126.36,29.33c-.27-3.2-3.23-9.25-12.53-9.26,0,0,0,0,0,0l-79.1-.63s-.09,0-.14,0c-3.82.25-11.21,2.92-11.8,11.16,0,.04,0,.08,0,.12l-.4,70.95H7.08c-1.04,0-1.88.84-1.88,1.88v10.62c0,.12.01.23.03.35.03.15.7,3.63,2.95,7.17,3.08,4.83,7.6,7.46,13.09,7.61,3.93.1,10.43.14,17.35.14,10.5,0,21.95-.08,26.84-.12.2.07.41.12.64.12h20.16c.28,0,.55-.07.79-.18.32.02.65.03.99.04,4.79.09,8.63-1.31,11.41-4.17,4.71-4.84,4.89-12.51,4.74-15.59-.07-1.46-.1-2.79-.1-4.06l.13-53.73,20.28-.19c1.03-.01,1.87-.85,1.87-1.88v-20.19c0-.05,0-.1,0-.16ZM68.58,125.69c-.22-.09-.45-.14-.7-.14h-.02c-.35,0-34.85.31-46.49,0-9.59-.25-12.1-10.12-12.41-11.55v-8.55h62.22c-.34,4.02-.41,12.62,4.33,18.37.57.69,1.18,1.31,1.85,1.87h-8.78ZM100.62,30.84c-.01.08-.02.16-.02.25l-.15,18.59-.14,55.81c0,1.33.03,2.72.1,4.24.12,2.58,0,9-3.68,12.79-2.02,2.08-4.92,3.1-8.63,3.03-4.23-.08-7.48-1.46-9.67-4.11-5.13-6.2-3.29-17.43-3.27-17.54.1-.55-.06-1.11-.42-1.53-.36-.43-.89-.67-1.44-.67H26.14l.4-70.87c.52-6.72,7.47-7.54,8.23-7.61l69.46.55c-2.27,2.28-3.34,5.13-3.61,7.08ZM122.6,47.82l-18.36.18.13-16.74c.16-.95,1.57-7.42,9.44-7.42s8.69,4.95,8.79,5.75v18.23Z"/>
  </g>
  <path class="cls-2" d="M88.13,84.42h-49.66c-.87,0-1.57-.7-1.57-1.57s.7-1.57,1.57-1.57h49.66c.87,0,1.57.7,1.57,1.57s-.7,1.57-1.57,1.57Z"/>
  <path class="cls-2" d="M88.13,93.84h-49.66c-.87,0-1.57-.7-1.57-1.57s.7-1.57,1.57-1.57h49.66c.87,0,1.57.7,1.57,1.57s-.7,1.57-1.57,1.57Z"/>
  <g>
    <path class="cls-1" d="M63.42,36.69l-13.33,6.75-.02,17.16c.2.7,2.06,5.94,13.35,11.15,11.19-5.17,13.11-10.36,13.35-11.17l-.02-17.15-13.33-6.75Z"/>
    <path class="cls-2" d="M80.51,42.28c0-.71-.4-1.36-1.03-1.68l-14.87-7.53c-.38-.19-.8-.24-1.19-.17-.39-.07-.81-.03-1.19.17l-14.87,7.53c-.63.32-1.03.97-1.03,1.68l-.02,18.52c0,.09,0,.19.02.28.12.78,1.56,7.79,15.98,14.31.25.11.52.17.77.17.12,0,.23-.01.34-.04.11.02.23.04.34.04.26,0,.52-.05.77-.17,14.42-6.51,15.86-13.53,15.98-14.31.01-.09.02-.19.02-.28l-.02-18.52ZM63.42,71.76c-11.29-5.21-13.15-10.45-13.35-11.15l.02-17.16,13.33-6.75,13.33,6.75.02,17.15c-.24.81-2.16,6-13.35,11.17Z"/>
  </g>
  <path class="cls-2" d="M60.02,61.33l-5.57-5.57c-.78-.78-.78-2.05,0-2.83h0c.78-.78,2.05-.78,2.83,0l3.03,3.03c.08.08.21.08.29,0l9.04-9.04c.78-.78,2.05-.78,2.83,0h0c.78.78.78,2.05,0,2.83l-11.59,11.59c-.24.24-.63.24-.87,0Z"/>
</svg>