<?xml version="1.0" encoding="UTF-8"?>
<svg id="Capa_1" data-name="Capa 1" xmlns="http://www.w3.org/2000/svg" viewBox="0 0 400 400">
  <defs>
    <style>
      .cls-1 {
        fill: none;
      }

      .cls-1, .cls-2 {
        stroke-width: 0px;
      }
    </style>
  </defs>
  <path class="cls-2" d="M157.69,207.49c.08-3.56,1.09-6.54,3.3-9.11.91-1.05,1.96-1.85,3.12-2.56,3.69-2.27,7.57-2.31,11.32-.45,3.68,1.83,5.98,4.96,6.8,9.03.82,4.04.03,7.75-2.46,11.1-3.87,5.2-10.5,6.16-15.43,3.41-3.67-2.05-5.79-5.34-6.47-9.52-.11-.69-.14-1.4-.18-1.89ZM179.19,207.33c-.06-.59-.1-1.15-.17-1.71-.03-.28-.09-.56-.16-.83-1.07-3.84-3.56-6.22-7.45-7.06-2.01-.43-3.88.18-5.64,1.16-3.28,1.82-5.14,5.84-4.6,9.7.47,3.37,2.25,5.92,5.26,7.4,2.63,1.29,5.35,1.2,7.97-.36,3.18-1.9,4.57-4.75,4.78-8.31Z"/>
  <path class="cls-2" d="M226.17,164.62c.08-2.82.7-4.84,1.99-6.69,3.11-4.44,8.77-5.07,12.64-2.62,2.6,1.65,4.15,4.11,4.57,7.18.46,3.32-.38,6.27-2.67,8.79-.75.83-1.64,1.41-2.59,1.96-2.41,1.38-4.96,1.48-7.47.52-2.93-1.12-4.95-3.26-5.89-6.29-.34-1.1-.48-2.27-.59-2.84ZM228.8,164.09c.06.53.07,1.08.19,1.61.14.58.37,1.14.59,1.7.88,2.22,3.63,4.17,6,4.16.76,0,1.55-.16,2.28-.4,2.98-.95,4.54-3.13,4.94-6.12.44-3.32-1.06-6.1-3.77-7.58-2.31-1.26-4.7-1.17-6.96.39-2.2,1.51-3.14,3.64-3.28,6.25Z"/>
  <g>
    <path class="cls-1" d="M172.02,251c-.46.48-.98.9-1.47,1.35h-.85c-.48-.43-.97-.84-1.42-1.3-.83-.85-1.64-1.73-2.46-2.6-1.3-1.38-2.64-2.73-3.88-4.15-5.07,1.3-8.22,3.7-8.22,5.93,0,3.27,6.77,6.91,16.47,6.91s16.47-3.64,16.47-6.91c0-2.26-3.23-4.69-8.43-5.98-.52.57-1.02,1.16-1.54,1.73-1.54,1.69-3.11,3.37-4.68,5.03Z"/>
    <path class="cls-1" d="M166.04,243.55s.06.07.09.1c1.3,1.43,2.6,2.86,4,4.4.69-.77,1.27-1.44,1.87-2.09.73-.81,1.47-1.62,2.21-2.42.81-.88,1.63-1.76,2.42-2.66.05-.06.11-.12.16-.18,1.42-1.6,2.83-3.21,4.15-4.89,1.96-2.5,3.92-5.02,5.68-7.66,1.64-2.46,3.1-5.06,4.51-7.67,1.74-3.23,2.91-6.69,3.6-10.31.99-5.17.51-10.18-1.65-15-1.26-2.82-3.06-5.31-5.11-7.6-1.75-1.96-3.75-3.7-6.07-4.91-2.05-1.08-4.25-2-6.49-2.56-4.21-1.04-8.44-.92-12.57.61-1.8.66-3.56,1.35-5.19,2.4-2.26,1.46-4.23,3.2-5.99,5.23-1.99,2.31-3.62,4.81-4.8,7.62-1.72,4.09-2.15,8.33-1.58,12.69.59,4.49,2.14,8.69,4.23,12.66,1.37,2.6,2.9,5.14,4.56,7.57,1.8,2.64,3.76,5.19,5.79,7.67,1.16,1.43,2.39,2.8,3.62,4.17.79.87,1.58,1.75,2.36,2.63.06.07.13.14.19.21Z"/>
    <path class="cls-2" d="M195.65,192.63c-1.38-2.79-3.2-5.28-5.28-7.58-1.73-1.91-3.68-3.61-5.86-4.96-1.6-.99-3.29-1.92-5.07-2.52-6.54-2.21-13.09-2.33-19.54.46-1.67.72-3.3,1.49-4.81,2.55-2.14,1.5-4.05,3.21-5.77,5.18-2.08,2.38-3.82,4.96-5.14,7.84-1.28,2.78-2.06,5.68-2.37,8.71-.59,5.87.7,11.43,2.9,16.81,1.4,3.43,3.17,6.68,5.21,9.77,1.7,2.57,3.48,5.1,5.38,7.53,1.4,1.79,2.88,3.53,4.36,5.25,1.19-.38,2.47-.7,3.82-.94-1.23-1.37-2.46-2.74-3.62-4.17-2.02-2.48-3.98-5.02-5.79-7.67-1.66-2.43-3.19-4.97-4.56-7.57-2.1-3.97-3.64-8.17-4.23-12.66-.57-4.37-.14-8.6,1.58-12.69,1.18-2.81,2.81-5.32,4.8-7.62,1.75-2.04,3.72-3.77,5.99-5.23,1.63-1.05,3.39-1.73,5.19-2.4,4.14-1.53,8.37-1.65,12.57-.61,2.24.56,4.44,1.48,6.49,2.56,2.31,1.21,4.32,2.95,6.07,4.91,2.05,2.29,3.84,4.78,5.11,7.6,2.16,4.82,2.63,9.83,1.65,15-.69,3.62-1.86,7.07-3.6,10.31-1.41,2.61-2.87,5.21-4.51,7.67-1.76,2.64-3.72,5.15-5.68,7.66-1.31,1.68-2.73,3.29-4.15,4.89,1.34.24,2.61.55,3.79.92.23-.26.47-.52.69-.78,1.41-1.65,2.82-3.32,4.11-5.06,1.85-2.5,3.7-5,5.35-7.63,1.53-2.45,2.88-5.04,4.16-7.63,1.59-3.21,2.62-6.61,3.23-10.14,1.08-6.18.31-12.1-2.47-17.74Z"/>
    <path class="cls-2" d="M170.13,248.05c-1.39-1.53-2.69-2.97-4-4.4-.03-.03-.06-.07-.09-.1-1.47.17-2.85.42-4.1.74,1.25,1.43,2.58,2.77,3.88,4.15.82.87,1.62,1.75,2.46,2.6.45.46.95.87,1.42,1.3h.85c.49-.45,1.02-.87,1.47-1.35,1.57-1.66,3.14-3.33,4.68-5.03.52-.57,1.02-1.16,1.54-1.73-1.24-.31-2.6-.54-4.04-.7-.74.8-1.47,1.61-2.21,2.42-.6.65-1.18,1.32-1.87,2.09Z"/>
    <path class="cls-2" d="M176.62,240.88c-.79.9-1.61,1.77-2.42,2.66,1.45.16,2.8.4,4.04.7,5.2,1.29,8.43,3.72,8.43,5.98,0,3.27-6.77,6.91-16.47,6.91s-16.47-3.64-16.47-6.91c0-2.23,3.15-4.62,8.22-5.93,1.25-.32,2.63-.57,4.1-.74-.07-.07-.13-.14-.19-.21-.78-.88-1.57-1.75-2.36-2.63-1.35.25-2.63.56-3.82.94-5.52,1.77-9.13,4.9-9.13,8.56,0,5.66,8.64,10.1,19.66,10.1s19.66-4.44,19.66-10.1c0-3.69-3.68-6.85-9.29-8.61-1.18-.37-2.45-.68-3.79-.92-.05.06-.11.12-.16.18Z"/>
  </g>
  <g>
    <path class="cls-1" d="M232.82,192.49c.13.14.26.28.39.42.06.07.12.14.18.2.8.88,1.61,1.77,2.48,2.72.3-.36.53-.66.78-.93.73-.8,1.47-1.6,2.2-2.4.5-.54,1-1.07,1.49-1.62.36-.4.72-.81,1.08-1.21.79-.89,1.57-1.78,2.3-2.71,1.55-1.95,3.1-3.9,4.51-5.96,1.3-1.9,2.47-3.91,3.6-5.92,1.43-2.56,2.43-5.29,3.05-8.16.55-2.56.66-5.14.22-7.72-.64-3.71-2.38-6.89-4.78-9.74-1.22-1.45-2.59-2.78-4.18-3.79-1.31-.83-2.7-1.61-4.17-2.1-4.91-1.64-9.75-1.44-14.41.97-.83.43-1.61.97-2.4,1.48-1.68,1.09-3.02,2.54-4.27,4.09-1.45,1.79-2.59,3.73-3.4,5.88-1.21,3.23-1.42,6.54-.85,9.92.72,4.33,2.51,8.25,4.77,11.96,1.18,1.94,2.45,3.84,3.82,5.65,1.59,2.11,3.31,4.12,5.01,6.14.03.04.06.07.09.11.79.94,1.65,1.82,2.49,2.72Z"/>
    <path class="cls-1" d="M237.06,198.42c-.27.28-.58.52-.88.78h-.66c-.26-.22-.53-.42-.76-.67-1.62-1.7-3.24-3.4-4.83-5.13-.09-.1-.17-.2-.26-.3-3.17.91-5.04,2.42-5.04,3.59,0,1.8,4.35,4.41,11.16,4.41s11.16-2.61,11.16-4.41c0-1.17-1.86-2.67-5.03-3.59-.54.6-1.07,1.2-1.61,1.79-1.08,1.18-2.17,2.35-3.26,3.52Z"/>
    <path class="cls-2" d="M235.87,195.83c-.87-.95-1.67-1.84-2.48-2.72-.06-.07-.12-.14-.18-.2-.13-.14-.26-.28-.39-.42-1.15.14-2.21.35-3.14.62.09.1.17.2.26.3,1.59,1.73,3.21,3.42,4.83,5.13.23.24.51.44.76.67h.66c.29-.26.61-.5.88-.78,1.1-1.16,2.19-2.33,3.26-3.52.54-.59,1.07-1.2,1.61-1.79-.92-.27-1.95-.47-3.08-.61-.74.8-1.47,1.6-2.2,2.4-.25.28-.49.58-.78.93Z"/>
    <path class="cls-2" d="M253.66,149.39c-.96-1.34-2.06-2.6-3.24-3.75-1.68-1.65-3.62-2.98-5.76-3.97-1.15-.53-2.39-.9-3.61-1.23-1.2-.32-2.44-.51-3.67-.75h-3.07c-.47.11-.94.24-1.42.31-2.33.35-4.57.96-6.67,2.1-1.98,1.08-3.77,2.37-5.36,3.97-1.22,1.23-2.31,2.56-3.29,3.99-1.25,1.84-2.21,3.8-2.89,5.92-1.04,3.27-1.22,6.59-.72,9.96.63,4.24,2.2,8.15,4.29,11.86,1.1,1.96,2.31,3.88,3.62,5.71,1.49,2.09,3.1,4.08,4.72,6.08.25.31.52.59.78.89.88-.33,1.83-.6,2.85-.82-1.71-2.02-3.42-4.04-5.01-6.14-1.37-1.81-2.64-3.71-3.82-5.65-2.26-3.71-4.04-7.63-4.77-11.96-.56-3.37-.36-6.69.85-9.92.81-2.15,1.95-4.1,3.4-5.88,1.25-1.55,2.59-3,4.27-4.09.79-.51,1.56-1.05,2.4-1.48,4.66-2.41,9.5-2.62,14.41-.97,1.46.49,2.86,1.27,4.17,2.1,1.59,1.02,2.96,2.34,4.18,3.79,2.39,2.85,4.14,6.03,4.78,9.74.45,2.59.33,5.16-.22,7.72-.62,2.87-1.62,5.61-3.05,8.16-1.13,2.02-2.3,4.02-3.6,5.92-1.41,2.05-2.96,4.01-4.51,5.96-.74.93-1.52,1.82-2.3,2.71,1.02.22,1.97.5,2.85.83.99-1.15,1.98-2.31,2.89-3.52,1.48-1.96,2.96-3.92,4.29-5.98,1.24-1.92,2.34-3.94,3.38-5.98,1.56-3.08,2.56-6.34,2.98-9.78.72-5.84-.74-11.11-4.14-15.84Z"/>
    <path class="cls-2" d="M240.34,190.88c-.49.55-.99,1.08-1.49,1.62,1.13.14,2.16.35,3.08.61,3.16.91,5.03,2.42,5.03,3.59,0,1.8-4.35,4.41-11.16,4.41s-11.16-2.61-11.16-4.41c0-1.17,1.87-2.67,5.04-3.59.94-.27,1.99-.48,3.14-.62-.84-.9-1.7-1.78-2.49-2.72-.03-.04-.06-.07-.09-.11-1.02.22-1.97.49-2.85.82-3.64,1.35-5.93,3.59-5.93,6.22,0,4.33,6.17,7.6,14.35,7.6s14.35-3.27,14.35-7.6c0-2.63-2.28-4.85-5.88-6.21-.88-.33-1.83-.61-2.85-.83-.36.41-.72.81-1.08,1.21Z"/>
  </g>
  <path class="cls-2" d="M243,249.69h-5.31c-.88,0-1.59-.71-1.59-1.59s.71-1.59,1.59-1.59h5.31c.88,0,1.59.71,1.59,1.59s-.71,1.59-1.59,1.59ZM232.37,249.69h-5.31c-.88,0-1.59-.71-1.59-1.59s.71-1.59,1.59-1.59h5.31c.88,0,1.59.71,1.59,1.59s-.71,1.59-1.59,1.59ZM221.75,249.69h-5.31c-.88,0-1.59-.71-1.59-1.59s.71-1.59,1.59-1.59h5.31c.88,0,1.59.71,1.59,1.59s-.71,1.59-1.59,1.59ZM211.12,249.69h-5.31c-.88,0-1.59-.71-1.59-1.59s.71-1.59,1.59-1.59h5.31c.88,0,1.59.71,1.59,1.59s-.71,1.59-1.59,1.59ZM200.49,249.69h-5.31c-.88,0-1.59-.71-1.59-1.59s.71-1.59,1.59-1.59h5.31c.88,0,1.59.71,1.59,1.59s-.71,1.59-1.59,1.59ZM248.26,249.26c-.63,0-1.23-.38-1.48-1-.33-.82.06-1.75.88-2.08.99-.4,2.47-1.18,3.86-2.58.62-.62,1.63-.63,2.25-.01.63.62.63,1.63.01,2.25-1.77,1.79-3.66,2.78-4.93,3.29-.2.08-.4.12-.6.12ZM255.54,241.92c-.2,0-.41-.04-.61-.12-.81-.34-1.2-1.27-.87-2.08.57-1.39.94-2.97,1.08-4.68.07-.88.83-1.53,1.73-1.45.88.07,1.53.85,1.45,1.73-.17,2.04-.62,3.93-1.31,5.62-.25.62-.85.99-1.47.99ZM256.49,231.48c-.74,0-1.4-.51-1.56-1.26-.34-1.59-.97-2.97-1.88-4.11-.55-.69-.44-1.69.25-2.24.69-.55,1.69-.44,2.24.25,1.22,1.53,2.07,3.36,2.51,5.44.18.86-.37,1.71-1.23,1.89-.11.02-.22.03-.33.03ZM250.12,223.5c-.22,0-.45-.05-.67-.15-1.85-.86-3.67-1.15-4.6-1.24-.88-.09-1.52-.87-1.43-1.74.09-.88.88-1.53,1.74-1.43,1.38.14,3.48.51,5.63,1.52.8.37,1.14,1.32.77,2.12-.27.58-.85.92-1.45.92ZM239.69,222.05h-5.31c-.88,0-1.59-.71-1.59-1.59s.71-1.59,1.59-1.59h5.31c.88,0,1.59.71,1.59,1.59s-.71,1.59-1.59,1.59ZM229.06,222.05h-5.31c-.88,0-1.59-.71-1.59-1.59s.71-1.59,1.59-1.59h5.31c.88,0,1.59.71,1.59,1.59s-.71,1.59-1.59,1.59ZM218.43,222.05h-5.31c-.88,0-1.59-.71-1.59-1.59s.71-1.59,1.59-1.59h5.31c.88,0,1.59.71,1.59,1.59s-.71,1.59-1.59,1.59ZM207.8,222.05h-.11c-.18,0-.35-.03-.52-.09-.11-.04-2.73-.97-4.77-3.81-.51-.72-.35-1.71.37-2.23.72-.51,1.71-.35,2.23.37,1.31,1.82,2.92,2.54,3.19,2.65.66.21,1.15.81,1.15,1.52,0,.88-.66,1.59-1.54,1.59ZM201.74,213.93c-.77,0-1.44-.56-1.57-1.34-.14-.89-.22-1.82-.21-2.76,0-1.07.09-2.1.27-3.07.16-.87,1.01-1.44,1.86-1.28.87.16,1.44.99,1.28,1.86-.14.77-.22,1.61-.22,2.49,0,.78.06,1.53.17,2.25.14.87-.45,1.69-1.32,1.83-.09.01-.17.02-.26.02ZM203.86,203.81c-.34,0-.67-.11-.96-.32-.7-.53-.84-1.53-.3-2.23,1.94-2.56,4.43-3.64,5.1-3.64h.39c.88,0,1.59.71,1.59,1.59s-.71,1.59-1.59,1.59h-.07c-.49.23-1.77.93-2.88,2.38-.31.41-.79.63-1.27.63ZM214.09,200.8h-.69c-.88,0-1.59-.71-1.59-1.59s.71-1.59,1.59-1.59h.69c.88,0,1.59.71,1.59,1.59s-.71,1.59-1.59,1.59Z"/>
</svg>