<?xml version="1.0" encoding="UTF-8"?>
<svg id="Capa_1" data-name="Capa 1" xmlns="http://www.w3.org/2000/svg" viewBox="0 0 400 400">
  <defs>
    <style>
      .cls-1 {
        stroke-width: 0px;
      }
    </style>
  </defs>
  <g>
    <path class="cls-1" d="M160.26,202.24h-21.62c-1.17,0-2.13.95-2.13,2.13s.95,2.13,2.13,2.13h19.49v41.93h-18.02c-1.17,0-2.13.95-2.13,2.13s.95,2.13,2.13,2.13h20.15c1.17,0,2.13-.95,2.13-2.13v-46.19c0-1.17-.95-2.13-2.13-2.13Z"/>
    <path class="cls-1" d="M259.69,214.27c-2.29-1.62-5.25-2.07-8.8-1.36-.15.03-.29.08-.43.14l-26.91,11.77c.07-.44.12-.88.12-1.32,0-2.06-.76-4.03-2.21-5.71-1.53-1.78-3.84-2.79-6.33-2.79h-17.91c-.53,0-1.04-.1-1.54-.28l-14.48-5.53c-.98-.37-2.01-.56-3.06-.56h-11.88c-1.17,0-2.13.95-2.13,2.13s.95,2.13,2.13,2.13h11.88c.53,0,1.05.1,1.54.28l14.48,5.53c.98.37,2.01.56,3.05.56h17.91c1.25,0,2.38.48,3.11,1.32.78.9,1.18,1.89,1.18,2.93s-.4,2.03-1.18,2.93c-.73.84-1.86,1.32-3.11,1.32h-18.47c-1.17,0-2.13.95-2.13,2.13s.95,2.13,2.13,2.13h18.47c.48,0,.94-.07,1.4-.14.5.19,1.08.2,1.61-.04l33.79-14.78c2.26-.41,4.04-.17,5.3.71,1.64,1.16,2.23,3.27,2.45,4.55l-52.18,28.09c-.83.44-1.76.63-2.69.51l-10.02-1.15c-.28-.03-.55-.1-.82-.19l-18.79-6.48c-.88-.3-1.8-.46-2.73-.46h-6.19c-1.17,0-2.13.95-2.13,2.13s.95,2.13,2.13,2.13h6.19c.46,0,.91.08,1.35.23l18.79,6.48c.55.19,1.13.32,1.72.39l10.02,1.15c.34.04.68.06,1.02.06,1.45,0,2.88-.36,4.17-1.05l52.34-28.18c1.47-.79,2.3-2.44,2.06-4.09-.28-1.92-1.21-5.46-4.23-7.59Z"/>
  </g>
  <g>
    <path class="cls-1" d="M216.05,173.95c-.03-.18-.02-.24.11-.36,2.23-2.17,4.46-4.36,6.68-6.54l3.23-3.16c.42-.42.95-1.08.62-2.04-.37-1.08-1.38-1.22-1.71-1.27-1.12-.15-2.23-.31-3.35-.47l-2.66-.38c-2.58-.37-5.16-.73-7.75-1.1-.13-.02-.15-.03-.2-.14-.8-1.62-1.6-3.24-2.41-4.86l-3.79-7.62c-.58-1.17-1.45-1.28-2.08-1.16-.88.17-1.25.91-1.42,1.26l-1.65,3.38c-1.41,2.88-2.83,5.77-4.22,8.66-.2.41-.39.55-.85.61-2.44.35-4.87.71-7.3,1.07-1.97.29-3.94.59-5.91.87-.95.14-1.56.58-1.87,1.36l-.04,1.02.38.47c.2.26.41.51.64.74l4.26,4.14c1.81,1.76,3.62,3.51,5.42,5.27.05.05.1.13.1.13-.28,1.79-.59,3.57-.89,5.36l-.39,2.32c-.36,2.11-.71,4.22-1.06,6.33-.15.94.32,1.77,1.18,2.06.2.07.39.1.57.1.43,0,.8-.16,1.11-.32l5.05-2.68c2.4-1.27,4.79-2.54,7.19-3.81.16-.09.19-.08.32-.01,2.78,1.46,5.56,2.92,8.35,4.37l3.96,2.07c.8.42,1.51.39,2.13-.07.89-.66.71-1.66.65-1.98l-2.4-13.64ZM192.96,179.84c.34-2.03.68-4.05,1.03-6.08.15-.83-.09-1.53-.71-2.13-1.87-1.8-3.74-3.61-5.6-5.42l-2.48-2.41,11.29-1.67c.75-.11,1.28-.51,1.63-1.23,1.29-2.66,2.59-5.31,3.9-7.97l1.09-2.23,1.09,2.19c1.3,2.61,2.6,5.23,3.89,7.84.4.82,1,1.26,1.88,1.38,2.87.4,5.74.81,8.61,1.21l2.53.36-2.58,2.53c-1.79,1.76-3.59,3.52-5.4,5.26-.69.66-.93,1.4-.76,2.33.53,2.92,1.04,5.85,1.55,8.78l.38,2.22-2.01-1.05c-2.65-1.38-5.3-2.76-7.94-4.16-.79-.42-1.53-.41-2.33.01-2.66,1.43-5.33,2.83-7.99,4.25l-1.91,1.01.84-5.04Z"/>
    <path class="cls-1" d="M255.18,170.07c-.22-.64-.73-1.02-1.53-1.13l-5.64-.8c-2.04-.29-4.09-.58-6.13-.87l-.07.53h0l-.04-.61c-.7-1.42-1.4-2.84-2.11-4.26l-3.2-6.42c-.52-1.05-1.3-1.14-1.86-1.03-.79.15-1.11.81-1.27,1.12l-1.35,2.76c-1.23,2.51-2.46,5.02-3.67,7.54-.16.33-.3.43-.67.48l-1.86.27.11.55c.14.68.22,1.38.23,2.07v.6s3.16-.46,3.16-.46c.66-.1,1.15-.46,1.45-1.09,1.26-2.59,2.53-5.18,3.8-7.76l.4-.82.84,1.68c1.12,2.25,2.25,4.51,3.36,6.77.35.72.9,1.12,1.66,1.22,2.49.34,4.99.7,7.48,1.05l1.9.27-2.16,2.11c-1.52,1.49-3.03,2.97-4.56,4.45-.61.59-.82,1.24-.67,2.06.45,2.48.88,4.96,1.31,7.45l.31,1.81-1.42-.74c-2.32-1.21-4.64-2.42-6.95-3.64-.7-.37-1.36-.37-2.06.01-2.26,1.21-4.52,2.4-6.78,3.6l-1.55.82.65-3.88c.31-1.83.61-3.66.93-5.48.13-.74-.08-1.36-.63-1.89l-2.06-1.99-.36.5c-.4.56-.88,1.07-1.41,1.53l-.44.38,1.52,1.47s.06.09.07.05c-.24,1.54-.51,3.08-.77,4.61l-.42,2.48c-.28,1.63-.55,3.26-.82,4.9-.14.84.29,1.58,1.06,1.85.18.06.35.09.51.09.38,0,.72-.14.98-.28l4.39-2.33c2.03-1.07,4.05-2.15,6.08-3.22.11-.06.11-.06.21,0,2.38,1.25,4.77,2.5,7.16,3.75l3.37,1.76c.71.37,1.35.35,1.91-.07.8-.59.64-1.48.59-1.77l-2.05-11.67c-.02-.13-.01-.15.07-.24,1.97-1.92,3.94-3.85,5.91-5.79l2.56-2.51c.22-.21.88-.86.55-1.82Z"/>
    <path class="cls-1" d="M178,167.19c-.7-1.42-1.4-2.84-2.11-4.26l-3.19-6.42c-.52-1.05-1.31-1.14-1.86-1.03-.79.15-1.11.81-1.27,1.12l-1.35,2.76c-1.23,2.51-2.46,5.02-3.67,7.54-.16.33-.3.43-.67.48-2.07.29-4.13.6-6.2.91-1.7.25-3.4.51-5.11.75-.85.12-1.39.52-1.66,1.22l-.04.93.35.42c.18.22.35.44.55.64l3.77,3.66c1.51,1.46,3.01,2.92,4.52,4.39.03.03.06.09.07.05-.24,1.54-.51,3.08-.77,4.61l-.42,2.48c-.28,1.63-.55,3.26-.82,4.9-.14.84.29,1.58,1.06,1.85.18.06.35.09.51.09.38,0,.72-.14.98-.28l4.39-2.33c2.03-1.07,4.05-2.15,6.08-3.22.11-.06.11-.06.21,0,2.38,1.25,4.77,2.5,7.16,3.75l3.37,1.76c.71.37,1.35.35,1.91-.07.8-.59.64-1.48.59-1.77l-2.05-11.67h0c-.02-.14-.01-.15.07-.24l2.01-1.97-.27-.37c-.42-.58-.77-1.2-1.05-1.86l-.31-.71-1.36,1.33c-.57.56-1.15,1.12-1.73,1.68-.61.59-.82,1.24-.67,2.06.45,2.48.88,4.96,1.31,7.45l.31,1.81-1.42-.74c-2.32-1.21-4.64-2.42-6.95-3.64-.7-.37-1.36-.37-2.06.01-2.26,1.21-4.52,2.4-6.78,3.6l-1.55.82.65-3.88c.31-1.83.61-3.66.93-5.48.13-.74-.08-1.36-.63-1.89-1.56-1.5-3.11-3-4.66-4.51l-2.14-2.08,9.51-1.41c.66-.1,1.15-.46,1.45-1.09,1.26-2.59,2.53-5.18,3.8-7.76l.4-.82.84,1.68c1.12,2.25,2.25,4.51,3.36,6.77.35.72.9,1.12,1.66,1.22,1.08.15,2.15.3,3.22.45l1.91.27.04-.56c.05-.69.17-1.39.36-2.07l.15-.58-4.6-.65"/>
  </g>
  <circle class="cls-1" cx="150.34" cy="243.69" r="3.19"/>
</svg>