<?xml version="1.0" encoding="UTF-8"?>
<svg id="Capa_1" data-name="Capa 1" xmlns="http://www.w3.org/2000/svg" viewBox="0 0 50.13 50.13">
  <defs>
    <style>
      .cls-1 {
        fill: #999;
        stroke-width: 0px;
      }
    </style>
  </defs>
  <path class="cls-1" d="M21.28,21.75c-1.03-.53-2.03-1.04-3.03-1.55-5.29-2.69-10.58-5.38-15.88-8.07-.89-.45-.98-1-.26-1.72,1.2-1.21,2.42-2.4,3.61-3.63.42-.44.85-.58,1.45-.43,6.91,1.61,13.82,3.2,20.73,4.8.91.21,1.82.4,2.72.64.38.1.64.04.92-.25,2.86-2.89,5.72-5.78,8.61-8.64,2.78-2.74,7.36-1.51,8.35,2.24.49,1.87-.04,3.48-1.38,4.83-2.8,2.82-5.61,5.64-8.44,8.44-.38.38-.49.7-.36,1.24,1.8,7.73,3.56,15.46,5.36,23.18.16.71.04,1.19-.48,1.69-1.21,1.15-2.37,2.36-3.55,3.54-.72.72-1.26.63-1.72-.28-3.1-6.12-6.2-12.24-9.3-18.35-.09-.18-.19-.36-.31-.58-.15.14-.27.24-.37.34-2.66,2.67-5.32,5.33-7.99,7.99-.25.25-.33.48-.26.83.45,2.05.86,4.1,1.3,6.14.11.51.03.91-.37,1.29-.95.92-1.87,1.86-2.8,2.8-.75.75-1.27.67-1.75-.26-1.49-2.93-2.97-5.87-4.47-8.79-.14-.27-.4-.54-.67-.68-2.92-1.51-5.85-2.99-8.78-4.48-.91-.46-.99-1-.28-1.72.94-.95,1.9-1.88,2.83-2.85.36-.38.75-.47,1.24-.36,2.08.45,4.15.89,6.24,1.31.2.04.5-.03.64-.16,2.79-2.76,5.55-5.55,8.33-8.32.02-.02.04-.06.11-.15ZM39.08,46.25c.88-.88,1.68-1.72,2.53-2.52.35-.33.44-.62.33-1.09-1.81-7.79-3.59-15.59-5.4-23.39-.15-.63,0-1.06.44-1.51,2.47-2.45,4.93-4.93,7.39-7.39.58-.59,1.19-1.15,1.74-1.76,1.62-1.78.88-4.63-1.41-5.36-1.32-.42-2.45-.05-3.41.92-3.01,3.02-6.02,6.03-9.02,9.05-.37.38-.76.52-1.28.39-2.31-.54-4.62-1.07-6.92-1.61-5.59-1.29-11.19-2.58-16.78-3.88-.3-.07-.48-.02-.69.19-.78.81-1.59,1.6-2.38,2.4-.09.09-.17.2-.26.32.13.07.22.12.32.17,6.18,3.14,12.37,6.29,18.55,9.43.9.46,1,1.02.3,1.73-3.14,3.15-6.29,6.3-9.43,9.46-.38.38-.77.48-1.29.36-2.04-.45-4.09-.87-6.13-1.29-.19-.04-.47-.06-.58.04-.67.61-1.31,1.26-1.99,1.94.23.13.38.22.53.29,2.6,1.32,5.21,2.63,7.79,3.98.39.2.77.58.97.97,1.35,2.59,2.66,5.2,3.98,7.8.08.17.18.33.32.58.6-.63,1.15-1.23,1.73-1.78.27-.26.31-.5.24-.84-.43-2.01-.83-4.03-1.28-6.04-.14-.61,0-1.03.43-1.46,3.11-3.09,6.2-6.2,9.29-9.3.79-.79,1.31-.7,1.82.29,2.11,4.17,4.23,8.35,6.34,12.52,1.06,2.1,2.13,4.2,3.23,6.37Z"/>
</svg>