<svg xmlns="http://www.w3.org/2000/svg" xmlns:xlink="http://www.w3.org/1999/xlink" width="23" height="26" viewBox="0 0 23 26"><defs><clipPath id="b"><rect width="23" height="26"/></clipPath></defs><g id="a" clip-path="url(#b)"><rect width="23" height="26" fill="#fff"/><path d="M15.529,22.98h0l.707-.707a2,2,0,0,0,0-2.828l-2.414-2.414v-6.44l7.661,3.253.117-.277a2,2,0,0,0-1.06-2.622L13.822,8.092V2.939a2,2,0,0,0-4,0v5.2L3.157,10.829a2,2,0,0,0-1.105,2.6l.112.277,7.658-3.094v6.472l-2.4,2.319a2,2,0,0,0-.05,2.828l.694.719L11.849,19.3l3.679,3.68h0m0,1a1,1,0,0,1-.707-.293L11.837,20.7,8.76,23.674a1,1,0,0,1-1.414-.024l-.695-.72a3,3,0,0,1,.075-4.242l2.1-2.024V12.1L2.538,14.638a1,1,0,0,1-1.3-.552l-.112-.279A3,3,0,0,1,2.782,9.9l6.04-2.441V2.909a3,3,0,0,1,6,0h0V7.43l6.109,2.594a3,3,0,0,1,1.589,3.933l-.117.276a1,1,0,0,1-1.311.53L14.822,12.1v4.515l2.121,2.121a3,3,0,0,1,0,4.243l-.707.707A1,1,0,0,1,15.529,23.98Z" transform="translate(-0.332 1.01)" fill="#707070"/></g></svg>