<?xml version="1.0" encoding="UTF-8"?>
<svg id="Capa_1" data-name="Capa 1" xmlns="http://www.w3.org/2000/svg" viewBox="0 0 148.9 148.9">
  <defs>
    <style>
      .cls-1 {
        fill: none;
      }

      .cls-1, .cls-2 {
        stroke-width: 0px;
      }
    </style>
  </defs>
  <g>
    <path class="cls-1" d="M76.89,54.3h-14.49c-1.77,0-3.2,1.35-3.2,3.01v11.05h20.89v-11.05c0-1.66-1.44-3.01-3.2-3.01Z"/>
    <path class="cls-1" d="M44.39,54.3h-14.49c-1.77,0-3.2,1.35-3.2,3.01v11.05h20.89v-11.05c0-1.66-1.44-3.01-3.2-3.01Z"/>
    <path class="cls-1" d="M24.37,57.32c0-2.87,2.48-5.2,5.52-5.2h14.49c3.05,0,5.52,2.33,5.52,5.2v11.05h6.96v-11.05c0-2.87,2.48-5.2,5.52-5.2h14.49c3.05,0,5.52,2.33,5.52,5.2v11.05h8.13v-18.68c0-5.06-4.12-9.17-9.17-9.17H27.74c-5.06,0-9.17,4.12-9.17,9.17v18.68h5.8v-11.05Z"/>
    <path class="cls-1" d="M98.66,90.14v-10.27c0-5.06-4.12-9.17-9.17-9.17H19.62c-5.06,0-9.17,4.12-9.17,9.17v10.27h88.22Z"/>
    <rect class="cls-1" x="10.44" y="105.51" width="4.64" height="6.96"/>
    <polygon class="cls-1" points="10.44 92.46 10.44 103.19 17.41 103.19 91.7 103.19 98.66 103.19 98.66 92.46 10.44 92.46"/>
    <rect class="cls-1" x="94.02" y="105.51" width="4.64" height="6.96"/>
    <path class="cls-2" d="M92.86,68.93v-19.25c0-6.34-5.16-11.5-11.5-11.5H27.74c-6.34,0-11.5,5.16-11.5,11.5v19.25c-4.69,1.45-8.13,5.78-8.13,10.93v34.93h9.29v-9.29h74.29v9.29h9.29v-34.93c0-5.16-3.44-9.48-8.13-10.93ZM18.57,68.37v-18.68c0-5.06,4.12-9.17,9.17-9.17h53.62c5.06,0,9.17,4.12,9.17,9.17v18.68h-8.13v-11.05c0-2.87-2.48-5.2-5.52-5.2h-14.49c-3.05,0-5.52,2.33-5.52,5.2v11.05h-6.96v-11.05c0-2.87-2.48-5.2-5.52-5.2h-14.49c-3.05,0-5.52,2.33-5.52,5.2v11.05h-5.8ZM59.2,68.37v-11.05c0-1.66,1.44-3.01,3.2-3.01h14.49c1.77,0,3.2,1.35,3.2,3.01v11.05h-20.89ZM26.7,68.37v-11.05c0-1.66,1.44-3.01,3.2-3.01h14.49c1.77,0,3.2,1.35,3.2,3.01v11.05h-20.89ZM19.62,70.69h69.87c5.06,0,9.17,4.12,9.17,9.17v10.27H10.44v-10.27c0-5.06,4.12-9.17,9.17-9.17ZM15.09,112.48h-4.64v-6.96h4.64v6.96ZM98.66,112.48h-4.64v-6.96h4.64v6.96ZM91.7,103.19H10.44v-10.73h88.22v10.73h-6.96Z"/>
  </g>
  <g>
    <path class="cls-1" d="M139.18,68.37h-27.65c-.7,0-1.27.57-1.27,1.27v13.72c0,.7.57,1.27,1.27,1.27h27.65c.7,0,1.27-.57,1.27-1.27v-13.72c0-.7-.57-1.27-1.27-1.27ZM130,77.9c0,.51-.41.92-.92.92h-7.45c-.51,0-.92-.41-.92-.92v-1.65c0-.51.41-.92.92-.92h7.45c.51,0,.92.41.92.92v1.65Z"/>
    <path class="cls-2" d="M139.18,66.05h-27.65c-1.98,0-3.59,1.61-3.59,3.59v33.56h2.32v-16.49c.4.15.82.24,1.27.24h27.65c.45,0,.87-.09,1.27-.24v16.49h2.32v-33.56c0-1.98-1.61-3.59-3.59-3.59ZM140.45,83.35c0,.7-.57,1.27-1.27,1.27h-27.65c-.7,0-1.27-.57-1.27-1.27v-13.72c0-.7.57-1.27,1.27-1.27h27.65c.7,0,1.27.57,1.27,1.27v13.72Z"/>
    <rect class="cls-2" x="120.72" y="75.33" width="9.29" height="3.48" rx=".92" ry=".92"/>
  </g>
  <g>
    <path class="cls-1" d="M128.96,32.62c-.06-.14-.2-.24-.35-.24h-7.45c-.15,0-.29.09-.35.22l-5.93,13.17c-.07.16-.01.3.03.36s.14.17.32.17h18.75c.18,0,.27-.11.31-.17.04-.06.1-.19.04-.35l-5.36-13.17Z"/>
    <path class="cls-2" d="M136.47,44.92l-5.36-13.17c-.41-1.02-1.4-1.68-2.5-1.68h-7.45c-1.06,0-2.03.62-2.46,1.59l-5.93,13.17c-.38.84-.3,1.8.19,2.58.5.77,1.35,1.23,2.27,1.23h7.34v10.45h-3.77v2.32h11.61v-2.32h-3.77v-10.45h7.34c.9,0,1.74-.45,2.24-1.19.5-.75.6-1.69.26-2.53ZM134.28,46.15c-.04.06-.14.17-.31.17h-18.75c-.18,0-.28-.11-.32-.17s-.1-.2-.03-.36l5.93-13.17c.06-.14.2-.22.35-.22h7.45c.15,0,.29.1.35.24l5.36,13.17c.07.16,0,.29-.04.35Z"/>
  </g>
</svg>