<svg xmlns="http://www.w3.org/2000/svg" xmlns:xlink="http://www.w3.org/1999/xlink" width="15" height="15" viewBox="0 0 15 15"><defs><style>.a{clip-path:url(#b);}.b{fill:#f7931e;}.c{fill:#fff;}.d{fill:rgba(255,255,255,0);}</style><clipPath id="b"><rect width="15" height="15"/></clipPath></defs><g id="a" class="a"><rect class="d" width="15" height="15"/><g transform="translate(-122.692 -610.476)"><path class="b" d="M255.392,1557.454l2.294-.874,1.342,2.056,2.37.641-.122,2.452,1.54,1.912-1.54,1.912.122,2.452-2.37.641-1.342,2.056-2.294-.874-2.294.874-1.342-2.056-2.37-.641.122-2.452-1.54-1.912,1.54-1.912-.122-2.452,2.37-.641,1.342-2.056Z" transform="translate(-125.2 -945.665)"/><path class="c" d="M262.292,1572.3l-2.064,1.085.394-2.3-1.67-1.628,2.308-.335,1.032-2.091,1.032,2.091,2.308.335-1.67,1.628.394,2.3Z" transform="translate(-132.101 -952.228)"/></g></g></svg>