<?xml version="1.0" encoding="UTF-8"?>
<svg id="Capa_1" data-name="Capa 1" xmlns="http://www.w3.org/2000/svg" viewBox="0 0 148.9 148.9">
  <defs>
    <style>
      .cls-1 {
        fill: none;
      }

      .cls-1, .cls-2 {
        stroke-width: 0px;
      }
    </style>
  </defs>
  <path class="cls-2" d="M38.99,86.41h-8.65c-3.47,0-6.29-2.82-6.29-6.29v-8.65c0-3.47,2.82-6.29,6.29-6.29h8.65c3.47,0,6.29,2.82,6.29,6.29v8.65c0,3.47-2.82,6.29-6.29,6.29ZM30.33,67.83c-2,0-3.63,1.63-3.63,3.63v8.65c0,2,1.63,3.63,3.63,3.63h8.65c2,0,3.63-1.63,3.63-3.63v-8.65c0-2-1.63-3.63-3.63-3.63h-8.65Z"/>
  <path class="cls-2" d="M78.8,86.41h-8.65c-3.47,0-6.29-2.82-6.29-6.29v-8.65c0-3.47,2.82-6.29,6.29-6.29h8.65c3.47,0,6.29,2.82,6.29,6.29v8.65c0,3.47-2.82,6.29-6.29,6.29ZM70.14,67.83c-2,0-3.63,1.63-3.63,3.63v8.65c0,2,1.63,3.63,3.63,3.63h8.65c2,0,3.63-1.63,3.63-3.63v-8.65c0-2-1.63-3.63-3.63-3.63h-8.65Z"/>
  <path class="cls-2" d="M38.99,120.91h-8.65c-3.47,0-6.29-2.82-6.29-6.29v-8.65c0-3.47,2.82-6.29,6.29-6.29h8.65c3.47,0,6.29,2.82,6.29,6.29v8.65c0,3.47-2.82,6.29-6.29,6.29ZM30.33,102.33c-2,0-3.63,1.63-3.63,3.63v8.65c0,2,1.63,3.63,3.63,3.63h8.65c2,0,3.63-1.63,3.63-3.63v-8.65c0-2-1.63-3.63-3.63-3.63h-8.65Z"/>
  <path class="cls-2" d="M78.8,120.91h-8.65c-3.47,0-6.29-2.82-6.29-6.29v-8.65c0-3.47,2.82-6.29,6.29-6.29h8.65c3.47,0,6.29,2.82,6.29,6.29v8.65c0,3.47-2.82,6.29-6.29,6.29ZM70.14,102.33c-2,0-3.63,1.63-3.63,3.63v8.65c0,2,1.63,3.63,3.63,3.63h8.65c2,0,3.63-1.63,3.63-3.63v-8.65c0-2-1.63-3.63-3.63-3.63h-8.65Z"/>
  <path class="cls-2" d="M115.95,120.91h-8.65c-3.47,0-6.29-2.82-6.29-6.29v-8.65c0-3.47,2.82-6.29,6.29-6.29h8.65c3.47,0,6.29,2.82,6.29,6.29v8.65c0,3.47-2.82,6.29-6.29,6.29ZM107.3,102.33c-2,0-3.63,1.63-3.63,3.63v8.65c0,2,1.63,3.63,3.63,3.63h8.65c2,0,3.63-1.63,3.63-3.63v-8.65c0-2-1.63-3.63-3.63-3.63h-8.65Z"/>
  <path class="cls-2" d="M109.72,85.6l-7.38-7.38c-1.04-1.04-1.04-2.72,0-3.75h0c1.04-1.04,2.72-1.04,3.75,0l4.01,4.01c.11.11.28.11.39,0l11.98-11.98c1.04-1.04,2.72-1.04,3.75,0h0c1.04,1.04,1.04,2.72,0,3.75l-15.35,15.35c-.32.32-.84.32-1.16,0Z"/>
  <g>
    <path class="cls-1" d="M87.74,30.68c2.93,0,5.31-2.38,5.31-5.31v-10.62c0-2.93-2.38-5.31-5.31-5.31s-5.31,2.38-5.31,5.31v10.62c0,2.93,2.38,5.31,5.31,5.31Z"/>
    <path class="cls-1" d="M58.55,30.68c2.93,0,5.31-2.38,5.31-5.31v-10.62c0-2.93-2.38-5.31-5.31-5.31s-5.31,2.38-5.31,5.31v10.62c0,2.93,2.38,5.31,5.31,5.31Z"/>
    <path class="cls-1" d="M116.93,30.68c2.93,0,5.31-2.38,5.31-5.31v-10.62c0-2.93-2.38-5.31-5.31-5.31s-5.31,2.38-5.31,5.31v10.62c0,2.93,2.38,5.31,5.31,5.31Z"/>
    <path class="cls-1" d="M124.89,23.07v2.31c0,4.39-3.57,7.96-7.96,7.96s-7.96-3.57-7.96-7.96v-2.34h-13.27v2.34c0,4.39-3.57,7.96-7.96,7.96s-7.96-3.57-7.96-7.96v-2.34h-13.27v2.34c0,4.39-3.57,7.96-7.96,7.96s-7.96-3.57-7.96-7.96v-2.34h-13.27v2.34c0,4.39-3.57,7.96-7.96,7.96s-7.96-3.57-7.96-7.96v-2.01c-7.56,1.51-13.27,8.19-13.27,16.19v7.05h132.69v-7.05c0-8.91-7.09-16.17-15.92-16.48Z"/>
    <path class="cls-1" d="M29.35,30.68c2.93,0,5.31-2.38,5.31-5.31v-10.62c0-2.93-2.38-5.31-5.31-5.31s-5.31,2.38-5.31,5.31v10.62c0,2.93,2.38,5.31,5.31,5.31Z"/>
    <path class="cls-1" d="M8.12,122.97c0,9.11,7.41,16.51,16.51,16.51h99.66c9.11,0,16.51-7.41,16.51-16.51V49.26H8.12v73.72Z"/>
    <path class="cls-2" d="M124.89,20.41v-5.66c0-4.39-3.57-7.96-7.96-7.96s-7.96,3.57-7.96,7.96v5.63h-13.27v-5.63c0-4.39-3.57-7.96-7.96-7.96s-7.96,3.57-7.96,7.96v5.63h-13.27v-5.63c0-4.39-3.57-7.96-7.96-7.96s-7.96,3.57-7.96,7.96v5.63h-13.27v-5.63c0-4.39-3.57-7.96-7.96-7.96s-7.96,3.57-7.96,7.96v5.92c-9.03,1.55-15.92,9.41-15.92,18.87v83.42c0,10.57,8.6,19.17,19.17,19.17h99.66c10.57,0,19.17-8.6,19.17-19.17V39.55c0-10.37-8.28-18.82-18.58-19.14ZM111.62,23.04v-8.28c0-2.93,2.38-5.31,5.31-5.31s5.31,2.38,5.31,5.31v10.62c0,2.93-2.38,5.31-5.31,5.31s-5.31-2.38-5.31-5.31v-2.34ZM82.43,23.04v-8.28c0-2.93,2.38-5.31,5.31-5.31s5.31,2.38,5.31,5.31v10.62c0,2.93-2.38,5.31-5.31,5.31s-5.31-2.38-5.31-5.31v-2.34ZM53.24,23.04v-8.28c0-2.93,2.38-5.31,5.31-5.31s5.31,2.38,5.31,5.31v10.62c0,2.93-2.38,5.31-5.31,5.31s-5.31-2.38-5.31-5.31v-2.34ZM24.05,23.07v-8.31c0-2.93,2.38-5.31,5.31-5.31s5.31,2.38,5.31,5.31v10.62c0,2.93-2.38,5.31-5.31,5.31s-5.31-2.38-5.31-5.31v-2.31ZM140.81,122.97c0,9.11-7.41,16.51-16.51,16.51H24.64c-9.11,0-16.51-7.41-16.51-16.51V49.26h132.69v73.72ZM8.12,46.6v-7.05c0-8,5.71-14.68,13.27-16.19v2.01c0,4.39,3.57,7.96,7.96,7.96s7.96-3.57,7.96-7.96v-2.34h13.27v2.34c0,4.39,3.57,7.96,7.96,7.96s7.96-3.57,7.96-7.96v-2.34h13.27v2.34c0,4.39,3.57,7.96,7.96,7.96s7.96-3.57,7.96-7.96v-2.34h13.27v2.34c0,4.39,3.57,7.96,7.96,7.96s7.96-3.57,7.96-7.96v-2.31c8.83.31,15.92,7.58,15.92,16.48v7.05H8.12Z"/>
  </g>
</svg>