<svg xmlns="http://www.w3.org/2000/svg" xmlns:xlink="http://www.w3.org/1999/xlink" width="72" height="72" viewBox="0 0 72 72">
  <defs>
    <filter id="Elipse_1462" x="0" y="0" width="72" height="72" filterUnits="userSpaceOnUse">
      <feOffset dy="2" input="SourceAlpha"/>
      <feGaussianBlur stdDeviation="2" result="blur"/>
      <feFlood flood-color="#447b6e"/>
      <feComposite operator="in" in2="blur"/>
      <feComposite in="SourceGraphic"/>
    </filter>
  </defs>
  <g id="Grupo_35966" data-name="Grupo 35966" transform="translate(-413 -2014.784)">
    <g transform="matrix(1, 0, 0, 1, 413, 2014.78)" filter="url(#Elipse_1462)">
      <g id="Elipse_1462-2" data-name="Elipse 1462" transform="translate(6 4)" fill="#fff" stroke="#fff" stroke-width="1">
        <circle cx="30" cy="30" r="30" stroke="none"/>
        <circle cx="30" cy="30" r="29.5" fill="none"/>
      </g>
    </g>
    <path id="Trazado_46126" data-name="Trazado 46126" d="M157.873,39.144a2.481,2.481,0,0,0-2.494,2.455,2.436,2.436,0,0,0,2.074,2.363v.761l-2.664,2.008-1.05-1.3a.427.427,0,0,0-.341-.144l-2.441.079a.421.421,0,0,0-.184.052l-8.256,4.515a.438.438,0,0,0-.158.591l3.872,6.156a.435.435,0,0,0,.551.144l1.076-.551V73.808a.433.433,0,0,0,.315.407,45.059,45.059,0,0,0,19.412,0,.433.433,0,0,0,.315-.407V56.272l1.076.551a.435.435,0,0,0,.551-.144l3.872-6.156a.437.437,0,0,0-.158-.591l-8.256-4.515a.422.422,0,0,0-.184-.052l-2.441-.079a.427.427,0,0,0-.341.144l-1.05,1.3-2.678-2.021V43.62a.437.437,0,0,0-.42-.42,1.609,1.609,0,1,1,0-3.216,1.64,1.64,0,0,1,1.667,1.614,1.539,1.539,0,0,1-.263.853.422.422,0,1,0,.709.459,2.392,2.392,0,0,0,.394-1.313,2.493,2.493,0,0,0-2.507-2.455Zm-.04,6.353a.439.439,0,0,0,.092,0h.013l2.494,1.877-2.559,3.137-2.546-3.137Zm-4.62.643,4.345,5.289a.439.439,0,0,0,.643,0l4.331-5.289,2.113.066,7.809,4.253L169.017,55.9l-1.339-.7a.443.443,0,0,0-.617.381V73.454a44.661,44.661,0,0,1-18.362,0V55.59a.443.443,0,0,0-.617-.381l-1.352.7L143.3,50.458l7.8-4.253,2.113-.066Z" transform="translate(291.12 1991.576)" fill="#447b6e" stroke="#447b6e" stroke-width="1"/>
  </g>
</svg>
