<svg xmlns="http://www.w3.org/2000/svg" width="43.484" height="46.599" viewBox="0 0 43.484 46.599"><path d="M148.218,6.327a.393.393,0,0,0-.366-.234h-23.4L126.745,3.8,135.8.784a.409.409,0,0,0-.265-.773l-9.144,3.051a.444.444,0,0,0-.163.1l-2.93,2.93H105.17a.414.414,0,0,0-.366.234.335.335,0,0,0-.041.173.4.4,0,0,0,.1.275l10.67,12.207L126.1,31.055V45.774H111.273a.407.407,0,1,0,0,.814h30.475a.407.407,0,1,0,.01-.814H126.917V31.055l10.569-12.074,10.67-12.207a.446.446,0,0,0,.091-.275.473.473,0,0,0-.031-.173Zm-8.565,8.921H113.359l-7.293-8.331h40.891Zm-2.777,3.194-10.365,11.84-10.365-11.84-2.085-2.38h24.891Z" transform="translate(-104.764 0.011)" fill="#575656"/></svg>