<svg xmlns="http://www.w3.org/2000/svg" width="24.732" height="24.563" viewBox="0 0 24.732 24.563">
  <g id="Grupo_36686" data-name="Grupo 36686" transform="translate(-1960.072 4153.046)">
    <path id="Trazado_46020" data-name="Trazado 46020" d="M14.613,3.665l2.81,3.015L21.4,6.475a.562.562,0,0,1,.562.562l-.411,3.973,3.22,2.81a.562.562,0,0,1,0,.794l-3.22,2.81.411,3.973a.562.562,0,0,1-.562.562l-3.973-.205-2.81,3.015a.561.561,0,0,1-.794,0l-2.81-3.015-3.973.205a.562.562,0,0,1-.562-.562l.411-3.973-3.22-2.81a.562.562,0,0,1,0-.794l3.22-2.81L6.474,7.037a.562.562,0,0,1,.562-.562l3.973.205,2.81-3.015A.562.562,0,0,1,14.613,3.665Z" transform="translate(1958 -4155)" fill="#d69a46" stroke="#d69a46" stroke-linecap="round" stroke-miterlimit="10" stroke-width="0.8"/>
    <path id="Trazado_46021" data-name="Trazado 46021" d="M76.209,80.161a1.841,1.841,0,1,1-1.841-1.841A1.841,1.841,0,0,1,76.209,80.161Z" transform="translate(1894.206 -4224.146)" fill="none" stroke="#fff" stroke-linecap="round" stroke-miterlimit="10" stroke-width="0.8"/>
    <path id="Trazado_46022" data-name="Trazado 46022" d="M168.607,163.146a1.841,1.841,0,1,1-1.841-1.841A1.841,1.841,0,0,1,168.607,163.146Z" transform="translate(1808.813 -4300.84)" fill="none" stroke="#fff" stroke-linecap="round" stroke-miterlimit="10" stroke-width="0.8"/>
    <line id="Línea_536" data-name="Línea 536" y1="8.976" x2="7.625" transform="translate(1968.574 -4145.424)" fill="none" stroke="#fff" stroke-linecap="round" stroke-miterlimit="10" stroke-width="0.8"/>
    <line id="Línea_537" data-name="Línea 537" x1="0.807" y1="1.79" transform="translate(1966.971 -4152.5)" fill="none" stroke="#d69a46" stroke-linecap="round" stroke-miterlimit="10" stroke-width="0.8"/>
    <line id="Línea_538" data-name="Línea 538" y1="1.74" x2="1.009" transform="translate(1976.846 -4152.5)" fill="none" stroke="#d69a46" stroke-linecap="round" stroke-miterlimit="10" stroke-width="0.8"/>
    <line id="Línea_539" data-name="Línea 539" y1="0.857" x2="1.715" transform="translate(1982.553 -4146.054)" fill="none" stroke="#d69a46" stroke-linecap="round" stroke-miterlimit="10" stroke-width="0.8"/>
    <line id="Línea_540" data-name="Línea 540" x2="1.614" y2="1.098" transform="translate(1981.796 -4136.448)" fill="none" stroke="#d69a46" stroke-linecap="round" stroke-miterlimit="10" stroke-width="0.8"/>
    <line id="Línea_541" data-name="Línea 541" x2="0.807" y2="1.765" transform="translate(1976.442 -4130.951)" fill="none" stroke="#d69a46" stroke-linecap="round" stroke-miterlimit="10" stroke-width="0.8"/>
    <line id="Línea_542" data-name="Línea 542" x1="1.2" y2="1.916" transform="translate(1966.578 -4130.951)" fill="none" stroke="#d69a46" stroke-linecap="round" stroke-miterlimit="10" stroke-width="0.8"/>
    <line id="Línea_543" data-name="Línea 543" x1="1.588" y2="1.048" transform="translate(1960.782 -4136.448)" fill="none" stroke="#d69a46" stroke-linecap="round" stroke-miterlimit="10" stroke-width="0.8"/>
    <line id="Línea_544" data-name="Línea 544" x1="1.739" y1="1.261" transform="translate(1960.63 -4146.457)" fill="none" stroke="#d69a46" stroke-linecap="round" stroke-miterlimit="10" stroke-width="0.8"/>
  </g>
</svg>
