<svg xmlns="http://www.w3.org/2000/svg" xmlns:xlink="http://www.w3.org/1999/xlink" width="24" height="24" viewBox="0 0 24 24"><defs><style>.a{clip-path:url(#b);}.b,.c{fill:#999;}.c{fill-rule:evenodd;}.d{fill:rgba(255,255,255,0);}</style><clipPath id="b"><rect width="24" height="24"/></clipPath></defs><g id="a" class="a"><rect class="d" width="24" height="24"/><g transform="translate(-39.308 -456.823)"><path class="b" d="M34.064,1167.723a2.363,2.363,0,0,1-1.417-.479,3.851,3.851,0,0,1-1.155-1.785l-.035-.087a2.7,2.7,0,0,0-.246-.517,1.543,1.543,0,0,0-.281-.019c-.107,0-.209.005-.291.009l-.041,0c-.217.01-.414.019-.616.019a2.723,2.723,0,0,1-2.2-.856,2.328,2.328,0,0,1-.431-.732,3.877,3.877,0,0,1,0-2.135l.015-.077a2.671,2.671,0,0,0,.074-.573,2.673,2.673,0,0,0-.48-.319l-.031-.018A3.178,3.178,0,0,1,25,1157.927a2.337,2.337,0,0,1,.034-.849,3.848,3.848,0,0,1,1.142-1.791l.062-.065a2.676,2.676,0,0,0,.373-.443,2.676,2.676,0,0,0-.232-.529l-.016-.03a3.219,3.219,0,0,1-.411-2.914,2.35,2.35,0,0,1,.486-.7,3.852,3.852,0,0,1,1.928-.889l.09-.022a2.666,2.666,0,0,0,.552-.171,2.669,2.669,0,0,0,.091-.569l0-.035a3.176,3.176,0,0,1,1.23-2.674,2.339,2.339,0,0,1,.785-.322,2.546,2.546,0,0,1,.526-.054,4.776,4.776,0,0,1,1.578.349l.087.03a3.066,3.066,0,0,0,.556.154,2.685,2.685,0,0,0,.383-.428l.023-.029a3.176,3.176,0,0,1,2.48-1.584,2.341,2.341,0,0,1,.835.154,3.85,3.85,0,0,1,1.61,1.386l.057.073a2.71,2.71,0,0,0,.382.428,3.048,3.048,0,0,0,.557-.154l.033-.011a5.1,5.1,0,0,1,1.654-.368,2.358,2.358,0,0,1,1.909.957,3.849,3.849,0,0,1,.605,2.038l.008.09a2.668,2.668,0,0,0,.091.569,2.666,2.666,0,0,0,.552.171l.033.008a3.178,3.178,0,0,1,2.471,1.6,2.336,2.336,0,0,1,.207.824,3.939,3.939,0,0,1-.607,2.07l-.026.051a.546.546,0,0,0,.139.97l.024.025a3.178,3.178,0,0,1,1.215,2.68,2.339,2.339,0,0,1-.271.8,3.847,3.847,0,0,1-1.6,1.4l-.081.047a2.673,2.673,0,0,0-.48.319,2.671,2.671,0,0,0,.074.573l.006.033a3.177,3.177,0,0,1-.427,2.912,2.348,2.348,0,0,1-.663.531,3.113,3.113,0,0,1-1.512.328c-.2,0-.4-.01-.589-.019l-.1,0c-.082,0-.185-.009-.291-.009a1.542,1.542,0,0,0-.281.019,2.7,2.7,0,0,0-.246.517l-.014.036a3.175,3.175,0,0,1-1.933,2.218,2.337,2.337,0,0,1-.844.088,3.848,3.848,0,0,1-1.936-.877l-.074-.052a2.675,2.675,0,0,0-.49-.3,2.673,2.673,0,0,0-.488.3l-.03.022A3.809,3.809,0,0,1,34.064,1167.723Zm-3.134-3.887a1.5,1.5,0,0,1,.825.171,2.092,2.092,0,0,1,.63,1l.035.087a3,3,0,0,0,.83,1.358,1.349,1.349,0,0,0,.435.22,1.324,1.324,0,0,0,.378.056,2.944,2.944,0,0,0,1.585-.732l.029-.021a2.092,2.092,0,0,1,1.07-.5,2.1,2.1,0,0,1,1.072.5l.072.052a3,3,0,0,0,1.433.694,1.333,1.333,0,0,0,.485-.05c.671-.2.934-.747,1.287-1.631l.014-.035a2.091,2.091,0,0,1,.63-.995,1.5,1.5,0,0,1,.826-.171c.131,0,.252.006.34.01l.1,0c.188.009.366.018.541.018a2.092,2.092,0,0,0,1.038-.209,1.35,1.35,0,0,0,.381-.3c.457-.528.381-1.133.2-2.067l-.006-.031a1.4,1.4,0,0,1,.89-1.951l.08-.046a3,3,0,0,0,1.224-1.014,1.342,1.342,0,0,0,.156-.462c.1-.692-.292-1.159-.949-1.847l-.023-.024a1.4,1.4,0,0,1-.3-2.122l.026-.049a3.1,3.1,0,0,0,.5-1.546,1.341,1.341,0,0,0-.119-.473c-.29-.636-.873-.818-1.8-1.042l-.031-.007a1.4,1.4,0,0,1-1.405-1.62l-.008-.088a3,3,0,0,0-.414-1.538,1.343,1.343,0,0,0-.356-.334,1.327,1.327,0,0,0-.748-.217,4.355,4.355,0,0,0-1.326.312l-.031.011a3.007,3.007,0,0,1-.915.211.892.892,0,0,1-.255-.034,2.1,2.1,0,0,1-.886-.779l-.057-.072a3,3,0,0,0-1.179-1.069,1.343,1.343,0,0,0-.479-.089c-.7,0-1.106.454-1.693,1.2l-.022.028a2.1,2.1,0,0,1-.886.778.89.89,0,0,1-.255.034h0a3.011,3.011,0,0,1-.915-.211l-.084-.029a3.974,3.974,0,0,0-1.251-.294,1.531,1.531,0,0,0-.319.032,1.346,1.346,0,0,0-.451.185c-.588.378-.685.98-.775,1.927l0,.033a2.093,2.093,0,0,1-.325,1.136,2.1,2.1,0,0,1-1.08.484l-.088.021a3,3,0,0,0-1.46.628,1.351,1.351,0,0,0-.28.4c-.29.634-.034,1.219.39,2.04l.015.029a1.4,1.4,0,0,1-.307,2.125l-.06.063a3,3,0,0,0-.89,1.319,1.341,1.341,0,0,0-.019.487c.1.691.607,1.03,1.431,1.505l.029.017a1.4,1.4,0,0,1,.89,1.951l-.015.076a3.03,3.03,0,0,0-.038,1.6,1.336,1.336,0,0,0,.247.42,1.7,1.7,0,0,0,1.449.511c.18,0,.364-.008.569-.018l.04,0C30.679,1163.842,30.8,1163.836,30.93,1163.836Z" transform="translate(14.559 -687.046)"/><path class="c" d="M51.571,1171.887c-.527,0-.9-.527-.9-1.195v-.023c0-.633.328-1.172.878-1.172.527,0,.9.539.9,1.195v.024c0,.632-.328,1.171-.878,1.171m-4.955-4.193c-.527,0-.9-.527-.9-1.195v-.023c0-.632.328-1.171.879-1.171.527,0,.9.539.9,1.195v.023c0,.633-.328,1.172-.878,1.172m4.931,5.1a1.984,1.984,0,0,0,1.945-2.1v-.023a1.938,1.938,0,1,0-3.866.023v.024a1.959,1.959,0,0,0,1.921,2.073m-5.634-.492a.45.45,0,0,0,.457.457.481.481,0,0,0,.41-.211l5.377-7.344a.53.53,0,0,0,.105-.3.46.46,0,0,0-.469-.457.447.447,0,0,0-.4.211l-5.377,7.344a.534.534,0,0,0-.105.3m.679-3.7a1.976,1.976,0,0,0,1.944-2.1v-.023a1.952,1.952,0,0,0-1.921-2.073,1.977,1.977,0,0,0-1.945,2.1v.023a1.959,1.959,0,0,0,1.921,2.074" transform="translate(2.226 -699.596)"/></g></g></svg>