<svg xmlns="http://www.w3.org/2000/svg" xmlns:xlink="http://www.w3.org/1999/xlink" width="130" height="80" viewBox="0 0 130 80">
  <defs>
    <clipPath id="clip-path">
      <rect id="Rect치ngulo_5242" data-name="Rect치ngulo 5242" width="130" height="80" transform="translate(1534 11119)" fill="none" stroke="#707070" stroke-width="1"/>
    </clipPath>
    <clipPath id="clip-path-2">
      <path id="Trazado_45571" data-name="Trazado 45571" d="M391.11,47.08c.74,2.19,3.68,1.32,3.68,1.32a3.36,3.36,0,0,0,.92-2.93c-.29-2.83-3.68-4.08-3.68-4.08s-1.67,3.51-.92,5.69" fill="none"/>
    </clipPath>
    <radialGradient id="radial-gradient" cx="0.068" cy="-5.391" r="6.259" gradientTransform="translate(29.073 16.226) scale(1.415 1.538)" gradientUnits="objectBoundingBox">
      <stop offset="0" stop-color="#fff"/>
      <stop offset="0.16" stop-color="#a7e2f9"/>
      <stop offset="0.33" stop-color="#4ec5f3"/>
      <stop offset="0.45" stop-color="#16b2ef"/>
      <stop offset="0.5" stop-color="#00abed"/>
      <stop offset="0.61" stop-color="#0096d6"/>
      <stop offset="0.76" stop-color="#007cb9"/>
      <stop offset="0.9" stop-color="#006da7"/>
      <stop offset="1" stop-color="#0067a1"/>
    </radialGradient>
  </defs>
  <g id="Enmascarar_grupo_104" data-name="Enmascarar grupo 104" transform="translate(-1534 -11119)" clip-path="url(#clip-path)">
    <g id="Grupo_36049" data-name="Grupo 36049">
      <path id="Trazado_45545" data-name="Trazado 45545" d="M351.74,74.19v-.81H349V70.85h2.65V70H349V67.7h2.76v-.81H348v7.32h3.75Zm6.44,0L356,68.55h-1.15l-2.19,5.64h1l.46-1.15h2.48l.45,1.15Zm-1.79-1.89h-2l.69-1.78a4.822,4.822,0,0,0,.28-.92,7,7,0,0,0,.29.92Zm7.14,1.89-1.5-2c-.17-.23-.35-.46-.46-.58,1-.12,1.67-.63,1.67-1.61s-.75-1.5-2.07-1.5a12.54,12.54,0,0,0-1.67.06v5.63h1V71.76h0l1.79,2.42h1.21Zm-1.38-4.08a1.034,1.034,0,0,1-1.15,1h-.58V69.3c.18,0,.35-.06.58-.06.69,0,1.15.29,1.15.87m6.1-.74v-.82H364v.82h1.61v4.77h1V69.37Zm6.05,4.82V68.55h-1v2.3h-2.88v-2.3h-1v5.64h1V71.72h2.88v2.47Zm6.85-.28L381,73a3.86,3.86,0,0,1-1.61.36c-1.73,0-2.47-1.05-2.47-2.83,0-1.61.69-2.88,2.37-2.88A6,6,0,0,1,381,68l.12-.92a7.47,7.47,0,0,0-1.66-.23c-2.48,0-3.57,1.67-3.57,3.91,0,2.07,1,3.57,3.34,3.57a6.75,6.75,0,0,0,1.94-.39m6.33.28V68.55h-1v2.3h-2.88v-2.3h-1v5.64h1V71.72h2.88v2.47Zm5.3,0v-.81h-2.19V71.65h2.07v-.74h-2.07V69.3h2.19v-.75h-3.16v5.64Zm5.5-.22-.05-.86a3,3,0,0,1-1.27.28,1.76,1.76,0,0,1-1.9-2,1.85,1.85,0,0,1,1.84-2.07,3.33,3.33,0,0,1,1.27.23l.13-.87a4.69,4.69,0,0,0-1.28-.17,2.77,2.77,0,0,0-3,3,2.47,2.47,0,0,0,2.75,2.75A3.72,3.72,0,0,0,398.3,74m6.1.23-2.53-2.93,2.42-2.71h-1.2l-2.25,2.6v-2.6h-1v5.64h1v-2.7l2.25,2.7Z" transform="translate(1224.29 11119)" fill="#002d56"/>
      <path id="Trazado_45546" data-name="Trazado 45546" d="M401,35.11a8.23,8.23,0,0,1-2.59,6c-2.76,2.24-7.66,2.36-7.66,2.36s-.74-3.16,2.6-6.68A7.16,7.16,0,0,1,401,35.11" transform="translate(1224.29 11119)" fill="#0073aa"/>
      <path id="Trazado_45547" data-name="Trazado 45547" d="M399.45,31.14c1.73-3.22,1.5-5,1.5-5a9.27,9.27,0,0,0-7,1c-3.39,2.13-3.05,6.63-3.05,6.63s6.79.57,8.57-2.66" transform="translate(1224.29 11119)" fill="#0067a2"/>
      <path id="Trazado_45548" data-name="Trazado 45548" d="M401.82,29.12c1.73-3.22,1.5-5,1.5-5a9.21,9.21,0,0,0-7,1c-3.34,2.12-3,6.62-3,6.62s6.78.57,8.51-2.66" transform="translate(1224.29 11119)" fill="#0073aa"/>
      <path id="Trazado_45549" data-name="Trazado 45549" d="M388.75,35.17c-1.6,3.11-.17,8.39-.17,8.39s3.45.36,6.27-3.62-.69-10.08-.69-10.08a16.46,16.46,0,0,0-5.41,5.31" transform="translate(1224.29 11119)" fill="#00aced"/>
      <path id="Trazado_45550" data-name="Trazado 45550" d="M381.84,30.5C381.1,35.11,384,40.8,384,40.8s3-.74,4.84-5.46a13.44,13.44,0,0,0-.18-9.21s-6-.23-6.79,4.37" transform="translate(1224.29 11119)" fill="#0067a2"/>
      <path id="Trazado_45551" data-name="Trazado 45551" d="M355.59,40.52c2.43.92,6.33.41,6.33.41A12.48,12.48,0,0,0,357,38.51a15.76,15.76,0,0,0-4.95.17,15.109,15.109,0,0,0,3.51,1.84" transform="translate(1224.29 11119)" fill="#0067a2"/>
      <path id="Trazado_45552" data-name="Trazado 45552" d="M365,8.46c-1.78,1.78-1,7.08-1,7.08a6.87,6.87,0,0,0,5-2.65c2-2.59.75-4.54.75-4.54s-2.94-1.73-4.78.11" transform="translate(1224.29 11119)" fill="#54c8e8"/>
      <path id="Trazado_45553" data-name="Trazado 45553" d="M387.08,55.19c2.07-2.12,1.73-5.81,1.73-5.81a17.141,17.141,0,0,0-4.67,2c-2.88,1.67-2.88,5.47-2.88,5.47s3.8.47,5.82-1.67" transform="translate(1224.29 11119)" fill="#0067a2"/>
      <path id="Trazado_45554" data-name="Trazado 45554" d="M374.12,7.36c-1.5.87-1,5.53-1,5.53s4.08.87,4.43-2-.23-3.63-.23-3.63a4,4,0,0,0-3.23.11" transform="translate(1224.29 11119)" fill="#8ed3ec"/>
      <path id="Trazado_45555" data-name="Trazado 45555" d="M377.23,55.72a3.78,3.78,0,0,0-1-2.47,6.22,6.22,0,0,0-3.62-1.73s.46,3.34,1.43,4.31,3.23-.11,3.23-.11" transform="translate(1224.29 11119)" fill="#0067a2"/>
      <path id="Trazado_45556" data-name="Trazado 45556" d="M361.29,10.19s-2.42.12-2.07,2.93c.35,3.4,4.21,4,4.21,4a7.17,7.17,0,0,0,1.2-4.26c-.11-2.37-3.34-2.65-3.34-2.65" transform="translate(1224.29 11119)" fill="#0073aa"/>
      <path id="Trazado_45557" data-name="Trazado 45557" d="M360.83,14.79s-2.83.74-3.29,2.7,2.53,3.62,2.53,3.62a5.61,5.61,0,0,0,2.25-3.51,2.5,2.5,0,0,0-1.49-2.81" transform="translate(1224.29 11119)" fill="#00aced"/>
      <path id="Trazado_45558" data-name="Trazado 45558" d="M389.5,48.81a4.7,4.7,0,0,0,3.28-1.38s.46-3.22-3.16-3.06a7.37,7.37,0,0,0-4.31,2s2.07,2.52,4.19,2.47" transform="translate(1224.29 11119)" fill="#0067a2"/>
      <path id="Trazado_45559" data-name="Trazado 45559" d="M390,9.61s2.12,1.84,2.12,3.34a3.22,3.22,0,0,1-1.55,2.42s-2.76-1.61-2.65-3.91S390,9.61,390,9.61" transform="translate(1224.29 11119)" fill="#8ed3ec"/>
      <path id="Trazado_45560" data-name="Trazado 45560" d="M361.23,55a2.5,2.5,0,0,1-1.61-2.12,7.82,7.82,0,0,1,1.05-3.63s3.74,3,3.44,4.26S361.23,55,361.23,55" transform="translate(1224.29 11119)" fill="#0067a2"/>
      <path id="Trazado_45561" data-name="Trazado 45561" d="M392.49,13a5.59,5.59,0,0,0-2.13,2.65c-.81,1.89.36,6.68.36,6.68s3.28-2.48,4.08-5.87S392.49,13,392.49,13" transform="translate(1224.29 11119)" fill="#8ed3ec"/>
      <path id="Trazado_45562" data-name="Trazado 45562" d="M378.73,27.28s.13-6.27,5.3-7.48a16.32,16.32,0,0,1,9.9,1.15s.13,3.91-6.27,5.59-8.93.74-8.93.74" transform="translate(1224.29 11119)" fill="#8ed3ec"/>
      <path id="Trazado_45563" data-name="Trazado 45563" d="M374.7,21.36v5.75l5.59-7.31-.58-3.51Z" transform="translate(1224.29 11119)" fill="#54c8e8"/>
      <path id="Trazado_45564" data-name="Trazado 45564" d="M383.12,15.25s-1.1,2.42.4,3.67,7.71.46,7.71.46a4,4,0,0,0-2.71-3.8,12.34,12.34,0,0,0-5.4-.33" transform="translate(1224.29 11119)" fill="#54c8e8"/>
      <path id="Trazado_45565" data-name="Trazado 45565" d="M368.09,47.77s1-2.42-2-4a6.25,6.25,0,0,0-5.3-.35,6.86,6.86,0,0,0,2.7,3.8,5.62,5.62,0,0,0,4.56.53" transform="translate(1224.29 11119)" fill="#0067a2"/>
      <path id="Trazado_45566" data-name="Trazado 45566" d="M365,17.44s-.64,3.67,4.49,6a15.09,15.09,0,0,0,9.62,1.09s.17-6-4.26-7.88-9.85.8-9.85.8" transform="translate(1224.29 11119)" fill="#0073aa"/>
      <path id="Trazado_45567" data-name="Trazado 45567" d="M384.26,47s1.67-5.23-4.2-7-9.9-.12-9.9-.12.28,6.68,4.26,7.88,9.84-.8,9.84-.8" transform="translate(1224.29 11119)" fill="#0067a2"/>
      <path id="Trazado_45568" data-name="Trazado 45568" d="M371.54,10a18.048,18.048,0,0,1,4,5c1.15,2.53-.46,8.47-.46,8.47s-3.52-2.53-4.72-5.82S371.54,10,371.54,10" transform="translate(1224.29 11119)" fill="#54c8e8"/>
      <path id="Trazado_45569" data-name="Trazado 45569" d="M378.15,53.81a12,12,0,0,1-4-5c-1.2-3.11.46-8.47.46-8.47s5.87,2.83,6.22,6.56-2.65,6.91-2.65,6.91" transform="translate(1224.29 11119)" fill="#00aced"/>
      <path id="Trazado_45570" data-name="Trazado 45570" d="M355.14,21.36c-.75-2.37.91-3.11.91-3.11s3.17-.35,3.68,1.32-.23,4.61-.23,4.61-3.62-.52-4.36-2.82" transform="translate(1224.29 11119)" fill="#0073aa"/>
      <g id="Grupo_36045" data-name="Grupo 36045" transform="translate(1224.29 11119)" clip-path="url(#clip-path-2)">
        <rect id="Rect치ngulo_5232" data-name="Rect치ngulo 5232" width="5.57" height="7.88" transform="translate(390.36 41.39)" fill="url(#radial-gradient)"/>
      </g>
      <path id="Trazado_45572" data-name="Trazado 45572" d="M402.91,41.49s.06,1.51-2.47,2.07-5.3-3.28-5.3-3.28a6.06,6.06,0,0,1,4.43-.81,5.34,5.34,0,0,1,3.34,2" transform="translate(1224.29 11119)" fill="#0067a2"/>
      <path id="Trazado_45573" data-name="Trazado 45573" d="M362.1,30.57s1-.58,3.68,0a14.92,14.92,0,0,1,4.61,1.89,7.42,7.42,0,0,1-5.07.23c-2.88-.86-3.22-2.12-3.22-2.12" transform="translate(1224.29 11119)" fill="#00aced"/>
      <path id="Trazado_45574" data-name="Trazado 45574" d="M392.78,33.1a7.74,7.74,0,0,1-3.85.63c-2.53-.12-4.44-2.53-4.44-2.53a6.66,6.66,0,0,1,4.72-.23,12.67,12.67,0,0,1,3.57,2.13" transform="translate(1224.29 11119)" fill="#0073aa"/>
      <path id="Trazado_45575" data-name="Trazado 45575" d="M387.89,33.1a29.66,29.66,0,0,1-6,0c-2.94-.36-2.83-1.9-2.83-1.9s5.07-.92,7.09,0,1.73,1.9,1.73,1.9" transform="translate(1224.29 11119)" fill="#0067a2"/>
      <path id="Trazado_45576" data-name="Trazado 45576" d="M378.33,30.39a15.88,15.88,0,0,1,3.91,0s.92,1.38-.92,2.07c-3.06,1.15-4.72-.51-4.72-.51s-.17-1.27,1.73-1.56" transform="translate(1224.29 11119)" fill="#0073aa"/>
      <path id="Trazado_45577" data-name="Trazado 45577" d="M381.26,35.86c3.4.91,4.55-.64,4.55-.64s.12-1.66-3.17-2.6c-2.7-.74-6.38.64-6.38.64a11.42,11.42,0,0,0,5,2.6" transform="translate(1224.29 11119)" fill="#0073aa"/>
      <path id="Trazado_45578" data-name="Trazado 45578" d="M362.9,38.28a3.7,3.7,0,0,0-2.42,0s-1.56,1,.17,2,5.76,0,5.76,0a11.221,11.221,0,0,0-3.51-2" transform="translate(1224.29 11119)" fill="#0067a2"/>
      <path id="Trazado_45579" data-name="Trazado 45579" d="M364.34,35.29s5.93,1,9,.23,3.39-2,3.39-2-1.32-.92-5.3-.51a18,18,0,0,0-7.13,2.3" transform="translate(1224.29 11119)" fill="#0073aa"/>
      <path id="Trazado_45580" data-name="Trazado 45580" d="M385.41,27.92a29,29,0,0,0-4.89,0,8,8,0,0,0-4.32,1.78s5.54.92,7.09,0a6.07,6.07,0,0,0,2.12-1.78" transform="translate(1224.29 11119)" fill="#0073aa"/>
      <path id="Trazado_45581" data-name="Trazado 45581" d="M363.88,23.66s-.91,3.62.46,5.23,5,1.33,5,1.33a13.25,13.25,0,0,0-.74-4c-.76-2.12-4.67-2.58-4.67-2.58" transform="translate(1224.29 11119)" fill="#0073aa"/>
      <path id="Trazado_45582" data-name="Trazado 45582" d="M387.31,41s1-4.67,0-6.56-5.41,0-5.41,0,.28,3.34,1.2,4.84S387.31,41,387.31,41" transform="translate(1224.29 11119)" fill="#00aced"/>
      <path id="Trazado_45583" data-name="Trazado 45583" d="M366.41,49.68a4.16,4.16,0,0,0,1.79,3.44,3.34,3.34,0,0,0,3.57.59,2.52,2.52,0,0,0-.87-3.63,4.24,4.24,0,0,0-4.49-.4" transform="translate(1224.29 11119)" fill="#0067a2"/>
      <path id="Trazado_45584" data-name="Trazado 45584" d="M385.12,15s.17-3-1.21-3.68-4.14-.4-4.14-.4-2.52,2.53,0,3.85a6.87,6.87,0,0,0,5.35.23" transform="translate(1224.29 11119)" fill="#0067a2"/>
      <path id="Trazado_45585" data-name="Trazado 45585" d="M367,57.15s.63,1.38,5.12,1.9,5.3-.18,5.3-.18a11.85,11.85,0,0,0-4.89-1.73,12.86,12.86,0,0,0-5.53,0" transform="translate(1224.29 11119)" fill="#0067a2"/>
      <path id="Trazado_45586" data-name="Trazado 45586" d="M389,9.78a11.75,11.75,0,0,0-3.51-2.53,4.49,4.49,0,0,0-3.45.18,6.65,6.65,0,0,0,3.34,2.37,9.43,9.43,0,0,0,3.62,0" transform="translate(1224.29 11119)" fill="#8ed3ec"/>
      <path id="Trazado_45587" data-name="Trazado 45587" d="M392.2,31.42c2.6-2.19,1.21-5.82,1.21-5.82s-4.49-.92-6.45.46-1.67,6.1-1.67,6.1,4.33,1.4,6.91-.74" transform="translate(1224.29 11119)" fill="#0073aa"/>
      <path id="Trazado_45588" data-name="Trazado 45588" d="M358.12,26.54c-2.42,1.61-1.66,4.84-1.66,4.84a9.62,9.62,0,0,0,4.54-2,3.89,3.89,0,0,0,.87-4.2s-1.33-.25-3.75,1.38" transform="translate(1224.29 11119)" fill="#0073aa"/>
      <path id="Trazado_45589" data-name="Trazado 45589" d="M393.93,37.07c1.44-3.22.82-3.8.82-3.8s-3.17-.86-4.49,1-.87,5.3-.87,5.3a4,4,0,0,0,4.54-2.48" transform="translate(1224.29 11119)" fill="#0073aa"/>
      <path id="Trazado_45590" data-name="Trazado 45590" d="M348.74,33.84s-.92,2.3,0,4a3.18,3.18,0,0,0,3,1.43s.63-3.8,0-5.41-3,0-3,0" transform="translate(1224.29 11119)" fill="#0067a2"/>
      <path id="Trazado_45591" data-name="Trazado 45591" d="M383.17,24.06c-1.79,1.33-1.33,4.67-1.33,4.67a5.2,5.2,0,0,0,5.31-.35c2.65-1.86.45-5.87.45-5.87a10,10,0,0,0-4.43,1.55" transform="translate(1224.29 11119)" fill="#00aced"/>
      <path id="Trazado_45592" data-name="Trazado 45592" d="M368,40.17a5.09,5.09,0,0,0,1.38-4.26s-1.61-1-4,.74-1.78,5.47-1.78,5.47a7.28,7.28,0,0,0,4.4-1.95" transform="translate(1224.29 11119)" fill="#0073aa"/>
      <path id="Trazado_45593" data-name="Trazado 45593" d="M379.32,36.54A7.89,7.89,0,0,0,381.68,43a5.41,5.41,0,0,0,4.44,1s3.16-4.21,0-6.22a9.56,9.56,0,0,0-6.8-1.21" transform="translate(1224.29 11119)" fill="#0073aa"/>
      <path id="Trazado_45594" data-name="Trazado 45594" d="M372.05,27.74s.64-4.31-1.55-6-7.6-2.37-7.6-2.37.17,5.53,2.19,7.55,7,.86,7,.86" transform="translate(1224.29 11119)" fill="#00aced"/>
      <path id="Trazado_45595" data-name="Trazado 45595" d="M401.47,35.22c-1.38,1.78,0,5.41,0,5.41a4.67,4.67,0,0,0,1.89-2.48,6.2,6.2,0,0,0-.28-3.8s-.22-.92-1.61.87" transform="translate(1224.29 11119)" fill="#54c8e8"/>
      <path id="Trazado_45596" data-name="Trazado 45596" d="M350,27.16a3.11,3.11,0,0,0-.28-3.16s-.64-.46-1.15.81,0,4,0,4A3.07,3.07,0,0,0,350,27.16" transform="translate(1224.29 11119)" fill="#0073aa"/>
      <path id="Trazado_45597" data-name="Trazado 45597" d="M352.59,27.34a11.06,11.06,0,0,0-.63,3.51,10.43,10.43,0,0,0,3.62-1.27c1.33-.92.12-4.44.12-4.44s-2.53.59-3.11,2.2" transform="translate(1224.29 11119)" fill="#0067a2"/>
      <path id="Trazado_45598" data-name="Trazado 45598" d="M403.48,37.3s1.5-1,0-4-5.87-2.42-5.87-2.42.69,4.08,2,5.23,3.91,1.16,3.91,1.16" transform="translate(1224.29 11119)" fill="#0073aa"/>
      <path id="Trazado_45599" data-name="Trazado 45599" d="M395.14,18.36a5,5,0,0,0-.92-3.17,4.83,4.83,0,0,0-3.11,1.73c-1.5,1.68-.41,6.91-.41,6.91s4.21-3.86,4.44-5.47" transform="translate(1224.29 11119)" fill="#54c8e8"/>
      <path id="Trazado_45600" data-name="Trazado 45600" d="M357.79,46.21c2.82-.35,3.67-4.13,3.67-4.13s-3.67-1.44-5.41-.92a3.73,3.73,0,0,0-2.88,3.44,5.85,5.85,0,0,0,4.62,1.61" transform="translate(1224.29 11119)" fill="#00aced"/>
      <path id="Trazado_45601" data-name="Trazado 45601" d="M380.87,8.63s-1.66,2,0,3.29,7.37.74,7.37.74-1.43-3.16-2.88-3.85-4.49-.18-4.49-.18" transform="translate(1224.29 11119)" fill="#54c8e8"/>
      <path id="Trazado_45602" data-name="Trazado 45602" d="M370.34,56s1.66-2.13,0-3.29S363,52,363,52s1.09,2.82,2.88,3.85,4.49.18,4.49.18" transform="translate(1224.29 11119)" fill="#0067a2"/>
      <path id="Trazado_45603" data-name="Trazado 45603" d="M380,10.65c-.81,2.12-4.84,6.85-4.84,6.85a15,15,0,0,1,.18-4.54c.46-3.16,4.54-6,4.54-6a4.61,4.61,0,0,1,.12,3.73" transform="translate(1224.29 11119)" fill="#54c8e8"/>
      <path id="Trazado_45604" data-name="Trazado 45604" d="M383.8,13.64c-.63,2.59-3.28,4.77-3.28,4.77a7.929,7.929,0,0,1,.17-4.54,11,11,0,0,1,3.11-3.68s.63.86,0,3.45" transform="translate(1224.29 11119)" fill="#8ed3ec"/>
      <path id="Trazado_45605" data-name="Trazado 45605" d="M381.67,26.36c-1.5,2-6,1.9-6,1.9s-2-5.24-.06-7.43,5.82-1,5.82-1,1.73,4.61.23,6.57" transform="translate(1224.29 11119)" fill="#00aced"/>
      <path id="Trazado_45606" data-name="Trazado 45606" d="M372.28,31.89s3,0,4.61-1.43.46-4.54.46-4.54-2.82-.59-4.31,1.14-.76,4.83-.76,4.83" transform="translate(1224.29 11119)" fill="#54c8e8"/>
      <path id="Trazado_45607" data-name="Trazado 45607" d="M375.34,33.15s-1.2,5.76.74,7.14a6.7,6.7,0,0,0,4.09,1.1s1.5-3.8.23-6-5.06-2.25-5.06-2.25" transform="translate(1224.29 11119)" fill="#0073aa"/>
      <path id="Trazado_45608" data-name="Trazado 45608" d="M394.22,26.54c4.14,2.12,5.18.17,5.18.17a11.431,11.431,0,0,0-1-4.61c-1.05-1.89-6.68-2.53-6.68-2.53s-1.6,4.83,2.54,7" transform="translate(1224.29 11119)" fill="#00aced"/>
      <path id="Trazado_45609" data-name="Trazado 45609" d="M400.14,38.51A5.62,5.62,0,0,0,399,34.37c-1.61-2.13-6.33-2.42-6.33-2.42s.18,5.76,3.06,7.08a3.78,3.78,0,0,0,4.42-.52" transform="translate(1224.29 11119)" fill="#00aced"/>
      <path id="Trazado_45610" data-name="Trazado 45610" d="M349.14,27.46a10.369,10.369,0,0,0-.35,4A3.47,3.47,0,0,0,351,30c.86-1.33.69-4,.69-4a2.2,2.2,0,0,0-2.59,1.5" transform="translate(1224.29 11119)" fill="#0067a2"/>
      <path id="Trazado_45611" data-name="Trazado 45611" d="M403.32,35.75c1-1.33.35-4,.35-4S402.29,31.31,401,33s-.35,4.26-.35,4.26a4.17,4.17,0,0,0,2.65-1.55" transform="translate(1224.29 11119)" fill="#00aced"/>
      <path id="Trazado_45612" data-name="Trazado 45612" d="M354.73,19.05c-.69,1.78-3.22,3.62-3.22,3.62s-1.09-.81-.12-2.88a14.87,14.87,0,0,1,3.45-4,4.92,4.92,0,0,1-.11,3.29" transform="translate(1224.29 11119)" fill="#0067a2"/>
      <path id="Trazado_45613" data-name="Trazado 45613" d="M396.46,45.59c.52-1.84,3.22-3.62,3.22-3.62s.69.69.12,2.88-3.45,4-3.45,4a5.86,5.86,0,0,1,.11-3.29" transform="translate(1224.29 11119)" fill="#00aced"/>
      <path id="Trazado_45614" data-name="Trazado 45614" d="M368.71,9.43A4,4,0,0,1,366,7.31a8.82,8.82,0,0,1,4.84-.46c2.65.51,2.12,2.36,2.12,2.36a9.57,9.57,0,0,1-4.26.22" transform="translate(1224.29 11119)" fill="#00aced"/>
      <path id="Trazado_45615" data-name="Trazado 45615" d="M381.72,56.75c2.13.4,2.65,1.55,2.65,1.55a17.71,17.71,0,0,1-4.84.46,2.22,2.22,0,0,1-2.07-1.84,11.27,11.27,0,0,1,4.26-.17" transform="translate(1224.29 11119)" fill="#0067a2"/>
      <path id="Trazado_45616" data-name="Trazado 45616" d="M396.75,16.17a8.91,8.91,0,0,0,2,2.75,14.58,14.58,0,0,0,3.4,2,14.641,14.641,0,0,0-2-2.88c-.91-1.08-3.45-1.83-3.45-1.83" transform="translate(1224.29 11119)" fill="#0073aa"/>
      <path id="Trazado_45617" data-name="Trazado 45617" d="M353.17,44.9a3.65,3.65,0,0,0-.86-3s-2.12,1.2-2.19,2.75a2.64,2.64,0,0,0,1.38,2.3,3,3,0,0,0,1.67-2" transform="translate(1224.29 11119)" fill="#0067a2"/>
      <path id="Trazado_45618" data-name="Trazado 45618" d="M349.78,36.49a8.21,8.21,0,0,0-1.73-1.32,18.39,18.39,0,0,0,0,4.49c.35,1.27,2.83.91,2.83.91s.28-2.88-1.1-4.08" transform="translate(1224.29 11119)" fill="#0073aa"/>
      <path id="Trazado_45619" data-name="Trazado 45619" d="M399.91,30.22c1.2,2.36,2.94,1.38,2.94,1.38s1.61-4.85.12-6.05a3.65,3.65,0,0,0-2.83-.92s-1.43,3.17-.23,5.59" transform="translate(1224.29 11119)" fill="#00aced"/>
      <path id="Trazado_45620" data-name="Trazado 45620" d="M399.57,26a3.45,3.45,0,0,0-.28,2.24,3.24,3.24,0,0,0,1.43,2.37s1.1-.81.52-3A2.87,2.87,0,0,0,399.57,26" transform="translate(1224.29 11119)" fill="#54c8e8"/>
      <path id="Trazado_45621" data-name="Trazado 45621" d="M355,38c.92-1.32,0-5.41,0-5.41s-3.22-.58-3.85,1.1a8.43,8.43,0,0,0,0,4S354,39.32,355,38" transform="translate(1224.29 11119)" fill="#0067a2"/>
      <path id="Trazado_45622" data-name="Trazado 45622" d="M358.18,48.07s.74,3.74,2.53,4.43a5.11,5.11,0,0,0,3.62-.17s.12-2.76-1.61-3.68a9.318,9.318,0,0,0-4.54-.58" transform="translate(1224.29 11119)" fill="#0067a2"/>
      <path id="Trazado_45623" data-name="Trazado 45623" d="M392.78,15.54s-.51-3.91-2.52-4.43a6.5,6.5,0,0,0-3.63.23S386,14.16,388.24,15a9.18,9.18,0,0,0,4.54.52" transform="translate(1224.29 11119)" fill="#54c8e8"/>
      <path id="Trazado_45624" data-name="Trazado 45624" d="M353.63,49.55a25.88,25.88,0,0,0,2.6,2.71,5.32,5.32,0,0,0,2.83,1,5.16,5.16,0,0,0-2.3-3.11,5.59,5.59,0,0,0-3.13-.64" transform="translate(1224.29 11119)" fill="#0067a2"/>
      <path id="Trazado_45625" data-name="Trazado 45625" d="M398.65,16.92s-1.89-2.65-2.82-3.62a6,6,0,0,0-2.25-1.5A8.45,8.45,0,0,0,395,15.14c.93,1.09,3.63,1.78,3.63,1.78" transform="translate(1224.29 11119)" fill="#00aced"/>
      <path id="Trazado_45626" data-name="Trazado 45626" d="M372.74,10a12.69,12.69,0,0,0-5.64.63c-2.47,1.1-2.24,5.13-2.24,5.13a8.18,8.18,0,0,0,6.27-.69A3.74,3.74,0,0,0,372.74,10" transform="translate(1224.29 11119)" fill="#00aced"/>
      <path id="Trazado_45627" data-name="Trazado 45627" d="M378.45,54.68s3.52,2.24,6-.12a15,15,0,0,0,3.62-6.1s-6-1.84-9.1.58-.51,5.64-.51,5.64" transform="translate(1224.29 11119)" fill="#0067a2"/>
      <path id="Trazado_45628" data-name="Trazado 45628" d="M359,33.84A7.1,7.1,0,0,0,357.72,39a8.4,8.4,0,0,0,5.3-2.53c2.65-2.53,2.37-4,2.37-4s-4.51-1.09-6.35,1.33" transform="translate(1224.29 11119)" fill="#0067a2"/>
      <path id="Trazado_45629" data-name="Trazado 45629" d="M390.82,54.4a7.6,7.6,0,0,0,4.61-2.07s-2.65-4.21-5.92-4a14.27,14.27,0,0,0-5.92,1.89s4.35,4.39,7.23,4.16" transform="translate(1224.29 11119)" fill="#0073aa"/>
      <path id="Trazado_45630" data-name="Trazado 45630" d="M384.09,40.87s-.64.41-4.26-1.84-1.61-6.85-1.61-6.85,4.77.58,5.69,2.7.18,6,.18,6" transform="translate(1224.29 11119)" fill="#00aced"/>
      <path id="Trazado_45631" data-name="Trazado 45631" d="M396.18,20.26a6.37,6.37,0,0,0-3.91,3.86s1.2,1.2,4.77-.12,3.75-2.94,3.75-2.94-1.5-1.78-4.61-.8" transform="translate(1224.29 11119)" fill="#54c8e8"/>
    </g>
  </g>
</svg>
