<svg xmlns="http://www.w3.org/2000/svg" width="25.665" height="16.19" viewBox="0 0 25.665 16.19">
  <g id="noun-eye-1165695" transform="translate(-116.427 -134.151)">
    <path id="Trazado_16455" data-name="Trazado 16455" d="M138.13,138.242c-2.064-1.753-5.28-3.841-8.871-3.841s-6.807,2.088-8.871,3.841a24.53,24.53,0,0,0-3.642,3.826.3.3,0,0,0,0,.356,24.531,24.531,0,0,0,3.642,3.826c2.064,1.753,5.28,3.841,8.871,3.841s6.807-2.091,8.871-3.847h0a24.529,24.529,0,0,0,3.642-3.82.3.3,0,0,0,0-.356A24.54,24.54,0,0,0,138.13,138.242Zm-8.871,11.245c-5.968,0-11.01-6.113-11.888-7.241.878-1.129,5.917-7.241,11.888-7.241s11.01,6.113,11.888,7.241C140.27,143.374,135.228,149.487,129.26,149.487Z" fill="#fff" stroke="#fff" stroke-width="0.5"/>
    <path id="Trazado_16456" data-name="Trazado 16456" d="M267.24,192.53a4.719,4.719,0,1,0,3.331,1.382,4.712,4.712,0,0,0-3.331-1.382Zm0,8.822h0a4.112,4.112,0,1,1,2.905-1.2,4.11,4.11,0,0,1-2.905,1.2Z" transform="translate(-137.98 -54.997)" fill="#fff" stroke="#fff" stroke-width="0.5"/>
  </g>
</svg>
