<svg xmlns="http://www.w3.org/2000/svg" xmlns:xlink="http://www.w3.org/1999/xlink" width="72" height="72" viewBox="0 0 72 72">
  <defs>
    <filter id="Elipse_1458" x="0" y="0" width="72" height="72" filterUnits="userSpaceOnUse">
      <feOffset dy="2" input="SourceAlpha"/>
      <feGaussianBlur stdDeviation="2" result="blur"/>
      <feFlood flood-color="#447b6e"/>
      <feComposite operator="in" in2="blur"/>
      <feComposite in="SourceGraphic"/>
    </filter>
  </defs>
  <g id="Grupo_35968" data-name="Grupo 35968" transform="translate(-962 -2014.784)">
    <g transform="matrix(1, 0, 0, 1, 962, 2014.78)" filter="url(#Elipse_1458)">
      <g id="Elipse_1458-2" data-name="Elipse 1458" transform="translate(6 4)" fill="#fff" stroke="#fff" stroke-width="1">
        <circle cx="30" cy="30" r="30" stroke="none"/>
        <circle cx="30" cy="30" r="29.5" fill="none"/>
      </g>
    </g>
    <g id="Grupo_35853" data-name="Grupo 35853" transform="translate(877.811 1911.142)">
      <path id="Trazado_45881" data-name="Trazado 45881" d="M176.15,124.85A4.16,4.16,0,0,0,171.995,129v1.63a4.159,4.159,0,0,0,4.155,4.155h1.111a4.159,4.159,0,0,0,4.155-4.155V129a4.159,4.159,0,0,0-4.155-4.155Zm3.861,5.785a2.754,2.754,0,0,1-2.75,2.751H176.15a2.754,2.754,0,0,1-2.75-2.751V129a2.754,2.754,0,0,1,2.75-2.751h1.111a2.754,2.754,0,0,1,2.75,2.751Z" transform="translate(-67.892 0)" fill="#447b6e"/>
      <path id="Trazado_45882" data-name="Trazado 45882" d="M129.585,243.555a9.5,9.5,0,0,0-6.611,2.753v-1.2a3.715,3.715,0,0,0-3.711-3.711H118.3a3.716,3.716,0,0,0-3.69,3.318,9.972,9.972,0,0,0-5.9-1.961c-5.21,0-9.567,4.128-10.656,9.651a2.157,2.157,0,0,0,1.9,2.7h11.781a9.028,9.028,0,0,0-.2,1.013,1.05,1.05,0,0,0,.94,1.256h12.618a1.05,1.05,0,0,0,.94-1.256,9.208,9.208,0,0,0-.2-1.013h11.785a2.17,2.17,0,0,0,1.885-2.767c-1.1-5.041-5.118-8.779-9.912-8.779Zm8.361,9.954a.432.432,0,0,1-.334.188H125.346a7.908,7.908,0,0,0-3.324-3.765,8.654,8.654,0,0,1,7.561-4.973c4.045,0,7.557,3.155,8.54,7.673A1.058,1.058,0,0,1,137.946,253.509Zm-13.362,2.457H112.975c.564-3.151,3.009-5.487,5.8-5.487s5.24,2.336,5.8,5.487Zm-24.97-2.457a1.015,1.015,0,0,1-.185-.836c.973-4.936,4.875-8.518,9.278-8.518a8.718,8.718,0,0,1,5.879,2.358v.013a3.71,3.71,0,0,0,1.632,3.072,7.759,7.759,0,0,0-4.006,4.1H99.95a.452.452,0,0,1-.337-.186ZM119.262,242.8a2.31,2.31,0,0,1,2.307,2.307v1.421a2.309,2.309,0,0,1-2.307,2.307h-.967a2.31,2.31,0,0,1-2.307-2.307v-1.421a2.309,2.309,0,0,1,2.307-2.307Z" transform="translate(0 -106.936)" fill="#447b6e"/>
      <path id="Trazado_45883" data-name="Trazado 45883" d="M426.657,136.66a4.16,4.16,0,0,0-4.155,4.155v1.63a4.16,4.16,0,0,0,4.155,4.155h1.11a4.16,4.16,0,0,0,4.155-4.155v-1.63a4.16,4.16,0,0,0-4.155-4.155Zm3.861,5.785a2.754,2.754,0,0,1-2.751,2.751h-1.11a2.754,2.754,0,0,1-2.751-2.751v-1.63a2.754,2.754,0,0,1,2.751-2.751h1.11a2.754,2.754,0,0,1,2.751,2.751Z" transform="translate(-297.745 -10.836)" fill="#447b6e"/>
    </g>
  </g>
</svg>
