<svg xmlns="http://www.w3.org/2000/svg" xmlns:xlink="http://www.w3.org/1999/xlink" width="130" height="80" viewBox="0 0 130 80">
  <defs>
    <clipPath id="clip-path">
      <rect id="Rect치ngulo_5244" data-name="Rect치ngulo 5244" width="130" height="80" transform="translate(1235 11119)" fill="none" stroke="#707070" stroke-width="1"/>
    </clipPath>
    <clipPath id="clip-path-2">
      <rect id="Rect치ngulo_5233" data-name="Rect치ngulo 5233" width="84.2" height="67.9" transform="translate(32.71 6.7)" fill="none"/>
    </clipPath>
  </defs>
  <g id="Enmascarar_grupo_106" data-name="Enmascarar grupo 106" transform="translate(-1235 -11119)" clip-path="url(#clip-path)">
    <g id="Grupo_36051" data-name="Grupo 36051">
      <path id="Trazado_45632" data-name="Trazado 45632" d="M45.26,37.32a2.4,2.4,0,0,0-1.38.61,4.63,4.63,0,0,0,1.46.3c.44,0,.85-.18.86-.43s-.39-.48-.93-.48Zm-7.13.07c-1.59,0-3,.52-3.28,2.19A2.48,2.48,0,0,0,36,42.23c.16.09.23.07.22.14s-.19,0-.33,0a2.87,2.87,0,0,1-1.43-2.88,3.58,3.58,0,0,1,3.79-3.13,9.19,9.19,0,0,1,2.86.62c.62.23,1.45.53,2.23.78a4.35,4.35,0,0,1,2-.64c.59,0,1.13.25,1.08.78s-.66.7-1.61.7a10.46,10.46,0,0,1-1.37-.13,11.968,11.968,0,0,0-1,1.57c-.55.87-.86,1.53-1.37,2.33a2.56,2.56,0,0,0,1.22-.18c.32-.59.73-.87,1-.78s.24.46-.15.85a8.17,8.17,0,0,0-.95,1.05c-.15.21-.25.41-.3.41s-.07-.39,0-.62a3.89,3.89,0,0,1,.25-.64,3,3,0,0,1-1.18.16c-.11.16-.22.37-.39.62a7.55,7.55,0,0,1-5.54,3.5c-1.27,0-2.18-.69-2.18-1.76,0-.76.39-1.49,1.07-1.49s.79.51.77,1a1.32,1.32,0,0,1-.27.79,1.12,1.12,0,0,0-.22.58c0,.38.26.64.75.66,1.3.11,2.23-.66,3.28-2.22a16,16,0,0,0,1-1.69H38.3c-.44,0-.56.16-.54,0s.17-.25.68-.3h.91a15.788,15.788,0,0,1,.86-1.41,13.71,13.71,0,0,1,2.46-2.68,16.09,16.09,0,0,1-1.81-.41,12.78,12.78,0,0,0-2.64-.45Z" transform="translate(1224.29 11119)" fill="#2a63af"/>
      <g id="Grupo_36046" data-name="Grupo 36046" transform="translate(1224.29 11119)" clip-path="url(#clip-path-2)">
        <path id="Trazado_45633" data-name="Trazado 45633" d="M45.26,37.32a2.4,2.4,0,0,0-1.38.61,4.63,4.63,0,0,0,1.46.3c.44,0,.85-.18.86-.43s-.39-.48-.93-.48Zm-7.13.07c-1.59,0-3,.52-3.28,2.19A2.48,2.48,0,0,0,36,42.23c.16.09.23.07.22.14s-.19,0-.33,0a2.87,2.87,0,0,1-1.43-2.88,3.58,3.58,0,0,1,3.79-3.13,9.19,9.19,0,0,1,2.86.62c.62.23,1.45.53,2.23.78a4.35,4.35,0,0,1,2-.64c.59,0,1.13.25,1.08.78s-.66.7-1.61.7a10.46,10.46,0,0,1-1.37-.13,11.968,11.968,0,0,0-1,1.57c-.55.87-.86,1.53-1.37,2.33a2.56,2.56,0,0,0,1.22-.18c.32-.59.73-.87,1-.78s.24.46-.15.85a8.17,8.17,0,0,0-.95,1.05c-.15.21-.25.41-.3.41s-.07-.39,0-.62a3.89,3.89,0,0,1,.25-.64,3,3,0,0,1-1.18.16c-.11.16-.22.37-.39.62a7.55,7.55,0,0,1-5.54,3.5c-1.27,0-2.18-.69-2.18-1.76,0-.76.39-1.49,1.07-1.49s.79.51.77,1a1.32,1.32,0,0,1-.27.79,1.12,1.12,0,0,0-.22.58c0,.38.26.64.75.66,1.3.11,2.23-.66,3.28-2.22a16,16,0,0,0,1-1.69H38.3c-.44,0-.56.16-.54,0s.17-.25.68-.3h.91a15.788,15.788,0,0,1,.86-1.41,13.71,13.71,0,0,1,2.46-2.68,16.09,16.09,0,0,1-1.81-.41,12.78,12.78,0,0,0-2.64-.45Z" fill="none" stroke="#2a63af" stroke-width="0.08"/>
      </g>
      <path id="Trazado_45634" data-name="Trazado 45634" d="M42.46,44.42c-.18.23-.23.28-.28.21s0-.16.1-.28a6.41,6.41,0,0,1,.57-.64c.14-.13.41-.36.65-.54a4.08,4.08,0,0,1,2.13-.92c.27,0,.46,0,.46.16s-.14.09-.28.18a6.14,6.14,0,0,0-1.21,1.26,5,5,0,0,0-1,2.1c0,.14.07.3.22.3.41,0,1.15-.73,1.71-1.46a2.11,2.11,0,0,1,.25-1.08,3.19,3.19,0,0,1,.56-.73,1.23,1.23,0,0,0,0-.29c0-.19-.1-.26-.05-.32s.25,0,.44.18a1,1,0,0,1,.34.8,3.46,3.46,0,0,1-1,2,.27.27,0,0,0,.19.06A1.07,1.07,0,0,0,47,45a12.471,12.471,0,0,0,.83-.94A.259.259,0,0,1,48,44a.15.15,0,0,1,0,.18,9.761,9.761,0,0,1-.93,1.05,1.13,1.13,0,0,1-.78.39A.5.5,0,0,1,46,45.5a3.9,3.9,0,0,1-2.2,1c-1,0-1.37-.5-1.39-1.14a2,2,0,0,1,.41-1.24h0c-.07.07-.15.18-.29.34Z" transform="translate(1224.29 11119)" fill="#2a63af"/>
      <path id="Trazado_45635" data-name="Trazado 45635" d="M42.46,44.42c-.18.23-.23.28-.28.21s0-.16.1-.28a6.41,6.41,0,0,1,.57-.64c.14-.13.41-.36.65-.54a4.08,4.08,0,0,1,2.13-.92c.27,0,.46,0,.46.16s-.14.09-.28.18a6.14,6.14,0,0,0-1.21,1.26,5,5,0,0,0-1,2.1c0,.14.07.3.22.3.41,0,1.15-.73,1.71-1.46a2.11,2.11,0,0,1,.25-1.08,3.19,3.19,0,0,1,.56-.73,1.23,1.23,0,0,0,0-.29c0-.19-.1-.26-.05-.32s.25,0,.44.18a1,1,0,0,1,.34.8,3.46,3.46,0,0,1-1,2,.27.27,0,0,0,.19.06A1.07,1.07,0,0,0,47,45a12.471,12.471,0,0,0,.83-.94A.259.259,0,0,1,48,44a.15.15,0,0,1,0,.18,9.761,9.761,0,0,1-.93,1.05,1.13,1.13,0,0,1-.78.39A.5.5,0,0,1,46,45.5a3.9,3.9,0,0,1-2.2,1c-1,0-1.37-.5-1.39-1.14a2,2,0,0,1,.41-1.24h0c-.07.07-.15.18-.29.34Z" transform="translate(1224.29 11119)" fill="none" stroke="#2a63af" stroke-width="0.08"/>
      <path id="Trazado_45636" data-name="Trazado 45636" d="M48.47,43.65c-.25.27-.52.59-.69.8s-.2.2-.24.16,0-.16.1-.3A11.31,11.31,0,0,1,48.86,43a2.36,2.36,0,0,1,1.51-.67c.62,0,.74.07.56.37-.29.46-.63,1-1,1.55a7.8,7.8,0,0,0-.64,1.24c-.07.16-.09.32,0,.38s.19,0,.39-.09A8.07,8.07,0,0,0,51,44.63c.71-.76,1.15-1.4,1.74-2.08.17-.18.26-.25.8-.25s.74,0,.56.36-.56,1-.88,1.6-.39.78-.49,1-.12.41,0,.5.26.05.42-.07a3.57,3.57,0,0,0,.68-.61c.37-.41.64-.73.86-1,.06-.07.16-.16.21-.09s0,.18-.21.39-.62.75-1,1.12a2.73,2.73,0,0,1-1.67,1c-.82,0-.88-.59-.85-1a2.2,2.2,0,0,1,.27-.82c.07-.14.2-.37.32-.57h0c-.31.37-.71.8-1,1.08-.48.48-1.29,1.32-2.14,1.32a.66.66,0,0,1-.76-.73,2.2,2.2,0,0,1,.29-.94,8.37,8.37,0,0,1,1.46-2.08,4.21,4.21,0,0,0-1.09.9Z" transform="translate(1224.29 11119)" fill="#2a63af"/>
      <path id="Trazado_45637" data-name="Trazado 45637" d="M48.47,43.65c-.25.27-.52.59-.69.8s-.2.2-.24.16,0-.16.1-.3A11.31,11.31,0,0,1,48.86,43a2.36,2.36,0,0,1,1.51-.67c.62,0,.74.07.56.37-.29.46-.63,1-1,1.55a7.8,7.8,0,0,0-.64,1.24c-.07.16-.09.32,0,.38s.19,0,.39-.09A8.07,8.07,0,0,0,51,44.63c.71-.76,1.15-1.4,1.74-2.08.17-.18.26-.25.8-.25s.74,0,.56.36-.56,1-.88,1.6-.39.78-.49,1-.12.41,0,.5.26.05.42-.07a3.57,3.57,0,0,0,.68-.61c.37-.41.64-.73.86-1,.06-.07.16-.16.21-.09s0,.18-.21.39-.62.75-1,1.12a2.73,2.73,0,0,1-1.67,1c-.82,0-.88-.59-.85-1a2.2,2.2,0,0,1,.27-.82c.07-.14.2-.37.32-.57h0c-.31.37-.71.8-1,1.08-.48.48-1.29,1.32-2.14,1.32a.66.66,0,0,1-.76-.73,2.2,2.2,0,0,1,.29-.94,8.37,8.37,0,0,1,1.46-2.08,4.21,4.21,0,0,0-1.09.9Z" transform="translate(1224.29 11119)" fill="none" stroke="#2a63af" stroke-width="0.08"/>
      <path id="Trazado_45638" data-name="Trazado 45638" d="M58,43c0,.3-.17.55-.59,1.26-.19.32-.41.71-.58,1.07s-.12.39-.05.48.24.05.37,0a4.67,4.67,0,0,0,.76-.66,9.28,9.28,0,0,0,.83-1c0-.05.17-.21.22-.14s0,.2-.13.32a14.128,14.128,0,0,1-1,1.19,2.59,2.59,0,0,1-1.59,1c-.81.06-1-.37-1-.76a2.47,2.47,0,0,1,.74-1.51,9.521,9.521,0,0,0,1.1-1.3c.07-.25-.27-.23-.68-.18a.57.57,0,0,1-.38-.05c-.17.25-.41.6-.66.92l-.7.87c-.13.16-.2.22-.25.16s0-.14.08-.26l.75-.91c.22-.27.49-.64.64-.87a.65.65,0,0,1,0-.8,1,1,0,0,1,.76-.43.59.59,0,0,1,.54.23,2,2,0,0,0-.34.41c-.22.36-.15.5,0,.52.43,0,1.1,0,1.12.46h0Z" transform="translate(1224.29 11119)" fill="#2a63af"/>
      <path id="Trazado_45639" data-name="Trazado 45639" d="M58,43c0,.3-.17.55-.59,1.26-.19.32-.41.71-.58,1.07s-.12.39-.05.48.24.05.37,0a4.67,4.67,0,0,0,.76-.66,9.28,9.28,0,0,0,.83-1c0-.05.17-.21.22-.14s0,.2-.13.32a14.128,14.128,0,0,1-1,1.19,2.59,2.59,0,0,1-1.59,1c-.81.06-1-.37-1-.76a2.47,2.47,0,0,1,.74-1.51,9.521,9.521,0,0,0,1.1-1.3c.07-.25-.27-.23-.68-.18a.57.57,0,0,1-.38-.05c-.17.25-.41.6-.66.92l-.7.87c-.13.16-.2.22-.25.16s0-.14.08-.26l.75-.91c.22-.27.49-.64.64-.87a.65.65,0,0,1,0-.8,1,1,0,0,1,.76-.43.59.59,0,0,1,.54.23,2,2,0,0,0-.34.41c-.22.36-.15.5,0,.52.43,0,1.1,0,1.12.46h0Z" transform="translate(1224.29 11119)" fill="none" stroke="#2a63af" stroke-width="0.08"/>
      <path id="Trazado_45640" data-name="Trazado 45640" d="M67.49,46.27a5,5,0,0,0,4.57-3.08,5.24,5.24,0,0,0,0-4.59c-.74,1-1.35,2.46-2.15,3.72A8.06,8.06,0,0,1,65.58,46a11.27,11.27,0,0,0,1.91.25Zm0-6.23c0-.6-.34-1-.75-1a1.37,1.37,0,0,0-1.08.59c-.24.28-.27.46-.32.44s.05-.3.27-.6a1.45,1.45,0,0,1,1.22-.68c.49,0,1,.48,1,1.3a3.35,3.35,0,0,1-3.71,3.63,2.28,2.28,0,0,1-2.33-2.19c0-2.74,3.1-4.91,6.06-4.91a5.75,5.75,0,0,1,4,1.41A6,6,0,0,1,73,37.32a4.26,4.26,0,0,1,1.76-.41,1.34,1.34,0,0,1,1,.37c.13.14.17.32.13.34s0-.11-.22-.25a1.45,1.45,0,0,0-.84-.23,3.39,3.39,0,0,0-1.59.48,5.261,5.261,0,0,0-1,.78,5.39,5.39,0,0,1,1.29,5.32c-1.17,2.9-4.13,2.81-5.82,2.81a20.82,20.82,0,0,1-2.61-.23,12.57,12.57,0,0,1-2,.19c-1.53,0-2.73.06-2.68-.37s1-.5,2.39-.46a14.191,14.191,0,0,1,2.37.32c1.42-.52,2.23-2.3,3.25-4a15,15,0,0,1,3.24-3.77,5.26,5.26,0,0,0-3.8-1.38,5.06,5.06,0,0,0-5,4.85c0,1.19.46,1.76,1.27,1.83a2.91,2.91,0,0,0,2.4-1.24,3.91,3.91,0,0,0,.92-2.19h0Z" transform="translate(1224.29 11119)" fill="#2a63af"/>
      <path id="Trazado_45641" data-name="Trazado 45641" d="M67.49,46.27a5,5,0,0,0,4.57-3.08,5.24,5.24,0,0,0,0-4.59c-.74,1-1.35,2.46-2.15,3.72A8.06,8.06,0,0,1,65.58,46a11.27,11.27,0,0,0,1.91.25Zm0-6.23c0-.6-.34-1-.75-1a1.37,1.37,0,0,0-1.08.59c-.24.28-.27.46-.32.44s.05-.3.27-.6a1.45,1.45,0,0,1,1.22-.68c.49,0,1,.48,1,1.3a3.35,3.35,0,0,1-3.71,3.63,2.28,2.28,0,0,1-2.33-2.19c0-2.74,3.1-4.91,6.06-4.91a5.75,5.75,0,0,1,4,1.41A6,6,0,0,1,73,37.32a4.26,4.26,0,0,1,1.76-.41,1.34,1.34,0,0,1,1,.37c.13.14.17.32.13.34s0-.11-.22-.25a1.45,1.45,0,0,0-.84-.23,3.39,3.39,0,0,0-1.59.48,5.261,5.261,0,0,0-1,.78,5.39,5.39,0,0,1,1.29,5.32c-1.17,2.9-4.13,2.81-5.82,2.81a20.82,20.82,0,0,1-2.61-.23,12.57,12.57,0,0,1-2,.19c-1.53,0-2.73.06-2.68-.37s1-.5,2.39-.46a14.191,14.191,0,0,1,2.37.32c1.42-.52,2.23-2.3,3.25-4a15,15,0,0,1,3.24-3.77,5.26,5.26,0,0,0-3.8-1.38,5.06,5.06,0,0,0-5,4.85c0,1.19.46,1.76,1.27,1.83a2.91,2.91,0,0,0,2.4-1.24,3.91,3.91,0,0,0,.92-2.19h0Z" transform="translate(1224.29 11119)" fill="none" stroke="#2a63af" stroke-width="0.08"/>
      <path id="Trazado_45642" data-name="Trazado 45642" d="M78.36,39.19c.35,0,.49.34.22.82a1.93,1.93,0,0,1-1.17.92,2,2,0,0,1,0-1.12.84.84,0,0,1,1-.62Zm-3.49,4.46c-.25.27-.52.59-.69.8s-.2.22-.25.16,0-.16.11-.3A11.308,11.308,0,0,1,75.26,43a2.38,2.38,0,0,1,1.56-.67c.68,0,.78.09.59.37-.42.62-.66,1-1,1.53a6.71,6.71,0,0,0-.56,1.12c-.1.27-.12.43-.05.5s.19,0,.36-.09a5.15,5.15,0,0,0,.74-.68c.36-.39.53-.62.8-.94.11-.14.18-.21.23-.14s0,.16-.13.3-.71.89-1,1.19a2.56,2.56,0,0,1-1.79,1c-.58,0-.75-.3-.75-.66a2.13,2.13,0,0,1,.24-.87A9,9,0,0,1,76,42.75a4.21,4.21,0,0,0-1.09.9Z" transform="translate(1224.29 11119)" fill="#2a63af"/>
      <path id="Trazado_45643" data-name="Trazado 45643" d="M78.36,39.19c.35,0,.49.34.22.82a1.93,1.93,0,0,1-1.17.92,2,2,0,0,1,0-1.12.84.84,0,0,1,1-.62Zm-3.49,4.46c-.25.27-.52.59-.69.8s-.2.22-.25.16,0-.16.11-.3A11.308,11.308,0,0,1,75.26,43a2.38,2.38,0,0,1,1.56-.67c.68,0,.78.09.59.37-.42.62-.66,1-1,1.53a6.71,6.71,0,0,0-.56,1.12c-.1.27-.12.43-.05.5s.19,0,.36-.09a5.15,5.15,0,0,0,.74-.68c.36-.39.53-.62.8-.94.11-.14.18-.21.23-.14s0,.16-.13.3-.71.89-1,1.19a2.56,2.56,0,0,1-1.79,1c-.58,0-.75-.3-.75-.66a2.13,2.13,0,0,1,.24-.87A9,9,0,0,1,76,42.75a4.21,4.21,0,0,0-1.09.9Z" transform="translate(1224.29 11119)" fill="none" stroke="#2a63af" stroke-width="0.08"/>
      <path id="Trazado_45644" data-name="Trazado 45644" d="M81.24,42.53c-.32,0-1,.68-1.59,1.5a3.94,3.94,0,0,0-.93,1.81.207.207,0,0,0,.22.23,2.691,2.691,0,0,0,1.42-1.08,6.38,6.38,0,0,0,1.2-2.05c0-.3-.12-.41-.31-.41Zm1.62-.16c.54,0,.63.09.46.36-.34.55-.56.92-.9,1.51a10.864,10.864,0,0,0-.57,1.12.42.42,0,0,0,0,.41c.08.09.27,0,.42-.05a3.53,3.53,0,0,0,.71-.63,12.959,12.959,0,0,0,.83-1c.17-.24.19-.17.19-.09a.911.911,0,0,1-.15.34c-.21.28-.7.85-1,1.19-.73.75-1.15,1-1.69,1a.67.67,0,0,1-.76-.59,1.37,1.37,0,0,1,.15-.8h0c-.44.52-1.27,1.41-2.16,1.41-.61,0-1-.22-1-.89a2.48,2.48,0,0,1,.54-1.37h0l-.16.18c-.15.19-.23.23-.27.19s0-.16.12-.3a5.289,5.289,0,0,1,.66-.71,6.84,6.84,0,0,1,1.2-.87,3.56,3.56,0,0,1,1.64-.48c.56,0,.66.41.65.73.44-.61.47-.61,1.13-.61Z" transform="translate(1224.29 11119)" fill="#2a63af"/>
      <path id="Trazado_45645" data-name="Trazado 45645" d="M81.24,42.53c-.32,0-1,.68-1.59,1.5a3.94,3.94,0,0,0-.93,1.81.207.207,0,0,0,.22.23,2.691,2.691,0,0,0,1.42-1.08,6.38,6.38,0,0,0,1.2-2.05c0-.3-.12-.41-.31-.41Zm1.62-.16c.54,0,.63.09.46.36-.34.55-.56.92-.9,1.51a10.864,10.864,0,0,0-.57,1.12.42.42,0,0,0,0,.41c.08.09.27,0,.42-.05a3.53,3.53,0,0,0,.71-.63,12.959,12.959,0,0,0,.83-1c.17-.24.19-.17.19-.09a.911.911,0,0,1-.15.34c-.21.28-.7.85-1,1.19-.73.75-1.15,1-1.69,1a.67.67,0,0,1-.76-.59,1.37,1.37,0,0,1,.15-.8h0c-.44.52-1.27,1.41-2.16,1.41-.61,0-1-.22-1-.89a2.48,2.48,0,0,1,.54-1.37h0l-.16.18c-.15.19-.23.23-.27.19s0-.16.12-.3a5.289,5.289,0,0,1,.66-.71,6.84,6.84,0,0,1,1.2-.87,3.56,3.56,0,0,1,1.64-.48c.56,0,.66.41.65.73.44-.61.47-.61,1.13-.61Z" transform="translate(1224.29 11119)" fill="none" stroke="#2a63af" stroke-width="0.08"/>
      <path id="Trazado_45646" data-name="Trazado 45646" d="M86.2,42.25c.52,0,.69.28.69.62a2.33,2.33,0,0,1-.37,1c-.26.46-.53.9-.78,1.31h0c.21-.23.83-.91,1.61-1.67.58-.54,1.34-1.3,2.13-1.3s.71.48.68.8a3.77,3.77,0,0,1-.54,1.3l-.48.83h0a21.9,21.9,0,0,1,1.54-1.62A4,4,0,0,1,93,42.25a.65.65,0,0,1,.73.73,4.09,4.09,0,0,1-.61,1.4,8.4,8.4,0,0,0-.51.91c-.12.25-.14.43,0,.53s.27,0,.42-.12a5.87,5.87,0,0,0,.73-.66c.23-.25.64-.73.81-.94s.15-.16.2-.09,0,.12,0,.21c-.2.25-.78.93-1.12,1.28a3,3,0,0,1-1.65,1,.74.74,0,0,1-.85-.92,3.13,3.13,0,0,1,.57-1.32c.24-.39.5-.8.68-1.12.07-.12.07-.25,0-.3s-.27,0-.53.21a11.17,11.17,0,0,0-1.18,1.07c-.78.78-1.24,1.26-1.93,2a1.53,1.53,0,0,1-.85.25c-.54,0-.56-.06-.47-.36a11.42,11.42,0,0,1,.9-1.78c.25-.46.49-.85.61-1.12s0-.25,0-.3-.36.09-.51.21a12.349,12.349,0,0,0-1.12,1c-.77.78-1.23,1.26-1.94,2a1.18,1.18,0,0,1-.85.29c-.54,0-.61,0-.51-.36a11.1,11.1,0,0,1,.78-1.53c.29-.5.53-.87.73-1.26.07-.14.1-.25,0-.32s-.13,0-.25.09-.39.35-.61.57l-.76.87c-.15.19-.24.25-.29.19s0-.12.12-.28.59-.71.88-1,1-1.08,1.68-1.08Z" transform="translate(1224.29 11119)" fill="#2a63af"/>
      <path id="Trazado_45647" data-name="Trazado 45647" d="M86.2,42.25c.52,0,.69.28.69.62a2.33,2.33,0,0,1-.37,1c-.26.46-.53.9-.78,1.31h0c.21-.23.83-.91,1.61-1.67.58-.54,1.34-1.3,2.13-1.3s.71.48.68.8a3.77,3.77,0,0,1-.54,1.3l-.48.83h0a21.9,21.9,0,0,1,1.54-1.62A4,4,0,0,1,93,42.25a.65.65,0,0,1,.73.73,4.09,4.09,0,0,1-.61,1.4,8.4,8.4,0,0,0-.51.91c-.12.25-.14.43,0,.53s.27,0,.42-.12a5.87,5.87,0,0,0,.73-.66c.23-.25.64-.73.81-.94s.15-.16.2-.09,0,.12,0,.21c-.2.25-.78.93-1.12,1.28a3,3,0,0,1-1.65,1,.74.74,0,0,1-.85-.92,3.13,3.13,0,0,1,.57-1.32c.24-.39.5-.8.68-1.12.07-.12.07-.25,0-.3s-.27,0-.53.21a11.17,11.17,0,0,0-1.18,1.07c-.78.78-1.24,1.26-1.93,2a1.53,1.53,0,0,1-.85.25c-.54,0-.56-.06-.47-.36a11.42,11.42,0,0,1,.9-1.78c.25-.46.49-.85.61-1.12s0-.25,0-.3-.36.09-.51.21a12.349,12.349,0,0,0-1.12,1c-.77.78-1.23,1.26-1.94,2a1.18,1.18,0,0,1-.85.29c-.54,0-.61,0-.51-.36a11.1,11.1,0,0,1,.78-1.53c.29-.5.53-.87.73-1.26.07-.14.1-.25,0-.32s-.13,0-.25.09-.39.35-.61.57l-.76.87c-.15.19-.24.25-.29.19s0-.12.12-.28.59-.71.88-1,1-1.08,1.68-1.08Z" transform="translate(1224.29 11119)" fill="none" stroke="#2a63af" stroke-width="0.08"/>
      <path id="Trazado_45648" data-name="Trazado 45648" d="M94.52,44.42c-.18.23-.23.28-.29.21s0-.16.11-.28a5.358,5.358,0,0,1,.57-.64c.14-.13.41-.36.64-.54a4.15,4.15,0,0,1,2.14-.92c.27,0,.45,0,.45.16s-.13.09-.27.18a6.15,6.15,0,0,0-1.22,1.26,5,5,0,0,0-1,2.1c0,.14.07.3.22.3.41,0,1.15-.73,1.71-1.46a2.11,2.11,0,0,1,.25-1.08,3.19,3.19,0,0,1,.56-.73,2.16,2.16,0,0,0,0-.29c0-.19-.1-.26-.05-.32s.25,0,.44.18a1,1,0,0,1,.34.8,3.46,3.46,0,0,1-.95,2,.26.26,0,0,0,.18.06A1.09,1.09,0,0,0,99,45a12.471,12.471,0,0,0,.83-.94c.07-.09.14-.13.19-.09a.15.15,0,0,1,0,.18,11,11,0,0,1-.93,1.05,1.13,1.13,0,0,1-.78.39A.5.5,0,0,1,98,45.5a3.9,3.9,0,0,1-2.2,1c-1,0-1.37-.5-1.39-1.14a1.94,1.94,0,0,1,.41-1.24h0c-.07.07-.15.18-.29.34Z" transform="translate(1224.29 11119)" fill="#2a63af"/>
      <path id="Trazado_45649" data-name="Trazado 45649" d="M94.52,44.42c-.18.23-.23.28-.29.21s0-.16.11-.28a5.358,5.358,0,0,1,.57-.64c.14-.13.41-.36.64-.54a4.15,4.15,0,0,1,2.14-.92c.27,0,.45,0,.45.16s-.13.09-.27.18a6.15,6.15,0,0,0-1.22,1.26,5,5,0,0,0-1,2.1c0,.14.07.3.22.3.41,0,1.15-.73,1.71-1.46a2.11,2.11,0,0,1,.25-1.08,3.19,3.19,0,0,1,.56-.73,2.16,2.16,0,0,0,0-.29c0-.19-.1-.26-.05-.32s.25,0,.44.18a1,1,0,0,1,.34.8,3.46,3.46,0,0,1-.95,2,.26.26,0,0,0,.18.06A1.09,1.09,0,0,0,99,45a12.471,12.471,0,0,0,.83-.94c.07-.09.14-.13.19-.09a.15.15,0,0,1,0,.18,11,11,0,0,1-.93,1.05,1.13,1.13,0,0,1-.78.39A.5.5,0,0,1,98,45.5a3.9,3.9,0,0,1-2.2,1c-1,0-1.37-.5-1.39-1.14a1.94,1.94,0,0,1,.41-1.24h0c-.07.07-.15.18-.29.34Z" transform="translate(1224.29 11119)" fill="none" stroke="#2a63af" stroke-width="0.08"/>
      <path id="Trazado_45650" data-name="Trazado 45650" d="M103.76,45.52a3.3,3.3,0,0,1,.58-1.3c.23-.39.51-.8.68-1.12.06-.12.06-.25,0-.3s-.29,0-.52.18A10.2,10.2,0,0,0,103.24,44c-.8.78-1.24,1.26-1.95,2-.18.2-.4.25-.84.29s-.61,0-.51-.36a9.239,9.239,0,0,1,.78-1.53c.28-.5.52-.87.72-1.26.07-.14.11-.25,0-.32s-.14,0-.27.09a6.29,6.29,0,0,0-.59.57c-.26.28-.6.67-.77.87s-.23.25-.28.19,0-.12.11-.28a10.646,10.646,0,0,1,.88-1,2.73,2.73,0,0,1,1.7-1c.52,0,.67.28.67.62a2.33,2.33,0,0,1-.37,1c-.25.46-.52.9-.78,1.31h0c.3-.36.91-1,1.6-1.67a3.93,3.93,0,0,1,2.27-1.3.65.65,0,0,1,.73.73,3.74,3.74,0,0,1-.61,1.4c-.25.43-.41.68-.51.91s-.13.43,0,.53.27,0,.42-.12a4.711,4.711,0,0,0,.7-.61c.23-.26.67-.78.84-1s.15-.16.2-.09,0,.12-.05.21c-.2.25-.77.93-1.11,1.28a3,3,0,0,1-1.66,1,.75.75,0,0,1-.85-.94Z" transform="translate(1224.29 11119)" fill="#2a63af"/>
      <path id="Trazado_45651" data-name="Trazado 45651" d="M103.76,45.52a3.3,3.3,0,0,1,.58-1.3c.23-.39.51-.8.68-1.12.06-.12.06-.25,0-.3s-.29,0-.52.18A10.2,10.2,0,0,0,103.24,44c-.8.78-1.24,1.26-1.95,2-.18.2-.4.25-.84.29s-.61,0-.51-.36a9.239,9.239,0,0,1,.78-1.53c.28-.5.52-.87.72-1.26.07-.14.11-.25,0-.32s-.14,0-.27.09a6.29,6.29,0,0,0-.59.57c-.26.28-.6.67-.77.87s-.23.25-.28.19,0-.12.11-.28a10.646,10.646,0,0,1,.88-1,2.73,2.73,0,0,1,1.7-1c.52,0,.67.28.67.62a2.33,2.33,0,0,1-.37,1c-.25.46-.52.9-.78,1.31h0c.3-.36.91-1,1.6-1.67a3.93,3.93,0,0,1,2.27-1.3.65.65,0,0,1,.73.73,3.74,3.74,0,0,1-.61,1.4c-.25.43-.41.68-.51.91s-.13.43,0,.53.27,0,.42-.12a4.711,4.711,0,0,0,.7-.61c.23-.26.67-.78.84-1s.15-.16.2-.09,0,.12-.05.21c-.2.25-.77.93-1.11,1.28a3,3,0,0,1-1.66,1,.75.75,0,0,1-.85-.94Z" transform="translate(1224.29 11119)" fill="none" stroke="#2a63af" stroke-width="0.08"/>
      <path id="Trazado_45652" data-name="Trazado 45652" d="M110.72,42.53c-.32,0-1,.68-1.59,1.5a3.94,3.94,0,0,0-.93,1.81.207.207,0,0,0,.22.23,2.691,2.691,0,0,0,1.42-1.08,6.38,6.38,0,0,0,1.2-2.05c0-.3-.12-.41-.3-.41Zm-.15-.28a.61.61,0,0,1,.61.82h0c.58-1.08,1.32-2.31,2.17-3.64a25.071,25.071,0,0,1,1.91-2.71,1.31,1.31,0,0,1,1.1-.55c.24,0,.47.09.49.2-.46.6-1.3,1.88-1.93,2.84s-1.13,1.82-2.13,3.49c-.58,1-1.35,2.33-1.47,2.63a.42.42,0,0,0,0,.41c.08.09.27,0,.42-.05a3.53,3.53,0,0,0,.71-.63,9.411,9.411,0,0,0,.83-1c0-.07.17-.21.22-.14s-.05.2-.12.3c-.2.27-.73.89-1,1.23-.72.75-1.15,1-1.69,1a.68.68,0,0,1-.76-.59,1.37,1.37,0,0,1,.15-.8h0c-.44.52-1.26,1.41-2.16,1.41-.61,0-1-.22-1-.89a2.8,2.8,0,0,1,.54-1.37h0l-.15.18c-.14.16-.24.23-.28.19s0-.16.12-.3a5.6,5.6,0,0,1,.66-.71,7.24,7.24,0,0,1,1.2-.87,3.6,3.6,0,0,1,1.65-.48Z" transform="translate(1224.29 11119)" fill="#2a63af"/>
      <g id="Grupo_36047" data-name="Grupo 36047" transform="translate(1224.29 11119)" clip-path="url(#clip-path-2)">
        <path id="Trazado_45653" data-name="Trazado 45653" d="M110.72,42.53c-.32,0-1,.68-1.59,1.5a3.94,3.94,0,0,0-.93,1.81.207.207,0,0,0,.22.23,2.691,2.691,0,0,0,1.42-1.08,6.38,6.38,0,0,0,1.2-2.05c0-.3-.12-.41-.3-.41Zm-.15-.28a.61.61,0,0,1,.61.82h0c.58-1.08,1.32-2.31,2.17-3.64a25.071,25.071,0,0,1,1.91-2.71,1.31,1.31,0,0,1,1.1-.55c.24,0,.47.09.49.2-.46.6-1.3,1.88-1.93,2.84s-1.13,1.82-2.13,3.49c-.58,1-1.35,2.33-1.47,2.63a.42.42,0,0,0,0,.41c.08.09.27,0,.42-.05a3.53,3.53,0,0,0,.71-.63,9.411,9.411,0,0,0,.83-1c0-.07.17-.21.22-.14s-.05.2-.12.3c-.2.27-.73.89-1,1.23-.72.75-1.15,1-1.69,1a.68.68,0,0,1-.76-.59,1.37,1.37,0,0,1,.15-.8h0c-.44.52-1.26,1.41-2.16,1.41-.61,0-1-.22-1-.89a2.8,2.8,0,0,1,.54-1.37h0l-.15.18c-.14.16-.24.23-.28.19s0-.16.12-.3a5.6,5.6,0,0,1,.66-.71,7.24,7.24,0,0,1,1.2-.87,3.6,3.6,0,0,1,1.65-.48Z" fill="none" stroke="#2a63af" stroke-width="0.08"/>
        <path id="Trazado_45654" data-name="Trazado 45654" d="M65.67,68a7.34,7.34,0,0,1,3.48-3.38h0a4.39,4.39,0,0,0-2.37.87,13.9,13.9,0,0,0-2.26,2.33,10.34,10.34,0,0,0-1,1.37,6.32,6.32,0,0,1,.2,1.33,7.36,7.36,0,0,1-.1,1.51c.67-1.38,1.49-3,2.1-4Zm-3.9,5a4,4,0,0,0,1.12.44l.39-.89a6.74,6.74,0,0,0,.2-1.9,5,5,0,0,0-.18-1.3l-1.2,1.46c-.44.53-.9,1-1.22,1.37a3.25,3.25,0,0,0,.89.82Zm-.17-5.37c-.88,0-1.32,1-1.35,2.11A4.21,4.21,0,0,0,60.74,72c.34-.35.8-.85,1.25-1.38s.83-1,1.22-1.48c-.34-.85-.89-1.49-1.59-1.49Zm-7.17,5.24c0-1,.54-1.51,1-1.53a.7.7,0,0,1,.76.84,1.15,1.15,0,0,1-.42.75.8.8,0,0,0-.27.58c0,.48.47.86,1.52.75a6.31,6.31,0,0,0,3.37-1.9,3.77,3.77,0,0,1-1.08-2.67,2.36,2.36,0,0,1,2.06-2.6c1,0,1.59.68,2,1.82l.7-.89a13.69,13.69,0,0,1,2.62-2.78A4.58,4.58,0,0,1,69,64.35a1.27,1.27,0,0,1,1,.29c.12.14.14.3.09.32s0-.06-.15-.16a.6.6,0,0,0-.38-.13.85.85,0,0,0-.54.25,11,11,0,0,0-1.4,2.15c-1,2-2.17,4.27-3.13,6.39a2.2,2.2,0,0,0,1-.43,5.57,5.57,0,0,0,.88-.87c.16-.2.27-.32.32-.25s0,.18-.17.36a5,5,0,0,1-1,1,2.37,2.37,0,0,1-1.14.46c-.23.39-.54.53-1.3.62-.49.07-.44-.16-.39-.32a2.18,2.18,0,0,1,.14-.34,5,5,0,0,1-1.22-.39,5.181,5.181,0,0,1-1.05-.73,6.56,6.56,0,0,1-3.59,2c-1.32.13-2.52-.41-2.52-1.67h0Z" fill="#2a63af"/>
        <path id="Trazado_45655" data-name="Trazado 45655" d="M65.67,68a7.34,7.34,0,0,1,3.48-3.38h0a4.39,4.39,0,0,0-2.37.87,13.9,13.9,0,0,0-2.26,2.33,10.34,10.34,0,0,0-1,1.37,6.32,6.32,0,0,1,.2,1.33,7.36,7.36,0,0,1-.1,1.51c.67-1.38,1.49-3,2.1-4Zm-3.9,5a4,4,0,0,0,1.12.44l.39-.89a6.74,6.74,0,0,0,.2-1.9,5,5,0,0,0-.18-1.3l-1.2,1.46c-.44.53-.9,1-1.22,1.37a3.25,3.25,0,0,0,.89.82Zm-.17-5.37c-.88,0-1.32,1-1.35,2.11A4.21,4.21,0,0,0,60.74,72c.34-.35.8-.85,1.25-1.38s.83-1,1.22-1.48c-.34-.85-.89-1.49-1.59-1.49Zm-7.17,5.24c0-1,.54-1.51,1-1.53a.7.7,0,0,1,.76.84,1.15,1.15,0,0,1-.42.75.8.8,0,0,0-.27.58c0,.48.47.86,1.52.75a6.31,6.31,0,0,0,3.37-1.9,3.77,3.77,0,0,1-1.08-2.67,2.36,2.36,0,0,1,2.06-2.6c1,0,1.59.68,2,1.82l.7-.89a13.69,13.69,0,0,1,2.62-2.78A4.58,4.58,0,0,1,69,64.35a1.27,1.27,0,0,1,1,.29c.12.14.14.3.09.32s0-.06-.15-.16a.6.6,0,0,0-.38-.13.85.85,0,0,0-.54.25,11,11,0,0,0-1.4,2.15c-1,2-2.17,4.27-3.13,6.39a2.2,2.2,0,0,0,1-.43,5.57,5.57,0,0,0,.88-.87c.16-.2.27-.32.32-.25s0,.18-.17.36a5,5,0,0,1-1,1,2.37,2.37,0,0,1-1.14.46c-.23.39-.54.53-1.3.62-.49.07-.44-.16-.39-.32a2.18,2.18,0,0,1,.14-.34,5,5,0,0,1-1.22-.39,5.181,5.181,0,0,1-1.05-.73,6.56,6.56,0,0,1-3.59,2c-1.32.13-2.52-.41-2.52-1.67h0Z" fill="none" stroke="#2a63af" stroke-width="0.08"/>
      </g>
      <path id="Trazado_45656" data-name="Trazado 45656" d="M67.26,74.33a.66.66,0,0,1-.75-.73,2,2,0,0,1,.29-.94,8.41,8.41,0,0,1,1.41-2.08,3.87,3.87,0,0,0-1,.9c-.26.27-.51.59-.71.84s-.19.18-.22.14,0-.14.06-.25a10.52,10.52,0,0,1,1.26-1.37,2.39,2.39,0,0,1,1.52-.67c.62,0,.64.14.51.37-.31.5-.56,1-.9,1.53A12.211,12.211,0,0,0,68,73.28c-.09.18-.12.37-.07.43s.2.05.37-.06a7.42,7.42,0,0,0,1.19-1c.68-.71,1.17-1.32,1.76-2.06.15-.18.3-.25,1-.25.47,0,.47.12.4.25-.3.53-.54.9-.84,1.47a9.66,9.66,0,0,0-.56,1.16.69.69,0,0,0,0,.6c.09.09.24.06.48,0a4.22,4.22,0,0,0,1-.73,3.26,3.26,0,0,0,.56-.71,3.13,3.13,0,0,1,.23-1.26c.29-.64.68-1,1-.93s.13.59,0,1a6.55,6.55,0,0,1-1,1.39.57.57,0,0,0,.54.41,1.11,1.11,0,0,0,.75-.39c.13-.13.3-.34.44-.5s.24-.23.27-.18,0,.11,0,.2a5.57,5.57,0,0,1-.53.62,1.23,1.23,0,0,1-.89.46.67.67,0,0,1-.66-.46,7,7,0,0,1-.53.55,3.48,3.48,0,0,1-2.3,1.14c-.64,0-.83-.36-.83-.73a2,2,0,0,1,.21-.82,5.33,5.33,0,0,1,.55-.92h0c-.41.48-.78.89-1.2,1.3s-1.27,1.21-2,1.21Z" transform="translate(1224.29 11119)" fill="#2a63af"/>
      <path id="Trazado_45657" data-name="Trazado 45657" d="M67.26,74.33a.66.66,0,0,1-.75-.73,2,2,0,0,1,.29-.94,8.41,8.41,0,0,1,1.41-2.08,3.87,3.87,0,0,0-1,.9c-.26.27-.51.59-.71.84s-.19.18-.22.14,0-.14.06-.25a10.52,10.52,0,0,1,1.26-1.37,2.39,2.39,0,0,1,1.52-.67c.62,0,.64.14.51.37-.31.5-.56,1-.9,1.53A12.211,12.211,0,0,0,68,73.28c-.09.18-.12.37-.07.43s.2.05.37-.06a7.42,7.42,0,0,0,1.19-1c.68-.71,1.17-1.32,1.76-2.06.15-.18.3-.25,1-.25.47,0,.47.12.4.25-.3.53-.54.9-.84,1.47a9.66,9.66,0,0,0-.56,1.16.69.69,0,0,0,0,.6c.09.09.24.06.48,0a4.22,4.22,0,0,0,1-.73,3.26,3.26,0,0,0,.56-.71,3.13,3.13,0,0,1,.23-1.26c.29-.64.68-1,1-.93s.13.59,0,1a6.55,6.55,0,0,1-1,1.39.57.57,0,0,0,.54.41,1.11,1.11,0,0,0,.75-.39c.13-.13.3-.34.44-.5s.24-.23.27-.18,0,.11,0,.2a5.57,5.57,0,0,1-.53.62,1.23,1.23,0,0,1-.89.46.67.67,0,0,1-.66-.46,7,7,0,0,1-.53.55,3.48,3.48,0,0,1-2.3,1.14c-.64,0-.83-.36-.83-.73a2,2,0,0,1,.21-.82,5.33,5.33,0,0,1,.55-.92h0c-.41.48-.78.89-1.2,1.3s-1.27,1.21-2,1.21Z" transform="translate(1224.29 11119)" fill="none" stroke="#2a63af" stroke-width="0.08"/>
      <path id="Trazado_45658" data-name="Trazado 45658" d="M78.78,70.4c-.32,0-1,.69-1.59,1.51a4.08,4.08,0,0,0-.93,1.8.207.207,0,0,0,.22.23,2.77,2.77,0,0,0,1.42-1.07,6,6,0,0,0,1.2-2.06c0-.29-.11-.41-.3-.41Zm1.63-.16c.54,0,.62.09.45.37-.33.55-.55.91-.89,1.51-.22.38-.51.93-.58,1.11a.44.44,0,0,0,0,.42c.09.09.27,0,.43-.05a3.6,3.6,0,0,0,.71-.64,11.288,11.288,0,0,0,.83-1c.17-.25.16-.2.22-.14s-.09.26-.16.35c-.2.27-.69.84-1,1.18-.73.76-1.15,1-1.69,1a.69.69,0,0,1-.77-.59,1.29,1.29,0,0,1,.16-.8h0c-.44.53-1.27,1.42-2.17,1.42-.61,0-1-.23-1-.89a2.45,2.45,0,0,1,.54-1.37h0l-.15.18c-.15.18-.24.23-.27.18s0-.16.12-.3a4.58,4.58,0,0,1,.66-.7,6,6,0,0,1,1.2-.87,3.56,3.56,0,0,1,1.64-.48c.56,0,.66.41.64.73.44-.62.48-.62,1.14-.62Z" transform="translate(1224.29 11119)" fill="#2a63af"/>
      <path id="Trazado_45659" data-name="Trazado 45659" d="M78.78,70.4c-.32,0-1,.69-1.59,1.51a4.08,4.08,0,0,0-.93,1.8.207.207,0,0,0,.22.23,2.77,2.77,0,0,0,1.42-1.07,6,6,0,0,0,1.2-2.06c0-.29-.11-.41-.3-.41Zm1.63-.16c.54,0,.62.09.45.37-.33.55-.55.91-.89,1.51-.22.38-.51.93-.58,1.11a.44.44,0,0,0,0,.42c.09.09.27,0,.43-.05a3.6,3.6,0,0,0,.71-.64,11.288,11.288,0,0,0,.83-1c.17-.25.16-.2.22-.14s-.09.26-.16.35c-.2.27-.69.84-1,1.18-.73.76-1.15,1-1.69,1a.69.69,0,0,1-.77-.59,1.29,1.29,0,0,1,.16-.8h0c-.44.53-1.27,1.42-2.17,1.42-.61,0-1-.23-1-.89a2.45,2.45,0,0,1,.54-1.37h0l-.15.18c-.15.18-.24.23-.27.18s0-.16.12-.3a4.58,4.58,0,0,1,.66-.7,6,6,0,0,1,1.2-.87,3.56,3.56,0,0,1,1.64-.48c.56,0,.66.41.64.73.44-.62.48-.62,1.14-.62Z" transform="translate(1224.29 11119)" fill="none" stroke="#2a63af" stroke-width="0.08"/>
      <path id="Trazado_45660" data-name="Trazado 45660" d="M84.71,70.86c0,.3-.17.55-.6,1.26-.18.32-.4.7-.57,1.07s-.12.39-.05.48.23,0,.37,0a4.6,4.6,0,0,0,.76-.66,8.583,8.583,0,0,0,.83-1s.17-.2.22-.14,0,.21-.13.32a14.133,14.133,0,0,1-1,1.19,2.5,2.5,0,0,1-1.59,1c-.81.07-1-.36-1-.75a2.44,2.44,0,0,1,.75-1.51,11.16,11.16,0,0,0,1.1-1.3c.07-.25-.27-.23-.68-.19a.63.63,0,0,1-.39,0c-.17.25-.4.59-.66.91l-.69.87c-.14.16-.2.23-.26.16s0-.14.09-.25c.22-.27.49-.59.74-.91s.49-.64.65-.87a.65.65,0,0,1,0-.8,1,1,0,0,1,.77-.44.6.6,0,0,1,.54.23,2.32,2.32,0,0,0-.34.41c-.22.37-.15.51,0,.53.42,0,1.1,0,1.12.46h0Z" transform="translate(1224.29 11119)" fill="#2a63af"/>
      <path id="Trazado_45661" data-name="Trazado 45661" d="M84.71,70.86c0,.3-.17.55-.6,1.26-.18.32-.4.7-.57,1.07s-.12.39-.05.48.23,0,.37,0a4.6,4.6,0,0,0,.76-.66,8.583,8.583,0,0,0,.83-1s.17-.2.22-.14,0,.21-.13.32a14.133,14.133,0,0,1-1,1.19,2.5,2.5,0,0,1-1.59,1c-.81.07-1-.36-1-.75a2.44,2.44,0,0,1,.75-1.51,11.16,11.16,0,0,0,1.1-1.3c.07-.25-.27-.23-.68-.19a.63.63,0,0,1-.39,0c-.17.25-.4.59-.66.91l-.69.87c-.14.16-.2.23-.26.16s0-.14.09-.25c.22-.27.49-.59.74-.91s.49-.64.65-.87a.65.65,0,0,1,0-.8,1,1,0,0,1,.77-.44.6.6,0,0,1,.54.23,2.32,2.32,0,0,0-.34.41c-.22.37-.15.51,0,.53.42,0,1.1,0,1.12.46h0Z" transform="translate(1224.29 11119)" fill="none" stroke="#2a63af" stroke-width="0.08"/>
      <path id="Trazado_45662" data-name="Trazado 45662" d="M89,70.4c-.32,0-1,.69-1.59,1.51a4.2,4.2,0,0,0-.93,1.8.207.207,0,0,0,.22.23,2.77,2.77,0,0,0,1.42-1.07,6.19,6.19,0,0,0,1.21-2.06c0-.29-.12-.41-.31-.41Zm-.15-.27c.56,0,.7.43.61.82h0c.57-1.07,1.32-2.31,2.16-3.63a24.34,24.34,0,0,1,1.92-2.72,1.3,1.3,0,0,1,1.1-.55c.23,0,.47.09.49.21-.46.59-1.31,1.87-1.93,2.83S92,68.94,91,70.61c-.58,1-1.36,2.33-1.48,2.62a.5.5,0,0,0,0,.42c.09.09.27,0,.43-.05a3.341,3.341,0,0,0,.75-.6,12.718,12.718,0,0,0,.83-1c0-.07.17-.2.22-.14s0,.21-.12.3c-.21.28-.73.89-1,1.23-.73.76-1.15,1-1.69,1a.69.69,0,0,1-.77-.59,1.36,1.36,0,0,1,.16-.8h0c-.44.53-1.27,1.42-2.17,1.42-.61,0-1-.23-1-.89a2.77,2.77,0,0,1,.54-1.37h0a2,2,0,0,0-.15.18c-.13.16-.24.23-.27.18s0-.16.12-.3a6.271,6.271,0,0,1,.66-.7,6,6,0,0,1,1.2-.87,3.56,3.56,0,0,1,1.64-.48Z" transform="translate(1224.29 11119)" fill="#2a63af"/>
      <path id="Trazado_45663" data-name="Trazado 45663" d="M89,70.4c-.32,0-1,.69-1.59,1.51a4.2,4.2,0,0,0-.93,1.8.207.207,0,0,0,.22.23,2.77,2.77,0,0,0,1.42-1.07,6.19,6.19,0,0,0,1.21-2.06c0-.29-.12-.41-.31-.41Zm-.15-.27c.56,0,.7.43.61.82h0c.57-1.07,1.32-2.31,2.16-3.63a24.34,24.34,0,0,1,1.92-2.72,1.3,1.3,0,0,1,1.1-.55c.23,0,.47.09.49.21-.46.59-1.31,1.87-1.93,2.83S92,68.94,91,70.61c-.58,1-1.36,2.33-1.48,2.62a.5.5,0,0,0,0,.42c.09.09.27,0,.43-.05a3.341,3.341,0,0,0,.75-.6,12.718,12.718,0,0,0,.83-1c0-.07.17-.2.22-.14s0,.21-.12.3c-.21.28-.73.89-1,1.23-.73.76-1.15,1-1.69,1a.69.69,0,0,1-.77-.59,1.36,1.36,0,0,1,.16-.8h0c-.44.53-1.27,1.42-2.17,1.42-.61,0-1-.23-1-.89a2.77,2.77,0,0,1,.54-1.37h0a2,2,0,0,0-.15.18c-.13.16-.24.23-.27.18s0-.16.12-.3a6.271,6.271,0,0,1,.66-.7,6,6,0,0,1,1.2-.87,3.56,3.56,0,0,1,1.64-.48Z" transform="translate(1224.29 11119)" fill="none" stroke="#2a63af" stroke-width="0.08"/>
      <g id="Grupo_36048" data-name="Grupo 36048" transform="translate(1224.29 11119)" clip-path="url(#clip-path-2)">
        <path id="Trazado_45664" data-name="Trazado 45664" d="M92.56,7.56c-1-1.82-6.62-.66-13.54,2.52A10.9,10.9,0,0,1,80,11c5.33-2.27,9.45-3,10.29-1.52,1,1.71-2.9,5.89-9.1,10.06l.07.07c7.59-4.94,12.47-10,11.3-12Z" fill="#00529b"/>
      </g>
      <path id="Trazado_45665" data-name="Trazado 45665" d="M59.77,27.1c-.61-1.06.65-3.06,3.15-5.41h0l-.59-.23h0l-.58-.25h0c-3,2.78-4.54,5.14-3.83,6.38.84,1.45,4.56,1,9.55-.86v-.08c-4,1.39-6.93,1.66-7.62.46Z" transform="translate(1224.29 11119)" fill="#00529b"/>
      <path id="Trazado_45666" data-name="Trazado 45666" d="M62,9.84A6.3,6.3,0,0,0,58.82,15a5.28,5.28,0,0,0,1,3ZM70.12,18H67l-1,3.7a15,15,0,0,0,3.27.36,16.55,16.55,0,0,0,2-.13l-1.11-4Zm-5.19,3.45L64,18H60.86l-.26,1a10.49,10.49,0,0,0,4.33,2.5h0ZM76.23,18H73.09l-.27,1,.72,2.46a11.37,11.37,0,0,0,3.22-1.58ZM76,17l-1.32-4.75L73.35,17Zm2.67.95a5.24,5.24,0,0,0,1-3A6.39,6.39,0,0,0,76.28,9.7L78.63,18ZM63.72,17l-1.3-4.75L61.12,17Zm8.53,0L74.5,8.84a14,14,0,0,0-4.93-1Zm-3.72-4.75L67.23,17h2.63ZM63.77,8.91,66.13,17h0l2.52-9.15a14,14,0,0,0-4.89,1ZM56.64,15c0-4.3,5.63-7.78,12.58-7.78S81.79,10.66,81.79,15s-5.63,7.77-12.57,7.77S56.64,19.25,56.64,15Z" transform="translate(1224.29 11119)" fill="#ed1c2e"/>
      <path id="Trazado_45667" data-name="Trazado 45667" d="M55.59,48.88h5.22L56.15,52.1H51.68l3.91-3.22Z" transform="translate(1224.29 11119)" fill="#2a63af"/>
      <path id="Trazado_45668" data-name="Trazado 45668" d="M55.94,53.49h-4.3l9.62,10.19Z" transform="translate(1224.29 11119)" fill="#2a63af"/>
      <path id="Trazado_45669" data-name="Trazado 45669" d="M62.94,49l-4.4,3.1h8.81Z" transform="translate(1224.29 11119)" fill="#2a63af"/>
      <path id="Trazado_45670" data-name="Trazado 45670" d="M68.18,53.49H57.7l5.24,10.54,5.24-10.54Z" transform="translate(1224.29 11119)" fill="#2a63af"/>
      <path id="Trazado_45671" data-name="Trazado 45671" d="M70.58,48.88H65.06l4.65,3.22h4.48Z" transform="translate(1224.29 11119)" fill="#2a63af"/>
      <path id="Trazado_45672" data-name="Trazado 45672" d="M69.92,53.49h4.31L64.6,63.68Z" transform="translate(1224.29 11119)" fill="#2a63af"/>
      <path id="Trazado_45673" data-name="Trazado 45673" d="M39.07,50.51H43.4l-3.95,2.56H36.01Z" transform="translate(1224.29 11119)" fill="#2a63af"/>
      <path id="Trazado_45674" data-name="Trazado 45674" d="M39.28,54.18h-3.3l7.79,8.11Z" transform="translate(1224.29 11119)" fill="#2a63af"/>
      <path id="Trazado_45675" data-name="Trazado 45675" d="M45.1,50.61l-3.75,2.46h7.5Z" transform="translate(1224.29 11119)" fill="#2a63af"/>
      <path id="Trazado_45676" data-name="Trazado 45676" d="M49.52,54.18H40.69l4.41,8.39,4.42-8.39Z" transform="translate(1224.29 11119)" fill="#2a63af"/>
      <path id="Trazado_45677" data-name="Trazado 45677" d="M51.26,50.62l-.14-.11H46.79l2.66,1.73,1.81-1.62Z" transform="translate(1224.29 11119)" fill="#2a63af"/>
      <path id="Trazado_45678" data-name="Trazado 45678" d="M50.68,54.58l-4.26,7.71,5.82-5.91-1.56-1.8Z" transform="translate(1224.29 11119)" fill="#2a63af"/>
      <path id="Trazado_45679" data-name="Trazado 45679" d="M78.89,48.88h5.22L79.45,52.1H74.97l3.92-3.22Z" transform="translate(1224.29 11119)" fill="#2a63af"/>
      <path id="Trazado_45680" data-name="Trazado 45680" d="M79.24,53.49h-4.3l9.62,10.19Z" transform="translate(1224.29 11119)" fill="#2a63af"/>
      <path id="Trazado_45681" data-name="Trazado 45681" d="M86.24,49l-4.4,3.1h8.8Z" transform="translate(1224.29 11119)" fill="#2a63af"/>
      <path id="Trazado_45682" data-name="Trazado 45682" d="M91.48,53.49H81l5.24,10.54,5.24-10.54Z" transform="translate(1224.29 11119)" fill="#2a63af"/>
      <path id="Trazado_45683" data-name="Trazado 45683" d="M93.87,48.88H88.36l4.65,3.22h4.48Z" transform="translate(1224.29 11119)" fill="#2a63af"/>
      <path id="Trazado_45684" data-name="Trazado 45684" d="M93.22,53.49h4.31L87.9,63.68Z" transform="translate(1224.29 11119)" fill="#2a63af"/>
      <path id="Trazado_45685" data-name="Trazado 45685" d="M110.09,50.51h-4.33l3.95,2.56h3.44Z" transform="translate(1224.29 11119)" fill="#2a63af"/>
      <path id="Trazado_45686" data-name="Trazado 45686" d="M109.88,54.18h3.3l-7.78,8.11,4.48-8.11Z" transform="translate(1224.29 11119)" fill="#2a63af"/>
      <path id="Trazado_45687" data-name="Trazado 45687" d="M104.06,50.61l3.75,2.46h-7.5Z" transform="translate(1224.29 11119)" fill="#2a63af"/>
      <path id="Trazado_45688" data-name="Trazado 45688" d="M99.65,54.18h8.82l-4.41,8.39-4.41-8.39Z" transform="translate(1224.29 11119)" fill="#2a63af"/>
      <path id="Trazado_45689" data-name="Trazado 45689" d="M97.9,50.62l.15-.11h4.33l-2.67,1.73Z" transform="translate(1224.29 11119)" fill="#2a63af"/>
      <path id="Trazado_45690" data-name="Trazado 45690" d="M98.48,54.58l4.26,7.71-5.82-5.91Z" transform="translate(1224.29 11119)" fill="#2a63af"/>
    </g>
  </g>
</svg>
