<svg xmlns="http://www.w3.org/2000/svg" width="78" height="78" viewBox="0 0 78 78">
  <path id="Trazado_45530" data-name="Trazado 45530" d="M1562.42,0V78h78V0Zm56.021,69.593a34.356,34.356,0,0,0,2.461-3.14c5.107-7.345,7.921-17.094,7.921-27.451s-2.814-20.106-7.921-27.451a34.337,34.337,0,0,0-2.461-3.14,36.944,36.944,0,0,1,20.129-6.548V76.14a36.943,36.943,0,0,1-20.129-6.547Zm-16.1-67.715a20.6,20.6,0,0,1,13.291,6.267,39.761,39.761,0,0,0-3.717,3.278,38.825,38.825,0,0,0-9.573,15.657ZM1600.5,76.124c-13.664-.711-24.629-17.089-24.629-37.123S1586.832,2.588,1600.5,1.878Zm1.849-25.2a38.826,38.826,0,0,0,9.573,15.657,39.779,39.779,0,0,0,3.717,3.278,20.6,20.6,0,0,1-13.29,6.267Zm0-11.92a37.108,37.108,0,0,1,14.59-29.5c6.1,6.8,10.037,17.488,10.037,29.495s-3.938,22.7-10.036,29.494A37.094,37.094,0,0,1,1602.346,39Zm14.8-31.972a25.146,25.146,0,0,0-7.331-5.18h17.765a38.583,38.583,0,0,0-10.434,5.18Zm-52.869-5.18h28.756a27.775,27.775,0,0,0-11.089,9.7c-5.107,7.345-7.921,17.094-7.921,27.451s2.814,20.106,7.921,27.451a27.765,27.765,0,0,0,11.089,9.7h-28.756Zm45.543,74.3a25.106,25.106,0,0,0,7.331-5.179,38.558,38.558,0,0,0,10.429,5.179Z" transform="translate(-1562.42)" fill="#fff"/>
</svg>
