<svg xmlns="http://www.w3.org/2000/svg" width="77.555" height="77.555" viewBox="0 0 77.555 77.555">
  <path id="Trazado_45525" data-name="Trazado 45525" d="M1562.42,0V77.555h77.555V0Zm55.7,69.2a34.189,34.189,0,0,0,2.447-3.122c5.078-7.3,7.875-17,7.875-27.294s-2.8-19.991-7.876-27.294a34.169,34.169,0,0,0-2.447-3.122,36.732,36.732,0,0,1,20.014-6.511V75.705a36.732,36.732,0,0,1-20.014-6.51Zm-16-67.328A20.48,20.48,0,0,1,1615.331,8.1a39.528,39.528,0,0,0-3.7,3.259,38.6,38.6,0,0,0-9.519,15.568Zm-1.839,73.822c-13.586-.707-24.488-16.991-24.488-36.911s10.9-36.205,24.488-36.911Zm1.839-25.058a38.6,38.6,0,0,0,9.519,15.568,39.546,39.546,0,0,0,3.7,3.259,20.483,20.483,0,0,1-13.215,6.232Zm0-11.852a36.9,36.9,0,0,1,14.507-29.327c6.063,6.757,9.979,17.388,9.979,29.326s-3.916,22.574-9.978,29.325a36.883,36.883,0,0,1-14.507-29.324ZM1616.831,6.99a25,25,0,0,0-7.289-5.15h17.663a38.364,38.364,0,0,0-10.374,5.15Zm-52.567-5.15h28.592a27.616,27.616,0,0,0-11.026,9.645c-5.078,7.3-7.876,17-7.876,27.294s2.8,19.991,7.876,27.294a27.606,27.606,0,0,0,11.026,9.644h-28.592Zm45.283,73.877a24.962,24.962,0,0,0,7.289-5.149,38.339,38.339,0,0,0,10.37,5.149Z" transform="translate(-1562.42)" fill="#fff" opacity="0.5"/>
</svg>
