<svg xmlns="http://www.w3.org/2000/svg" xmlns:xlink="http://www.w3.org/1999/xlink" width="46" height="46" viewBox="0 0 46 46"><defs><clipPath id="b"><rect width="46" height="46"/></clipPath></defs><g id="a" clip-path="url(#b)"><rect width="46" height="46" fill="rgba(255,255,255,0)"/><path d="M886.246,1H865.569A4.477,4.477,0,0,0,861.1,5.468v4.859h-5.1a4.477,4.477,0,0,0-4.472,4.472v8.947a4.478,4.478,0,0,0,4.1,4.456v5.466a1.037,1.037,0,0,0,1.874.611l4.429-6.062h10.552a4.477,4.477,0,0,0,4.472-4.472V21.73h3.147l4.428,6.062a1.037,1.037,0,0,0,1.874-.611V21.728a4.477,4.477,0,0,0,4.324-4.469V5.468A4.477,4.477,0,0,0,886.246,1M874.871,23.745a2.4,2.4,0,0,1-2.4,2.4H861.337l-.025,0-.029,0h0a1.033,1.033,0,0,0-.323.089l-.011,0-.024.012-.023.011-.011.007a1.017,1.017,0,0,0-.259.2l0,0-.017.02-.018.02-.01.013-.022.029,0,0-2.865,3.922v-3.31a1.037,1.037,0,0,0-1.036-1.037h-.661a2.4,2.4,0,0,1-2.4-2.4V14.8a2.4,2.4,0,0,1,2.4-2.4h5.1v4.859a4.477,4.477,0,0,0,4.472,4.472h9.3Z" transform="translate(-847.718 7.485)"/><path d="M901.435,28.2a1.275,1.275,0,1,1-1.275-1.275,1.275,1.275,0,0,1,1.275,1.275" transform="translate(-878.411 -9.319)" fill="#fff"/><path d="M919.734,28.2a1.275,1.275,0,1,1-1.275-1.275,1.275,1.275,0,0,1,1.275,1.275" transform="translate(-890.269 -9.319)" fill="#fff"/><path d="M938.034,28.2a1.275,1.275,0,1,1-1.275-1.275,1.275,1.275,0,0,1,1.275,1.275" transform="translate(-902.128 -9.319)" fill="#fff"/></g></svg>