<svg xmlns="http://www.w3.org/2000/svg" width="59.572" height="59.572" viewBox="0 0 59.572 59.572">
  <g id="Grupo_35677" data-name="Grupo 35677" transform="translate(-376.083)">
    <g id="Trazado_45529" data-name="Trazado 45529" transform="translate(376.083)">
      <path d="M 29.7861328125 59.07226181030273 C 25.83231353759766 59.07226181030273 21.99702262878418 58.29801177978516 18.38680267333984 56.77102279663086 C 14.89949321746826 55.29601287841797 11.76746273040771 53.18430328369141 9.077713012695312 50.49455261230469 C 6.387962818145752 47.80480194091797 4.276252746582031 44.67277145385742 2.801242828369141 41.18546295166016 C 1.274252772331238 37.57524108886719 0.5000028014183044 33.73995208740234 0.5000028014183044 29.7861328125 C 0.5000028014183044 25.83231353759766 1.274252772331238 21.99702262878418 2.801242828369141 18.38680267333984 C 4.276252746582031 14.89949321746826 6.387962818145752 11.76746273040771 9.077713012695312 9.077713012695312 C 11.76746273040771 6.387962818145752 14.89949321746826 4.276252746582031 18.38680267333984 2.801242828369141 C 21.99702262878418 1.274252772331238 25.83231353759766 0.5000028014183044 29.7861328125 0.5000028014183044 C 33.73995208740234 0.5000028014183044 37.57524108886719 1.274252772331238 41.18546295166016 2.801242828369141 C 44.67277145385742 4.276252746582031 47.80480194091797 6.387962818145752 50.49455261230469 9.077713012695312 C 53.18430328369141 11.76746273040771 55.29601287841797 14.89949321746826 56.77102279663086 18.38680267333984 C 58.29801177978516 21.99702262878418 59.07226181030273 25.83231353759766 59.07226181030273 29.7861328125 C 59.07226181030273 33.73995208740234 58.29801177978516 37.57524108886719 56.77102279663086 41.18546295166016 C 55.29601287841797 44.67277145385742 53.18430328369141 47.80480194091797 50.49455261230469 50.49455261230469 C 47.80480194091797 53.18430328369141 44.67277145385742 55.29601287841797 41.18546295166016 56.77102279663086 C 37.57524108886719 58.29801177978516 33.73995208740234 59.07226181030273 29.7861328125 59.07226181030273 Z" stroke="none"/>
      <path d="M 29.7861328125 1.000003814697266 C 25.89959335327148 1.000003814697266 22.12983322143555 1.760963439941406 18.58158111572266 3.261753082275391 C 15.15387344360352 4.711551666259766 12.07526397705078 6.787273406982422 9.431262969970703 9.431262969970703 C 6.787273406982422 12.07526397705078 4.711551666259766 15.15387344360352 3.261753082275391 18.58158111572266 C 1.760963439941406 22.12983322143555 1.000003814697266 25.89959335327148 1.000003814697266 29.7861328125 C 1.000003814697266 33.67267227172852 1.760963439941406 37.44243240356445 3.261753082275391 40.99069213867188 C 4.711551666259766 44.41840362548828 6.787273406982422 47.49701309204102 9.431262969970703 50.1410026550293 C 12.07526397705078 52.78499221801758 15.15387344360352 54.86071395874023 18.58158111572266 56.31051254272461 C 22.12983322143555 57.81130218505859 25.89959335327148 58.57226181030273 29.7861328125 58.57226181030273 C 33.67267227172852 58.57226181030273 37.44243240356445 57.81130218505859 40.99069213867188 56.31051254272461 C 44.41840362548828 54.86071395874023 47.49701309204102 52.78499221801758 50.1410026550293 50.1410026550293 C 52.78499221801758 47.49701309204102 54.86071395874023 44.41840362548828 56.31051254272461 40.99069213867188 C 57.81130218505859 37.44243240356445 58.57226181030273 33.67267227172852 58.57226181030273 29.7861328125 C 58.57226181030273 25.89959335327148 57.81130218505859 22.12983322143555 56.31051254272461 18.58158111572266 C 54.86071395874023 15.15387344360352 52.78499221801758 12.07526397705078 50.1410026550293 9.431262969970703 C 47.49701309204102 6.787273406982422 44.41840362548828 4.711551666259766 40.99069213867188 3.261753082275391 C 37.44243240356445 1.760963439941406 33.67267227172852 1.000003814697266 29.7861328125 1.000003814697266 M 29.7861328125 3.814697265625e-06 C 46.23656463623047 3.814697265625e-06 59.57226181030273 13.33571243286133 59.57226181030273 29.7861328125 C 59.57226181030273 46.23656463623047 46.23656463623047 59.57226181030273 29.7861328125 59.57226181030273 C 13.33571243286133 59.57226181030273 3.814697265625e-06 46.23656463623047 3.814697265625e-06 29.7861328125 C 3.814697265625e-06 13.33571243286133 13.33571243286133 3.814697265625e-06 29.7861328125 3.814697265625e-06 Z" stroke="none" fill="#fff"/>
    </g>
    <path id="Trazado_45947" data-name="Trazado 45947" d="M339.293,145.5a1.647,1.647,0,1,1-1.647-1.647,1.647,1.647,0,0,1,1.647,1.647" transform="translate(68.224 -130.901)" fill="#fff"/>
    <path id="Trazado_45948" data-name="Trazado 45948" d="M337.647,240.42A1.646,1.646,0,0,1,336,238.774v-22a1.647,1.647,0,1,1,3.293,0v22a1.647,1.647,0,0,1-1.647,1.646Z" transform="translate(68.224 -193.797)" fill="#fff"/>
  </g>
</svg>
