<svg xmlns="http://www.w3.org/2000/svg" width="35" height="35" viewBox="0 0 35 35">
  <g id="Grupo_36042" data-name="Grupo 36042" transform="translate(-140 -882)">
    <g id="Grupo_36041" data-name="Grupo 36041" transform="translate(0.466 -4.534)">
      <circle id="Elipse_1454" data-name="Elipse 1454" cx="17.5" cy="17.5" r="17.5" transform="translate(139.534 886.534)"/>
      <g id="noun-percentages-991952" transform="translate(148.913 895.913)">
        <path id="Trazado_45549" data-name="Trazado 45549" d="M218.065,133.5a.66.66,0,0,0-.926,0l-13.285,13.148h0a.64.64,0,0,0,0,.913.661.661,0,0,0,.926,0l13.285-13.147h0a.64.64,0,0,0,0-.913Z" transform="translate(-202.883 -132.448)" fill="#fff"/>
        <path id="Trazado_45550" data-name="Trazado 45550" d="M194.687,127.174a4.157,4.157,0,1,0-2.939-1.218A4.156,4.156,0,0,0,194.687,127.174Zm0-6.928a2.774,2.774,0,1,1-1.959.813A2.771,2.771,0,0,1,194.687,120.245Z" transform="translate(-190.53 -118.86)" fill="#fff"/>
        <path id="Trazado_45551" data-name="Trazado 45551" d="M375.117,302.61a4.157,4.157,0,1,0,2.939,1.217A4.158,4.158,0,0,0,375.117,302.61Zm0,6.928h0a2.775,2.775,0,1,1,1.959-.813,2.771,2.771,0,0,1-1.959.813Z" transform="translate(-363.031 -294.681)" fill="#fff"/>
      </g>
    </g>
  </g>
</svg>
