<svg xmlns="http://www.w3.org/2000/svg" width="18.909" height="18.857" viewBox="0 0 18.909 18.857">
  <g id="Grupo_35467" data-name="Grupo 35467" transform="translate(-1209.039 -8361.005)">
    <path id="Trazado_45500" data-name="Trazado 45500" d="M733.084,254.2c.262-.294.478-.593.747-.847a4.1,4.1,0,0,1,2.949-1.164,6.826,6.826,0,0,1,1.854.226,3.624,3.624,0,0,1,2.573,2.706,11.345,11.345,0,0,1,.343,3.1c0,2.2-.006,4.408,0,6.612,0,.206-.057.26-.26.259q-1.7-.014-3.406,0c-.2,0-.243-.06-.242-.249q.009-3.146,0-6.291a5.662,5.662,0,0,0-.183-1.562,1.756,1.756,0,0,0-1.932-1.369,2.111,2.111,0,0,0-2.218,2.107,7.865,7.865,0,0,0-.06.984c0,2.04,0,4.079.005,6.118,0,.2-.05.263-.258.262q-1.716-.015-3.431,0c-.183,0-.236-.048-.236-.234q.008-6.057,0-12.114c0-.2.065-.246.254-.245q1.629.012,3.258,0c.2,0,.252.063.247.252-.011.482,0,.965,0,1.448" transform="translate(486.397 8114.769)" fill="#fefefe"/>
    <path id="Trazado_45501" data-name="Trazado 45501" d="M706.231,259.815c0,2,0,4,0,5.993,0,.222-.054.289-.284.286-1.135-.012-2.27-.009-3.405,0-.182,0-.237-.044-.236-.232q.008-6.067,0-12.134c0-.167.04-.227.218-.226,1.152.008,2.3.01,3.454,0,.221,0,.251.083.251.273-.006,2.014,0,4.028,0,6.042" transform="translate(507.029 8113.768)" fill="#fefefe"/>
    <path id="Trazado_45502" data-name="Trazado 45502" d="M705.573,229.261a2.267,2.267,0,1,1-2.263-2.256,2.275,2.275,0,0,1,2.263,2.256" transform="translate(508 8134)" fill="#fefefe"/>
  </g>
</svg>
