<svg id="Grupo_152" data-name="Grupo 152" xmlns="http://www.w3.org/2000/svg" width="17.689" height="16.884" viewBox="0 0 17.689 16.884">
  <g id="Grupo_132" data-name="Grupo 132">
    <path id="Trazado_88" data-name="Trazado 88" d="M84.971,273.543H78.193a5.462,5.462,0,0,1-5.456-5.456v-5.973a5.462,5.462,0,0,1,5.456-5.456h6.778a5.462,5.462,0,0,1,5.455,5.456v5.973A5.462,5.462,0,0,1,84.971,273.543Zm-6.778-15.672a4.248,4.248,0,0,0-4.243,4.243v5.973a4.248,4.248,0,0,0,4.243,4.243h6.778a4.248,4.248,0,0,0,4.243-4.243v-5.973a4.248,4.248,0,0,0-4.243-4.243Z" transform="translate(-72.737 -256.659)"/>
  </g>
  <g id="Grupo_133" data-name="Grupo 133" transform="translate(3.989 3.586)">
    <path id="Trazado_89" data-name="Trazado 89" d="M103.189,289.383a4.856,4.856,0,1,1,4.856-4.856A4.861,4.861,0,0,1,103.189,289.383Zm0-8.5a3.644,3.644,0,1,0,3.644,3.644A3.648,3.648,0,0,0,103.189,280.883Z" transform="translate(-98.333 -279.67)"/>
  </g>
  <g id="Grupo_134" data-name="Grupo 134" transform="translate(12.619 2.727)">
    <path id="Trazado_90" data-name="Trazado 90" d="M155.732,275.17a1.008,1.008,0,1,1-1.007-1.008A1.007,1.007,0,0,1,155.732,275.17Z" transform="translate(-153.717 -274.162)"/>
  </g>
</svg>
