<svg xmlns="http://www.w3.org/2000/svg" width="21.45" height="21.45" viewBox="0 0 21.45 21.45">
  <g id="Grupo_35466" data-name="Grupo 35466" transform="translate(-1034.206 -8398.701)">
    <path id="Trazado_45492" data-name="Trazado 45492" d="M484.055,32.319c2.864,0,3.2.011,4.334.062a5.932,5.932,0,0,1,1.991.369,3.551,3.551,0,0,1,2.036,2.036,5.938,5.938,0,0,1,.369,1.991c.052,1.131.062,1.47.062,4.334s-.011,3.2-.062,4.334a5.938,5.938,0,0,1-.369,1.991,3.551,3.551,0,0,1-2.036,2.036,5.939,5.939,0,0,1-1.991.369c-1.131.051-1.47.062-4.334.062s-3.2-.011-4.334-.062a5.938,5.938,0,0,1-1.991-.369,3.551,3.551,0,0,1-2.036-2.036,5.932,5.932,0,0,1-.369-1.991c-.051-1.131-.062-1.47-.062-4.334s.011-3.2.062-4.334a5.932,5.932,0,0,1,.369-1.991,3.551,3.551,0,0,1,2.036-2.036,5.932,5.932,0,0,1,1.991-.369c1.131-.051,1.47-.062,4.334-.062m0-1.933c-2.913,0-3.278.012-4.422.065a7.874,7.874,0,0,0-2.6.5,5.484,5.484,0,0,0-3.137,3.137,7.874,7.874,0,0,0-.5,2.6c-.052,1.144-.065,1.509-.065,4.422s.012,3.278.065,4.422a7.874,7.874,0,0,0,.5,2.6,5.484,5.484,0,0,0,3.137,3.137,7.874,7.874,0,0,0,2.6.5c1.144.052,1.509.065,4.422.065s3.278-.012,4.422-.065a7.874,7.874,0,0,0,2.6-.5,5.484,5.484,0,0,0,3.137-3.137,7.873,7.873,0,0,0,.5-2.6c.052-1.144.065-1.509.065-4.422s-.012-3.278-.065-4.422a7.873,7.873,0,0,0-.5-2.6,5.484,5.484,0,0,0-3.137-3.137,7.874,7.874,0,0,0-2.6-.5c-1.144-.052-1.509-.065-4.422-.065" transform="translate(560.876 8368.314)" fill="#fff"/>
    <path id="Trazado_45493" data-name="Trazado 45493" d="M499.513,51.061a5.508,5.508,0,1,0,5.507,5.507,5.508,5.508,0,0,0-5.507-5.507m0,9.083a3.575,3.575,0,1,1,3.575-3.575,3.575,3.575,0,0,1-3.575,3.575" transform="translate(545.418 8352.856)" fill="#fff"/>
    <path id="Trazado_45494" data-name="Trazado 45494" d="M535.991,46.386A1.287,1.287,0,1,1,534.7,45.1a1.287,1.287,0,0,1,1.287,1.287" transform="translate(515.953 8357.314)" fill="#fff"/>
  </g>
</svg>
