<?xml version="1.0" encoding="UTF-8"?>
<svg id="Capa_1" data-name="Capa 1" xmlns="http://www.w3.org/2000/svg" viewBox="0 0 50.13 50.13">
  <defs>
    <style>
      .cls-1 {
        fill: #999;
        stroke-width: 0px;
      }
    </style>
  </defs>
  <path class="cls-1" d="M17.28,20.83c.05-2.23.68-4.09,2.07-5.71.57-.66,1.23-1.16,1.95-1.61,2.31-1.42,4.74-1.45,7.09-.28,2.3,1.14,3.74,3.1,4.26,5.65.51,2.53.02,4.85-1.54,6.95-2.43,3.26-6.57,3.86-9.66,2.13-2.3-1.28-3.63-3.35-4.05-5.96-.07-.43-.09-.88-.12-1.18ZM30.74,20.74c-.04-.37-.06-.72-.11-1.07-.02-.17-.05-.35-.1-.52-.67-2.41-2.23-3.9-4.67-4.42-1.26-.27-2.43.11-3.53.72-2.05,1.14-3.22,3.66-2.88,6.07.29,2.11,1.41,3.71,3.3,4.64,1.65.81,3.35.75,4.99-.23,1.99-1.19,2.86-2.98,2.99-5.2Z"/>
  <g>
    <polygon class="cls-1" points="18.52 42.23 18.51 42.23 18.52 42.23 18.52 42.23"/>
    <path class="cls-1" d="M29.94,4.16c.52.19,1.02.4,1.52.63"/>
    <path class="cls-1" d="M40.47,22.51c.08-.4.14-.81.19-1.21"/>
    <path class="cls-1" d="M17.23,37.27c-.46-.59-.92-1.19-1.36-1.8"/>
    <path class="cls-1" d="M25.41,3.26c.33.01.66.03.99.07"/>
    <path class="cls-1" d="M9.5,21.56c-.09-.68-.14-1.36-.15-2.04"/>
    <path class="cls-1" d="M20.5,4.06c-.56.21-1.12.42-1.66.66"/>
    <path class="cls-1" d="M9.38,18.52c.03-.67.11-1.33.24-1.99"/>
    <path class="cls-1" d="M17.25,5.56c.51-.33,1.04-.6,1.59-.84"/>
    <line class="cls-1" x1="18.51" y1="42.23" x2="18.51" y2="42.23"/>
  </g>
  <g>
    <polygon class="cls-1" points="18.51 42.23 18.52 42.23 18.52 42.23 18.51 42.23"/>
    <path class="cls-1" d="M41.05,11.52c-.86-1.75-2-3.31-3.31-4.75-1.08-1.19-2.3-2.26-3.67-3.11-1-.62-2.06-1.2-3.17-1.58-4.1-1.38-8.2-1.46-12.24.29-1.05.45-2.07.93-3.01,1.59-1.34.94-2.54,2.01-3.61,3.24-1.3,1.49-2.39,3.11-3.22,4.91-.8,1.74-1.29,3.55-1.48,5.45-.37,3.68.44,7.16,1.82,10.53.88,2.15,1.99,4.18,3.26,6.12,1.06,1.61,2.18,3.2,3.37,4.72.6.77,1.23,1.52,1.87,2.27h0s.37.43.37.43c.17.2.33.39.5.59l1.43,1.65.17.19h0c.73.82,1.51,1.61,2.26,2.41.51.54,1.02,1.09,1.54,1.63.28.29.59.54.89.81l.27.14.26-.14c.31-.28.64-.54.92-.84.99-1.04,1.97-2.09,2.93-3.15.33-.36.64-.73.96-1.08,0,0,0,0,0,0l1.46-1.65s0,0,0,0c.14-.16.29-.32.43-.49.88-1.04,1.76-2.08,2.57-3.17,1.16-1.56,2.32-3.13,3.35-4.78.96-1.54,1.8-3.15,2.61-4.78,1-2.01,1.64-4.14,2.03-6.35.67-3.87.19-7.58-1.55-11.11ZM18.51,42.23s0,0,0,0h0s0,0,0,0ZM40.66,21.3c-.05.4-.11.8-.19,1.21-.43,2.26-1.17,4.43-2.26,6.46-.44.82-.89,1.63-1.36,2.44-.47.8-.95,1.6-1.47,2.37-.83,1.24-1.73,2.44-2.64,3.62-.3.39-.61.79-.92,1.18-.74.95-1.54,1.86-2.34,2.76h0s-1.88,2.08-1.88,2.08c-.46.5-.92,1.01-1.38,1.52-.37.41-.74.83-1.17,1.31-.87-.96-1.69-1.86-2.5-2.75-.02-.02-.04-.04-.06-.06-.04-.04-.08-.09-.12-.13-.19-.22-.39-.43-.58-.64l-1.03-1.15c-.34-.38-.68-.76-1.02-1.14-.38-.43-.75-.87-1.12-1.32-.48-.58-.94-1.17-1.4-1.77-.46-.59-.92-1.19-1.36-1.8-.29-.41-.58-.82-.86-1.23-.78-1.14-1.51-2.32-2.19-3.53-.23-.4-.45-.81-.66-1.21-1.31-2.49-2.28-5.12-2.65-7.93-.09-.68-.14-1.36-.15-2.04,0-.34,0-.67.02-1.01.03-.67.11-1.33.24-1.99.19-.99.48-1.96.88-2.92.74-1.76,1.76-3.33,3.01-4.77.55-.64,1.13-1.23,1.76-1.77s1.29-1.05,2-1.5c.51-.33,1.04-.6,1.59-.84.54-.24,1.1-.45,1.66-.66,1.29-.48,2.6-.74,3.92-.79.33-.01.66-.02.99,0,.33.01.66.03.99.07.33.03.66.08.99.14s.66.13.99.21c.53.13,1.05.29,1.56.48.52.19,1.02.4,1.52.63.33.15.66.32.98.49.72.38,1.4.84,2.03,1.36.32.26.62.53.92.82.29.29.58.58.85.89.32.36.63.73.93,1.1.6.75,1.14,1.54,1.62,2.37.24.42.46.84.65,1.29.17.38.32.76.46,1.14.82,2.28,1.05,4.64.76,7.05Z"/>
  </g>
</svg>