<svg xmlns="http://www.w3.org/2000/svg" width="43" height="54" viewBox="0 0 43 54">
  <g id="noun_Location_1536684" transform="translate(0.5 0.5)">
    <g id="Group">
      <path id="Compound_Path" data-name="Compound Path" d="M38.5,8.4c-11.566,0-21,9.046-21,20.193a19.7,19.7,0,0,0,4.2,12.1h0L36.949,60.635A1.883,1.883,0,0,0,38.5,61.4h0a1.883,1.883,0,0,0,1.551-.764L55.3,40.7h0a19.7,19.7,0,0,0,4.2-12.1C59.5,17.446,50.066,8.4,38.5,8.4ZM54.266,39.932l.517.382-.517-.382L39.017,59.871a.652.652,0,0,1-1.034,0L22.734,39.932l-.517.319.517-.319a18.243,18.243,0,0,1-3.942-11.339c0-10.447,8.852-18.919,19.708-18.919s19.708,8.472,19.708,18.919a18.243,18.243,0,0,1-3.942,11.339Z" transform="translate(-17.5 -8.4)" fill="#fff" stroke="#fff" stroke-width="1"/>
      <path id="Compound_Path-2" data-name="Compound Path" d="M45.5,27.3a8.3,8.3,0,1,0,8.3,8.3A8.3,8.3,0,0,0,45.5,27.3Zm0,15.3a7,7,0,1,1,7-7A7,7,0,0,1,45.5,42.6Z" transform="translate(-24.499 -15.356)" fill="#fff" stroke="#fff" stroke-width="1"/>
    </g>
  </g>
</svg>
