<svg xmlns="http://www.w3.org/2000/svg" width="35.75" height="45.55" viewBox="0 0 35.75 45.55">
  <g id="noun_Location_1536684" transform="translate(-17.125 -8.025)">
    <g id="Group" transform="translate(17.5 8.4)">
      <path id="Compound_Path" data-name="Compound Path" d="M35,8.4A17.308,17.308,0,0,0,17.5,25.469,16.8,16.8,0,0,0,21,35.7h0L33.708,52.554A1.562,1.562,0,0,0,35,53.2h0a1.561,1.561,0,0,0,1.292-.646L49,35.7h0a16.8,16.8,0,0,0,3.5-10.231A17.308,17.308,0,0,0,35,8.4ZM48.139,35.054l.431.323-.431-.323L35.431,51.908a.538.538,0,0,1-.862,0L21.862,35.054l-.431.269.431-.269a15.562,15.562,0,0,1-3.285-9.585A16.228,16.228,0,0,1,35,9.477,16.228,16.228,0,0,1,51.423,25.469a15.562,15.562,0,0,1-3.285,9.585Z" transform="translate(-17.5 -8.4)" stroke="#000" stroke-width="0.75"/>
      <path id="Compound_Path-2" data-name="Compound Path" d="M44.092,27.3a6.892,6.892,0,1,0,6.892,6.892A6.892,6.892,0,0,0,44.092,27.3Zm0,12.708a5.815,5.815,0,1,1,5.815-5.815A5.815,5.815,0,0,1,44.092,40.008Z" transform="translate(-26.592 -17.123)" stroke="#000" stroke-width="0.75"/>
    </g>
  </g>
</svg>

