<?xml version="1.0" encoding="utf-8"?>
<!-- Generator: Adobe Illustrator 23.0.4, SVG Export Plug-In . SVG Version: 6.00 Build 0)  -->
<svg version="1.1" id="Layer_1" xmlns="http://www.w3.org/2000/svg" xmlns:xlink="http://www.w3.org/1999/xlink" x="0px" y="0px"
	 viewBox="0 0 655.55 318.71" style="enable-background:new 0 0 655.55 318.71;" xml:space="preserve">
<style type="text/css">
	.st0{fill:#FFFFFF;}
</style>
<g>
	<polygon class="st0" points="133.05,241.67 129.37,241.67 129.37,260.1 133.05,260.1 133.05,251.95 141.18,251.95 141.18,260.1 
		144.86,260.1 144.86,241.67 141.18,241.67 141.18,248.93 133.05,248.93 	"/>
	<path class="st0" d="M169.16,244.03c-0.77-0.87-1.72-1.56-2.83-2.06c-1.11-0.5-2.4-0.75-3.82-0.75c-1.41,0-2.69,0.25-3.81,0.75
		c-1.12,0.5-2.08,1.19-2.84,2.06c-0.77,0.87-1.37,1.91-1.78,3.09c-0.41,1.18-0.62,2.47-0.62,3.85c0,1.34,0.21,2.61,0.62,3.77
		c0.41,1.16,1.01,2.18,1.78,3.03c0.77,0.85,1.72,1.53,2.84,2.02c1.12,0.49,2.4,0.73,3.81,0.73c1.42,0,2.71-0.25,3.82-0.73
		c1.11-0.49,2.06-1.17,2.83-2.02c0.77-0.86,1.37-1.88,1.78-3.03c0.41-1.16,0.62-2.43,0.62-3.77c0-1.38-0.21-2.68-0.62-3.85
		C170.53,245.94,169.93,244.9,169.16,244.03z M167.6,253.34c-0.19,0.77-0.5,1.48-0.92,2.1c-0.43,0.63-0.99,1.14-1.67,1.52
		c-0.69,0.38-1.53,0.57-2.5,0.57s-1.81-0.19-2.5-0.57c-0.68-0.38-1.24-0.89-1.67-1.52c-0.42-0.62-0.73-1.33-0.92-2.1
		c-0.19-0.76-0.28-1.56-0.28-2.37c0-0.84,0.1-1.67,0.28-2.46c0.19-0.8,0.5-1.53,0.92-2.15c0.43-0.64,0.99-1.15,1.67-1.53
		c0.69-0.38,1.53-0.57,2.5-0.57s1.81,0.19,2.5,0.57c0.68,0.38,1.24,0.89,1.67,1.53c0.42,0.63,0.73,1.36,0.92,2.15
		c0.19,0.79,0.28,1.62,0.28,2.46C167.88,251.78,167.79,252.57,167.6,253.34z"/>
	<polygon class="st0" points="184.35,260.1 188.03,260.1 188.03,244.69 193.69,244.69 193.69,241.67 178.68,241.67 178.68,244.69 
		184.35,244.69 	"/>
	<polygon class="st0" points="205.31,251.97 214.47,251.97 214.47,249.22 205.31,249.22 205.31,244.69 215.29,244.69 215.29,241.67 
		201.63,241.67 201.63,260.1 215.51,260.1 215.51,257.08 205.31,257.08 	"/>
	<polygon class="st0" points="227.76,241.67 224.08,241.67 224.08,260.1 236.97,260.1 236.97,257.08 227.76,257.08 	"/>
	<path class="st0" d="M257.14,250.69c-0.59-0.39-1.2-0.68-1.8-0.86c-0.62-0.18-1.1-0.31-1.45-0.38c-1.19-0.3-2.15-0.55-2.89-0.74
		c-0.74-0.2-1.33-0.4-1.76-0.6c-0.46-0.22-0.77-0.45-0.93-0.73c-0.16-0.26-0.25-0.61-0.25-1.02c0-0.45,0.1-0.83,0.3-1.14
		c0.19-0.29,0.44-0.54,0.74-0.73c0.3-0.19,0.63-0.33,0.99-0.4c0.88-0.18,1.78-0.12,2.52,0.03c0.46,0.09,0.87,0.26,1.23,0.48
		c0.37,0.23,0.67,0.55,0.89,0.96c0.19,0.35,0.31,0.78,0.37,1.28h3.56c-0.03-0.95-0.23-1.77-0.59-2.44
		c-0.39-0.73-0.94-1.34-1.61-1.81c-0.68-0.47-1.47-0.82-2.34-1.04c-1.64-0.4-3.48-0.47-5.27,0.01c-0.82,0.22-1.56,0.57-2.2,1.02
		c-0.64,0.45-1.16,1.03-1.56,1.71c-0.39,0.67-0.59,1.48-0.59,2.41c0,0.82,0.16,1.53,0.46,2.1c0.31,0.58,0.72,1.06,1.22,1.45
		c0.51,0.39,1.1,0.71,1.74,0.96c0.66,0.25,1.34,0.47,2.04,0.64c0.69,0.19,1.37,0.37,2.04,0.53c0.68,0.16,1.29,0.35,1.83,0.57
		c0.56,0.22,1.01,0.51,1.36,0.84c0.37,0.36,0.56,0.84,0.56,1.41c0,0.53-0.14,0.98-0.42,1.33c-0.27,0.34-0.61,0.6-1.01,0.79
		c-0.39,0.19-0.81,0.31-1.26,0.38c-1.06,0.16-1.98,0.12-2.87-0.11c-0.54-0.14-1.02-0.36-1.42-0.65c-0.41-0.29-0.74-0.68-0.98-1.15
		c-0.22-0.42-0.34-0.92-0.37-1.49h-3.56c0.01,1.02,0.22,1.92,0.61,2.67c0.42,0.81,1,1.49,1.72,2.01c0.72,0.53,1.57,0.92,2.51,1.17
		c0.96,0.25,1.96,0.38,2.97,0.38c1.26,0,2.38-0.15,3.33-0.44c0.95-0.29,1.75-0.7,2.38-1.21c0.63-0.51,1.11-1.13,1.43-1.83
		c0.32-0.71,0.48-1.48,0.48-2.31c0-1.01-0.21-1.84-0.64-2.48C258.25,251.6,257.73,251.07,257.14,250.69z"/>
	<path class="st0" d="M292.53,255.72c0.51-0.65,0.92-1.37,1.21-2.13c0.26-0.69,0.44-1.41,0.54-2.14h-2.78
		c-0.05,0.33-0.12,0.66-0.21,0.98c-0.11,0.39-0.27,0.78-0.47,1.15l-0.17,0.31l-2.84-3.49l0.25-0.14c0.92-0.5,1.71-1.12,2.33-1.85
		c0.6-0.71,0.91-1.6,0.91-2.65c0-0.7-0.13-1.33-0.39-1.86c-0.26-0.53-0.61-0.98-1.05-1.34c-0.44-0.36-0.97-0.63-1.56-0.82
		c-0.6-0.19-1.26-0.28-1.95-0.28c-0.61,0-1.2,0.1-1.76,0.29c-0.56,0.19-1.07,0.47-1.5,0.83c-0.43,0.36-0.78,0.79-1.04,1.29
		c-0.26,0.49-0.38,1.05-0.38,1.66c0,0.78,0.16,1.48,0.49,2.06c0.34,0.6,0.76,1.22,1.26,1.82l0.19,0.23l-0.27,0.13
		c-0.53,0.26-1.06,0.56-1.56,0.91c-0.49,0.34-0.94,0.73-1.32,1.17c-0.38,0.43-0.68,0.91-0.9,1.44c-0.22,0.52-0.33,1.11-0.33,1.75
		c0,0.86,0.15,1.63,0.45,2.3c0.3,0.66,0.72,1.23,1.24,1.69c0.52,0.46,1.15,0.81,1.86,1.05c0.72,0.24,1.51,0.36,2.32,0.36
		c1.04,0,1.98-0.18,2.8-0.54c0.82-0.36,1.61-0.9,2.35-1.62l0.19-0.18l1.63,1.99h3.98l-3.63-4.23L292.53,255.72z M285.17,244.03
		c0.38-0.35,0.83-0.53,1.35-0.53c0.52,0,0.98,0.2,1.37,0.6c0.39,0.4,0.58,0.88,0.58,1.44c0,0.75-0.21,1.35-0.64,1.78
		c-0.39,0.4-0.87,0.78-1.41,1.12l-0.18,0.11l-0.13-0.17c-0.35-0.44-0.69-0.88-1.01-1.3c-0.35-0.46-0.52-1.03-0.52-1.68
		C284.59,244.85,284.79,244.38,285.17,244.03z M288.6,256.1c-0.46,0.51-0.95,0.93-1.47,1.25c-0.54,0.33-1.17,0.5-1.88,0.5
		c-0.38,0-0.76-0.07-1.11-0.22c-0.35-0.14-0.66-0.34-0.93-0.57c-0.27-0.24-0.49-0.53-0.65-0.87c-0.16-0.34-0.25-0.7-0.25-1.07
		c0-0.42,0.08-0.81,0.25-1.16c0.16-0.34,0.37-0.65,0.64-0.93c0.26-0.28,0.56-0.52,0.9-0.73c0.33-0.2,0.67-0.37,1.01-0.52l0.16-0.07
		l3.47,4.24L288.6,256.1z"/>
	<path class="st0" d="M331.43,258.19c-0.04-0.43-0.08-0.85-0.09-1.26c-0.02-0.4-0.04-0.76-0.05-1.06c-0.03-0.46-0.1-0.93-0.19-1.4
		c-0.09-0.45-0.24-0.87-0.44-1.25c-0.2-0.37-0.45-0.69-0.77-0.97c-0.31-0.27-0.7-0.47-1.18-0.6l-0.17-0.05v-0.34l0.15-0.11
		c1-0.4,1.73-0.99,2.17-1.75c0.44-0.77,0.67-1.7,0.67-2.77c0-0.69-0.12-1.34-0.37-1.94c-0.24-0.59-0.6-1.12-1.06-1.57
		c-0.46-0.45-1.02-0.81-1.67-1.07c-0.65-0.26-1.39-0.39-2.2-0.39h-9.95v18.42h3.68v-7.39h4.39c1.1,0,1.91,0.26,2.42,0.76
		c0.49,0.49,0.82,1.27,0.97,2.3c0.11,0.76,0.19,1.57,0.24,2.4c0.05,0.73,0.17,1.38,0.35,1.92h3.57c-0.1-0.2-0.18-0.43-0.25-0.67
		C331.55,259.04,331.48,258.62,331.43,258.19z M327.05,249.53c-0.52,0.46-1.29,0.69-2.3,0.69h-4.79v-5.79h4.79
		c1.01,0,1.78,0.23,2.3,0.68c0.53,0.46,0.8,1.19,0.8,2.18C327.84,248.31,327.57,249.06,327.05,249.53z"/>
	<polygon class="st0" points="344.36,251.97 353.52,251.97 353.52,249.22 344.36,249.22 344.36,244.69 354.34,244.69 354.34,241.67 
		340.68,241.67 340.68,260.1 354.55,260.1 354.55,257.08 344.36,257.08 	"/>
	<path class="st0" d="M375.2,250.69c-0.59-0.39-1.2-0.68-1.8-0.86c-0.61-0.18-1.1-0.31-1.45-0.38c-1.19-0.3-2.15-0.55-2.89-0.74
		c-0.74-0.2-1.33-0.4-1.76-0.6c-0.46-0.22-0.77-0.45-0.93-0.73c-0.16-0.26-0.25-0.61-0.25-1.02c0-0.45,0.1-0.83,0.3-1.14
		c0.19-0.29,0.44-0.54,0.74-0.73c0.3-0.19,0.63-0.33,0.99-0.4c0.88-0.18,1.78-0.13,2.52,0.03c0.46,0.09,0.87,0.26,1.23,0.48
		c0.37,0.23,0.67,0.55,0.89,0.96c0.19,0.35,0.31,0.78,0.37,1.28h3.56c-0.03-0.95-0.23-1.77-0.59-2.44c-0.4-0.73-0.94-1.34-1.61-1.81
		c-0.68-0.47-1.47-0.82-2.34-1.04c-1.64-0.4-3.47-0.47-5.27,0.01c-0.82,0.22-1.56,0.57-2.2,1.02c-0.64,0.45-1.16,1.03-1.56,1.71
		c-0.39,0.68-0.59,1.49-0.59,2.41c0,0.82,0.16,1.53,0.46,2.1c0.31,0.58,0.72,1.06,1.22,1.45c0.51,0.39,1.09,0.71,1.74,0.96
		c0.66,0.25,1.34,0.47,2.04,0.64c0.69,0.19,1.37,0.37,2.04,0.53c0.68,0.16,1.29,0.35,1.83,0.57c0.56,0.22,1.01,0.51,1.36,0.84
		c0.37,0.36,0.56,0.84,0.56,1.41c0,0.53-0.14,0.98-0.42,1.33c-0.27,0.34-0.61,0.6-1.01,0.79c-0.39,0.19-0.81,0.31-1.26,0.38
		c-1.07,0.16-1.99,0.12-2.87-0.11c-0.54-0.14-1.02-0.36-1.42-0.65c-0.41-0.29-0.74-0.68-0.98-1.15c-0.22-0.42-0.34-0.92-0.37-1.49
		h-3.56c0.01,1.02,0.22,1.92,0.61,2.67c0.42,0.81,1,1.49,1.72,2.01c0.72,0.53,1.57,0.92,2.51,1.17c0.96,0.25,1.96,0.38,2.97,0.38
		c1.26,0,2.38-0.15,3.33-0.44c0.95-0.29,1.75-0.7,2.38-1.21c0.63-0.51,1.11-1.13,1.43-1.83c0.32-0.71,0.48-1.48,0.48-2.31
		c0-1.01-0.21-1.84-0.64-2.48C376.3,251.6,375.79,251.07,375.2,250.69z"/>
	<rect x="385.6" y="241.67" class="st0" width="3.68" height="18.42"/>
	<path class="st0" d="M412.57,243.93c-0.74-0.75-1.63-1.32-2.64-1.69c-1.02-0.38-2.14-0.57-3.32-0.57h-7.92v18.42h7.92
		c1.41,0,2.64-0.24,3.67-0.71c1.03-0.47,1.9-1.12,2.59-1.94c0.69-0.82,1.21-1.81,1.56-2.93c0.34-1.14,0.52-2.39,0.52-3.74
		c0-1.54-0.21-2.89-0.63-4.02C413.9,245.63,413.31,244.68,412.57,243.93z M410.86,253.91c-0.27,0.75-0.65,1.37-1.11,1.84
		c-0.47,0.48-1,0.82-1.6,1.02c-0.59,0.2-1.2,0.3-1.82,0.3h-3.94v-12.39h3.2c1.05,0,1.95,0.15,2.67,0.46
		c0.73,0.3,1.33,0.75,1.78,1.33c0.44,0.57,0.76,1.26,0.96,2.06c0.19,0.78,0.28,1.67,0.28,2.64
		C411.27,252.24,411.13,253.16,410.86,253.91z"/>
	<polygon class="st0" points="427.29,251.97 436.45,251.97 436.45,249.22 427.29,249.22 427.29,244.69 437.27,244.69 437.27,241.67 
		423.61,241.67 423.61,260.1 437.48,260.1 437.48,257.08 427.29,257.08 	"/>
	<polygon class="st0" points="446.05,241.67 446.05,260.1 449.47,260.1 449.47,247.45 449.84,247.45 449.96,247.56 457.75,260.1 
		461.54,260.1 461.54,241.67 458.12,241.67 458.12,254.35 457.76,254.35 457.63,254.24 449.81,241.67 	"/>
	<path class="st0" d="M476.7,256.96c-0.68-0.38-1.25-0.89-1.67-1.52c-0.42-0.62-0.73-1.33-0.92-2.1c-0.19-0.77-0.29-1.56-0.29-2.37
		c0-0.84,0.1-1.67,0.28-2.46c0.19-0.8,0.5-1.53,0.92-2.15c0.43-0.64,0.99-1.15,1.67-1.53c0.69-0.38,1.53-0.57,2.5-0.57
		c0.54,0,1.06,0.09,1.55,0.27c0.49,0.18,0.94,0.43,1.33,0.74c0.39,0.32,0.72,0.69,0.98,1.1c0.23,0.36,0.39,0.77,0.47,1.2h3.56
		c-0.14-0.95-0.42-1.81-0.84-2.56c-0.46-0.81-1.05-1.51-1.75-2.06c-0.71-0.55-1.52-0.98-2.41-1.27c-0.9-0.29-1.87-0.44-2.88-0.44
		c-1.41,0-2.69,0.25-3.81,0.75c-1.12,0.5-2.08,1.19-2.84,2.06c-0.77,0.87-1.37,1.91-1.78,3.09c-0.41,1.18-0.62,2.47-0.62,3.85
		c0,1.34,0.21,2.61,0.62,3.77c0.41,1.16,1.01,2.18,1.78,3.03c0.77,0.85,1.72,1.53,2.84,2.02c1.12,0.49,2.4,0.73,3.81,0.73
		c1.13,0,2.18-0.17,3.12-0.52c0.94-0.34,1.76-0.84,2.46-1.49c0.7-0.65,1.27-1.44,1.69-2.36c0.4-0.85,0.66-1.82,0.77-2.87h-3.56
		c-0.18,1.22-0.64,2.23-1.34,2.99c-0.76,0.82-1.82,1.24-3.15,1.24C478.22,257.53,477.38,257.34,476.7,256.96z"/>
	<polygon class="st0" points="499.55,251.97 508.71,251.97 508.71,249.22 499.55,249.22 499.55,244.69 509.53,244.69 509.53,241.67 
		495.87,241.67 495.87,260.1 509.74,260.1 509.74,257.08 499.55,257.08 	"/>
	<path class="st0" d="M531.92,252.25c-0.43-0.65-0.94-1.17-1.53-1.56c-0.59-0.39-1.2-0.68-1.8-0.86c-0.61-0.18-1.1-0.31-1.45-0.38
		c-1.19-0.3-2.15-0.55-2.89-0.74c-0.74-0.2-1.33-0.4-1.76-0.6c-0.46-0.22-0.77-0.45-0.93-0.73c-0.16-0.26-0.25-0.61-0.25-1.02
		c0-0.45,0.1-0.83,0.3-1.14c0.19-0.29,0.44-0.54,0.74-0.73c0.3-0.19,0.63-0.33,0.99-0.4c0.88-0.18,1.78-0.13,2.52,0.03
		c0.46,0.09,0.87,0.26,1.23,0.48c0.37,0.23,0.67,0.55,0.89,0.96c0.19,0.35,0.31,0.78,0.37,1.28h3.56c-0.03-0.95-0.23-1.77-0.59-2.44
		c-0.4-0.73-0.94-1.34-1.61-1.81c-0.68-0.47-1.47-0.82-2.34-1.04c-1.64-0.4-3.47-0.47-5.27,0.01c-0.82,0.22-1.56,0.57-2.2,1.02
		c-0.64,0.45-1.16,1.03-1.56,1.71c-0.39,0.68-0.59,1.49-0.59,2.41c0,0.82,0.16,1.53,0.46,2.1c0.31,0.58,0.72,1.06,1.22,1.45
		c0.51,0.39,1.09,0.71,1.74,0.96c0.66,0.25,1.34,0.47,2.04,0.64c0.69,0.19,1.37,0.37,2.04,0.53c0.68,0.16,1.29,0.35,1.83,0.57
		c0.56,0.22,1.01,0.51,1.36,0.84c0.37,0.36,0.56,0.84,0.56,1.41c0,0.53-0.14,0.98-0.42,1.33c-0.27,0.34-0.61,0.6-1.01,0.79
		c-0.39,0.19-0.81,0.31-1.26,0.38c-1.07,0.16-1.98,0.12-2.87-0.11c-0.54-0.14-1.02-0.36-1.42-0.65c-0.41-0.29-0.74-0.68-0.98-1.15
		c-0.22-0.42-0.34-0.92-0.37-1.49h-3.56c0.01,1.02,0.22,1.92,0.61,2.67c0.42,0.81,1,1.49,1.72,2.01c0.72,0.53,1.57,0.92,2.51,1.17
		c0.96,0.25,1.96,0.38,2.97,0.38c1.26,0,2.38-0.15,3.33-0.44c0.95-0.29,1.75-0.7,2.38-1.21c0.63-0.51,1.11-1.13,1.43-1.83
		c0.32-0.71,0.48-1.48,0.48-2.31C532.56,253.72,532.35,252.88,531.92,252.25z"/>
</g>
<g>
	<path class="st0" d="M215.29,79.56c-1.97,1.29-3.81,1.07-6.14,1.68c-4.15,0.41-5.15,0.41-5.91,0.64c-4.81,1.43-6.24,3.82-8.63,8.25
		c-2.68,4.99-4.73,10.31-6.51,15.7c-5.75,17.37-8.87,35.58-14.53,52.98s-14.28,34.44-28.64,45.63c-7.53,5.87-17.13,10.04-26.72,8.39
		c-9.81-1.69-18.33-9.89-20.42-19.62c-2.08-9.74,2.41-20.36,10.77-25.43c1.63-0.99,3.65-1.79,5.45-1.02
		c2.12,0.91,2.88,3.88,1.75,5.84s-3.66,2.8-5.92,2.38c-1.02-0.19-2.1-0.59-3.04-0.18c-0.71,0.31-1.14,1-1.52,1.67
		c-2.91,5.09-5.02,11.03-3.82,16.88c1.6,7.8,9.15,13.7,17.04,14.7c7.88,1,15.76-2.26,21.62-7.43c5.85-5.16,9.91-12.06,13.19-19.17
		c7.46-16.2,11.27-33.87,16.22-51.06s11.31-34.41,22.9-47.88c-12.32-1.31-24.46-4.94-35.58-10.66c-7.12-3.66-13.85-8.17-21.33-10.94
		c-7.48-2.78-16.13-3.63-23.01,0.08c-4.17,2.24-7.36,5.99-9.64,10.13c-3.96,7.17-5.4,15.75-4.03,23.97
		c0.81,4.86,3.34,10.29,8.15,11.38c3.87,0.87,7.77-1.59,9.81-4.9c2.04-3.31,2.61-7.32,3.15-11.21c2.06-0.3,2.88,2.71,2.53,4.77
		c-1.07,6.25-4.79,11.93-10.06,15.37c-1.3,0.85-2.73,1.58-4.29,1.73c-4.36,0.44-7.98-3.58-10.03-7.53
		c-6.22-11.98-5.42-27.13,1.99-38.01s21.14-17.02,34.43-15.42c21.85,2.63,39.31,23.82,61.24,23.92c1.13,0.01,2.27-0.05,3.33-0.39
		c1.66-0.53,3.01-1.71,4.35-2.81c2.95-2.42,6.18-4.65,9.92-5.55c3.73-0.91,8.06-0.29,10.93,2.38
		C231.88,75.88,219.84,78.41,215.29,79.56 M219.66,70.33c-0.51,0.11-1.18-0.11-1.71-0.14c-0.64-0.04-1.28-0.02-1.9,0.12
		c-0.94,0.22-1.79,0.71-2.7,1.04c-1.27,0.46-2.64,0.59-3.91,1.03c-1.27,0.44-2.51,1.3-2.84,2.61c-0.16,0.61-0.04,1.38,0.5,1.73
		c0.21,0.14,0.47,0.19,0.71,0.24c4.29,0.8,8.06-0.77,11.93-2.2c0.43-0.2,0.81-0.41,1.13-0.65c0.97-0.73,1.08-2.23,0.18-3.09
		C220.87,70.83,220.67,70.81,219.66,70.33"/>
	<path class="st0" d="M264.62,198.93c0.1,0,0.21-0.01,0.31-0.01c7.14-0.41,13.41-4.52,18.85-9.01c1.86-1.53,3.84-3.2,6.28-3.37
		c-6.82,10.28-17.88,17.6-30.1,19.92c-2.43,0.46-5.09,0.7-7.29-0.52c-3.72-2.06-4.34-7.17-3.65-11.29
		c1.87-11.08,9.89-19,18.84-24.96c1.12-0.75,2.37-1.49,3.74-1.38c2.56,0.21,3.98,3.23,4.1,5.79c0.19,4.01-1.43,7.89-3.81,11.04
		c-2.38,3.16-5.48,5.68-8.63,8.06c-1.34,1.01-2.85,2.54-2.18,4.13C261.61,198.62,263.21,198.96,264.62,198.93z M259.32,193.18
		c0.27-0.02,0.53-0.22,0.74-0.42c3.47-3.19,6.26-7.06,8.59-11.17c0.39-0.69,0.77-1.4,0.9-2.18c0.12-0.78-0.06-1.67-0.65-2.22
		c-0.83-0.77-2.13-0.64-3.18-0.29c-2.49,0.84-4.47,2.7-5.88,4.87c-1.46,2.24-2.86,5.14-2.21,7.91c0.17,0.72,0.69,3.24,1.48,3.48
		C259.18,193.18,259.25,193.18,259.32,193.18z"/>
	<path class="st0" d="M261.52,87.49c-0.24-4.16-1.96-9.22-6.07-9.87c-1.87-0.29-3.69,0.48-5.32,1.34
		c-13.71,7.22-23.34,22.39-30.04,35.95c-7.13,14.45-11.87,29.99-17.36,45.16c-0.96,2.65-1.96,5.33-3.67,7.54
		c-1.67,2.18-3.94,3.8-6.14,5.44c-6.89,5.16-13.4,10.83-19.45,16.94c2.91,1.11,5.82-1.02,8.17-2.91c3.45-2.78,7.12-5.29,10.96-7.52
		c0.72-0.42,1.65-0.82,2.37-0.33c0.81,0.55,0.65,1.76,0.38,2.67c-1.9,6.23-4.95,12.1-5.9,18.58c-0.32,2.21-0.09,5.01,1.96,6.02
		c2.49,1.24,4.95-1.29,6.58-3.43c5.32-7.01,12.26-12.77,20.15-16.74c0.48-0.24,1.01-0.48,1.55-0.36c1.43,0.34,1.2,2.42,0.69,3.77
		c-1.4,3.71-2.06,7.73-1.93,11.76c0.05,1.58,0.3,3.33,1.49,4.41c2.06,1.87,5.23,0.56,7.47-0.89c7.89-5.12,15.11-11.22,21.46-18.14
		c-1.56-0.77-3.3,0.24-4.67,1.21c-4.5,3.2-9,6.4-13.5,9.6c-0.59,0.42-1.31,0.87-2.03,0.63c-1.02-0.33-1.2-1.7-1.12-2.76
		c0.35-4.46,1.7-8.8,3.94-12.6c1.18-2,2.55-4.69,0.91-6.45c-0.99-1.07-2.64-1.14-4.05-0.93c-8.92,1.32-14.75,9.99-23.29,12.71
		c-0.9-1.77-0.36-3.85,0.26-5.67c2.72-7.95,6.82-15.38,12.06-21.88c6.75-8.37,15.45-15.32,20.21-25c-2.22-0.39-3.98,1.57-5.34,3.29
		c-4.01,5.06-8.56,9.68-13.57,13.75c-0.42,0.34-0.88,0.69-1.42,0.7c-1.69,0.04-1.8-2.54-1.25-4.11
		c6.74-19.07,13.54-38.26,23.77-55.59c2.57-4.35,6.49-9.11,11.6-8.25c0.95,0.16,1.92,0.55,2.52,1.31c0.66,0.84,0.76,1.95,0.82,2.99
		c0.32,5.45,0.16,10.99-1.51,16.1c-2.83,8.67-9.82,15.49-12.05,24.37c1.74,0.22,3.11-1.27,4.16-2.61
		c4.58-5.86,9.21-11.8,12.24-18.63c2.95-6.64,4.31-14.02,3.95-21.4C261.53,87.61,261.52,87.55,261.52,87.49z"/>
	<path class="st0" d="M582.25,184.65c-1.63-0.96-3.68-1.39-5.58-1.57c-8.5-0.83-17.17,1.03-24.45,5.25
		c-0.57,0.33-1.35,0.65-1.83,0.18c-0.36-0.34-0.31-0.91-0.29-1.4c0.17-3.72-2.69-6.87-5.1-9.79c-0.37-0.45-0.75-0.94-0.83-1.51
		c-0.1-0.76,0.36-1.45,0.85-2.03c1.63-1.92,3.79-3.39,6.19-4.2c0.56-0.19,1.17-0.37,1.49-0.86c0.52-0.77-0.05-1.93-0.91-2.35
		c-0.86-0.42-1.86-0.32-2.78-0.15c-2.5,0.46-4.92,1.3-7.15,2.48c-2.24,1.19-4.34,2.77-5.67,4.93c-1.33,2.16-1.8,4.96-0.8,7.35
		c-5.18,2.94-9.58,7.03-14.31,10.64c-4.73,3.61-10.02,6.84-15.98,7.61c-1.88,0.24-4.39-0.2-4.77-2.07
		c-0.31-1.51,1.05-2.74,2.26-3.65c3.16-2.37,6.26-4.88,8.65-8.03c2.39-3.14,4.02-7.01,3.86-11.01c-0.11-2.76-1.84-6.06-4.58-5.92
		c-0.99,0.05-1.88,0.56-2.71,1.08c-9.86,6.14-19.26,15.75-19.56,28.15c-0.07,2.81,0.49,5.97,2.76,7.7c1.94,1.48,4.57,1.5,6.96,1.26
		c5.16-0.51,10.25-1.89,14.69-4.46c8.8-5.1,14.92-14.71,24.81-17.3c1.83,2.14,3,4.83,3.33,7.59c0.08,0.7,0.11,1.44-0.19,2.07
		c-0.41,0.89-1.35,1.39-2.21,1.85c-3.7,1.99-7.14,4.43-10.23,7.27c-1.79,1.64-3.56,4.24-2.21,6.34c0.69,1.07,1.99,1.58,3.22,1.83
		c4.44,0.89,9.07-0.7,12.51-3.52s5.8-6.75,7.53-10.86c0.68-1.61,1.29-3.28,2.25-4.74c2.11-3.16,5.74-4.99,9.42-5.99
		c6.83-1.85,14.37-1.24,20.94,1.72c1.07,0.48,2.73,0.78,3.02-0.33c0.1-0.39-0.05-0.82-0.24-1.18
		C584.09,186.02,583.25,185.24,582.25,184.65z M498.19,193.11c-0.2-0.22-0.35-0.51-0.45-0.78c-2.27-5.89,1.59-12.79,7.1-15.02
		c1.11-0.45,2.54-0.67,3.45,0.16c0.62,0.57,0.81,1.49,0.67,2.31c-0.13,0.82-0.54,1.55-0.95,2.26c-2.46,4.23-5.33,8.28-9.06,11.46
		C498.65,193.5,498.39,193.34,498.19,193.11z M541.79,204.55c-0.13,0.25-0.28,0.49-0.45,0.72c-0.57,0.77-1.37,1.34-2.19,1.83
		c-0.9,0.54-1.87,1.02-2.93,1.13c-0.54,0.06-1.11,0.02-1.61-0.21c-0.71-0.32-1.24-1.01-1.44-1.77c-0.6-2.22,1.34-2.96,2.35-4.56
		c0.22-0.35,0.42-0.72,0.71-1c0.34-0.32,0.79-0.51,1.24-0.67c0.78-0.28,1.57-0.49,2.38-0.65c0.89-0.17,1.95-0.22,2.58,0.46
		c0.74,0.79,0.42,2.04,0.06,3.03C542.28,203.44,542.07,204.02,541.79,204.55z"/>
	<path class="st0" d="M487.24,187.02c-0.36-0.03-0.77,0.06-1.11,0.19c-1.44,0.55-2.82,1.32-4.36,1.57
		c-1.53,0.25-3.34-0.17-4.19-1.51c-1.07-1.69-0.15-3.86,0.91-5.49c1.06-1.64,2.3-3.49,1.77-5.41c-0.72-2.65-4.27-3.38-6.89-2.7
		c-1.47,0.39-2.96,1.16-3.55,2.56c-0.42,1.01-0.29,2.17-0.26,3.28c0.32,9.03-6.7,17.55-15.59,18.92c-0.99,0.15-2.33,0-2.56-0.98
		c-0.1-0.42,0.06-0.84,0.21-1.23c2.24-5.66,4.48-11.32,6.72-16.98c0.74-1.87,1.46-4.08,0.38-5.83c-1.51-2.46-5.15-2.04-7.79-1.04
		c-13.03,4.96-22.67,15.87-34.6,22.99c-1.18,0.71-2.61,1.39-3.91,0.85c-1.98-0.84-1.95-3.62-1.51-5.69
		c1.5-7.12,3.62-14.12,6.76-20.63c0.36-0.75,0.75-1.6,0.48-2.41c-0.55-1.63-2.92-1.44-4.45-0.74c-2.71,1.24-5.13,3.01-7.52,4.78
		c-4.53,3.31-8.99,6.71-13.43,10.12c-2.25,1.72-4.48,3.46-6.71,5.2c-0.96,0.75-4.68,2.66-2.88,4.39c0.14,0.13,0.3,0.24,0.49,0.29
		c0.93,0.23,1.81-0.38,2.55-0.95c6.07-4.68,12.4-9.03,18.96-13c-0.11,9.32-7,17.31-7.33,26.62c-0.02,0.55-0.01,1.14,0.28,1.62
		c0.55,0.92,1.81,1.08,2.86,1.03c7.82-0.32,14.51-5.22,20.32-10.31c5.81-5.09,11.53-10.73,18.92-13.1c1.05-0.34,2.17-0.61,3.28-0.42
		c1.11,0.18,2.2,0.92,2.51,2c0.25,0.89-0.05,1.82-0.34,2.68c-1.25,3.78-2.15,7.68-2.71,11.63c-0.3,2.18-0.37,4.75,1.29,6.27
		c1.76,1.6,4.49,1.15,6.69,0.41c7.44-2.49,14.12-7.05,19.1-13.05c0.48-0.58,0.98-1.19,1.7-1.42c1.07-0.34,2.2,0.29,3.25,0.74
		c4.43,1.89,9.97,0.42,12.73-3.38c0.29-0.4,0.56-0.92,0.34-1.37C487.91,187.18,487.6,187.05,487.24,187.02z"/>
	<path class="st0" d="M397.2,105.94c1.23-3.73,2.6-7.42,4.21-11c0.44-0.25,0.87-0.51,1.28-0.81c0.01-0.01,0.02-0.01,0.02-0.01
		c1.38-1.13,2.86-2.16,4.35-3.13c20.6-13.5,46.83-20.7,70.89-13.35c-0.29-0.09-0.95-1.26-1.2-1.53c-0.49-0.52-1.04-1-1.63-1.41
		c-1.18-0.84-2.51-1.45-3.9-1.8c-1.49-0.38-2.81-0.15-4.29-0.25c-1.4-0.09-2.85-0.5-4.25-0.69c-2.64-0.93-4.51-0.7-7.22-1.06
		c-0.07-0.01-0.14-0.01-0.2-0.02c-4.57-0.13-5.63-0.09-6.54-0.24c-0.21-0.02-0.41-0.05-0.64-0.08c-3.83,0.06-7.92-0.51-11.64,0.53
		c-1.33,0.37-2.7,0.54-4.07,0.66c-4.44,0.39-8.87,1.47-13.22,2.33c-3.05,0.6-6.11,2.11-8.89,3.41c-5.86,2.75-11.37,6.15-17.1,9.15
		c-8.84,4.63-18.83,8.36-28.83,6.58c-5.64-1-10.89-3.71-15.71-6.88c-8.93-5.86-17.3-14.49-18.1-25.02c-0.14-1.84,0.05-3.9,1.39-5.13
		c0.8-0.73,1.89-1.05,2.97-1.22c7.73-1.15,14.87,4.91,19.55,11.35c0.41,0.57,0.95,1.21,1.64,1.18c1.43-0.07,1.03-2.32,0.14-3.46
		c-4.69-6.01-11.26-10.56-18.5-12.81c-2.33-0.72-4.87-1.21-7.12-0.4c-3.92,1.41-5.5,6.21-5.17,10.4c0.46,5.84,3.58,11.23,7.31,15.83
		c13.83,17.06,37.61,25.38,58.58,20.62c-5.54,10.24-9.41,21.52-12.66,32.8c-2.75,9.54-5.14,19.22-8,28.72
		c-8.5-1.35-16.58-5.78-22.34-12.31c4.92,7.76,12.25,14.01,20.66,17.66c-1.88,5.78-3.99,11.47-6.53,16.98
		c-3.27,7.11-7.33,14.01-13.19,19.17c-5.85,5.16-13.74,8.43-21.62,7.43c-7.88-1-15.43-6.91-17.04-14.7
		c-1.2-5.84,0.91-11.79,3.82-16.88c0.38-0.67,0.82-1.36,1.52-1.67c0.94-0.4,2.02,0,3.04,0.18c2.26,0.42,4.79-0.43,5.92-2.38
		c1.13-1.95,0.37-4.93-1.75-5.84c-1.79-0.77-3.82,0.04-5.45,1.02c-8.36,5.08-12.86,15.7-10.77,25.43s10.61,17.93,20.42,19.62
		c9.59,1.65,19.18-2.51,26.72-8.39c11.74-9.15,19.64-22.22,25.23-36.19h0.03c0.01-0.05,0.02-0.1,0.03-0.15
		c0.36-0.91,0.72-1.83,1.07-2.75c3.59,0.52,7.16-1.17,9.91-3.47c2.87-2.39,5.12-5.44,7.85-7.98c4.22-3.94,9.59-6.63,15.32-7.68
		c-5.36-2.59-11.61,0.21-16.24,3.72c-4.58,3.48-8.9,7.85-14.59,8.94c0.01-0.02,0.02-0.05,0.02-0.07
		C388.33,141.52,391.45,123.3,397.2,105.94z"/>
	<path class="st0" d="M434.12,141.36c-0.19,0.65-0.5,1.34-0.66,1.74c-0.78,1.89-2.01,3.57-3.49,4.98c-1.76,1.67-3.89,3-6.24,3.59
		c-1.11,0.28-2.33,0.39-3.39-0.05c-1.06-0.44-1.9-1.57-1.7-2.7c0.12-0.7,0.6-1.29,1.06-1.83c2.25-2.66,4.5-5.33,6.76-7.99
		c0.38-0.45,0.77-0.91,1.3-1.17c0.5-0.26,1.08-0.31,1.65-0.35c0.43-0.04,0.86-0.07,1.28,0.04c0.46,0.12,0.86,0.41,1.25,0.69
		c0.61,0.44,2.08,1.12,2.29,1.84C434.32,140.44,434.25,140.89,434.12,141.36z"/>
</g>
</svg>
