<svg xmlns="http://www.w3.org/2000/svg" width="47" height="47" viewBox="0 0 47 47">
  <g id="Grupo_35378" data-name="Grupo 35378" transform="translate(-1059 -3879)">
    <path id="Trazado_45404" data-name="Trazado 45404" d="M23.5,0A23.5,23.5,0,1,1,0,23.5,23.5,23.5,0,0,1,23.5,0Z" transform="translate(1059 3879)"/>
    <g id="noun-mail-1707178" transform="translate(951.602 3761.6)">
      <path id="Trazado_45403" data-name="Trazado 45403" d="M121.965,134.4a1.553,1.553,0,0,0-.832.245l9.269,7.841a1.07,1.07,0,0,0,1.42,0l9.252-7.841a1.553,1.553,0,0,0-.832-.245H121.965Zm-1.477,1.052a1.563,1.563,0,0,0-.09.514V146.41a1.553,1.553,0,0,0,.253.848l6.634-6.046Zm21.23,0-6.78,5.752,6.617,6.054a1.553,1.553,0,0,0,.253-.848V135.967a1.563,1.563,0,0,0-.09-.514Zm-7.58,6.437-1.648,1.4a2.14,2.14,0,0,1-2.766,0l-1.64-1.387L121.5,147.9a1.568,1.568,0,0,0,.465.073h18.276a1.569,1.569,0,0,0,.465-.073l-6.568-6.013Z" transform="translate(0)" fill="#fff"/>
    </g>
  </g>
</svg>
