<svg id="Grupo_35669" data-name="Grupo 35669" xmlns="http://www.w3.org/2000/svg" xmlns:xlink="http://www.w3.org/1999/xlink" width="37.664" height="39.009" viewBox="0 0 37.664 39.009">
  <defs>
    <clipPath id="clip-path">
      <rect id="Rectángulo_4949" data-name="Rectángulo 4949" width="37" height="37" fill="none"/>
    </clipPath>
    <clipPath id="clip-path-2">
      <path id="Trazado_45486" data-name="Trazado 45486" d="M16.5,30.987a13.192,13.192,0,0,0,4.367,9.976,1.111,1.111,0,0,1,.374.793l.076,2.473a1.112,1.112,0,0,0,1.561.984l2.76-1.218a1.109,1.109,0,0,1,.743-.055,15.163,15.163,0,0,0,4.025.534c7.833,0,13.9-5.738,13.9-13.487S38.237,17.5,30.4,17.5,16.5,23.237,16.5,30.987" transform="translate(-16.5 -17.5)" fill="none"/>
    </clipPath>
    <radialGradient id="radial-gradient" cx="0.192" cy="0.987" r="1.081" gradientTransform="translate(0.001 0) scale(1.008 1)" gradientUnits="objectBoundingBox">
      <stop offset="0" stop-color="#5697fb"/>
      <stop offset="0.61" stop-color="#8936f9"/>
      <stop offset="0.935" stop-color="#dd537e"/>
      <stop offset="1" stop-color="#e06f62"/>
    </radialGradient>
    <clipPath id="clip-path-3">
      <rect id="Rectángulo_4951" data-name="Rectángulo 4951" width="37.664" height="39.009" fill="none"/>
    </clipPath>
  </defs>
  <g id="Grupo_35438" data-name="Grupo 35438" transform="translate(0 0)">
    <g id="Grupo_35437" data-name="Grupo 35437" transform="translate(0 0)" clip-path="url(#clip-path)">
      <path id="Trazado_45485" data-name="Trazado 45485" d="M36.157,17.455c0,9.64-8.094,17.455-18.079,17.455S0,27.1,0,17.455,8.094,0,18.079,0,36.157,7.815,36.157,17.455" transform="translate(0.678 1.093)" fill="#fff" stroke="#e2e2e2" stroke-width="0.2"/>
    </g>
  </g>
  <g id="Grupo_35440" data-name="Grupo 35440" transform="translate(4.596 4.596)">
    <g id="Grupo_35439" data-name="Grupo 35439" clip-path="url(#clip-path-2)">
      <rect id="Rectángulo_4950" data-name="Rectángulo 4950" width="27.809" height="28.031" transform="translate(0 0)" fill="url(#radial-gradient)"/>
    </g>
  </g>
  <g id="Grupo_35442" data-name="Grupo 35442" transform="translate(0 0)">
    <g id="Grupo_35441" data-name="Grupo 35441" transform="translate(0 0)" clip-path="url(#clip-path-3)">
      <path id="Trazado_45487" data-name="Trazado 45487" d="M36.589,59.9l4.084-6.48a2.086,2.086,0,0,1,3.016-.556L46.937,55.3a.834.834,0,0,0,1,0l4.388-3.33a.66.66,0,0,1,.958.878L49.2,59.326a2.086,2.086,0,0,1-3.016.556l-3.249-2.437a.834.834,0,0,0-1,0l-4.387,3.33a.661.661,0,0,1-.958-.878" transform="translate(-26.106 -38.545)" fill="#fff" fill-rule="evenodd"/>
    </g>
  </g>
</svg>
