<svg xmlns="http://www.w3.org/2000/svg" width="14.432" height="14.361" viewBox="0 0 14.432 14.361">
  <path id="Trazado_45520" data-name="Trazado 45520" d="M105.786,33.949l-1.274,1.274c-1.09,1.09-1.124,2.675-.54,4.276a13.5,13.5,0,0,0,3.208,4.69,13.748,13.748,0,0,0,4.722,3.174c1.6.579,3.18.557,4.245-.507l1.276-1.276a1.116,1.116,0,0,0,0-1.557l-2.052-2.044a1.1,1.1,0,0,0-1.554,0l-1.082,1.075a1.015,1.015,0,0,1-1.41,0l-3.016-3.014a1,1,0,0,1,0-1.409l1.082-1.082a1.1,1.1,0,0,0,0-1.554l-2.051-2.05a1.037,1.037,0,0,0-1.553,0Zm1.172.383,2.049,2.048a.564.564,0,0,1,0,.788l-1.082,1.082a1.543,1.543,0,0,0,0,2.175l3.016,3.014a1.545,1.545,0,0,0,2.176,0l1.085-1.078a.55.55,0,0,1,.785,0l2.049,2.042a.568.568,0,0,1,0,.8l-1.274,1.274c-.879.879-2.181.921-3.677.38a13.306,13.306,0,0,1-4.525-3.05,13.055,13.055,0,0,1-3.08-4.491c-.544-1.491-.5-2.8.414-3.707l1.274-1.274a.491.491,0,0,1,.789,0Z" transform="translate(-103.477 -33.497)" stroke="#000" stroke-width="0.2" fill-rule="evenodd"/>
</svg>
