<svg xmlns="http://www.w3.org/2000/svg" width="43.162" height="43.162" viewBox="0 0 43.162 43.162">
  <path id="Trazado_45512" data-name="Trazado 45512" d="M110.281,34.669l-3.889,3.886c-3.328,3.326-3.429,8.164-1.648,13.049s5.408,9.975,9.791,14.313,9.517,7.918,14.41,9.686,9.705,1.7,12.953-1.546q1.946-1.947,3.895-3.892a3.4,3.4,0,0,0,0-4.751l-6.26-6.237a3.347,3.347,0,0,0-4.743,0q-1.651,1.637-3.3,3.28a3.1,3.1,0,0,1-4.3,0l-9.2-9.2a3.042,3.042,0,0,1,0-4.3l3.3-3.3a3.371,3.371,0,0,0,0-4.743q-3.13-3.127-6.26-6.255a3.163,3.163,0,0,0-4.74.005Zm3.576,1.169q3.127,3.123,6.254,6.25a1.72,1.72,0,0,1,0,2.4l-3.3,3.3a4.71,4.71,0,0,0,0,6.637l9.2,9.2a4.716,4.716,0,0,0,6.64,0l3.31-3.289a1.679,1.679,0,0,1,2.4,0l6.254,6.23a1.734,1.734,0,0,1,.006,2.43l-3.889,3.886c-2.683,2.682-6.655,2.811-11.221,1.16s-9.564-5.105-13.809-9.307-7.741-9.155-9.4-13.7-1.516-8.536,1.263-11.313l3.889-3.886a1.5,1.5,0,0,1,2.406,0Z" transform="translate(-103.595 -33.598)" fill-rule="evenodd"/>
</svg>

