<svg xmlns="http://www.w3.org/2000/svg" xmlns:xlink="http://www.w3.org/1999/xlink" width="88" height="88" viewBox="0 0 88 88">
  <defs>
    <clipPath id="clip-ICONO_TFH">
      <rect width="88" height="88"/>
    </clipPath>
  </defs>
  <g id="ICONO_TFH" data-name="ICONO TFH" clip-path="url(#clip-ICONO_TFH)">
    <rect width="88" height="88" fill="rgba(255,255,255,0)"/>
    <g id="Grupo_2" data-name="Grupo 2" transform="translate(8.571 4.212)">
      <path id="Trazado_5" data-name="Trazado 5" d="M187.738,38.132c-1.026,1.788-2,3.608-3.09,5.354a4.709,4.709,0,0,1-4.406,2.253c-2.2-.054-4.4.051-6.6-.03a6.873,6.873,0,0,0-6.4,3.03c-5.037-2.037-8.176-5.829-10.179-10.791-.193.236-.345.427-.5.616a4.611,4.611,0,0,1-5.058,1.416,4.537,4.537,0,0,1-3.073-4.176c-.034-3.936-.024-7.872,0-11.808a4.64,4.64,0,0,1,1.438-3.253,1.943,1.943,0,0,0,.526-1.045,22.069,22.069,0,0,1,43.793-.6,3.151,3.151,0,0,0,.918,2.02,4.022,4.022,0,0,1,1.144,2.968q.011,5.789,0,11.576a4.177,4.177,0,0,1-1.3,3.14,1.635,1.635,0,0,0-.547,1.425,13.5,13.5,0,0,1-1.4,7.074,13.328,13.328,0,0,1-12.1,7.6c-2.665.075-5.333.019-8,.011a2.754,2.754,0,1,1-.024-5.5c2.535-.019,5.073.011,7.61-.011a8.035,8.035,0,0,0,8.191-6.445,20.366,20.366,0,0,0,.2-3.322.785.785,0,0,0-.2-.474c-.333-.391-.693-.76-.942-1.032m-.206-16.194a5.546,5.546,0,0,1,.7-.88,1.386,1.386,0,0,0,.455-1.492,16.553,16.553,0,0,0-32.76.41.952.952,0,0,0,.11.639c.348.463.755.878,1.118,1.286,3.011-6.468,7.432-11.207,15.035-11.271,7.752-.066,12.267,4.7,15.34,11.308" transform="translate(-136.891 -0.075)" fill="#fff"/>
      <path id="Trazado_6" data-name="Trazado 6" d="M200.162,28.833a25.5,25.5,0,0,1,6.859,5.777,26.193,26.193,0,0,1,6.067,18.5,4.007,4.007,0,0,1-4.166,3.85c-5.046.011-10.093,0-15.141,0-15.426,0-30.852-.058-46.278.045-3.517.022-5.307-1.826-5.241-5.29A26.279,26.279,0,0,1,150.919,32a25.519,25.519,0,0,1,11.037-5.908,1.121,1.121,0,0,1,1.234.311,21.068,21.068,0,0,0,8.293,5.151,1.456,1.456,0,0,1,.745.672,6.118,6.118,0,0,0,5.432,3.7,97.839,97.839,0,0,0,10.162-.1A16.486,16.486,0,0,0,199.7,29.406c.146-.178.29-.358.464-.573" transform="translate(-142.259 22.566)" fill="#fff"/>
    </g>
  </g>
</svg>
