<svg xmlns="http://www.w3.org/2000/svg" width="17.348" height="17.31" viewBox="0 0 17.348 17.31">
  <g id="noun-zoom-2137711" transform="translate(-90.746 -20.852)">
    <path id="Trazado_16304" data-name="Trazado 16304" d="M97.117,33.34a6.123,6.123,0,1,1,4.324-1.793A6.084,6.084,0,0,1,97.117,33.34Zm0-11.728a5.615,5.615,0,1,0,3.966,1.644A5.571,5.571,0,0,0,97.117,21.613Z" stroke="#000" stroke-width="0.5"/>
    <path id="Trazado_16305" data-name="Trazado 16305" d="M406.535,336.792a.258.258,0,0,1-.181-.074l-6.294-6.291a.256.256,0,0,1,.362-.361l6.294,6.291a.255.255,0,0,1-.181.436Z" transform="translate(-298.977 -298.879)" stroke="#000" stroke-width="0.5"/>
  </g>
</svg>
