<?xml version="1.0" encoding="UTF-8"?>
<svg id="Capa_1" data-name="Capa 1" xmlns="http://www.w3.org/2000/svg" viewBox="0 0 148.9 148.9">
  <defs>
    <style>
      .cls-1 {
        stroke-width: 0px;
      }
    </style>
  </defs>
  <g>
    <path class="cls-1" d="M34.12,76.88H12.43c-1.18,0-2.13.96-2.13,2.13s.96,2.13,2.13,2.13h19.56v42.07H13.91c-1.18,0-2.13.96-2.13,2.13s.96,2.13,2.13,2.13h20.21c1.18,0,2.13-.96,2.13-2.13v-46.34c0-1.18-.96-2.13-2.13-2.13Z"/>
    <path class="cls-1" d="M133.88,88.95c-2.3-1.62-5.27-2.08-8.83-1.37-.15.03-.3.08-.44.14l-27,11.81c.07-.44.12-.88.12-1.33,0-2.07-.77-4.05-2.22-5.73-1.54-1.78-3.85-2.8-6.35-2.8h-17.97c-.53,0-1.05-.1-1.54-.28l-14.52-5.55c-.98-.37-2.01-.57-3.07-.57h-11.92c-1.18,0-2.13.96-2.13,2.13s.96,2.13,2.13,2.13h11.92c.53,0,1.05.1,1.54.28l14.52,5.55c.98.37,2.01.57,3.06.57h17.97c1.25,0,2.39.48,3.12,1.33.78.91,1.18,1.9,1.18,2.94s-.4,2.03-1.18,2.94c-.73.84-1.87,1.33-3.12,1.33h-18.53c-1.18,0-2.13.96-2.13,2.13s.96,2.13,2.13,2.13h18.53c.48,0,.94-.07,1.4-.14.51.19,1.08.2,1.62-.04l33.91-14.83c2.27-.42,4.05-.17,5.32.72,1.65,1.16,2.24,3.28,2.45,4.56l-52.35,28.19c-.83.45-1.76.63-2.7.52l-10.05-1.16c-.28-.03-.56-.1-.82-.19l-18.85-6.5c-.88-.31-1.81-.46-2.74-.46h-6.21c-1.18,0-2.13.96-2.13,2.13s.96,2.13,2.13,2.13h6.21c.46,0,.92.08,1.35.23l18.85,6.5c.55.19,1.13.32,1.72.39l10.05,1.16c.34.04.68.06,1.02.06,1.46,0,2.89-.36,4.18-1.06l52.51-28.28c1.48-.8,2.31-2.44,2.07-4.1-.28-1.93-1.21-5.48-4.25-7.61Z"/>
  </g>
  <g>
    <path class="cls-1" d="M90.1,48.49c-.03-.18-.02-.24.11-.36,2.24-2.18,4.47-4.37,6.7-6.56l3.24-3.18c.43-.42.96-1.08.62-2.05-.37-1.09-1.38-1.22-1.72-1.27-1.12-.15-2.24-.31-3.36-.47l-2.67-.38c-2.59-.37-5.18-.74-7.77-1.1-.13-.02-.15-.03-.2-.14-.8-1.63-1.61-3.25-2.42-4.88l-3.81-7.65c-.59-1.18-1.46-1.28-2.08-1.17-.89.17-1.25.91-1.42,1.27l-1.66,3.39c-1.42,2.89-2.84,5.79-4.23,8.69-.2.41-.39.55-.86.61-2.44.35-4.89.71-7.33,1.07-1.98.29-3.95.59-5.93.87-.96.14-1.57.59-1.87,1.37l-.04,1.02.38.47c.2.26.41.52.64.74l4.28,4.15c1.81,1.76,3.63,3.52,5.44,5.29.05.05.1.13.11.13-.28,1.8-.59,3.59-.89,5.38l-.39,2.33c-.36,2.12-.71,4.23-1.06,6.35-.15.94.32,1.77,1.19,2.07.2.07.39.1.57.1.43,0,.81-.16,1.11-.32l5.06-2.68c2.4-1.27,4.81-2.55,7.21-3.83.16-.09.19-.08.32-.01,2.79,1.47,5.58,2.93,8.38,4.39l3.97,2.08c.8.42,1.52.39,2.14-.07.89-.67.71-1.66.66-1.99l-2.41-13.68ZM66.92,54.41c.34-2.03.68-4.07,1.04-6.1.15-.84-.09-1.54-.71-2.14-1.88-1.81-3.75-3.62-5.62-5.44l-2.49-2.41,11.33-1.68c.75-.11,1.29-.51,1.64-1.23,1.3-2.67,2.6-5.33,3.91-8l1.09-2.23,1.1,2.2c1.31,2.62,2.61,5.24,3.9,7.87.41.82,1,1.26,1.88,1.38,2.88.4,5.76.81,8.64,1.22l2.54.36-2.59,2.54c-1.8,1.76-3.6,3.53-5.41,5.28-.69.67-.93,1.41-.77,2.33.53,2.93,1.04,5.87,1.55,8.81l.39,2.22-2.02-1.05c-2.66-1.39-5.32-2.77-7.97-4.17-.79-.42-1.54-.42-2.33.01-2.67,1.43-5.34,2.84-8.02,4.26l-1.92,1.01.85-5.06Z"/>
    <path class="cls-1" d="M129.36,44.6c-.22-.64-.74-1.03-1.53-1.14l-5.66-.8c-2.05-.29-4.1-.58-6.15-.87l-.07.53h0l-.04-.61c-.7-1.43-1.41-2.85-2.12-4.28l-3.21-6.44c-.52-1.05-1.31-1.15-1.87-1.04-.8.15-1.12.81-1.27,1.13l-1.36,2.77c-1.24,2.52-2.47,5.04-3.68,7.57-.16.33-.3.43-.68.48l-1.87.27.11.55c.14.69.22,1.39.24,2.08v.6s3.17-.47,3.17-.47c.66-.1,1.15-.47,1.46-1.1,1.26-2.6,2.54-5.19,3.81-7.79l.4-.82.84,1.68c1.13,2.26,2.25,4.52,3.37,6.79.35.72.9,1.12,1.67,1.23,2.5.34,5,.7,7.51,1.06l1.9.27-2.16,2.12c-1.52,1.49-3.04,2.98-4.57,4.46-.61.59-.83,1.25-.68,2.07.45,2.49.88,4.98,1.31,7.47l.32,1.82-1.43-.74c-2.33-1.21-4.66-2.43-6.98-3.65-.71-.37-1.36-.37-2.07.01-2.26,1.21-4.54,2.41-6.81,3.61l-1.56.82.65-3.89c.31-1.83.62-3.67.93-5.5.13-.74-.08-1.36-.63-1.9l-2.07-2-.36.5c-.4.56-.88,1.07-1.41,1.53l-.44.38,1.52,1.48s.06.09.07.05c-.25,1.55-.51,3.09-.77,4.63l-.42,2.49c-.28,1.64-.55,3.28-.82,4.91-.14.84.29,1.59,1.06,1.86.18.06.35.09.51.09.38,0,.72-.14.98-.29l4.4-2.33c2.03-1.08,4.07-2.15,6.1-3.24.11-.06.11-.06.21,0,2.39,1.26,4.79,2.51,7.18,3.76l3.38,1.77c.71.37,1.36.35,1.91-.07.8-.6.64-1.49.59-1.78l-2.06-11.71c-.02-.14-.01-.15.07-.24,1.98-1.93,3.96-3.87,5.93-5.81l2.57-2.52c.22-.21.88-.87.55-1.83Z"/>
    <path class="cls-1" d="M51.92,41.72c-.7-1.43-1.41-2.85-2.12-4.28l-3.21-6.44c-.52-1.05-1.31-1.15-1.87-1.04-.8.15-1.12.81-1.27,1.13l-1.36,2.77c-1.24,2.52-2.47,5.04-3.68,7.57-.16.33-.3.43-.67.48-2.07.3-4.14.6-6.22.91-1.71.25-3.41.51-5.12.76-.85.12-1.39.52-1.66,1.22l-.04.93.35.42c.18.22.35.44.55.64l3.78,3.67c1.51,1.47,3.02,2.93,4.53,4.4.03.03.06.09.07.05-.25,1.55-.51,3.09-.77,4.63l-.42,2.49c-.28,1.64-.55,3.28-.82,4.91-.14.84.29,1.59,1.06,1.86.18.06.35.09.51.09.38,0,.72-.14.98-.29l4.4-2.33c2.03-1.08,4.07-2.15,6.1-3.24.11-.06.11-.06.21,0,2.39,1.26,4.79,2.51,7.18,3.76l3.38,1.77c.71.37,1.36.35,1.91-.07.8-.6.64-1.49.59-1.78l-2.06-11.71h0c-.02-.14-.01-.16.07-.24l2.02-1.98-.27-.37c-.42-.58-.77-1.21-1.06-1.86l-.31-.71-1.36,1.33c-.58.56-1.15,1.13-1.73,1.69-.61.59-.83,1.25-.68,2.07.45,2.49.88,4.98,1.31,7.47l.32,1.82-1.43-.74c-2.33-1.21-4.66-2.43-6.98-3.65-.71-.37-1.36-.37-2.07.01-2.26,1.21-4.54,2.41-6.81,3.61l-1.56.82.65-3.89c.31-1.83.62-3.67.93-5.5.13-.74-.08-1.36-.63-1.9-1.56-1.5-3.12-3.01-4.67-4.52l-2.15-2.09,9.54-1.41c.66-.1,1.15-.47,1.46-1.1,1.26-2.6,2.54-5.19,3.81-7.79l.4-.82.84,1.68c1.13,2.26,2.25,4.52,3.37,6.79.35.72.9,1.12,1.67,1.23,1.08.15,2.16.3,3.24.46l1.91.27.04-.57c.05-.69.17-1.39.36-2.08l.16-.58-4.61-.65"/>
  </g>
  <circle class="cls-1" cx="24.16" cy="118.47" r="3.2"/>
</svg>