<svg xmlns="http://www.w3.org/2000/svg" width="75.275" height="77.555" viewBox="0 0 75.275 77.555">
  <path id="Trazado_45523" data-name="Trazado 45523" d="M3124.83,0V77.555H3200.1V0Zm73.493,29.149a25.429,25.429,0,0,0-23.577-16.5,24.612,24.612,0,0,0-11.385,2.785V1.84h34.962Zm-71.708,9.58c.025-13.371,10.592-24.241,23.578-24.241a22.875,22.875,0,0,1,10.5,2.548,26.548,26.548,0,0,0,0,43.483,22.875,22.875,0,0,1-10.5,2.548c-12.986,0-23.553-10.871-23.578-24.241Zm36.746-20.09a24.688,24.688,0,0,1,0,40.276Zm-1.784,40.276a24.688,24.688,0,0,1,0-40.276Zm13.978-20.138a26.338,26.338,0,0,0-11.312-21.742,22.873,22.873,0,0,1,10.5-2.548c13,0,23.576,10.9,23.576,24.29s-10.576,24.29-23.576,24.29a22.873,22.873,0,0,1-10.5-2.548,26.335,26.335,0,0,0,11.312-21.741ZM3126.615,1.84h34.961V15.434a24.609,24.609,0,0,0-11.384-2.78,25.426,25.426,0,0,0-23.578,16.5Zm0,46.57a25.429,25.429,0,0,0,23.578,16.5,24.608,24.608,0,0,0,11.384-2.78V75.716h-34.961Zm36.746,27.307V62.122a24.61,24.61,0,0,0,11.385,2.78,25.426,25.426,0,0,0,23.577-16.5V75.716Z" transform="translate(-3124.83)" fill="#fff" opacity="0.498"/>
</svg>
