<svg xmlns="http://www.w3.org/2000/svg" width="77.552" height="77.553" viewBox="0 0 77.552 77.553">
  <path id="Trazado_45526" data-name="Trazado 45526" d="M4764.8,57.663V0H4687.25V77.553H4764.8Zm-75.713-.014a18.009,18.009,0,0,1,36.017.016h0v.082h0a18.009,18.009,0,0,1-36.017.015Zm0-37.857a18.009,18.009,0,0,1,36.017.016h0v.083h0a18.009,18.009,0,0,1-36.017.015Zm73.875.1a18.009,18.009,0,0,1-36.019,0h0v-.083h0a18.009,18.009,0,0,1,36.019,0Zm-36.019,8.3a19.951,19.951,0,0,0,12.037,10.591,19.945,19.945,0,0,0-12.037,10.589Zm-1.839,21.179a19.944,19.944,0,0,0-12.034-10.589,19.949,19.949,0,0,0,12.034-10.591Zm1.839-37.856V1.84h9.674a19.969,19.969,0,0,0-9.674,9.67Zm-1.839,0a19.972,19.972,0,0,0-9.671-9.67h9.671Zm1.839,46.236v-.082h0a18.009,18.009,0,0,1,36.019,0v.082a18.009,18.009,0,0,1-36.019,0Zm36.019-8.38a19.944,19.944,0,0,0-12.036-10.589,19.954,19.954,0,0,0,12.036-10.591Zm0-37.856a19.964,19.964,0,0,0-9.673-9.67h9.673Zm-73.875-9.67h9.671a19.974,19.974,0,0,0-9.671,9.669Zm0,26.347a19.949,19.949,0,0,0,12.035,10.591,19.943,19.943,0,0,0-12.035,10.589Zm0,47.526v-9.67a19.965,19.965,0,0,0,9.671,9.67Zm36.017-9.67v9.67h-9.671A19.966,19.966,0,0,0,4725.106,66.043Zm1.839,9.67v-9.67a19.972,19.972,0,0,0,9.672,9.67Zm36.019,0h-9.671a19.967,19.967,0,0,0,9.671-9.67Z" transform="translate(-4687.25)" fill="#fff" opacity="0.5"/>
</svg>
