<svg xmlns="http://www.w3.org/2000/svg" width="200" height="120" viewBox="0 0 200 120">
  <g id="Grupo_36461" data-name="Grupo 36461" transform="translate(-10320 -9752)">
    <rect id="Rect치ngulo_5393" data-name="Rect치ngulo 5393" width="200" height="120" transform="translate(10320 9752)" fill="none"/>
    <g id="Capa_2" data-name="Capa 2" transform="translate(10323.592 9764.319)">
      <g id="Capa_1" data-name="Capa 1" transform="translate(0.012 0.001)">
        <path id="Trazado_45924" data-name="Trazado 45924" d="M47.659,12.543a7.173,7.173,0,0,1-2.41.658,21.44,21.44,0,0,0-2.326.252c-1.89.56-2.451,1.5-3.387,3.239a38.444,38.444,0,0,0-2.557,6.164c-2.255,6.818-3.475,13.968-5.7,20.8S25.673,57.18,20.038,61.573c-2.958,2.307-6.725,3.937-10.491,3.294A10.235,10.235,0,0,1,1.531,57.16a9.576,9.576,0,0,1,4.23-9.987,2.43,2.43,0,0,1,2.147-.4A1.676,1.676,0,0,1,8.6,49.063,2.227,2.227,0,0,1,6.269,50a2.09,2.09,0,0,0-1.192-.073,1.411,1.411,0,0,0-.6.655A9.7,9.7,0,0,0,2.98,57.2a7.851,7.851,0,0,0,6.691,5.774,11.037,11.037,0,0,0,8.487-2.915,22.107,22.107,0,0,0,5.179-7.528c2.927-6.36,4.425-13.3,6.368-20.041s4.438-13.51,8.99-18.8A39.868,39.868,0,0,1,24.718,9.5c-2.8-1.432-5.438-3.208-8.378-4.295s-6.333-1.432-9.035.03A9.758,9.758,0,0,0,3.521,9.215a14.655,14.655,0,0,0-1.584,9.412c.319,1.907,1.31,4.039,3.2,4.473a3.785,3.785,0,0,0,3.851-1.924,11.179,11.179,0,0,0,1.236-4.4c.811-.118,1.131,1.065.993,1.872a9.126,9.126,0,0,1-3.951,6.036,3.858,3.858,0,0,1-1.682.682c-1.712.179-3.133-1.408-3.937-2.958A14.875,14.875,0,0,1,2.431,7.485,14.523,14.523,0,0,1,15.948,1.428c8.577,1.034,15.434,9.353,24.046,9.394a4.216,4.216,0,0,0,1.308-.154,5.428,5.428,0,0,0,1.711-1.1,10.019,10.019,0,0,1,3.894-2.181,4.726,4.726,0,0,1,4.295.936c2.976,2.777-1.75,3.772-3.538,4.223M49.381,8.92a2.853,2.853,0,0,1-.669-.057,2.593,2.593,0,0,0-.744.047,9.061,9.061,0,0,0-1.065.413c-.5.179-1.036.231-1.535.4a1.62,1.62,0,0,0-1.117,1.027.621.621,0,0,0,.2.678.78.78,0,0,0,.281.095,8.63,8.63,0,0,0,4.685-.864,2.505,2.505,0,0,0,.442-.267.807.807,0,0,0,.072-1.213,3.055,3.055,0,0,0-.549-.263" transform="translate(-0.012 -1.091)" fill="#fff"/>
        <path id="Trazado_45925" data-name="Trazado 45925" d="M345.98,270.788h.122c2.8-.159,5.264-1.773,7.4-3.539a4.625,4.625,0,0,1,2.464-1.321,18.431,18.431,0,0,1-11.821,7.82,4.276,4.276,0,0,1-2.863-.2c-1.46-.809-1.7-2.815-1.432-4.432.735-4.352,3.885-7.46,7.4-9.8a2.363,2.363,0,0,1,1.467-.537c1.006.082,1.564,1.269,1.61,2.276a6.8,6.8,0,0,1-1.5,4.334,16.768,16.768,0,0,1-3.389,3.167c-.526.4-1.118,1-.857,1.619A1.4,1.4,0,0,0,345.98,270.788Zm-2.079-2.26a.523.523,0,0,0,.292-.163,17.928,17.928,0,0,0,3.375-4.384,2.587,2.587,0,0,0,.358-.855.987.987,0,0,0-.256-.873,1.263,1.263,0,0,0-1.253-.115,4.593,4.593,0,0,0-2.31,1.913,4.215,4.215,0,0,0-.868,3.1c.064.285.268,1.272.582,1.365A.188.188,0,0,0,343.9,268.528Z" transform="translate(-278.962 -212.467)" fill="#fff"/>
        <path id="Trazado_45926" data-name="Trazado 45926" d="M209.169,63.5c-.1-1.634-.768-3.62-2.382-3.874a3.432,3.432,0,0,0-2.09.528c-5.384,2.836-9.165,8.789-11.794,14.113-2.8,5.676-4.652,11.776-6.814,17.731a10.986,10.986,0,0,1-1.432,2.961,11.5,11.5,0,0,1-2.412,2.138,68.522,68.522,0,0,0-7.635,6.653c1.142.435,2.285-.4,3.207-1.143a34.556,34.556,0,0,1,4.3-2.952c.283-.165.648-.324.929-.132.317.218.256.691.148,1.047-.746,2.446-1.945,4.753-2.326,7.3-.127.868-.034,1.968.768,2.366.979.485,1.947-.506,2.582-1.346a22.861,22.861,0,0,1,7.913-6.574.914.914,0,0,1,.608-.14c.562.131.471.952.272,1.478a12.017,12.017,0,0,0-.759,4.617,2.376,2.376,0,0,0,.587,1.732c.807.734,2.052.222,2.933-.358a43.717,43.717,0,0,0,8.43-7.113c-.612-.3-1.3.093-1.834.474l-5.3,3.768a.941.941,0,0,1-.8.249c-.4-.131-.471-.667-.438-1.074A11.518,11.518,0,0,1,197.38,101c.462-.784,1-1.841.358-2.534a1.757,1.757,0,0,0-1.589-.358c-3.5.519-5.79,3.922-9.144,4.991a2.864,2.864,0,0,1,.1-2.226,28.346,28.346,0,0,1,4.735-8.589c2.648-3.285,6.064-6.016,7.934-9.815-.87-.154-1.56.616-2.1,1.292a34.792,34.792,0,0,1-5.329,5.4.959.959,0,0,1-.558.276c-.662.014-.707-1-.489-1.61,2.646-7.487,5.316-15.031,9.333-21.831,1.009-1.709,2.55-3.579,4.556-3.242a1.56,1.56,0,0,1,.979.5,2.043,2.043,0,0,1,.322,1.174,17.15,17.15,0,0,1-.591,6.32c-1.113,3.4-3.856,6.084-4.731,9.568.684.086,1.22-.5,1.634-1.027a35.72,35.72,0,0,0,4.808-7.315,18.509,18.509,0,0,0,1.55-8.4A.184.184,0,0,0,209.169,63.5Z" transform="translate(-143.368 -48.935)" fill="#fff"/>
        <path id="Trazado_45927" data-name="Trazado 45927" d="M902.232,261.158a5.575,5.575,0,0,0-2.192-.617,16.138,16.138,0,0,0-9.6,2.061c-.224.129-.537.256-.716.072a.687.687,0,0,1-.113-.548c.064-1.46-1.056-2.7-2-3.842a1.228,1.228,0,0,1-.324-.594,1.077,1.077,0,0,1,.333-.8,5.475,5.475,0,0,1,2.43-1.648,1.063,1.063,0,0,0,.585-.335.693.693,0,0,0-.358-.923,1.748,1.748,0,0,0-1.091-.057,9.747,9.747,0,0,0-2.806.972,5.651,5.651,0,0,0-2.226,1.936,3.2,3.2,0,0,0-.315,2.886,52.26,52.26,0,0,0-5.62,4.18,13.561,13.561,0,0,1-6.275,2.99c-.737.1-1.721-.079-1.872-.814-.122-.592.413-1.074.895-1.432a16.838,16.838,0,0,0,3.4-3.151,6.829,6.829,0,0,0,1.517-4.323c-.043-1.083-.716-2.38-1.8-2.326a2.282,2.282,0,0,0-1.065.424c-3.87,2.412-7.564,6.184-7.678,11.051a3.607,3.607,0,0,0,1.083,3.024,3.83,3.83,0,0,0,2.732.5,14.258,14.258,0,0,0,5.769-1.752c3.455-2,5.859-5.774,9.74-6.8a5.66,5.66,0,0,1,1.3,2.981,1.528,1.528,0,0,1-.073.814,1.8,1.8,0,0,1-.868.728A19.823,19.823,0,0,0,881,268.668c-.7.646-1.4,1.666-.87,2.491a1.889,1.889,0,0,0,1.267.716,6,6,0,0,0,4.91-1.383,10.859,10.859,0,0,0,2.958-4.25,10.407,10.407,0,0,1,.895-1.859,6.3,6.3,0,0,1,3.7-2.353,12.359,12.359,0,0,1,8.231.675c.422.19,1.074.308,1.188-.131a.669.669,0,0,0-.095-.465A2.411,2.411,0,0,0,902.232,261.158Zm-33.009,3.321a1.1,1.1,0,0,1-.179-.308,4.844,4.844,0,0,1,2.788-5.9,1.3,1.3,0,0,1,1.355.061,1.008,1.008,0,0,1,.265.907,2.683,2.683,0,0,1-.374.886,17.084,17.084,0,0,1-3.556,4.5.372.372,0,0,1-.3-.14Zm17.121,4.493a2.211,2.211,0,0,1-.179.283,3.608,3.608,0,0,1-2.01,1.165,1.2,1.2,0,0,1-.633-.084,1.063,1.063,0,0,1-.565-.693c-.234-.873.537-1.165.922-1.789a1.906,1.906,0,0,1,.281-.392,1.338,1.338,0,0,1,.485-.261,6.452,6.452,0,0,1,.936-.256,1.084,1.084,0,0,1,1.013.179c.29.311.166.8.023,1.192A5.43,5.43,0,0,1,886.344,268.972Z" transform="translate(-710.498 -208.445)" fill="#fff"/>
        <path id="Trazado_45928" data-name="Trazado 45928" d="M674.583,262.294a1.064,1.064,0,0,0-.435.075,8.848,8.848,0,0,1-1.711.617,1.634,1.634,0,0,1-1.646-.592,2.077,2.077,0,0,1,.358-2.156,2.8,2.8,0,0,0,.694-2.124c-.285-1.038-1.679-1.328-2.706-1.059a1.97,1.97,0,0,0-1.392,1.006,3.026,3.026,0,0,0-.1,1.285,7.449,7.449,0,0,1-6.122,7.428c-.386.061-.913,0-1-.385a.818.818,0,0,1,.082-.483l2.641-6.669a2.612,2.612,0,0,0,.148-2.29c-.592-.965-2.022-.8-3.056-.406-5.118,1.945-8.9,6.229-13.589,9.027a1.761,1.761,0,0,1-1.535.331c-.778-.327-.766-1.421-.594-2.235a35.4,35.4,0,0,1,2.655-8.1,1.263,1.263,0,0,0,.179-.948c-.215-.639-1.147-.564-1.746-.288a16.664,16.664,0,0,0-2.954,1.877c-1.777,1.3-3.529,2.634-5.275,3.972q-1.324,1.015-2.636,2.042c-.376.3-1.836,1.047-1.131,1.723a.43.43,0,0,0,.191.115,1.237,1.237,0,0,0,1-.372,80.112,80.112,0,0,1,7.462-5.109c-.045,3.659-2.75,6.8-2.879,10.452a1.159,1.159,0,0,0,.111.637,1.216,1.216,0,0,0,1.124.406c3.069-.127,5.7-2.049,7.979-4.048s4.527-4.214,7.431-5.145a2.754,2.754,0,0,1,1.287-.166,1.207,1.207,0,0,1,.986.786,1.814,1.814,0,0,1-.132,1.054,25.966,25.966,0,0,0-1.063,4.568,2.752,2.752,0,0,0,.508,2.46,2.661,2.661,0,0,0,2.629.161,16.641,16.641,0,0,0,7.5-5.125,1.5,1.5,0,0,1,.666-.556,1.933,1.933,0,0,1,1.276.29,4.26,4.26,0,0,0,5-1.328.551.551,0,0,0,.132-.537A.358.358,0,0,0,674.583,262.294Z" transform="translate(-520.161 -208.65)" fill="#fff"/>
        <path id="Trazado_45929" data-name="Trazado 45929" d="M501.836,21.808a45.083,45.083,0,0,1,1.653-4.318,5.753,5.753,0,0,0,.5-.311h0a20.108,20.108,0,0,1,1.705-1.231c8.088-5.3,18.386-8.126,27.834-5.239-.113-.036-.37-.5-.471-.6a4.4,4.4,0,0,0-.641-.555,4.573,4.573,0,0,0-1.53-.716,8.738,8.738,0,0,0-1.684-.1c-.549-.036-1.118-.2-1.67-.27a12.192,12.192,0,0,0-2.836-.417h-.081c-1.789-.052-2.21-.036-2.568-.095a1.583,1.583,0,0,1-.25-.034,18.231,18.231,0,0,0-4.572.209,8.747,8.747,0,0,1-1.6.256,48.433,48.433,0,0,0-5.189.916,15.831,15.831,0,0,0-3.489,1.338c-2.3,1.074-4.474,2.414-6.712,3.591-3.473,1.818-7.4,3.282-11.32,2.584a16.851,16.851,0,0,1-6.17-2.7c-3.507-2.3-6.8-5.69-7.107-9.826a2.467,2.467,0,0,1,.537-2.013,2.194,2.194,0,0,1,1.183-.49c3.042-.451,5.837,1.931,7.675,4.456.163.224.37.476.644.463.562-.025.4-.911.054-1.36A14.9,14.9,0,0,0,478.474.323a4.48,4.48,0,0,0-2.8-.157c-1.539.553-2.158,2.437-2.029,4.085a11.7,11.7,0,0,0,2.863,6.218,23.692,23.692,0,0,0,23,8.1,64.531,64.531,0,0,0-4.971,12.884c-1.074,3.745-2.018,7.546-3.142,11.273a14.974,14.974,0,0,1-8.768-4.831,18.322,18.322,0,0,0,8.109,6.936,60.949,60.949,0,0,1-2.566,6.667A22.172,22.172,0,0,1,483,59.022a11.012,11.012,0,0,1-8.489,2.915,7.834,7.834,0,0,1-6.683-5.776,9.678,9.678,0,0,1,1.5-6.621,1.4,1.4,0,0,1,.6-.655,2.121,2.121,0,0,1,1.192.072,2.222,2.222,0,0,0,2.326-.934,1.673,1.673,0,0,0-.689-2.292,2.443,2.443,0,0,0-2.147.4,9.572,9.572,0,0,0-4.228,9.987,10.232,10.232,0,0,0,8.017,7.705c3.758.65,7.531-.986,10.489-3.292,4.609-3.593,7.712-8.725,9.906-14.21h.011a.607.607,0,0,1,.013-.061c.143-.358.285-.716.419-1.074a5.13,5.13,0,0,0,3.892-1.362c1.126-.941,2.01-2.137,3.081-3.135a12.047,12.047,0,0,1,6.018-3.013c-2.1-1.018-4.561.082-6.376,1.46s-3.495,3.081-5.726,3.513a.131.131,0,0,1,.009-.029C498.354,35.778,499.579,28.631,501.836,21.808Z" transform="translate(-382.761 -0.001)" fill="#fff"/>
        <path id="Trazado_45930" data-name="Trazado 45930" d="M718.525,192.71a6.544,6.544,0,0,1-.263.682,5.758,5.758,0,0,1-1.369,1.956,5.6,5.6,0,0,1-2.451,1.408,2.122,2.122,0,0,1-1.33-.02,1.038,1.038,0,0,1-.666-1.059,1.609,1.609,0,0,1,.417-.716l2.652-3.137a1.3,1.3,0,0,1,1.158-.6,1.529,1.529,0,0,1,.5.014,1.509,1.509,0,0,1,.492.27c.238.179.816.44.895.716A.967.967,0,0,1,718.525,192.71Z" transform="translate(-584.954 -156.995)" fill="#fff"/>
        <path id="Trazado_45931" data-name="Trazado 45931" d="M65.35,420.9a1.611,1.611,0,0,0,.4-.412,1.779,1.779,0,0,0,.279-.993,1.648,1.648,0,0,0-.252-.927,1.876,1.876,0,0,0-.6-.58,1.253,1.253,0,0,0-.406-.159,3.762,3.762,0,0,0-.46-.072c-.161-.016-.324-.025-.487-.029H60.85v6.809h3.3a2.275,2.275,0,0,0,.918-.179,2.087,2.087,0,0,0,.675-.456,1.923,1.923,0,0,0,.415-.655,2.1,2.1,0,0,0,.14-.753,1.82,1.82,0,0,0-.358-1.126A1.551,1.551,0,0,0,65.35,420.9Zm-.816-.628a1.523,1.523,0,0,1-.923.213H62.1v-1.648h1.512a4.044,4.044,0,0,1,.5.03.976.976,0,0,1,.358.115.571.571,0,0,1,.227.227.959.959,0,0,1,.082.446.734.734,0,0,1-.245.617ZM62.1,421.6h1.754a2.507,2.507,0,0,1,.483.047,1.1,1.1,0,0,1,.379.143.716.716,0,0,1,.243.259.857.857,0,0,1,.091.424.921.921,0,0,1-.258.7,1.038,1.038,0,0,1-.75.251H62.1Z" transform="translate(-49.964 -342.982)" fill="#fff"/>
        <path id="Trazado_45932" data-name="Trazado 45932" d="M104.027,421.58h3.334v-1.111h-3.334v-1.648H107.6V417.71H102.78v6.809h4.851v-1.111h-3.6Z" transform="translate(-84.391 -342.966)" fill="#fff"/>
        <path id="Trazado_45933" data-name="Trazado 45933" d="M138.93,417.71l-2.65,6.809h1.3l.716-1.931h2.441l.7,1.931H142.8l-2.661-6.809Zm1.394,3.758h-1.61l.816-2.242Z" transform="translate(-111.896 -342.966)" fill="#fff"/>
        <path id="Trazado_45934" data-name="Trazado 45934" d="M184.218,421.167a2.233,2.233,0,0,1-.149.678,1.611,1.611,0,0,1-.326.524,1.493,1.493,0,0,1-.5.342,1.71,1.71,0,0,1-.673.125,1.92,1.92,0,0,1-.895-.2,1.742,1.742,0,0,1-.61-.521,2.3,2.3,0,0,1-.358-.787,3.993,3.993,0,0,1-.12-.988,3.457,3.457,0,0,1,.12-.92,2.282,2.282,0,0,1,.358-.768,1.747,1.747,0,0,1,.607-.521,1.9,1.9,0,0,1,.895-.193,1.789,1.789,0,0,1,1.05.306,1.383,1.383,0,0,1,.555.9l.032.156h1.24l-.032-.224a2.609,2.609,0,0,0-.342-.975,2.466,2.466,0,0,0-.635-.716,2.744,2.744,0,0,0-.861-.424,3.457,3.457,0,0,0-1.009-.143,3.276,3.276,0,0,0-1.39.283,2.891,2.891,0,0,0-1.022.777,3.4,3.4,0,0,0-.616,1.138,4.488,4.488,0,0,0-.206,1.378,4.767,4.767,0,0,0,.191,1.369,3.254,3.254,0,0,0,.589,1.127,2.754,2.754,0,0,0,1,.759,3.281,3.281,0,0,0,1.385.276,2.9,2.9,0,0,0,2.076-.728,3.107,3.107,0,0,0,.895-2.009l.021-.217h-1.253Z" transform="translate(-147.242 -342.241)" fill="#fff"/>
        <path id="Trazado_45935" data-name="Trazado 45935" d="M229.112,420.469h-2.986V417.71H224.88v6.809h1.245V421.58h2.986v2.938h1.247V417.71h-1.247Z" transform="translate(-184.642 -342.966)" fill="#fff"/>
        <path id="Trazado_45936" data-name="Trazado 45936" d="M294.4,420.469h-2.986V417.71H290.17v6.809h1.245V421.58H294.4v2.938h1.247V417.71H294.4Z" transform="translate(-238.249 -342.966)" fill="#fff"/>
        <path id="Trazado_45937" data-name="Trazado 45937" d="M337.672,417.975a3.024,3.024,0,0,0-1.027-.8,3.563,3.563,0,0,0-2.849,0,3.054,3.054,0,0,0-1.029.8,3.4,3.4,0,0,0-.616,1.14,4.425,4.425,0,0,0,0,2.645,3.4,3.4,0,0,0,.616,1.138,3,3,0,0,0,1.029.794,3.6,3.6,0,0,0,2.847,0,3,3,0,0,0,1.029-.794,3.4,3.4,0,0,0,.616-1.14,4.419,4.419,0,0,0,0-2.643,3.4,3.4,0,0,0-.615-1.14Zm-.428,2.462a3.537,3.537,0,0,1-.12.905,2.4,2.4,0,0,1-.358.786,1.84,1.84,0,0,1-.626.549,2.126,2.126,0,0,1-1.825,0,1.824,1.824,0,0,1-.626-.549,2.418,2.418,0,0,1-.367-.786,3.524,3.524,0,0,1-.118-.905,3.463,3.463,0,0,1,.12-.907,2.379,2.379,0,0,1,.358-.786,1.8,1.8,0,0,1,.626-.548,2.126,2.126,0,0,1,1.825,0,1.855,1.855,0,0,1,.626.548,2.417,2.417,0,0,1,.358.786,3.54,3.54,0,0,1,.127.9Z" transform="translate(-272.553 -342.284)" fill="#fff"/>
        <path id="Trazado_45938" data-name="Trazado 45938" d="M375.85,418.821h2.138v5.7h1.247v-5.7h2.138V417.71H375.85Z" transform="translate(-308.598 -342.966)" fill="#fff"/>
        <path id="Trazado_45939" data-name="Trazado 45939" d="M417.275,421.58h3.335v-1.111h-3.335v-1.648h3.577V417.71H416.03v6.809h4.849v-1.111h-3.6Z" transform="translate(-341.588 -342.966)" fill="#fff"/>
        <path id="Trazado_45940" data-name="Trazado 45940" d="M455.5,417.71H454.25v6.809h4.643v-1.111h-3.4Z" transform="translate(-372.969 -342.966)" fill="#fff"/>
        <path id="Trazado_45941" data-name="Trazado 45941" d="M513.754,422.533a3.013,3.013,0,0,0,.215-.757c.021-.14.041-.306.061-.5l.02-.215H512.92l-.011.179a3.238,3.238,0,0,1-.091.6l-.784-.954c.095-.063.179-.127.274-.195a2.565,2.565,0,0,0,.419-.4,1.888,1.888,0,0,0,.3-.506,1.626,1.626,0,0,0,.113-.607,1.422,1.422,0,0,0-.152-.662,1.444,1.444,0,0,0-.4-.478,1.683,1.683,0,0,0-.564-.281,2.147,2.147,0,0,0-1.328.034,1.523,1.523,0,0,0-.519.336,1.392,1.392,0,0,0-.317.5,1.541,1.541,0,0,0-.109.571,1.676,1.676,0,0,0,.068.492,1.953,1.953,0,0,0,.179.412,3.693,3.693,0,0,0,.242.358c.041.057.086.116.129.179-.138.079-.272.163-.4.249a2.6,2.6,0,0,0-.515.446,2.084,2.084,0,0,0-.358.571,1.894,1.894,0,0,0-.138.743,2.389,2.389,0,0,0,.073.537,1.637,1.637,0,0,0,.319.651,1.916,1.916,0,0,0,.678.537,2.544,2.544,0,0,0,1.131.22,2.684,2.684,0,0,0,1.109-.243h0a1.988,1.988,0,0,0,.716-.537l.582.68h1.516l-1.446-1.677C513.679,422.7,513.719,422.615,513.754,422.533Zm-2.852-3.309a.384.384,0,0,1,.152-.358.655.655,0,0,1,.39-.131.537.537,0,0,1,.4.143.472.472,0,0,1,.141.344.649.649,0,0,1-.061.288,1.053,1.053,0,0,1-.179.252,1.791,1.791,0,0,1-.249.217l-.134.093-.1-.127a2.708,2.708,0,0,1-.179-.258,1.551,1.551,0,0,1-.132-.252A.568.568,0,0,1,510.9,419.225Zm.127,2.212,1.27,1.526a1.591,1.591,0,0,1-.431.381,1.3,1.3,0,0,1-.685.179,1.1,1.1,0,0,1-.386-.07,1.172,1.172,0,0,1-.335-.179.88.88,0,0,1-.224-.279.775.775,0,0,1-.081-.358,1.1,1.1,0,0,1,.073-.422,1.2,1.2,0,0,1,.209-.329,1.68,1.68,0,0,1,.317-.272A3.088,3.088,0,0,1,511.029,421.436Z" transform="translate(-417.888 -342.927)" fill="#fff"/>
        <path id="Trazado_45942" data-name="Trazado 45942" d="M577.2,423.907a2.716,2.716,0,0,1-.095-.415,3.794,3.794,0,0,1-.043-.454c0-.163-.016-.326-.029-.49a4.6,4.6,0,0,0-.081-.471,1.582,1.582,0,0,0-.179-.447,1.181,1.181,0,0,0-.333-.358l-.059-.039a1.414,1.414,0,0,0,.508-.5,2.146,2.146,0,0,0,.293-1.125,1.739,1.739,0,0,0-.585-1.38,2.311,2.311,0,0,0-1.562-.5H571.82v6.809h1.253V421.8h1.888a.928.928,0,0,1,.415.073.63.63,0,0,1,.236.191.857.857,0,0,1,.138.3,3.992,3.992,0,0,1,.088.433,2.868,2.868,0,0,1,.05.447l.018.455a2.942,2.942,0,0,0,.045.41.728.728,0,0,0,.168.358l.059.064h1.458l-.268-.322A.906.906,0,0,1,577.2,423.907Zm-1.253-4.169a.989.989,0,0,1-.1.476.738.738,0,0,1-.258.281,1.074,1.074,0,0,1-.4.147h0a3.4,3.4,0,0,1-.537.041h-1.582v-1.845h1.923a.894.894,0,0,1,.716.24.951.951,0,0,1,.224.669Z" transform="translate(-469.501 -342.982)" fill="#fff"/>
        <path id="Trazado_45943" data-name="Trazado 45943" d="M615.057,421.58h3.334v-1.111h-3.334v-1.648h3.575V417.71H613.81v6.809h4.849v-1.111h-3.6Z" transform="translate(-503.978 -342.966)" fill="#fff"/>
        <path id="Trazado_45944" data-name="Trazado 45944" d="M654.818,420.419a2.73,2.73,0,0,0-.716-.358c-.25-.082-.508-.154-.768-.215s-.508-.116-.755-.168a3.8,3.8,0,0,1-.628-.179,1.128,1.128,0,0,1-.4-.254.474.474,0,0,1-.122-.345.862.862,0,0,1,.095-.428.744.744,0,0,1,.258-.268,1.2,1.2,0,0,1,.4-.154,2.368,2.368,0,0,1,.49-.05,1.632,1.632,0,0,1,.977.272,1.153,1.153,0,0,1,.419.864l.018.179h1.19v-.2a2.49,2.49,0,0,0-.222-.991,2,2,0,0,0-.558-.7,2.3,2.3,0,0,0-.811-.4,3.71,3.71,0,0,0-1.879,0,2.562,2.562,0,0,0-.807.37,1.924,1.924,0,0,0-.585.65,1.891,1.891,0,0,0-.222.936,1.518,1.518,0,0,0,.734,1.374,2.848,2.848,0,0,0,.716.319c.247.075.5.143.764.2l.752.166a3.143,3.143,0,0,1,.623.2,1.085,1.085,0,0,1,.4.285.614.614,0,0,1,.113.408.867.867,0,0,1-.113.471.849.849,0,0,1-.308.288,1.5,1.5,0,0,1-.465.163,2.738,2.738,0,0,1-1.2-.032,1.566,1.566,0,0,1-.537-.247,1.252,1.252,0,0,1-.358-.415,1.279,1.279,0,0,1-.134-.6v-.2H650v.2a2.479,2.479,0,0,0,.231,1.1,2.138,2.138,0,0,0,.633.771,2.7,2.7,0,0,0,.911.44,3.936,3.936,0,0,0,1.074.143,4.138,4.138,0,0,0,.931-.109,2.776,2.776,0,0,0,.866-.358,2.076,2.076,0,0,0,.648-.655,1.805,1.805,0,0,0-.465-2.453Z" transform="translate(-533.689 -342.296)" fill="#fff"/>
        <rect id="Rect치ngulo_5390" data-name="Rect치ngulo 5390" width="1.247" height="6.809" transform="translate(123.879 74.744)" fill="#fff"/>
        <path id="Trazado_45945" data-name="Trazado 45945" d="M715.048,417.71h-2.4v6.809h2.4a4.031,4.031,0,0,0,1.455-.238,2.619,2.619,0,0,0,1.038-.7,2.913,2.913,0,0,0,.6-1.127,5.459,5.459,0,0,0,.179-1.489,3.232,3.232,0,0,0-.861-2.443A3.375,3.375,0,0,0,715.048,417.71Zm2.033,3.369a3.5,3.5,0,0,1-.113.956,2.294,2.294,0,0,1-.285.641,1.418,1.418,0,0,1-.376.388,1.833,1.833,0,0,1-.435.224,1.766,1.766,0,0,1-.413.1,3.347,3.347,0,0,1-.34.022H713.9v-4.586h1.24a2.458,2.458,0,0,1,.923.152,1.431,1.431,0,0,1,.582.426,1.767,1.767,0,0,1,.331.7A4.068,4.068,0,0,1,717.081,421.079Z" transform="translate(-585.131 -342.966)" fill="#fff"/>
        <path id="Trazado_45946" data-name="Trazado 45946" d="M756.787,421.58h3.334v-1.111h-3.334v-1.648h3.577V417.71H755.54v6.809h4.851v-1.111h-3.6Z" transform="translate(-620.346 -342.966)" fill="#fff"/>
        <path id="Trazado_45947" data-name="Trazado 45947" d="M798.015,422.475l-3.094-4.765H793.71v6.809h1.2v-4.711l3.069,4.711h1.237V417.71h-1.2Z" transform="translate(-651.686 -342.966)" fill="#fff"/>
        <path id="Trazado_45948" data-name="Trazado 45948" d="M840.713,421.159a2.234,2.234,0,0,1-.148.678,1.579,1.579,0,0,1-.331.524,1.474,1.474,0,0,1-.5.342,1.7,1.7,0,0,1-.673.125,1.925,1.925,0,0,1-.895-.2,1.744,1.744,0,0,1-.61-.521,2.307,2.307,0,0,1-.358-.787,3.991,3.991,0,0,1-.12-.988,3.532,3.532,0,0,1,.12-.92,2.327,2.327,0,0,1,.358-.768,1.765,1.765,0,0,1,.607-.521,1.9,1.9,0,0,1,.895-.193,1.789,1.789,0,0,1,1.052.306,1.389,1.389,0,0,1,.553.9l.032.156h1.24l-.032-.224a2.61,2.61,0,0,0-.331-.977,2.467,2.467,0,0,0-.635-.716,2.743,2.743,0,0,0-.861-.424,3.457,3.457,0,0,0-1.009-.143,3.282,3.282,0,0,0-1.39.283,2.908,2.908,0,0,0-1.022.777,3.4,3.4,0,0,0-.615,1.138,4.538,4.538,0,0,0-.206,1.378,4.761,4.761,0,0,0,.192,1.369,3.285,3.285,0,0,0,.589,1.127,2.77,2.77,0,0,0,1,.759,3.288,3.288,0,0,0,1.385.276,2.9,2.9,0,0,0,2.076-.728,3.107,3.107,0,0,0,.895-2.009l.022-.216h-1.253Z" transform="translate(-686.269 -342.233)" fill="#fff"/>
        <path id="Trazado_45949" data-name="Trazado 45949" d="M882.6,421.58h3.334v-1.111H882.6v-1.648h3.575V417.71H881.35v6.809H886.2v-1.111h-3.6Z" transform="translate(-723.644 -342.966)" fill="#fff"/>
        <path id="Trazado_45950" data-name="Trazado 45950" d="M922.852,421.006a1.778,1.778,0,0,0-.526-.587,2.731,2.731,0,0,0-.716-.358c-.25-.082-.508-.154-.768-.215s-.508-.116-.755-.168a3.794,3.794,0,0,1-.628-.179,1.127,1.127,0,0,1-.4-.254.474.474,0,0,1-.122-.345.86.86,0,0,1,.095-.428.742.742,0,0,1,.258-.268,1.2,1.2,0,0,1,.4-.154,2.351,2.351,0,0,1,.49-.05,1.633,1.633,0,0,1,.977.272,1.153,1.153,0,0,1,.419.864l.018.179h1.19v-.2a2.489,2.489,0,0,0-.222-.991,1.985,1.985,0,0,0-.56-.7,2.274,2.274,0,0,0-.809-.4,3.71,3.71,0,0,0-1.879,0,2.562,2.562,0,0,0-.807.37,1.923,1.923,0,0,0-.585.65,1.889,1.889,0,0,0-.222.936,1.517,1.517,0,0,0,.734,1.374,2.865,2.865,0,0,0,.707.319c.249.075.506.143.766.2l.752.166a3.144,3.144,0,0,1,.623.2,1.085,1.085,0,0,1,.4.285.613.613,0,0,1,.129.412.787.787,0,0,1-.42.759,1.506,1.506,0,0,1-.465.163,2.738,2.738,0,0,1-1.2-.032,1.549,1.549,0,0,1-.537-.247,1.254,1.254,0,0,1-.358-.415,1.281,1.281,0,0,1-.134-.6v-.2h-1.2v.2a2.479,2.479,0,0,0,.233,1.09,2.136,2.136,0,0,0,.633.771,2.692,2.692,0,0,0,.911.44,3.939,3.939,0,0,0,1.074.143,4.143,4.143,0,0,0,.931-.109,2.774,2.774,0,0,0,.866-.358,2.076,2.076,0,0,0,.648-.655,2.025,2.025,0,0,0,.061-1.866Z" transform="translate(-753.324 -342.296)" fill="#fff"/>
        <path id="Trazado_45951" data-name="Trazado 45951" d="M209.758,494.05H206.75v6.809H208v-2.625h1.761a1.931,1.931,0,0,0,2.167-2.092,2.062,2.062,0,0,0-.557-1.537A2.214,2.214,0,0,0,209.758,494.05Zm.918,2.092a.931.931,0,0,1-.272.735,1.34,1.34,0,0,1-.93.245H208v-1.968h1.483a1.4,1.4,0,0,1,.934.251A.922.922,0,0,1,210.676,496.142Z" transform="translate(-169.756 -405.645)" fill="#fff"/>
        <path id="Trazado_45952" data-name="Trazado 45952" d="M248.067,494.05H246.82v6.809h4.643v-1.111h-3.4Z" transform="translate(-202.656 -405.645)" fill="#fff"/>
        <path id="Trazado_45953" data-name="Trazado 45953" d="M280.21,494.05l-2.65,6.809h1.3l.716-1.933h2.441l.7,1.933h1.367l-2.661-6.809Zm1.392,3.758h-1.61l.816-2.242Z" transform="translate(-227.896 -405.645)" fill="#fff"/>
        <path id="Trazado_45954" data-name="Trazado 45954" d="M318.969,494.05l-1.77,2.879-1.814-2.879H313.9l2.647,4.046v2.763h1.245V498.1l2.62-4.046Z" transform="translate(-257.733 -405.645)" fill="#fff"/>
        <path id="Trazado_45955" data-name="Trazado 45955" d="M352.932,494.05l-2.652,6.809h1.3l.716-1.933h2.439l.7,1.933H356.8l-2.661-6.809Zm1.392,3.758h-1.61l.814-2.242Z" transform="translate(-287.603 -405.645)" fill="#fff"/>
        <path id="Trazado_45956" data-name="Trazado 45956" d="M419,494.05h-2.4v6.809H419a4.065,4.065,0,0,0,1.455-.238,2.611,2.611,0,0,0,1.038-.705,2.863,2.863,0,0,0,.6-1.127,5.44,5.44,0,0,0,.188-1.487,3.219,3.219,0,0,0-.863-2.444A3.394,3.394,0,0,0,419,494.05Zm2.033,3.368a3.48,3.48,0,0,1-.113.956,2.307,2.307,0,0,1-.285.642,1.418,1.418,0,0,1-.383.394,1.9,1.9,0,0,1-.435.224,1.834,1.834,0,0,1-.413.1,3.315,3.315,0,0,1-.338.022H417.84v-4.592h1.242a2.452,2.452,0,0,1,.922.15,1.431,1.431,0,0,1,.583.428,1.789,1.789,0,0,1,.331.7,4.183,4.183,0,0,1,.109.982Z" transform="translate(-342.056 -405.645)" fill="#fff"/>
        <path id="Trazado_45957" data-name="Trazado 45957" d="M460.717,497.921h3.334v-1.113h-3.334v-1.646h3.577V494.05H459.47v6.809h4.851v-1.111h-3.6Z" transform="translate(-377.255 -405.645)" fill="#fff"/>
        <path id="Trazado_45958" data-name="Trazado 45958" d="M498.937,494.05H497.69v6.809h4.643v-1.111h-3.4Z" transform="translate(-408.636 -405.645)" fill="#fff"/>
        <path id="Trazado_45959" data-name="Trazado 45959" d="M557.778,497.531a2.248,2.248,0,0,1-.148.678,1.6,1.6,0,0,1-.331.524,1.509,1.509,0,0,1-.5.342,1.72,1.72,0,0,1-.675.124,1.931,1.931,0,0,1-.895-.193,1.744,1.744,0,0,1-.61-.521,2.308,2.308,0,0,1-.358-.787,4.017,4.017,0,0,1-.12-.99,3.553,3.553,0,0,1,.12-.92,2.329,2.329,0,0,1,.358-.766,1.764,1.764,0,0,1,.607-.523,1.92,1.92,0,0,1,.895-.193,1.809,1.809,0,0,1,1.052.306,1.392,1.392,0,0,1,.553.905l.034.156h1.235l-.032-.224a2.567,2.567,0,0,0-.331-.977,2.442,2.442,0,0,0-.635-.716,2.787,2.787,0,0,0-.863-.417,3.509,3.509,0,0,0-1.009-.143,3.254,3.254,0,0,0-1.39.285,2.916,2.916,0,0,0-1.02.775,3.353,3.353,0,0,0-.616,1.14,4.483,4.483,0,0,0-.208,1.376,4.706,4.706,0,0,0,.193,1.369,3.221,3.221,0,0,0,.589,1.129,2.77,2.77,0,0,0,.995.759,3.288,3.288,0,0,0,1.385.274,2.9,2.9,0,0,0,2.076-.728,3.1,3.1,0,0,0,.895-2.008l.023-.218h-1.253Z" transform="translate(-453.958 -404.945)" fill="#fff"/>
        <path id="Trazado_45960" data-name="Trazado 45960" d="M596.362,494.05l-2.652,6.809h1.3l.716-1.933h2.441l.7,1.933h1.369l-2.668-6.809Zm1.392,3.758h-1.61l.814-2.242Z" transform="translate(-487.474 -405.645)" fill="#fff"/>
        <path id="Trazado_45961" data-name="Trazado 45961" d="M643.854,500.245a2.932,2.932,0,0,1-.1-.415c-.021-.149-.036-.3-.043-.453s-.014-.326-.027-.492a3.191,3.191,0,0,0-.081-.471,1.555,1.555,0,0,0-.179-.446,1.185,1.185,0,0,0-.333-.358l-.059-.039a1.446,1.446,0,0,0,.508-.5,2.147,2.147,0,0,0,.294-1.127,1.743,1.743,0,0,0-.585-1.38,2.314,2.314,0,0,0-1.562-.5H638.47v6.805h1.253v-2.741h1.884a.953.953,0,0,1,.415.073.651.651,0,0,1,.236.193.845.845,0,0,1,.138.3c.034.134.063.277.088.433a2.831,2.831,0,0,1,.05.447l.018.455a2.962,2.962,0,0,0,.045.408.728.728,0,0,0,.168.358l.059.064h1.467l-.268-.322A.912.912,0,0,1,643.854,500.245Zm-1.253-4.167a.993.993,0,0,1-.1.485.776.776,0,0,1-.258.279,1.042,1.042,0,0,1-.4.147h0a3.212,3.212,0,0,1-.537.043h-1.582v-1.854h1.923a.9.9,0,0,1,.716.238.956.956,0,0,1,.227.662Z" transform="translate(-524.225 -405.662)" fill="#fff"/>
        <path id="Trazado_45962" data-name="Trazado 45962" d="M683.947,499.08l-1.888-5.03h-1.5v6.809h1.2v-4.5l1.691,4.5h1l1.691-4.5v4.5h1.2V494.05h-1.5Z" transform="translate(-558.783 -405.645)" fill="#fff"/>
        <path id="Trazado_45963" data-name="Trazado 45963" d="M732.985,497.921h3.334v-1.113h-3.334v-1.646h3.577V494.05H731.74v6.809h4.849v-1.111h-3.6Z" transform="translate(-600.805 -405.645)" fill="#fff"/>
        <path id="Trazado_45964" data-name="Trazado 45964" d="M774.205,494.05v4.763l-3.094-4.763H769.9v6.809h1.2v-4.711l3.067,4.711h1.238V494.05Z" transform="translate(-632.137 -405.645)" fill="#fff"/>
      </g>
    </g>
  </g>
</svg>
