<svg xmlns="http://www.w3.org/2000/svg" width="200" height="120" viewBox="0 0 200 120">
  <g id="Grupo_36459" data-name="Grupo 36459" transform="translate(-10320 -9465)">
    <rect id="Rectángulo_5392" data-name="Rectángulo 5392" width="200" height="120" transform="translate(10320 9465)" fill="none"/>
    <g id="Capa_2" data-name="Capa 2" transform="translate(10321.309 9468.479)">
      <g id="Capa_1" data-name="Capa 1" transform="translate(0 0.001)">
        <path id="Trazado_45830" data-name="Trazado 45830" d="M114.938,11.988a6.8,6.8,0,0,1-2.289.626,20.311,20.311,0,0,0-2.211.24c-1.8.532-2.33,1.425-3.219,3.078a36.694,36.694,0,0,0-2.43,5.859c-2.146,6.481-3.31,13.277-5.42,19.771S94.041,54.412,88.686,58.587c-2.811,2.192-6.391,3.742-9.971,3.131A9.73,9.73,0,0,1,71.1,54.393a9.1,9.1,0,0,1,4.02-9.492,2.31,2.31,0,0,1,2.041-.383A1.592,1.592,0,0,1,77.81,46.7a2.117,2.117,0,0,1-2.211.889,1.992,1.992,0,0,0-1.134-.07,1.35,1.35,0,0,0-.568.622,9.211,9.211,0,0,0-1.424,6.293A7.458,7.458,0,0,0,78.83,59.92,10.488,10.488,0,0,0,86.9,57.15,21.035,21.035,0,0,0,91.819,50c2.784-6.044,4.206-12.638,6.053-19.048s4.214-12.837,8.541-17.868A37.89,37.89,0,0,1,93.133,9.1c-2.655-1.361-5.168-3.049-7.961-4.082s-6.021-1.361-8.587.029a9.289,9.289,0,0,0-3.6,3.781,13.929,13.929,0,0,0-1.505,8.946c.3,1.813,1.247,3.839,3.043,4.252a3.6,3.6,0,0,0,3.66-1.828,10.485,10.485,0,0,0,1.175-4.182c.77-.112,1.075,1.012.944,1.779a8.674,8.674,0,0,1-3.755,5.737,3.667,3.667,0,0,1-1.6.648c-1.628.17-2.978-1.338-3.742-2.811A14.138,14.138,0,0,1,71.951,7.18,13.8,13.8,0,0,1,84.8,1.423c8.153.983,14.675,8.89,22.854,8.929a4.024,4.024,0,0,0,1.245-.146,5.171,5.171,0,0,0,1.624-1.049,9.522,9.522,0,0,1,3.7-2.073,4.491,4.491,0,0,1,4.082.889c2.83,2.64-1.663,3.585-3.362,4.014m1.633-3.442a2.712,2.712,0,0,1-.636-.054,2.464,2.464,0,0,0-.708.044,8.844,8.844,0,0,0-1.012.393c-.473.17-.985.219-1.459.384a1.545,1.545,0,0,0-1.061.975.592.592,0,0,0,.187.645.742.742,0,0,0,.267.09A8.2,8.2,0,0,0,116.6,10.2a2.459,2.459,0,0,0,.422-.252.767.767,0,0,0,.066-1.153,2.9,2.9,0,0,0-.522-.25" transform="translate(-57.806 -1.103)" fill="#fff"/>
        <path id="Trazado_45831" data-name="Trazado 45831" d="M415.312,270.192h.116c2.665-.151,5-1.685,7.036-3.364a4.4,4.4,0,0,1,2.342-1.255,17.517,17.517,0,0,1-11.235,7.432,4.064,4.064,0,0,1-2.721-.194c-1.388-.769-1.619-2.675-1.361-4.213.7-4.136,3.692-7.09,7.031-9.313a2.25,2.25,0,0,1,1.395-.51c.956.078,1.486,1.206,1.531,2.163a6.463,6.463,0,0,1-1.422,4.119,15.937,15.937,0,0,1-3.221,3.01c-.5.378-1.063.949-.813,1.539C414.189,270.077,414.788,270.2,415.312,270.192Zm-1.975-2.148a.492.492,0,0,0,.276-.155,17.04,17.04,0,0,0,3.207-4.167,2.459,2.459,0,0,0,.34-.813.939.939,0,0,0-.243-.83,1.2,1.2,0,0,0-1.19-.109,4.372,4.372,0,0,0-2.2,1.818,4.006,4.006,0,0,0-.825,2.949c.063.27.257,1.209.553,1.3A.184.184,0,0,0,413.337,268.044Z" transform="translate(-339.555 -214.764)" fill="#fff"/>
        <path id="Trazado_45832" data-name="Trazado 45832" d="M277.1,63.305c-.09-1.553-.73-3.441-2.264-3.682a3.262,3.262,0,0,0-1.986.5c-5.117,2.7-8.711,8.354-11.209,13.414-2.662,5.395-4.43,11.192-6.476,16.852a10.44,10.44,0,0,1-1.361,2.815,10.963,10.963,0,0,1-2.291,2.032,64.989,64.989,0,0,0-7.259,6.323c1.087.413,2.172-.383,3.048-1.087a32.84,32.84,0,0,1,4.09-2.806c.269-.156.616-.308.883-.126.3.207.245.656.141.995-.707,2.325-1.849,4.517-2.2,6.934-.121.825-.034,1.871.73,2.248.929.461,1.849-.481,2.454-1.279a21.706,21.706,0,0,1,7.519-6.248.876.876,0,0,1,.58-.133c.532.124.446.9.257,1.4a11.456,11.456,0,0,0-.721,4.388,2.258,2.258,0,0,0,.558,1.646c.767.7,1.951.211,2.787-.34a41.552,41.552,0,0,0,8.007-6.767c-.582-.289-1.233.088-1.743.451l-5.044,3.589a.894.894,0,0,1-.757.236c-.381-.124-.447-.634-.417-1.02a10.969,10.969,0,0,1,1.471-4.7c.44-.745.951-1.75.34-2.408a1.67,1.67,0,0,0-1.51-.34c-3.327.493-5.5,3.728-8.691,4.743a2.722,2.722,0,0,1,.1-2.116,26.979,26.979,0,0,1,4.5-8.163c2.517-3.122,5.764-5.718,7.543-9.328-.828-.146-1.485.585-1.993,1.228a33.132,33.132,0,0,1-5.063,5.131.92.92,0,0,1-.532.262c-.629.014-.672-.947-.464-1.531,2.515-7.116,5.053-14.286,8.873-20.749.957-1.624,2.423-3.4,4.328-3.082a1.49,1.49,0,0,1,.939.478,1.954,1.954,0,0,1,.306,1.116A16.3,16.3,0,0,1,274,70.192c-1.058,3.231-3.665,5.782-4.495,9.094.65.082,1.158-.473,1.553-.976a34.011,34.011,0,0,0,4.568-6.953,17.592,17.592,0,0,0,1.473-7.985C277.1,63.35,277.1,63.327,277.1,63.305Z" transform="translate(-202.569 -49.463)" fill="#fff"/>
        <path id="Trazado_45833" data-name="Trazado 45833" d="M970.07,260.8a5.317,5.317,0,0,0-2.085-.587,15.338,15.338,0,0,0-9.124,1.959c-.211.122-.51.243-.68.068a.66.66,0,0,1-.107-.52c.061-1.388-1-2.563-1.9-3.651a1.166,1.166,0,0,1-.308-.565,1.023,1.023,0,0,1,.316-.757,5.216,5.216,0,0,1,2.31-1.566,1.009,1.009,0,0,0,.556-.318.659.659,0,0,0-.34-.878,1.662,1.662,0,0,0-1.037-.054,9.259,9.259,0,0,0-2.667.923,5.366,5.366,0,0,0-2.114,1.84,3.05,3.05,0,0,0-.3,2.743,47.225,47.225,0,0,0-5.335,3.973,12.8,12.8,0,0,1-5.963,2.842c-.7.092-1.638-.075-1.781-.774-.114-.563.393-1.02.85-1.361a16,16,0,0,0,3.231-2.995,6.488,6.488,0,0,0,1.441-4.109c-.039-1.029-.68-2.262-1.711-2.211a2.183,2.183,0,0,0-1.012.4c-3.679,2.293-7.189,5.878-7.3,10.5a3.429,3.429,0,0,0,1.029,2.874,3.643,3.643,0,0,0,2.6.471,13.567,13.567,0,0,0,5.483-1.665c3.282-1.9,5.566-5.488,9.257-6.463a5.366,5.366,0,0,1,1.242,2.833,1.452,1.452,0,0,1-.07.774,1.713,1.713,0,0,1-.825.692,18.842,18.842,0,0,0-3.818,2.711c-.667.614-1.328,1.583-.825,2.367a1.788,1.788,0,0,0,1.2.68,5.7,5.7,0,0,0,4.667-1.315,10.3,10.3,0,0,0,2.794-4.039,9.877,9.877,0,0,1,.85-1.767,5.989,5.989,0,0,1,3.517-2.236,11.752,11.752,0,0,1,7.823.641c.4.18,1.021.293,1.128-.124a.635.635,0,0,0-.09-.442A2.288,2.288,0,0,0,970.07,260.8ZM938.7,263.954a1,1,0,0,1-.17-.293,4.6,4.6,0,0,1,2.651-5.612,1.234,1.234,0,0,1,1.286.058.958.958,0,0,1,.252.862,2.552,2.552,0,0,1-.355.842,16.236,16.236,0,0,1-3.379,4.276A.34.34,0,0,1,938.7,263.954Zm16.271,4.271a1.921,1.921,0,0,1-.17.269,3.429,3.429,0,0,1-1.91,1.107,1.14,1.14,0,0,1-.6-.08,1.021,1.021,0,0,1-.538-.658c-.221-.83.51-1.107.878-1.7a1.81,1.81,0,0,1,.265-.372,1.273,1.273,0,0,1,.461-.248,6.135,6.135,0,0,1,.889-.243,1.026,1.026,0,0,1,.963.17c.277.3.158.76.022,1.133A4.892,4.892,0,0,1,954.968,268.224Z" transform="translate(-775.432 -210.698)" fill="#fff"/>
        <path id="Trazado_45834" data-name="Trazado 45834" d="M742.236,261.889a1.009,1.009,0,0,0-.413.071,8.409,8.409,0,0,1-1.626.587,1.549,1.549,0,0,1-1.563-.563,1.967,1.967,0,0,1,.34-2.049,2.657,2.657,0,0,0,.66-2.019c-.27-.986-1.6-1.262-2.57-1.007a1.872,1.872,0,0,0-1.325.956,2.874,2.874,0,0,0-.1,1.221,7.08,7.08,0,0,1-5.816,7.06c-.369.058-.869,0-.956-.366a.777.777,0,0,1,.08-.459l2.509-6.338a2.483,2.483,0,0,0,.141-2.177c-.561-.917-1.922-.76-2.9-.386-4.862,1.849-8.461,5.92-12.913,8.58a1.678,1.678,0,0,1-1.461.315c-.74-.311-.728-1.35-.565-2.124a33.651,33.651,0,0,1,2.524-7.7,1.193,1.193,0,0,0,.17-.9c-.2-.607-1.088-.536-1.66-.274a15.839,15.839,0,0,0-2.808,1.784c-1.689,1.235-3.354,2.5-5.014,3.776q-1.255.964-2.505,1.941c-.357.281-1.745.995-1.075,1.638a.41.41,0,0,0,.182.109,1.181,1.181,0,0,0,.951-.354,75.892,75.892,0,0,1,7.082-4.856c-.042,3.478-2.614,6.463-2.735,9.934a1.085,1.085,0,0,0,.1.605,1.157,1.157,0,0,0,1.068.386c2.918-.121,5.417-1.947,7.585-3.847s4.3-4.005,7.061-4.89a2.624,2.624,0,0,1,1.224-.158,1.145,1.145,0,0,1,.935.747,1.71,1.71,0,0,1-.126,1,24.687,24.687,0,0,0-1.01,4.342,2.62,2.62,0,0,0,.483,2.338,2.529,2.529,0,0,0,2.5.153,15.816,15.816,0,0,0,7.135-4.867,1.419,1.419,0,0,1,.634-.529,1.841,1.841,0,0,1,1.213.276,4.047,4.047,0,0,0,4.748-1.262.52.52,0,0,0,.126-.51A.34.34,0,0,0,742.236,261.889Z" transform="translate(-583.19 -210.906)" fill="#fff"/>
        <path id="Trazado_45835" data-name="Trazado 45835" d="M569.728,20.727a42.827,42.827,0,0,1,1.57-4.1,5.453,5.453,0,0,0,.478-.3h.009a18.824,18.824,0,0,1,1.622-1.17c7.687-5.039,17.475-7.723,26.453-4.98-.107-.034-.352-.471-.447-.571a4.1,4.1,0,0,0-.609-.527,4.332,4.332,0,0,0-1.454-.68,8.306,8.306,0,0,0-1.6-.092c-.52-.034-1.063-.185-1.587-.257a11.588,11.588,0,0,0-2.7-.4h-.076c-1.7-.049-2.1-.034-2.441-.09a1.5,1.5,0,0,1-.238-.032,17.327,17.327,0,0,0-4.345.2,8.269,8.269,0,0,1-1.519.243,46.1,46.1,0,0,0-4.932.871,15.043,15.043,0,0,0-3.316,1.272c-2.187,1.02-4.252,2.294-6.379,3.413-3.3,1.718-7.031,3.109-10.755,2.446a16.028,16.028,0,0,1-5.864-2.566c-3.333-2.185-6.463-5.408-6.755-9.339a2.319,2.319,0,0,1,.519-1.913,2.08,2.08,0,0,1,1.1-.456c2.891-.429,5.549,1.835,7.294,4.235.155.213.354.452.612.44.534-.024.384-.866.051-1.293a14.164,14.164,0,0,0-6.9-4.777,4.257,4.257,0,0,0-2.658-.15c-1.463.526-2.051,2.316-1.929,3.883a11.137,11.137,0,0,0,2.721,5.91,22.519,22.519,0,0,0,21.861,7.7,61.22,61.22,0,0,0-4.723,12.245c-1.02,3.56-1.92,7.172-2.988,10.714a14.232,14.232,0,0,1-8.334-4.592,17.424,17.424,0,0,0,7.708,6.592,58.264,58.264,0,0,1-2.437,6.337,21.079,21.079,0,0,1-4.922,7.155,10.467,10.467,0,0,1-8.067,2.77,7.462,7.462,0,0,1-6.359-5.49,9.2,9.2,0,0,1,1.425-6.293,1.333,1.333,0,0,1,.568-.622,2.019,2.019,0,0,1,1.133.068,2.112,2.112,0,0,0,2.211-.888,1.591,1.591,0,0,0-.653-2.179,2.3,2.3,0,0,0-2.032.383,9.1,9.1,0,0,0-4.02,9.492,9.725,9.725,0,0,0,7.619,7.323c3.58.617,7.16-.937,9.971-3.129,4.379-3.415,7.328-8.293,9.413-13.505h.01a.321.321,0,0,1,.012-.058c.136-.34.27-.68.4-1.02a4.882,4.882,0,0,0,3.7-1.294c1.07-.895,1.908-2.031,2.929-2.98a11.438,11.438,0,0,1,5.718-2.864c-2-.968-4.335.078-6.06,1.388s-3.321,2.929-5.442,3.339a.263.263,0,0,0,.008-.027C566.418,34,567.581,27.212,569.728,20.727Z" transform="translate(-444.324 -0.001)" fill="#fff"/>
        <path id="Trazado_45836" data-name="Trazado 45836" d="M787.872,192.635a5.913,5.913,0,0,1-.248.648,5.475,5.475,0,0,1-1.3,1.859,5.3,5.3,0,0,1-2.33,1.338,2.017,2.017,0,0,1-1.264-.019.986.986,0,0,1-.633-1.007,1.53,1.53,0,0,1,.4-.68l2.522-2.981a1.233,1.233,0,0,1,1.1-.57,1.452,1.452,0,0,1,.478.014,1.417,1.417,0,0,1,.468.257c.226.17.777.418.85.68A.9.9,0,0,1,787.872,192.635Z" transform="translate(-648.686 -158.693)" fill="#fff"/>
        <path id="Trazado_45837" data-name="Trazado 45837" d="M49.488,418.671a2.444,2.444,0,0,0-.9-.707,3.06,3.06,0,0,0-1.293-.257H44.57v6.471h2.721a3.047,3.047,0,0,0,1.293-.257,2.443,2.443,0,0,0,.9-.707,3,3,0,0,0,.51-1.032,4.735,4.735,0,0,0,0-2.478,3.019,3.019,0,0,0-.51-1.032Zm-3.471.276h.864a2.512,2.512,0,0,1,.949.151,1.311,1.311,0,0,1,.554.408,1.471,1.471,0,0,1,.272.616,4.344,4.344,0,0,1,0,1.641,1.472,1.472,0,0,1-.272.616,1.311,1.311,0,0,1-.548.4,2.509,2.509,0,0,1-.949.153h-.871Z" transform="translate(-36.99 -346.67)" fill="#fff"/>
        <path id="Trazado_45838" data-name="Trazado 45838" d="M91.881,417.864a2.9,2.9,0,0,0-.98-.738,3.231,3.231,0,0,0-2.611,0,2.933,2.933,0,0,0-.98.738,3.273,3.273,0,0,0-.612,1.077,4.082,4.082,0,0,0,0,2.592,3.257,3.257,0,0,0,.612,1.077,2.871,2.871,0,0,0,.981.73,3.28,3.28,0,0,0,2.609,0,2.9,2.9,0,0,0,.981-.735,3.318,3.318,0,0,0,.611-1.077,4.082,4.082,0,0,0,0-2.592A3.292,3.292,0,0,0,91.881,417.864ZM89.6,422.37a1.531,1.531,0,0,1-.752-.17,1.466,1.466,0,0,1-.51-.466,2.2,2.2,0,0,1-.3-.689,3.309,3.309,0,0,1,0-1.617,2.2,2.2,0,0,1,.3-.689,1.466,1.466,0,0,1,.51-.466,1.713,1.713,0,0,1,1.5,0,1.451,1.451,0,0,1,.51.466,2.2,2.2,0,0,1,.31.689,3.31,3.31,0,0,1,0,1.617,2.237,2.237,0,0,1-.3.689,1.472,1.472,0,0,1-.51.466A1.531,1.531,0,0,1,89.6,422.37Z" transform="translate(-71.779 -345.961)" fill="#fff"/>
        <path id="Trazado_45839" data-name="Trazado 45839" d="M136.23,421.826l-1.054-4.116h-1.383l-1.085,4.116-.973-4.116H130.26l1.7,6.471h1.389l1.111-4.153,1.088,4.153h1.371l1.786-6.471h-1.478Z" transform="translate(-108.107 -346.673)" fill="#fff"/>
        <path id="Trazado_45840" data-name="Trazado 45840" d="M192.729,421.761l-2.51-4.051H188.8v6.471h1.389v-4.056l2.512,4.056h1.417V417.71h-1.389Z" transform="translate(-156.691 -346.673)" fill="#fff"/>
        <path id="Trazado_45841" data-name="Trazado 45841" d="M229.43,419.006h1.93v5.175H232.8v-5.175h1.939v-1.3h-5.31Z" transform="translate(-190.297 -346.673)" fill="#fff"/>
        <path id="Trazado_45842" data-name="Trazado 45842" d="M273.681,417.864a2.917,2.917,0,0,0-.98-.738,3.231,3.231,0,0,0-2.611,0,2.916,2.916,0,0,0-.98.738,3.274,3.274,0,0,0-.612,1.077,4.082,4.082,0,0,0,0,2.592,3.256,3.256,0,0,0,.612,1.077,2.871,2.871,0,0,0,.981.735,3.278,3.278,0,0,0,2.607,0,2.872,2.872,0,0,0,.981-.735,3.291,3.291,0,0,0,.612-1.077,4.081,4.081,0,0,0,0-2.592A3.292,3.292,0,0,0,273.681,417.864Zm-2.291,4.505a1.53,1.53,0,0,1-.752-.17,1.466,1.466,0,0,1-.51-.466,2.16,2.16,0,0,1-.3-.689,3.256,3.256,0,0,1,0-1.617,2.161,2.161,0,0,1,.3-.689,1.466,1.466,0,0,1,.51-.466,1.713,1.713,0,0,1,1.5,0,1.466,1.466,0,0,1,.51.466,2.161,2.161,0,0,1,.3.689,3.255,3.255,0,0,1,0,1.617,2.16,2.16,0,0,1-.3.689,1.466,1.466,0,0,1-.51.466A1.531,1.531,0,0,1,271.391,422.37Z" transform="translate(-222.526 -345.96)" fill="#fff"/>
        <path id="Trazado_45843" data-name="Trazado 45843" d="M317.99,421.826l-1.054-4.116h-1.383l-1.085,4.116-.973-4.116H312.02l1.7,6.471h1.389l1.111-4.153,1.087,4.153h1.372l1.786-6.471h-1.478Z" transform="translate(-258.797 -346.673)" fill="#fff"/>
        <path id="Trazado_45844" data-name="Trazado 45844" d="M374.489,421.761l-2.512-4.051H370.56v6.471h1.389v-4.056l2.512,4.056h1.417V417.71h-1.389Z" transform="translate(-307.355 -346.673)" fill="#fff"/>
        <path id="Trazado_45845" data-name="Trazado 45845" d="M439.794,420.135h-2.4V417.71H435.95v6.471h1.441v-2.75h2.4v2.75h1.44V417.71h-1.44Z" transform="translate(-361.591 -346.673)" fill="#fff"/>
        <path id="Trazado_45846" data-name="Trazado 45846" d="M483.382,417.863a2.933,2.933,0,0,0-.98-.738,3.231,3.231,0,0,0-2.612,0,2.934,2.934,0,0,0-.98.738,3.273,3.273,0,0,0-.611,1.077,4.083,4.083,0,0,0,0,2.592,3.234,3.234,0,0,0,.611,1.077,2.871,2.871,0,0,0,.981.735,3.281,3.281,0,0,0,2.609,0,2.9,2.9,0,0,0,.981-.735,3.32,3.32,0,0,0,.611-1.077,4.082,4.082,0,0,0,0-2.592A3.319,3.319,0,0,0,483.382,417.863Zm-2.286,4.505a1.531,1.531,0,0,1-.752-.17,1.465,1.465,0,0,1-.51-.466,2.237,2.237,0,0,1-.3-.689,3.31,3.31,0,0,1,0-1.617,2.237,2.237,0,0,1,.3-.689,1.465,1.465,0,0,1,.51-.466,1.713,1.713,0,0,1,1.5,0,1.471,1.471,0,0,1,.51.466,2.239,2.239,0,0,1,.3.689,3.31,3.31,0,0,1,0,1.617,2.239,2.239,0,0,1-.3.689,1.471,1.471,0,0,1-.51.466A1.519,1.519,0,0,1,481.1,422.368Z" transform="translate(-396.458 -345.959)" fill="#fff"/>
        <path id="Trazado_45847" data-name="Trazado 45847" d="M522.18,419.006h1.93v5.175h1.441v-5.175h1.939v-1.3h-5.31Z" transform="translate(-433.113 -346.673)" fill="#fff"/>
        <path id="Trazado_45848" data-name="Trazado 45848" d="M564.352,421.474h3.075v-1.245h-3.075v-1.223h3.321v-1.3H562.91v6.471h4.823v-1.3h-3.381Z" transform="translate(-466.897 -346.673)" fill="#fff"/>
        <path id="Trazado_45849" data-name="Trazado 45849" d="M603.531,417.71h-1.44v6.471h4.541v-1.3h-3.1Z" transform="translate(-499.395 -346.673)" fill="#fff"/>
        <path id="Trazado_45850" data-name="Trazado 45850" d="M662.668,421.271a4.546,4.546,0,0,0,.17-.818l.022-.207h-1.235l-.019.17a3.147,3.147,0,0,1-.078.457l-.589-.709c.087-.056.17-.114.253-.17a2.14,2.14,0,0,0,.384-.379,1.907,1.907,0,0,0,.265-.469,1.572,1.572,0,0,0,.1-.571,1.682,1.682,0,0,0-.146-.719,1.516,1.516,0,0,0-.935-.828,1.95,1.95,0,0,0-1.272.015,1.62,1.62,0,0,0-.541.34,1.556,1.556,0,0,0-.364.519,1.674,1.674,0,0,0-.129.672,1.526,1.526,0,0,0,.058.427,1.93,1.93,0,0,0,.151.378,2.583,2.583,0,0,0,.211.34l.1.133c-.116.066-.23.136-.34.211a2.675,2.675,0,0,0-.483.418,2.028,2.028,0,0,0-.34.531,1.589,1.589,0,0,0-.136.667,2.15,2.15,0,0,0,.155.837,1.744,1.744,0,0,0,.444.634,1.97,1.97,0,0,0,.68.393,2.542,2.542,0,0,0,.833.134,2.439,2.439,0,0,0,1.032-.211,2.211,2.211,0,0,0,.67-.491l.473.582h1.68l-1.338-1.621A3.159,3.159,0,0,0,662.668,421.271Zm-2.755,1.238a.793.793,0,0,1-.566-.213.818.818,0,0,1-.219-.626.739.739,0,0,1,.075-.362.964.964,0,0,1,.2-.26,1.329,1.329,0,0,1,.265-.185l.17-.094,1,1.248-.071.1a1.021,1.021,0,0,1-.187.185,1.121,1.121,0,0,1-.274.15,1.1,1.1,0,0,1-.4.06Zm.049-3.572a1.6,1.6,0,0,1-.121-.226.54.54,0,0,1-.041-.213.476.476,0,0,1,.133-.359.452.452,0,0,1,.33-.129.379.379,0,0,1,.311.134.561.561,0,0,1,.126.379.654.654,0,0,1-.046.253.679.679,0,0,1-.129.207,1.56,1.56,0,0,1-.2.19l-.114.085-.076-.1a2.391,2.391,0,0,1-.168-.224Z" transform="translate(-545.582 -346.024)" fill="#fff"/>
        <path id="Trazado_45851" data-name="Trazado 45851" d="M726.8,423.326a5.175,5.175,0,0,1-.078-.946,1.9,1.9,0,0,0-.1-.663,1.385,1.385,0,0,0-.264-.449,1.059,1.059,0,0,0-.257-.211,1.5,1.5,0,0,0,.245-.207,1.725,1.725,0,0,0,.34-.51,1.946,1.946,0,0,0,.145-.8,1.7,1.7,0,0,0-.568-1.361,2.441,2.441,0,0,0-1.634-.481h-3.1v6.471h1.442v-2.509h1.386a1.487,1.487,0,0,1,.532.08.6.6,0,0,1,.293.226,1.064,1.064,0,0,1,.158.43,4.2,4.2,0,0,1,.049.69,3.516,3.516,0,0,0,.022.478,1.21,1.21,0,0,0,.17.51l.056.088H727.3l-.286-.311A1.1,1.1,0,0,1,726.8,423.326Zm-3.835-4.384h1.548a2.132,2.132,0,0,1,.364.031.661.661,0,0,1,.269.107.487.487,0,0,1,.17.211.939.939,0,0,1,.068.395.76.76,0,0,1-.2.594.94.94,0,0,1-.651.194h-1.563Z" transform="translate(-598.452 -346.665)" fill="#fff"/>
        <path id="Trazado_45852" data-name="Trazado 45852" d="M765.851,421.474h3.075v-1.245h-3.075v-1.223h3.323v-1.3H764.41v6.471h4.823v-1.3h-3.383Z" transform="translate(-634.028 -346.673)" fill="#fff"/>
        <path id="Trazado_45853" data-name="Trazado 45853" d="M806.426,420.441a1.832,1.832,0,0,0-.413-.413,2.032,2.032,0,0,0-.58-.286l-.4-.107-.566-.15-.524-.141-.267-.071a1.11,1.11,0,0,1-.451-.236.468.468,0,0,1-.141-.369.475.475,0,0,1,.075-.279.6.6,0,0,1,.206-.187,1.059,1.059,0,0,1,.3-.107,1.545,1.545,0,0,1,1.156.17.854.854,0,0,1,.322.692l.012.17h1.429v-.187a1.95,1.95,0,0,0-.769-1.6,2.408,2.408,0,0,0-.806-.4,3.427,3.427,0,0,0-1.813-.019,2.449,2.449,0,0,0-.776.355,1.909,1.909,0,0,0-.563.621,1.769,1.769,0,0,0-.218.891,1.933,1.933,0,0,0,.071.521,1.515,1.515,0,0,0,.248.5,1.729,1.729,0,0,0,.463.417,2.5,2.5,0,0,0,.706.293c.422.114.779.207,1.066.279a7.053,7.053,0,0,1,.738.219.724.724,0,0,1,.274.189.56.56,0,0,1,.107.388.708.708,0,0,1-.054.267.57.57,0,0,1-.17.223,1.042,1.042,0,0,1-.34.17,2.2,2.2,0,0,1-1.094,0,1.274,1.274,0,0,1-.429-.2.909.909,0,0,1-.276-.34,1.2,1.2,0,0,1-.1-.51v-.185h-1.444v.189a2.429,2.429,0,0,0,.236,1.082,2.1,2.1,0,0,0,.6.743,2.492,2.492,0,0,0,.867.425,3.833,3.833,0,0,0,1.032.136,3.982,3.982,0,0,0,.937-.114,2.628,2.628,0,0,0,.839-.364,1.981,1.981,0,0,0,.607-.655,1.91,1.91,0,0,0,.235-.969,1.876,1.876,0,0,0-.08-.532,1.72,1.72,0,0,0-.255-.51Z" transform="translate(-664.715 -345.923)" fill="#fff"/>
        <rect id="Rectángulo_5382" data-name="Rectángulo 5382" width="1.441" height="6.471" transform="translate(143.892 71.037)" fill="#fff"/>
        <path id="Trazado_45854" data-name="Trazado 45854" d="M870,418.671a2.445,2.445,0,0,0-.9-.708,3.048,3.048,0,0,0-1.292-.257H865.08v6.471H867.8a3.047,3.047,0,0,0,1.292-.257,2.418,2.418,0,0,0,.9-.708,3,3,0,0,0,.51-1.032,4.736,4.736,0,0,0,0-2.478,3.017,3.017,0,0,0-.51-1.032Zm-3.464.276h.864a2.511,2.511,0,0,1,.949.151,1.312,1.312,0,0,1,.548.4,1.471,1.471,0,0,1,.272.616,4.345,4.345,0,0,1,0,1.641,1.471,1.471,0,0,1-.272.616,1.312,1.312,0,0,1-.548.4,2.511,2.511,0,0,1-.949.153h-.864Z" transform="translate(-717.526 -346.67)" fill="#fff"/>
        <path id="Trazado_45855" data-name="Trazado 45855" d="M910.392,421.474h3.075v-1.245h-3.075v-1.223h3.322v-1.3H908.95v6.471h4.825v-1.3h-3.383Z" transform="translate(-753.914 -346.673)" fill="#fff"/>
        <path id="Trazado_45856" data-name="Trazado 45856" d="M951.809,421.761l-2.51-4.051H947.88v6.471h1.389v-4.056l2.51,4.056H953.2V417.71h-1.389Z" transform="translate(-786.115 -346.673)" fill="#fff"/>
        <path id="Trazado_45857" data-name="Trazado 45857" d="M994.511,420.97a2.277,2.277,0,0,1-.134.576,1.411,1.411,0,0,1-.272.449,1.211,1.211,0,0,1-.408.3,1.333,1.333,0,0,1-.554.107,1.529,1.529,0,0,1-.752-.17,1.466,1.466,0,0,1-.51-.466,2.2,2.2,0,0,1-.3-.689,3.309,3.309,0,0,1,0-1.617,2.2,2.2,0,0,1,.3-.689,1.466,1.466,0,0,1,.51-.466,1.531,1.531,0,0,1,.752-.17,1.553,1.553,0,0,1,.522.08,1.192,1.192,0,0,1,.381.216,1.228,1.228,0,0,1,.265.332,2.073,2.073,0,0,1,.17.446l.036.139h1.418l-.02-.206a2.494,2.494,0,0,0-.288-.951,2.352,2.352,0,0,0-.609-.711,2.694,2.694,0,0,0-.85-.44,3.444,3.444,0,0,0-1.02-.15,3.033,3.033,0,0,0-1.306.276,2.934,2.934,0,0,0-.98.738,3.271,3.271,0,0,0-.612,1.077,4.081,4.081,0,0,0,0,2.592,3.255,3.255,0,0,0,.612,1.077,2.869,2.869,0,0,0,.981.735,3.075,3.075,0,0,0,1.3.27,2.973,2.973,0,0,0,1.083-.192,2.624,2.624,0,0,0,.865-.548,2.671,2.671,0,0,0,.583-.84,3.111,3.111,0,0,0,.25-1.065l.012-.2h-1.408Z" transform="translate(-821.103 -345.992)" fill="#fff"/>
        <path id="Trazado_45858" data-name="Trazado 45858" d="M1037.161,421.474h3.075v-1.245h-3.075v-1.223h3.323v-1.3h-4.764v6.471h4.823v-1.3h-3.383Z" transform="translate(-859.016 -346.673)" fill="#fff"/>
        <path id="Trazado_45859" data-name="Trazado 45859" d="M1077.985,420.911a1.76,1.76,0,0,0-.248-.51,1.83,1.83,0,0,0-.413-.413,2.029,2.029,0,0,0-.58-.286l-.4-.107-.568-.15-.524-.141-.265-.071a1.121,1.121,0,0,1-.453-.236.563.563,0,0,1-.066-.648.609.609,0,0,1,.208-.187,1.063,1.063,0,0,1,.3-.107,1.551,1.551,0,0,1,1.158.17.853.853,0,0,1,.32.692l.013.17h1.427V418.9a1.949,1.949,0,0,0-.769-1.6,2.406,2.406,0,0,0-.8-.4,3.428,3.428,0,0,0-1.813-.019,2.486,2.486,0,0,0-.777.355,1.931,1.931,0,0,0-.563.621,1.791,1.791,0,0,0-.216.891,1.929,1.929,0,0,0,.072.521,1.456,1.456,0,0,0,.248.5,1.7,1.7,0,0,0,.462.417,2.492,2.492,0,0,0,.7.293q.636.17,1.068.279a7,7,0,0,1,.736.219.728.728,0,0,1,.276.189.568.568,0,0,1,.105.388.705.705,0,0,1-.053.267.583.583,0,0,1-.17.223,1.043,1.043,0,0,1-.34.17,2.212,2.212,0,0,1-1.1,0,1.266,1.266,0,0,1-.427-.2.874.874,0,0,1-.276-.34,1.176,1.176,0,0,1-.1-.51v-.185h-1.442v.189a2.478,2.478,0,0,0,.233,1.058,2.1,2.1,0,0,0,.6.743,2.49,2.49,0,0,0,.867.425,3.822,3.822,0,0,0,1.032.136,3.994,3.994,0,0,0,.932-.112,2.619,2.619,0,0,0,.837-.364,1.97,1.97,0,0,0,.609-.655,1.93,1.93,0,0,0,.235-.969A1.809,1.809,0,0,0,1077.985,420.911Z" transform="translate(-889.723 -345.89)" fill="#fff"/>
        <path id="Trazado_45860" data-name="Trazado 45860" d="M275.854,494.77a1.856,1.856,0,0,0-.7-.524,2.744,2.744,0,0,0-1.136-.2H271.14v6.471h1.44v-2.34h1.437a2.788,2.788,0,0,0,1.134-.2,1.809,1.809,0,0,0,.7-.52,1.766,1.766,0,0,0,.34-.68,2.533,2.533,0,0,0,0-1.315A1.768,1.768,0,0,0,275.854,494.77Zm-1.094,1.735a.656.656,0,0,1-.2.242.9.9,0,0,1-.284.138,1.247,1.247,0,0,1-.318.044H272.58v-1.643h1.395a1.6,1.6,0,0,1,.359.039.6.6,0,0,1,.435.362,1.082,1.082,0,0,1,.07.42A.885.885,0,0,1,274.761,496.5Z" transform="translate(-224.893 -410.023)" fill="#fff"/>
        <path id="Trazado_45861" data-name="Trazado 45861" d="M313.611,494.05h-1.44v6.471h4.543v-1.3h-3.1Z" transform="translate(-258.925 -410.031)" fill="#fff"/>
        <path id="Trazado_45862" data-name="Trazado 45862" d="M346.353,494.05l-2.483,6.471h1.505l.571-1.614h2.172l.572,1.614h1.548l-2.492-6.471Zm1.352,3.672h-1.337l.672-1.908Z" transform="translate(-285.216 -410.031)" fill="#fff"/>
        <path id="Trazado_45863" data-name="Trazado 45863" d="M385.53,494.05l-1.483,2.549-1.507-2.549h-1.68L383.3,498v2.526h1.442V498l2.427-3.946Z" transform="translate(-315.897 -410.031)" fill="#fff"/>
        <path id="Trazado_45864" data-name="Trazado 45864" d="M420.033,494.05l-2.483,6.471h1.505l.571-1.614H421.8l.571,1.614h1.549l-2.492-6.471Zm1.361,3.672h-1.337l.672-1.908Z" transform="translate(-346.329 -410.031)" fill="#fff"/>
        <path id="Trazado_45865" data-name="Trazado 45865" d="M489.627,495.009a2.45,2.45,0,0,0-.9-.708,3.046,3.046,0,0,0-1.291-.255H484.71v6.471h2.721a3.041,3.041,0,0,0,1.291-.257,2.45,2.45,0,0,0,.9-.707,2.952,2.952,0,0,0,.51-1.034,4.728,4.728,0,0,0,0-2.476A2.966,2.966,0,0,0,489.627,495.009Zm-3.471.281h.866a2.466,2.466,0,0,1,.947.153,1.3,1.3,0,0,1,.548.4,1.5,1.5,0,0,1,.274.614,4.448,4.448,0,0,1,0,1.643,1.515,1.515,0,0,1-.274.616,1.314,1.314,0,0,1-.548.4,2.5,2.5,0,0,1-.947.151h-.866Z" transform="translate(-402.034 -410.027)" fill="#fff"/>
        <path id="Trazado_45866" data-name="Trazado 45866" d="M529.981,497.814h3.075v-1.245h-3.075v-1.224H533.3V494.05H528.54v6.471h4.823v-1.3h-3.383Z" transform="translate(-438.389 -410.031)" fill="#fff"/>
        <path id="Trazado_45867" data-name="Trazado 45867" d="M569.151,494.05h-1.44v6.471h4.541v-1.3h-3.1Z" transform="translate(-470.879 -410.031)" fill="#fff"/>
        <path id="Trazado_45868" data-name="Trazado 45868" d="M628.164,497.3a2.323,2.323,0,0,1-.133.577,1.477,1.477,0,0,1-.272.449,1.227,1.227,0,0,1-.408.3,1.374,1.374,0,0,1-.556.107,1.544,1.544,0,0,1-.75-.17,1.487,1.487,0,0,1-.51-.466,2.193,2.193,0,0,1-.3-.691,3.25,3.25,0,0,1,0-1.616,2.2,2.2,0,0,1,.3-.689,1.486,1.486,0,0,1,.51-.466,1.531,1.531,0,0,1,.75-.17,1.612,1.612,0,0,1,.519.077,1.22,1.22,0,0,1,.379.218,1.167,1.167,0,0,1,.265.332,1.911,1.911,0,0,1,.17.446l.037.139h1.418l-.022-.206a2.439,2.439,0,0,0-.287-.951,2.322,2.322,0,0,0-.607-.711,2.711,2.711,0,0,0-.85-.44,3.46,3.46,0,0,0-1.02-.15,3.026,3.026,0,0,0-1.3.274,2.927,2.927,0,0,0-.98.74,3.255,3.255,0,0,0-.612,1.077,4.082,4.082,0,0,0,0,2.59,3.281,3.281,0,0,0,.612,1.078,2.9,2.9,0,0,0,.98.735,3.084,3.084,0,0,0,1.3.269,2.981,2.981,0,0,0,1.085-.192,2.564,2.564,0,0,0,.864-.548,2.625,2.625,0,0,0,.583-.84,3.063,3.063,0,0,0,.252-1.063l.012-.2h-1.41Z" transform="translate(-517.308 -409.34)" fill="#fff"/>
        <path id="Trazado_45869" data-name="Trazado 45869" d="M667.183,494.05l-2.483,6.471h1.505l.571-1.614h2.17l.566,1.614h1.547l-2.492-6.471Zm1.361,3.672h-1.337l.68-1.908Z" transform="translate(-551.322 -410.031)" fill="#fff"/>
        <path id="Trazado_45870" data-name="Trazado 45870" d="M715.677,499.673a5.156,5.156,0,0,1-.078-.944,1.9,1.9,0,0,0-.1-.663,1.389,1.389,0,0,0-.264-.449,1.094,1.094,0,0,0-.257-.211,1.764,1.764,0,0,0,.245-.207,1.8,1.8,0,0,0,.34-.51,1.972,1.972,0,0,0,.145-.8,1.7,1.7,0,0,0-.568-1.361,2.456,2.456,0,0,0-1.634-.48h-3.1v6.471h1.44v-2.512h1.383a1.453,1.453,0,0,1,.534.082.6.6,0,0,1,.286.226,1.052,1.052,0,0,1,.158.43,4.211,4.211,0,0,1,.049.691,3.529,3.529,0,0,0,.022.478,1.176,1.176,0,0,0,.17.51l.054.09h1.672l-.284-.313a1.071,1.071,0,0,1-.207-.531Zm-3.837-4.379h1.553a1.972,1.972,0,0,1,.364.032.669.669,0,0,1,.269.105.511.511,0,0,1,.17.211.983.983,0,0,1,.068.4.772.772,0,0,1-.2.594.952.952,0,0,1-.651.194h-1.565Z" transform="translate(-589.229 -410.031)" fill="#fff"/>
        <path id="Trazado_45871" data-name="Trazado 45871" d="M756.568,498.467l-1.556-4.417H753.19v6.471h1.389v-3.869l1.389,3.869h1.143l1.391-3.869v3.869h1.39V494.05h-1.806Z" transform="translate(-624.718 -410.031)" fill="#fff"/>
        <path id="Trazado_45872" data-name="Trazado 45872" d="M806.911,497.814h3.075v-1.245h-3.075v-1.224h3.323V494.05H805.47v6.471h4.823v-1.3h-3.383Z" transform="translate(-668.085 -410.031)" fill="#fff"/>
        <path id="Trazado_45873" data-name="Trazado 45873" d="M848.32,494.05V498.1l-2.512-4.051H844.39v6.471h1.39v-4.056l2.512,4.056h1.418V494.05Z" transform="translate(-700.365 -410.031)" fill="#fff"/>
        <rect id="Rectángulo_5383" data-name="Rectángulo 5383" width="197.382" height="0.372" transform="translate(0 97.62)" fill="#fff"/>
        <path id="Trazado_45874" data-name="Trazado 45874" d="M91.748,622.428a1.886,1.886,0,0,1-1.842-1.995v-.019a1.881,1.881,0,0,1,1.842-1.976,2.344,2.344,0,0,1,1.622.716l.888-1.02a3.271,3.271,0,0,0-2.5-.978,3.231,3.231,0,0,0-3.31,3.282v.017A3.2,3.2,0,0,0,91.7,623.72a3.242,3.242,0,0,0,2.6-1.134l-.888-.9A2.306,2.306,0,0,1,91.748,622.428Z" transform="translate(-73.404 -512.2)" fill="#fff"/>
        <path id="Trazado_45875" data-name="Trazado 45875" d="M137.056,621.406c0,1.007-.51,1.531-1.369,1.531s-1.361-.536-1.361-1.57v-3.6h-1.4V621.4a2.516,2.516,0,0,0,2.748,2.818,2.554,2.554,0,0,0,2.784-2.864V617.77h-1.4Z" transform="translate(-110.322 -512.711)" fill="#fff"/>
        <path id="Trazado_45876" data-name="Trazado 45876" d="M183.036,619.882v-.017a2,2,0,0,0-.544-1.452,2.53,2.53,0,0,0-1.85-.643h-2.9v6.347h1.4v-2.041h1.1l1.361,2.041h1.622l-1.551-2.267a1.97,1.97,0,0,0,1.361-1.968Zm-1.415.073c0,.534-.389.9-1.07.9h-1.406V619.03h1.388c.68,0,1.1.308,1.1.906Z" transform="translate(-147.512 -512.711)" fill="#fff"/>
        <rect id="Rectángulo_5384" data-name="Rectángulo 5384" width="1.396" height="6.347" transform="translate(37.531 105.059)" fill="#fff"/>
        <path id="Trazado_45877" data-name="Trazado 45877" d="M243.963,617.13a3.282,3.282,0,0,0-3.383,3.282v.017a3.375,3.375,0,0,0,6.747-.017v-.019A3.25,3.25,0,0,0,243.963,617.13Zm1.9,3.3a1.9,1.9,0,0,1-1.9,1.978,1.929,1.929,0,0,1-1.924-1.995v-.019a1.9,1.9,0,0,1,1.9-1.976,1.928,1.928,0,0,1,1.922,1.995Z" transform="translate(-199.544 -512.18)" fill="#fff"/>
        <path id="Trazado_45878" data-name="Trazado 45878" d="M313.218,622.428a1.884,1.884,0,0,1-1.84-1.995v-.019a1.88,1.88,0,0,1,1.84-1.976,2.343,2.343,0,0,1,1.622.716l.889-1.02a3.278,3.278,0,0,0-2.5-.978,3.231,3.231,0,0,0-3.31,3.282v.017a3.2,3.2,0,0,0,3.255,3.265,3.239,3.239,0,0,0,2.6-1.134l-.888-.9A2.3,2.3,0,0,1,313.218,622.428Z" transform="translate(-257.055 -512.2)" fill="#fff"/>
        <path id="Trazado_45879" data-name="Trazado 45879" d="M355.6,617.13a3.282,3.282,0,0,0-3.383,3.282v.017a3.375,3.375,0,0,0,6.747-.017v-.019A3.251,3.251,0,0,0,355.6,617.13Zm1.9,3.3a1.9,1.9,0,0,1-1.9,1.978,1.929,1.929,0,0,1-1.923-1.995v-.019a1.9,1.9,0,0,1,1.9-1.976,1.928,1.928,0,0,1,1.922,1.995Z" transform="translate(-292.142 -512.18)" fill="#fff"/>
        <path id="Trazado_45880" data-name="Trazado 45880" d="M404.616,617.77h-1.4v6.347h4.561v-1.269h-3.165Z" transform="translate(-334.445 -512.711)" fill="#fff"/>
        <path id="Trazado_45881" data-name="Trazado 45881" d="M441.628,617.77h-1.4v6.347h4.561v-1.269h-3.163Z" transform="translate(-365.142 -512.711)" fill="#fff"/>
        <path id="Trazado_45882" data-name="Trazado 45882" d="M478.638,621.542h2.992V620.3h-2.992v-1.287h3.4V617.77H477.25v6.347h4.833v-1.242h-3.446Z" transform="translate(-395.848 -512.711)" fill="#fff"/>
        <path id="Trazado_45883" data-name="Trazado 45883" d="M518.638,622.428a1.886,1.886,0,0,1-1.842-1.995v-.019a1.881,1.881,0,0,1,1.842-1.976,2.344,2.344,0,0,1,1.623.716l.888-1.02a3.271,3.271,0,0,0-2.5-.978,3.231,3.231,0,0,0-3.31,3.282v.017a3.2,3.2,0,0,0,3.255,3.265,3.242,3.242,0,0,0,2.6-1.134l-.888-.9A2.309,2.309,0,0,1,518.638,622.428Z" transform="translate(-427.436 -512.2)" fill="#fff"/>
        <path id="Trazado_45884" data-name="Trazado 45884" d="M557.69,619.057h1.932v5.06h1.4v-5.06h1.932V617.77h-5.26Z" transform="translate(-462.567 -512.711)" fill="#fff"/>
        <rect id="Rectángulo_5385" data-name="Rectángulo 5385" width="1.396" height="6.347" transform="translate(102.205 105.059)" fill="#fff"/>
        <path id="Trazado_45885" data-name="Trazado 45885" d="M622.493,617.13a3.282,3.282,0,0,0-3.383,3.282v.017a3.375,3.375,0,0,0,6.747-.017v-.019A3.245,3.245,0,0,0,622.493,617.13Zm1.9,3.3a1.9,1.9,0,0,1-1.9,1.978,1.928,1.928,0,0,1-1.922-1.995v-.019a1.9,1.9,0,0,1,1.9-1.976,1.929,1.929,0,0,1,1.923,1.995Z" transform="translate(-513.508 -512.18)" fill="#fff"/>
        <path id="Trazado_45886" data-name="Trazado 45886" d="M674.394,621.678l-2.974-3.908H670.13v6.347h1.379v-4.036l3.073,4.036h1.189V617.77h-1.378Z" transform="translate(-555.828 -512.711)" fill="#fff"/>
        <path id="Trazado_45887" data-name="Trazado 45887" d="M740.484,620.8a1.478,1.478,0,0,0,.833-1.369v-.019a1.461,1.461,0,0,0-.434-1.08,2.3,2.3,0,0,0-1.66-.561H736.28v6.347h3.014c1.434,0,2.381-.58,2.381-1.742v-.017A1.55,1.55,0,0,0,740.484,620.8Zm-2.844-1.8h1.378c.59,0,.917.236.917.653v.019c0,.471-.391.68-1.007.68h-1.287Zm2.648,3.211c0,.471-.372.68-.99.68h-1.658v-1.4h1.614c.716,0,1.034.264,1.034.689Z" transform="translate(-610.695 -512.711)" fill="#fff"/>
        <path id="Trazado_45888" data-name="Trazado 45888" d="M776.506,620.318l-1.515-2.548H773.36l2.439,3.844v2.5h1.4v-2.529l2.439-3.818h-1.587Z" transform="translate(-641.449 -512.711)" fill="#fff"/>
        <path id="Trazado_45889" data-name="Trazado 45889" d="M843.353,620.282h-2.575V617.77h-1.4v6.347h1.4v-2.548h2.575v2.548h1.4V617.77h-1.4Z" transform="translate(-696.21 -512.711)" fill="#fff"/>
        <rect id="Rectángulo_5386" data-name="Rectángulo 5386" width="1.396" height="6.347" transform="translate(150.815 105.059)" fill="#fff"/>
        <path id="Trazado_45890" data-name="Trazado 45890" d="M907.2,617.77h-1.4v6.347h4.561v-1.269H907.2Z" transform="translate(-751.302 -512.711)" fill="#fff"/>
        <path id="Trazado_45891" data-name="Trazado 45891" d="M934.87,619.057H936.8v5.06h1.4v-5.06h1.93V617.77H934.87Z" transform="translate(-775.318 -512.711)" fill="#fff"/>
        <path id="Trazado_45892" data-name="Trazado 45892" d="M976.173,617.13a3.282,3.282,0,0,0-3.383,3.282v.017a3.375,3.375,0,0,0,6.747-.017v-.019A3.251,3.251,0,0,0,976.173,617.13Zm1.9,3.3a1.9,1.9,0,0,1-1.9,1.978,1.928,1.928,0,0,1-1.922-1.995v-.019a1.9,1.9,0,0,1,1.9-1.976,1.927,1.927,0,0,1,1.922,1.995Z" transform="translate(-806.788 -512.18)" fill="#fff"/>
        <path id="Trazado_45893" data-name="Trazado 45893" d="M1028.052,617.77v3.908l-2.974-3.908h-1.287v6.347h1.378v-4.036l3.075,4.036h1.187V617.77Z" transform="translate(-849.115 -512.711)" fill="#fff"/>
      </g>
    </g>
  </g>
</svg>
