<svg xmlns="http://www.w3.org/2000/svg" width="200" height="120" viewBox="0 0 200 120">
  <g id="Grupo_36460" data-name="Grupo 36460" transform="translate(-10320 -9609)">
    <rect id="Rectángulo_5391" data-name="Rectángulo 5391" width="200" height="120" transform="translate(10320 9609)" fill="none"/>
    <g id="Capa_2" data-name="Capa 2" transform="translate(10323.592 9621.202)">
      <g id="Capa_1" data-name="Capa 1" transform="translate(0.012 0.001)">
        <path id="Trazado_45894" data-name="Trazado 45894" d="M47.841,12.586a7.2,7.2,0,0,1-2.42.661,21.521,21.521,0,0,0-2.335.253c-1.9.562-2.461,1.505-3.4,3.251a38.591,38.591,0,0,0-2.567,6.188c-2.263,6.844-3.488,14.021-5.719,20.879S25.771,57.393,20.115,61.8c-2.969,2.315-6.75,3.952-10.531,3.307a10.274,10.274,0,0,1-8.047-7.736A9.613,9.613,0,0,1,5.783,47.348a2.44,2.44,0,0,1,2.155-.4,1.683,1.683,0,0,1,.69,2.3,2.236,2.236,0,0,1-2.335.939,2.1,2.1,0,0,0-1.2-.074,1.417,1.417,0,0,0-.6.657,9.74,9.74,0,0,0-1.505,6.646,7.881,7.881,0,0,0,6.716,5.8,11.08,11.08,0,0,0,8.519-2.926,22.191,22.191,0,0,0,5.2-7.557c2.939-6.384,4.442-13.348,6.393-20.118s4.455-13.561,9.024-18.873a40.02,40.02,0,0,1-14.03-4.2C22.006,8.1,19.353,6.312,16.4,5.222s-6.357-1.437-9.069.031a9.8,9.8,0,0,0-3.8,3.993,14.711,14.711,0,0,0-1.59,9.448c.32,1.915,1.315,4.054,3.213,4.491a3.8,3.8,0,0,0,3.865-1.931,11.222,11.222,0,0,0,1.241-4.417c.814-.119,1.135,1.069,1,1.879A9.161,9.161,0,0,1,7.3,24.773a3.873,3.873,0,0,1-1.688.684c-1.719.18-3.145-1.414-3.952-2.969A14.932,14.932,0,0,1,2.44,7.508a14.578,14.578,0,0,1,13.569-6.08c8.609,1.038,15.492,9.389,24.138,9.43a4.232,4.232,0,0,0,1.313-.154A5.449,5.449,0,0,0,43.177,9.6a10.057,10.057,0,0,1,3.909-2.19,4.744,4.744,0,0,1,4.311.939c2.987,2.788-1.757,3.786-3.551,4.239m1.724-3.636a2.864,2.864,0,0,1-.672-.057,2.6,2.6,0,0,0-.747.047,9.1,9.1,0,0,0-1.069.415c-.5.18-1.04.232-1.541.406a1.626,1.626,0,0,0-1.121,1.031.623.623,0,0,0,.2.681.783.783,0,0,0,.282.1,8.663,8.663,0,0,0,4.7-.868,2.515,2.515,0,0,0,.444-.268.81.81,0,0,0,.072-1.218,3.066,3.066,0,0,0-.551-.264" transform="translate(-0.012 -1.09)" fill="#fff"/>
        <path id="Trazado_45895" data-name="Trazado 45895" d="M346,270.834h.122c2.815-.16,5.284-1.78,7.431-3.553a4.643,4.643,0,0,1,2.473-1.326,18.5,18.5,0,0,1-11.866,7.849,4.292,4.292,0,0,1-2.874-.2c-1.466-.812-1.71-2.825-1.437-4.449.738-4.368,3.9-7.488,7.426-9.836a2.373,2.373,0,0,1,1.473-.539c1.009.083,1.57,1.273,1.617,2.285a6.826,6.826,0,0,1-1.5,4.35,16.832,16.832,0,0,1-3.4,3.179c-.528.4-1.123,1-.86,1.626A1.405,1.405,0,0,0,346,270.834Zm-2.087-2.269a.524.524,0,0,0,.293-.163A18,18,0,0,0,347.6,264a2.6,2.6,0,0,0,.359-.859.991.991,0,0,0-.257-.877,1.268,1.268,0,0,0-1.257-.115,4.61,4.61,0,0,0-2.319,1.92,4.231,4.231,0,0,0-.871,3.115c.065.286.269,1.277.584,1.371A.189.189,0,0,0,343.917,268.565Z" transform="translate(-278.984 -212.29)" fill="#fff"/>
        <path id="Trazado_45896" data-name="Trazado 45896" d="M209.3,63.513c-.1-1.64-.771-3.634-2.391-3.889a3.445,3.445,0,0,0-2.1.53c-5.4,2.847-9.2,8.823-11.839,14.167-2.813,5.7-4.67,11.821-6.84,17.8a11.026,11.026,0,0,1-1.437,2.973,11.543,11.543,0,0,1-2.421,2.146,68.782,68.782,0,0,0-7.664,6.678c1.146.436,2.294-.4,3.219-1.148a34.689,34.689,0,0,1,4.32-2.964c.284-.165.65-.325.932-.133.318.219.257.693.149,1.051-.749,2.455-1.952,4.771-2.335,7.323-.128.871-.034,1.976.771,2.375.983.487,1.954-.508,2.592-1.351a22.949,22.949,0,0,1,7.943-6.6.918.918,0,0,1,.611-.14c.564.131.472.956.273,1.484a12.063,12.063,0,0,0-.762,4.634,2.385,2.385,0,0,0,.589,1.739c.81.736,2.06.223,2.944-.359a43.885,43.885,0,0,0,8.462-7.14c-.614-.305-1.3.093-1.841.476l-5.324,3.783a.944.944,0,0,1-.8.25c-.4-.131-.472-.67-.44-1.078a11.562,11.562,0,0,1,1.554-4.967c.463-.787,1-1.848.359-2.543a1.764,1.764,0,0,0-1.6-.359c-3.515.521-5.813,3.937-9.179,5.01a2.875,2.875,0,0,1,.1-2.235,28.454,28.454,0,0,1,4.753-8.622c2.658-3.3,6.087-6.039,7.964-9.852-.873-.154-1.566.618-2.1,1.3a34.924,34.924,0,0,1-5.349,5.419.963.963,0,0,1-.56.277c-.665.014-.709-1-.49-1.617,2.657-7.515,5.337-15.088,9.369-21.914,1.013-1.715,2.56-3.592,4.573-3.255a1.566,1.566,0,0,1,.983.5,2.051,2.051,0,0,1,.323,1.178,17.215,17.215,0,0,1-.593,6.344c-1.117,3.413-3.871,6.107-4.749,9.6.686.086,1.225-.5,1.64-1.031a35.858,35.858,0,0,0,4.826-7.343,18.58,18.58,0,0,0,1.555-8.433A.184.184,0,0,0,209.3,63.513Z" transform="translate(-143.394 -48.894)" fill="#fff"/>
        <path id="Trazado_45897" data-name="Trazado 45897" d="M902.373,261.186a5.6,5.6,0,0,0-2.2-.62,16.2,16.2,0,0,0-9.637,2.069c-.224.129-.539.257-.719.072a.689.689,0,0,1-.113-.55c.065-1.466-1.06-2.707-2.008-3.856a1.233,1.233,0,0,1-.325-.6,1.081,1.081,0,0,1,.334-.8,5.5,5.5,0,0,1,2.439-1.654,1.067,1.067,0,0,0,.587-.336.7.7,0,0,0-.359-.927,1.755,1.755,0,0,0-1.1-.057,9.78,9.78,0,0,0-2.816.975,5.671,5.671,0,0,0-2.234,1.944,3.215,3.215,0,0,0-.316,2.9,52.491,52.491,0,0,0-5.642,4.2,13.612,13.612,0,0,1-6.3,3c-.74.1-1.728-.079-1.879-.817-.122-.595.415-1.078.9-1.437a16.9,16.9,0,0,0,3.413-3.163,6.855,6.855,0,0,0,1.523-4.34c-.043-1.087-.719-2.389-1.807-2.335a2.292,2.292,0,0,0-1.069.426c-3.885,2.421-7.593,6.208-7.708,11.093a3.621,3.621,0,0,0,1.087,3.036,3.845,3.845,0,0,0,2.743.5,14.311,14.311,0,0,0,5.791-1.759c3.469-2.008,5.881-5.8,9.777-6.826a5.68,5.68,0,0,1,1.3,2.992,1.533,1.533,0,0,1-.074.817,1.808,1.808,0,0,1-.871.731,19.9,19.9,0,0,0-4.033,2.863c-.7.648-1.4,1.672-.873,2.5a1.9,1.9,0,0,0,1.272.719,6.022,6.022,0,0,0,4.929-1.388,10.9,10.9,0,0,0,2.969-4.266,10.434,10.434,0,0,1,.9-1.866,6.325,6.325,0,0,1,3.714-2.362,12.406,12.406,0,0,1,8.263.677c.424.19,1.078.309,1.193-.131a.671.671,0,0,0-.1-.467A2.42,2.42,0,0,0,902.373,261.186Zm-33.135,3.334a1.1,1.1,0,0,1-.18-.309,4.863,4.863,0,0,1,2.8-5.928,1.306,1.306,0,0,1,1.36.061,1.011,1.011,0,0,1,.266.911,2.7,2.7,0,0,1-.375.889,17.152,17.152,0,0,1-3.569,4.516A.373.373,0,0,1,869.238,264.52Zm17.186,4.51a2.2,2.2,0,0,1-.18.284,3.62,3.62,0,0,1-2.017,1.169,1.2,1.2,0,0,1-.636-.084,1.067,1.067,0,0,1-.568-.7c-.235-.877.539-1.169.925-1.8a1.923,1.923,0,0,1,.282-.393,1.345,1.345,0,0,1,.487-.262,6.476,6.476,0,0,1,.939-.257,1.089,1.089,0,0,1,1.017.18c.291.313.167.8.023,1.2A5.437,5.437,0,0,1,886.424,269.03Z" transform="translate(-710.642 -208.271)" fill="#fff"/>
        <path id="Trazado_45898" data-name="Trazado 45898" d="M674.74,262.325a1.066,1.066,0,0,0-.436.075,8.886,8.886,0,0,1-1.717.62,1.64,1.64,0,0,1-1.653-.595,2.085,2.085,0,0,1,.359-2.164,2.813,2.813,0,0,0,.7-2.132c-.286-1.042-1.685-1.333-2.716-1.063a1.977,1.977,0,0,0-1.4,1.009,3.034,3.034,0,0,0-.1,1.29,7.477,7.477,0,0,1-6.145,7.456c-.388.061-.916,0-1.008-.386a.822.822,0,0,1,.083-.485l2.651-6.695a2.622,2.622,0,0,0,.149-2.3c-.595-.968-2.03-.8-3.068-.408-5.137,1.953-8.936,6.253-13.64,9.062a1.767,1.767,0,0,1-1.541.332c-.781-.329-.769-1.426-.6-2.243a35.537,35.537,0,0,1,2.666-8.131,1.268,1.268,0,0,0,.18-.952c-.216-.641-1.151-.566-1.753-.289a16.737,16.737,0,0,0-2.966,1.884c-1.784,1.3-3.542,2.644-5.3,3.988q-1.329,1.019-2.646,2.05c-.377.3-1.843,1.051-1.135,1.73a.431.431,0,0,0,.192.115,1.241,1.241,0,0,0,1-.374,80.421,80.421,0,0,1,7.49-5.128c-.045,3.673-2.761,6.826-2.89,10.492a1.162,1.162,0,0,0,.111.639,1.22,1.22,0,0,0,1.128.408c3.081-.128,5.721-2.057,8.009-4.063s4.545-4.23,7.46-5.164a2.765,2.765,0,0,1,1.292-.167,1.212,1.212,0,0,1,.99.789,1.821,1.821,0,0,1-.133,1.058,26.066,26.066,0,0,0-1.067,4.586,2.762,2.762,0,0,0,.51,2.47,2.671,2.671,0,0,0,2.639.162,16.7,16.7,0,0,0,7.528-5.144,1.5,1.5,0,0,1,.668-.559,1.94,1.94,0,0,1,1.281.291,4.276,4.276,0,0,0,5.017-1.333.553.553,0,0,0,.133-.539A.359.359,0,0,0,674.74,262.325Z" transform="translate(-520.279 -208.476)" fill="#fff"/>
        <path id="Trazado_45899" data-name="Trazado 45899" d="M501.972,21.891a45.275,45.275,0,0,1,1.66-4.334,5.782,5.782,0,0,0,.5-.313h0a20.181,20.181,0,0,1,1.712-1.236c8.119-5.322,18.456-8.157,27.94-5.259-.113-.036-.372-.5-.472-.6a4.414,4.414,0,0,0-.643-.557,4.587,4.587,0,0,0-1.536-.718,8.769,8.769,0,0,0-1.69-.1c-.551-.036-1.123-.2-1.676-.271a12.239,12.239,0,0,0-2.847-.419h-.081c-1.8-.052-2.218-.036-2.578-.1a1.587,1.587,0,0,1-.251-.034,18.3,18.3,0,0,0-4.589.21,8.783,8.783,0,0,1-1.6.257,48.615,48.615,0,0,0-5.209.92,15.89,15.89,0,0,0-3.5,1.344c-2.31,1.078-4.491,2.423-6.738,3.605-3.486,1.825-7.424,3.294-11.363,2.594a16.916,16.916,0,0,1-6.193-2.71c-3.521-2.308-6.826-5.712-7.135-9.863a2.476,2.476,0,0,1,.539-2.021,2.2,2.2,0,0,1,1.187-.492c3.054-.453,5.859,1.938,7.7,4.473.163.225.372.478.647.465.564-.025.406-.914.054-1.365A14.958,14.958,0,0,0,478.521.324a4.5,4.5,0,0,0-2.808-.158c-1.545.555-2.166,2.446-2.037,4.1a11.749,11.749,0,0,0,2.874,6.242,23.783,23.783,0,0,0,23.089,8.128,64.775,64.775,0,0,0-4.99,12.933c-1.078,3.759-2.026,7.575-3.154,11.316a15.031,15.031,0,0,1-8.8-4.85A18.392,18.392,0,0,0,490.834,45a61.179,61.179,0,0,1-2.576,6.693,22.258,22.258,0,0,1-5.2,7.557,11.054,11.054,0,0,1-8.521,2.926,7.864,7.864,0,0,1-6.709-5.8,9.715,9.715,0,0,1,1.505-6.646,1.409,1.409,0,0,1,.6-.657,2.129,2.129,0,0,1,1.2.072,2.23,2.23,0,0,0,2.335-.938,1.679,1.679,0,0,0-.692-2.3,2.453,2.453,0,0,0-2.155.4,9.609,9.609,0,0,0-4.244,10.025,10.271,10.271,0,0,0,8.047,7.735c3.772.652,7.56-.99,10.529-3.305,4.627-3.607,7.742-8.758,9.944-14.264h.011a.62.62,0,0,1,.013-.061c.144-.359.286-.718.42-1.078a5.15,5.15,0,0,0,3.907-1.367c1.13-.945,2.017-2.145,3.093-3.147a12.092,12.092,0,0,1,6.041-3.025c-2.112-1.022-4.579.083-6.4,1.466s-3.508,3.093-5.748,3.526a.134.134,0,0,1,.009-.029C498.477,35.915,499.707,28.74,501.972,21.891Z" transform="translate(-382.932 -0.001)" fill="#fff"/>
        <path id="Trazado_45900" data-name="Trazado 45900" d="M718.548,192.715a6.6,6.6,0,0,1-.264.684,5.78,5.78,0,0,1-1.374,1.963,5.622,5.622,0,0,1-2.461,1.414,2.13,2.13,0,0,1-1.335-.02,1.042,1.042,0,0,1-.668-1.063,1.616,1.616,0,0,1,.418-.718l2.662-3.149a1.3,1.3,0,0,1,1.162-.6,1.534,1.534,0,0,1,.5.014,1.515,1.515,0,0,1,.494.271c.239.18.819.442.9.718A.971.971,0,0,1,718.548,192.715Z" transform="translate(-584.97 -156.865)" fill="#fff"/>
        <path id="Trazado_45901" data-name="Trazado 45901" d="M150.4,417.971a3.035,3.035,0,0,0-1.031-.8,3.558,3.558,0,0,0-2.86,0,3.042,3.042,0,0,0-1.033.8,3.437,3.437,0,0,0-.618,1.144,4.437,4.437,0,0,0,0,2.653,3.413,3.413,0,0,0,.618,1.144,3.03,3.03,0,0,0,1.033.8,3.613,3.613,0,0,0,2.858,0,3.013,3.013,0,0,0,1.033-.8,3.413,3.413,0,0,0,.618-1.144,4.437,4.437,0,0,0,0-2.653A3.413,3.413,0,0,0,150.4,417.971Zm-.429,2.472a3.539,3.539,0,0,1-.12.909,2.407,2.407,0,0,1-.359.789,1.846,1.846,0,0,1-.629.551,2.155,2.155,0,0,1-1.832,0,1.83,1.83,0,0,1-.629-.551,2.387,2.387,0,0,1-.359-.789,3.5,3.5,0,0,1,0-1.82,2.388,2.388,0,0,1,.359-.789,1.831,1.831,0,0,1,.629-.551,2.156,2.156,0,0,1,1.832,0,1.864,1.864,0,0,1,.629.551,2.425,2.425,0,0,1,.359.789,3.541,3.541,0,0,1,.12.907Z" transform="translate(-118.678 -341.992)" fill="#fff"/>
        <path id="Trazado_45902" data-name="Trazado 45902" d="M238.282,421.167a2.241,2.241,0,0,1-.149.681,1.584,1.584,0,0,1-.323.526,1.516,1.516,0,0,1-.5.343,1.725,1.725,0,0,1-.677.124,1.933,1.933,0,0,1-.9-.194,1.75,1.75,0,0,1-.613-.523,2.313,2.313,0,0,1-.359-.79,4.014,4.014,0,0,1-.12-.993,3.565,3.565,0,0,1,.12-.923,2.336,2.336,0,0,1,.359-.769,1.769,1.769,0,0,1,.609-.523,1.9,1.9,0,0,1,.9-.194,1.8,1.8,0,0,1,1.056.307,1.394,1.394,0,0,1,.555.907l.034.156h1.243l-.032-.224a2.6,2.6,0,0,0-.332-.981,2.452,2.452,0,0,0-.638-.718,2.8,2.8,0,0,0-.864-.427,3.53,3.53,0,0,0-1.013-.144,3.294,3.294,0,0,0-1.4.286,2.928,2.928,0,0,0-1.024.778,3.382,3.382,0,0,0-.618,1.144,4.5,4.5,0,0,0-.208,1.383,4.7,4.7,0,0,0,.194,1.372,3.233,3.233,0,0,0,.591,1.133,2.74,2.74,0,0,0,1,.762,3.3,3.3,0,0,0,1.39.277,2.912,2.912,0,0,0,2.084-.731,3.119,3.119,0,0,0,.9-2.017l.023-.217h-1.257Z" transform="translate(-191.634 -341.94)" fill="#fff"/>
        <path id="Trazado_45903" data-name="Trazado 45903" d="M322.8,421.6h3.346V420.48H322.8v-1.654h3.591V417.71H321.55v6.835h4.87v-1.115H322.8Z" transform="translate(-264.02 -342.68)" fill="#fff"/>
        <path id="Trazado_45904" data-name="Trazado 45904" d="M400.4,417.71l-2.66,6.835h1.3l.718-1.94h2.45l.7,1.94h1.374l-2.671-6.835Zm1.4,3.772h-1.617l.819-2.251Z" transform="translate(-326.58 -342.68)" fill="#fff"/>
        <path id="Trazado_45905" data-name="Trazado 45905" d="M489.5,422.493,486.4,417.71H485.18v6.835h1.205v-4.729l3.081,4.729h1.241V417.71H489.5Z" transform="translate(-398.374 -342.68)" fill="#fff"/>
        <path id="Trazado_45906" data-name="Trazado 45906" d="M567.07,424.545h1.252V421.6h2.958V420.48h-2.958v-1.654H571.7V417.71H567.07Z" transform="translate(-465.611 -342.68)" fill="#fff"/>
        <path id="Trazado_45907" data-name="Trazado 45907" d="M651.485,423.931a2.929,2.929,0,0,1-.1-.417,3.913,3.913,0,0,1-.043-.456c0-.165-.014-.327-.027-.494a3.189,3.189,0,0,0-.081-.471,1.6,1.6,0,0,0-.18-.449,1.209,1.209,0,0,0-.334-.359l-.059-.039a1.451,1.451,0,0,0,.51-.5,2.156,2.156,0,0,0,.295-1.13,1.746,1.746,0,0,0-.588-1.385,2.314,2.314,0,0,0-1.568-.5H646.08v6.835h1.257v-2.755h1.895a.938.938,0,0,1,.417.075.644.644,0,0,1,.237.192.861.861,0,0,1,.138.3c.034.135.063.278.088.435a3.151,3.151,0,0,1,.05.449l.018.456a3.079,3.079,0,0,0,.043.411.735.735,0,0,0,.18.359l.059.065h1.462l-.273-.309A.925.925,0,0,1,651.485,423.931Zm-1.257-4.185a.992.992,0,0,1-.1.478.768.768,0,0,1-.259.282,1.09,1.09,0,0,1-.4.147h0a3.389,3.389,0,0,1-.539.041h-1.593v-1.852h1.931a.9.9,0,0,1,.718.241.954.954,0,0,1,.23.672Z" transform="translate(-530.487 -342.697)" fill="#fff"/>
        <path id="Trazado_45908" data-name="Trazado 45908" d="M734.493,417.971a3.019,3.019,0,0,0-1.031-.8,3.558,3.558,0,0,0-2.86,0,3.021,3.021,0,0,0-1.031.8,3.414,3.414,0,0,0-.618,1.144,4.437,4.437,0,0,0,0,2.653,3.416,3.416,0,0,0,.618,1.144,2.989,2.989,0,0,0,1.031.8,3.613,3.613,0,0,0,2.858,0,3,3,0,0,0,1.033-.8,3.414,3.414,0,0,0,.618-1.144,4.443,4.443,0,0,0,0-2.655,3.415,3.415,0,0,0-.618-1.142ZM730,420.443a3.553,3.553,0,0,1,.12-.911,2.426,2.426,0,0,1,.359-.789,1.831,1.831,0,0,1,.629-.551,2.156,2.156,0,0,1,1.832,0,1.849,1.849,0,0,1,.629.551,2.422,2.422,0,0,1,.359.789,3.5,3.5,0,0,1,0,1.82,2.422,2.422,0,0,1-.359.789,1.83,1.83,0,0,1-.629.551,2.155,2.155,0,0,1-1.832,0,1.83,1.83,0,0,1-.629-.551,2.424,2.424,0,0,1-.359-.789h0a3.547,3.547,0,0,1-.122-.912Z" transform="translate(-598.368 -341.992)" fill="#fff"/>
        <path id="Trazado_45909" data-name="Trazado 45909" d="M823.422,422.493l-3.106-4.783H819.1v6.835h1.205v-4.729l3.081,4.729h1.241V417.71h-1.205Z" transform="translate(-672.55 -342.68)" fill="#fff"/>
        <path id="Trazado_45910" data-name="Trazado 45910" d="M901.82,417.71v1.115h2.146v5.719h1.252v-5.719h2.146V417.71Z" transform="translate(-740.571 -342.68)" fill="#fff"/>
        <path id="Trazado_45911" data-name="Trazado 45911" d="M210.545,495.309a1.975,1.975,0,0,0-.708-.474,2.737,2.737,0,0,0-1.053-.18H205.81v6.6h1.451v-2.367h1.523a2.738,2.738,0,0,0,1.053-.18,1.976,1.976,0,0,0,.708-.476,1.8,1.8,0,0,0,.4-.679,2.531,2.531,0,0,0,0-1.565,1.825,1.825,0,0,0-.4-.675Zm-.988,1.976a.8.8,0,0,1-.282.3,1.144,1.144,0,0,1-.408.144,3.166,3.166,0,0,1-.48.036h-1.126v-1.976h1.126a3.177,3.177,0,0,1,.48.036,1.144,1.144,0,0,1,.408.144.783.783,0,0,1,.282.3A1.271,1.271,0,0,1,209.557,497.285Z" transform="translate(-168.989 -405.804)" fill="#fff"/>
        <path id="Trazado_45912" data-name="Trazado 45912" d="M259.53,498.751a1.608,1.608,0,0,1-.295,1.078,1.4,1.4,0,0,1-1.078.345,1.681,1.681,0,0,1-.706-.124,1.024,1.024,0,0,1-.605-.781,2.985,2.985,0,0,1-.045-.526V494.65H255.35v4.1a2.522,2.522,0,0,0,.735,2,3.632,3.632,0,0,0,4.142,0,2.515,2.515,0,0,0,.749-1.992v-4.1h-1.451Z" transform="translate(-209.665 -405.8)" fill="#fff"/>
        <path id="Trazado_45913" data-name="Trazado 45913" d="M310.52,498.409h3.2v-1.126h-3.2V495.87H314v-1.22H309.07v6.6h5.006v-1.22H310.52Z" transform="translate(-253.773 -405.8)" fill="#fff"/>
        <path id="Trazado_45914" data-name="Trazado 45914" d="M363.263,500.5c-.014-.147-.025-.293-.032-.435s-.011-.264-.018-.368a4.327,4.327,0,0,0-.068-.5,1.677,1.677,0,0,0-.162-.456,1.285,1.285,0,0,0-.287-.359,1.113,1.113,0,0,0-.444-.226v-.018a1.541,1.541,0,0,0,.8-.647,1.975,1.975,0,0,0,.244-1.008,1.878,1.878,0,0,0-.133-.706,1.7,1.7,0,0,0-.388-.577,1.825,1.825,0,0,0-.611-.393,2.122,2.122,0,0,0-.8-.144H357.81v6.6h1.45v-2.583h1.458a1.078,1.078,0,0,1,.785.241,1.318,1.318,0,0,1,.314.756c.036.266.063.539.083.832a2.532,2.532,0,0,0,.147.749h1.45a.972.972,0,0,1-.151-.338,3.016,3.016,0,0,1-.083-.417Zm-1.667-3.081a1.1,1.1,0,0,1-.747.221h-1.59v-1.85h1.59a1.114,1.114,0,0,1,.747.215.882.882,0,0,1,.25.7A.916.916,0,0,1,361.6,497.415Z" transform="translate(-293.793 -405.807)" fill="#fff"/>
        <path id="Trazado_45915" data-name="Trazado 45915" d="M406.55,495.87h1.978v5.376h1.45V495.87h1.978v-1.22h-5.4Z" transform="translate(-333.813 -405.8)" fill="#fff"/>
        <path id="Trazado_45916" data-name="Trazado 45916" d="M460.3,494.786a2.944,2.944,0,0,0-1.017-.738,3.61,3.61,0,0,0-2.728,0,2.931,2.931,0,0,0-1.022.738,3.3,3.3,0,0,0-.636,1.1,4.089,4.089,0,0,0-.223,1.372,3.953,3.953,0,0,0,.223,1.344,3.224,3.224,0,0,0,.636,1.078,2.922,2.922,0,0,0,1.022.719,3.657,3.657,0,0,0,2.728,0,2.931,2.931,0,0,0,1.017-.719,3.256,3.256,0,0,0,.638-1.078,4,4,0,0,0,.221-1.344,4.133,4.133,0,0,0-.221-1.372A3.331,3.331,0,0,0,460.3,494.786Zm-.688,3.283a2.189,2.189,0,0,1-.311.708,1.572,1.572,0,0,1-.553.5,1.927,1.927,0,0,1-1.663,0,1.586,1.586,0,0,1-.553-.5,2.185,2.185,0,0,1-.309-.708,3.339,3.339,0,0,1-.1-.806,3.591,3.591,0,0,1,.1-.841,2.215,2.215,0,0,1,.309-.719,1.567,1.567,0,0,1,.553-.508,1.927,1.927,0,0,1,1.663,0,1.552,1.552,0,0,1,.553.508,2.22,2.22,0,0,1,.311.719,3.6,3.6,0,0,1,.1.841A3.342,3.342,0,0,1,459.617,498.069Z" transform="translate(-373.332 -405.086)" fill="#fff"/>
        <path id="Trazado_45917" data-name="Trazado 45917" d="M545.031,499.185h-.018l-1.543-4.535H541.43v6.6h1.358v-4.627h.018l1.617,4.627h1.117l1.617-4.674h.018v4.674h1.358v-6.6h-2.04Z" transform="translate(-444.563 -405.8)" fill="#fff"/>
        <path id="Trazado_45918" data-name="Trazado 45918" d="M607.523,494.786a2.928,2.928,0,0,0-1.017-.738,3.611,3.611,0,0,0-2.728,0,2.908,2.908,0,0,0-1.02.738,3.27,3.27,0,0,0-.638,1.1,4.134,4.134,0,0,0-.221,1.372,4,4,0,0,0,.221,1.344,3.2,3.2,0,0,0,.638,1.078,2.9,2.9,0,0,0,1.02.719,3.657,3.657,0,0,0,2.728,0,2.916,2.916,0,0,0,1.017-.719,3.233,3.233,0,0,0,.638-1.078,4,4,0,0,0,.221-1.344,4.133,4.133,0,0,0-.221-1.372A3.3,3.3,0,0,0,607.523,494.786Zm-.688,3.283a2.228,2.228,0,0,1-.309.708,1.591,1.591,0,0,1-.555.5,1.923,1.923,0,0,1-1.661,0,1.59,1.59,0,0,1-.555-.5,2.18,2.18,0,0,1-.309-.708,3.337,3.337,0,0,1-.1-.806,3.6,3.6,0,0,1,.1-.841,2.214,2.214,0,0,1,.309-.719,1.571,1.571,0,0,1,.555-.508,1.923,1.923,0,0,1,1.661,0,1.573,1.573,0,0,1,.555.508,2.255,2.255,0,0,1,.309.719,3.593,3.593,0,0,1,.1.841A3.337,3.337,0,0,1,606.835,498.069Z" transform="translate(-494.212 -405.086)" fill="#fff"/>
        <path id="Trazado_45919" data-name="Trazado 45919" d="M664.373,500.5c-.014-.147-.025-.293-.032-.435s-.013-.264-.018-.368a3.965,3.965,0,0,0-.07-.5,1.562,1.562,0,0,0-.162-.456,1.246,1.246,0,0,0-.286-.359,1.114,1.114,0,0,0-.444-.226v-.018a1.542,1.542,0,0,0,.8-.647,1.975,1.975,0,0,0,.244-1.008,1.875,1.875,0,0,0-.133-.706,1.7,1.7,0,0,0-.388-.577,1.843,1.843,0,0,0-.611-.393,2.124,2.124,0,0,0-.8-.144H658.92v6.6h1.451v-2.583h1.451a1.078,1.078,0,0,1,.785.241,1.306,1.306,0,0,1,.313.756c.038.266.065.539.084.832a2.529,2.529,0,0,0,.147.749h1.45a.974.974,0,0,1-.153-.338A3.007,3.007,0,0,1,664.373,500.5Zm-1.667-3.08a1.1,1.1,0,0,1-.747.221h-1.588v-1.85h1.59a1.117,1.117,0,0,1,.747.216.882.882,0,0,1,.25.7A.916.916,0,0,1,662.706,497.415Z" transform="translate(-541.029 -405.807)" fill="#fff"/>
        <path id="Trazado_45920" data-name="Trazado 45920" d="M712.92,498.409h3.2v-1.126h-3.2V495.87H716.4v-1.22H711.47v6.6h5.006v-1.22H712.92Z" transform="translate(-584.175 -405.8)" fill="#fff"/>
        <path id="Trazado_45921" data-name="Trazado 45921" d="M761.661,494.65H760.21v6.6h4.665v-1.22h-3.214Z" transform="translate(-624.194 -405.8)" fill="#fff"/>
        <path id="Trazado_45922" data-name="Trazado 45922" d="M810.163,494.786a2.936,2.936,0,0,0-1.015-.738,3.616,3.616,0,0,0-2.73,0,2.908,2.908,0,0,0-1.02.738,3.3,3.3,0,0,0-.638,1.1,4.132,4.132,0,0,0-.221,1.372,4,4,0,0,0,.221,1.344,3.235,3.235,0,0,0,.638,1.078,2.9,2.9,0,0,0,1.02.719,3.661,3.661,0,0,0,2.73,0,2.923,2.923,0,0,0,1.015-.719,3.2,3.2,0,0,0,.638-1.078,4,4,0,0,0,.221-1.344,4.129,4.129,0,0,0-.221-1.372A3.268,3.268,0,0,0,810.163,494.786Zm-.692,3.283a2.186,2.186,0,0,1-.309.708,1.592,1.592,0,0,1-.555.5,1.924,1.924,0,0,1-1.661,0,1.591,1.591,0,0,1-.555-.5,2.185,2.185,0,0,1-.309-.708,3.337,3.337,0,0,1-.1-.807,3.593,3.593,0,0,1,.1-.841,2.216,2.216,0,0,1,.309-.718,1.573,1.573,0,0,1,.555-.508,1.924,1.924,0,0,1,1.661,0,1.575,1.575,0,0,1,.555.508,2.217,2.217,0,0,1,.309.718,3.59,3.59,0,0,1,.1.841A3.331,3.331,0,0,1,809.471,498.07Z" transform="translate(-660.597 -405.087)" fill="#fff"/>
        <path id="Trazado_45923" data-name="Trazado 45923" d="M864.663,497.63a1.957,1.957,0,0,0-.559-.568,2.455,2.455,0,0,0-.65-.309c-.219-.065-.39-.11-.514-.135q-.62-.156-1-.259a3.752,3.752,0,0,1-.6-.2.671.671,0,0,1-.291-.221.6.6,0,0,1-.074-.314.628.628,0,0,1,.092-.359.8.8,0,0,1,.237-.23.941.941,0,0,1,.318-.129,1.661,1.661,0,0,1,.359-.038,2.48,2.48,0,0,1,.494.047,1.191,1.191,0,0,1,.4.156.842.842,0,0,1,.282.305,1.186,1.186,0,0,1,.124.49h1.4a2.018,2.018,0,0,0-.217-.975,1.92,1.92,0,0,0-.586-.661,2.544,2.544,0,0,0-.846-.374,4.192,4.192,0,0,0-.993-.115,3.343,3.343,0,0,0-.886.12,2.486,2.486,0,0,0-.8.368,1.992,1.992,0,0,0-.568.625,1.729,1.729,0,0,0-.217.882,1.6,1.6,0,0,0,.18.771,1.626,1.626,0,0,0,.447.539,2.411,2.411,0,0,0,.629.345,6,6,0,0,0,.719.226c.239.068.476.129.709.18a4.509,4.509,0,0,1,.629.194,1.384,1.384,0,0,1,.449.277.583.583,0,0,1,.18.435.636.636,0,0,1-.129.411.9.9,0,0,1-.323.253,1.4,1.4,0,0,1-.417.126,2.866,2.866,0,0,1-.415.032,2.2,2.2,0,0,1-.555-.07,1.35,1.35,0,0,1-.465-.212,1.063,1.063,0,0,1-.32-.374,1.229,1.229,0,0,1-.118-.564h-1.4a2.179,2.179,0,0,0,.221,1.053,2.08,2.08,0,0,0,.609.735,2.621,2.621,0,0,0,.9.42,4.158,4.158,0,0,0,1.058.135,4.08,4.08,0,0,0,1.187-.156,2.528,2.528,0,0,0,.859-.44,1.857,1.857,0,0,0,.523-.668,2.02,2.02,0,0,0,.18-.841A1.617,1.617,0,0,0,864.663,497.63Z" transform="translate(-705.614 -405.053)" fill="#fff"/>
      </g>
    </g>
  </g>
</svg>
