<svg xmlns="http://www.w3.org/2000/svg" width="77.554" height="77.555" viewBox="0 0 77.554 77.555"><path d="M6249.661,0V77.555h77.554V0Zm36.553,1.836-16.707,16.714L6252.8,1.836Zm-34.72,1.305,16.714,16.707-16.714,16.706Zm0,37.852,16.714,16.714-16.714,16.706Zm1.307,34.718,16.706-16.706,16.707,16.706Zm34.716-1.3-35.639-35.639,17.629-17.628,18.01,18.012Zm0-37.859L6270.8,19.848l16.712-16.707Zm36.557-34.718-16.7,16.714L6290.653,1.836Zm-34.718,1.305,16.705,16.707-16.705,16.714Zm0,36.017,18.017-18.012,17.622,17.632-35.638,35.639Zm1.3,36.554,16.719-16.706,16.705,16.706Zm34.718-1.3-16.709-16.706,16.708-16.714Zm0-37.859-16.709-16.706,16.709-16.707Z" transform="translate(-6249.661)" fill="#fff"/></svg>