<svg xmlns="http://www.w3.org/2000/svg" width="20.104" height="16.36" viewBox="0 0 20.104 16.36">
  <path id="Trazado_15101" data-name="Trazado 15101" d="M429.749,20.925a4.143,4.143,0,0,1-3.844-2.867,4.11,4.11,0,0,0,1.771-.052.533.533,0,0,0,.059-.028,4.13,4.13,0,0,1-2.683-1.9,4.016,4.016,0,0,1-.6-2.2,4.078,4.078,0,0,0,1.838.5,4.15,4.15,0,0,1-1.7-2.505,4.1,4.1,0,0,1,.443-2.992,11.82,11.82,0,0,0,8.521,4.316c-.024-.163-.049-.307-.067-.451a4.016,4.016,0,0,1,.6-2.7,3.969,3.969,0,0,1,2.8-1.867A4.025,4.025,0,0,1,440.5,9.337a.211.211,0,0,0,.221.066,8.352,8.352,0,0,0,2.4-.924.479.479,0,0,1,.055-.028s.01,0,.027,0a4.234,4.234,0,0,1-1.768,2.248,7.926,7.926,0,0,0,2.3-.619l.017.018c-.158.207-.31.419-.475.62a8.094,8.094,0,0,1-1.5,1.426.142.142,0,0,0-.069.131,11.392,11.392,0,0,1-.077,1.834,12.159,12.159,0,0,1-1.064,3.678,11.914,11.914,0,0,1-2.232,3.257,11.046,11.046,0,0,1-5.678,3.163,12.262,12.262,0,0,1-2.3.273A11.655,11.655,0,0,1,423.75,22.7c-.026-.015-.052-.034-.1-.063a8.341,8.341,0,0,0,4.132-.57A8.113,8.113,0,0,0,429.749,20.925Z" transform="translate(-423.653 -8.123)" fill="#2cc0f7"/>
</svg>
