<svg xmlns="http://www.w3.org/2000/svg" width="20.109" height="16.342" viewBox="0 0 20.109 16.342">
  <path id="Trazado_45505" data-name="Trazado 45505" d="M929.37,57.1a11.659,11.659,0,0,0,11.738-11.738q0-.268-.012-.533a8.4,8.4,0,0,0,2.058-2.136,8.236,8.236,0,0,1-2.369.649,4.14,4.14,0,0,0,1.814-2.282,8.269,8.269,0,0,1-2.62,1,4.129,4.129,0,0,0-7.031,3.762,11.712,11.712,0,0,1-8.5-4.31,4.129,4.129,0,0,0,1.277,5.508,4.1,4.1,0,0,1-1.869-.516c0,.017,0,.035,0,.053a4.128,4.128,0,0,0,3.31,4.045,4.122,4.122,0,0,1-1.863.071,4.13,4.13,0,0,0,3.854,2.865,8.278,8.278,0,0,1-5.124,1.766,8.376,8.376,0,0,1-.984-.057A11.679,11.679,0,0,0,929.37,57.1" transform="translate(-923.046 -40.761)" fill="#fff"/>
</svg>
