<?xml version="1.0" encoding="UTF-8"?>
<svg id="Capa_1" data-name="Capa 1" xmlns="http://www.w3.org/2000/svg" viewBox="0 0 50.13 50.13">
  <defs>
    <style>
      .cls-1 {
        fill: #999;
        stroke-width: 0px;
      }
    </style>
  </defs>
  <path class="cls-1" d="M25.06,25.72c-6.68,0-12.11-5.43-12.11-12.11S18.39,1.5,25.06,1.5s12.11,5.43,12.11,12.11-5.43,12.11-12.11,12.11ZM25.06,3.36c-5.65,0-10.25,4.6-10.25,10.25s4.6,10.25,10.25,10.25,10.25-4.6,10.25-10.25S30.71,3.36,25.06,3.36Z"/>
  <path class="cls-1" d="M25.06,28.51c-10.27,0-18.63,8.36-18.63,18.63,0,.63.03,1.25.09,1.86h37.07c.06-.61.09-1.23.09-1.86,0-10.27-8.36-18.63-18.63-18.63ZM8.3,47.14c0-9.24,7.52-16.76,16.76-16.76s16.76,7.52,16.76,16.76H8.3Z"/>
</svg>