<svg xmlns="http://www.w3.org/2000/svg" xmlns:xlink="http://www.w3.org/1999/xlink" width="24" height="24" viewBox="0 0 24 24"><defs><style>.a{clip-path:url(#b);}.b{fill:#999;}.c{fill:rgba(255,255,255,0);}</style><clipPath id="b"><rect width="24" height="24"/></clipPath></defs><g id="a" class="a"><rect class="c" width="24" height="24"/><g transform="translate(-39.905 -160.926)"><path class="b" d="M50.333,356.748a8.69,8.69,0,0,1-.059.995c0,.039-.01.078-.015.118.011-.086,0,.01-.006.042q-.018.126-.041.252-.044.253-.1.5a12.222,12.222,0,0,1-.632,1.954c-.011.026-.041.1-.013.032l-.056.13q-.053.122-.108.243-.107.234-.222.465-.235.472-.5.929c-.349.609-.73,1.2-1.134,1.771q-.3.422-.613.831l-.032.042c-.038.049.039-.05,0,0l-.074.1-.159.2q-.154.192-.31.382-.6.733-1.251,1.43-1.029,1.111-2.148,2.134c-.339.309-.7.6-1.037.9l-.014.012h.583c-.352-.281-.689-.581-1.022-.884q-1.247-1.131-2.384-2.377-.72-.79-1.389-1.626l-.17-.216-.053-.068-.021-.027-.053-.069q-.175-.23-.346-.464-.34-.467-.658-.949a19.535,19.535,0,0,1-1.16-2q-.132-.264-.254-.532-.055-.122-.108-.244l-.028-.065c-.025-.058.024.059,0,0s-.041-.1-.061-.148c-.141-.348-.269-.7-.379-1.061a10.889,10.889,0,0,1-.277-1.093c-.037-.185-.068-.372-.094-.559.013.093,0-.033-.007-.06s-.009-.08-.013-.119q-.015-.144-.026-.289a8.588,8.588,0,0,1,0-1.171q.009-.143.023-.285c0-.05.01-.1.016-.151,0-.025.006-.05.009-.075.009-.08,0,.027,0-.022.029-.2.064-.408.107-.61a8.6,8.6,0,0,1,.325-1.137q.05-.138.1-.274c.01-.024.06-.144.029-.07.021-.05.043-.1.066-.15q.119-.265.256-.522a8.633,8.633,0,0,1,.622-1l.085-.116c.015-.02.094-.122.045-.06.059-.075.119-.15.181-.224q.184-.221.384-.429a8.6,8.6,0,0,1,.877-.8l.042-.034c.049-.04-.048.036,0,0l.115-.086q.123-.091.25-.178.239-.163.487-.31t.509-.279c.086-.044.174-.086.262-.127l.133-.06.067-.029.019-.008a8.8,8.8,0,0,1,1.133-.379q.289-.075.582-.13.148-.027.3-.05l.077-.011.151-.018a8.75,8.75,0,0,1,1.247-.048q.316.01.629.043l.132.015.039,0c-.051-.007.027,0,.039.006.105.015.211.032.315.051a8.574,8.574,0,0,1,1.168.3c.186.061.369.13.55.2.011,0,.082.034.035.014l.035.015.117.052q.149.067.3.14a8.6,8.6,0,0,1,1,.585,6.772,6.772,0,0,1,.865.681,8.728,8.728,0,0,1,.812.841c.058.069.115.139.171.209l.023.029.022.03.1.13q.17.233.324.478a8.644,8.644,0,0,1,.56,1.037l.059.133c0,.011.035.081.015.035s.01.025.014.035c.039.1.077.193.113.29q.1.276.184.559a8.62,8.62,0,0,1,.256,1.185c0,.012.012.09.006.039s0,.015,0,.02c.006.05.012.1.017.151.011.1.019.2.027.3.014.2.021.41.022.616a.412.412,0,0,0,.825,0,9.056,9.056,0,0,0-14.529-7.217,9.04,9.04,0,0,0-3.443,8.822,13.808,13.808,0,0,0,1.676,4.417,25.228,25.228,0,0,0,2.729,3.843,34.759,34.759,0,0,0,2.633,2.778c.49.465.991.919,1.513,1.348l.07.057a.43.43,0,0,0,.583,0c.3-.24.585-.494.87-.75q1.083-.974,2.084-2.035a31.989,31.989,0,0,0,2.547-3.04,20.136,20.136,0,0,0,2.166-3.634,11.747,11.747,0,0,0,1.085-4.082q.015-.252.016-.506a.412.412,0,0,0-.825,0" transform="translate(9.803 -186.293)"/><path class="b" d="M54.3,367.047c0,.058,0,.115-.006.173,0,.032-.005.063-.009.095,0-.017.013-.078,0,0a2.5,2.5,0,0,1-.078.325c-.019.058-.039.116-.063.172.033-.078-.025.05-.034.067a2.776,2.776,0,0,1-.177.294c-.011.017-.06.08-.011.018l-.046.056c-.031.036-.063.072-.1.108s-.076.076-.116.113l-.068.06c-.007.006-.084.066-.043.035s-.048.034-.045.032l-.06.04c-.04.026-.081.051-.124.075s-.107.056-.161.083c-.013.007-.073.032,0,0l-.1.039a2.3,2.3,0,0,1-.3.085c-.019,0-.183.028-.094.018-.064.007-.127.012-.191.014a2.525,2.525,0,0,1-.326-.012c-.073-.007.1.019-.021,0l-.074-.014c-.061-.012-.121-.027-.181-.043s-.094-.028-.14-.045l-.086-.032c-.065-.026.084.043-.019-.009a2.931,2.931,0,0,1-.285-.158l-.06-.04s-.093-.068-.046-.032-.045-.037-.043-.035l-.054-.048a2.382,2.382,0,0,1-.225-.233s-.071-.09-.035-.043-.015-.021-.021-.031c-.031-.045-.061-.089-.089-.136s-.049-.083-.071-.126c-.014-.027-.027-.054-.041-.081l-.023-.049c.015.037.017.042.006.014a2.4,2.4,0,0,1-.1-.3c-.013-.054-.025-.109-.035-.164,0-.012-.013-.09-.006-.038s-.005-.064-.006-.077a2.349,2.349,0,0,1,0-.327c0-.032.005-.063.008-.095.006-.066-.011.062,0,0s.024-.135.041-.2a2.792,2.792,0,0,1,.089-.281c.04-.109-.022.044.008-.019.013-.028.025-.056.039-.083q.041-.081.088-.158c.025-.041.051-.082.079-.121l.042-.058c-.047.064,0,0,.013-.016a2.673,2.673,0,0,1,.237-.246c.036-.032.073-.063.11-.093-.067.052.062-.042.077-.052a3.046,3.046,0,0,1,.3-.168c.07-.035.018-.009,0,0l.086-.033c.052-.019.1-.036.158-.051s.1-.026.144-.036l.073-.014c.025,0,.113-.015.039-.008a2.609,2.609,0,0,1,.345-.014c.051,0,.1.007.153.01.12.008-.05-.009.022,0l.092.016a2.354,2.354,0,0,1,.373.107c.011,0,.081.034.035.014s.056.027.067.033c.054.026.107.055.159.086s.111.072.166.109c.012.008.062.047,0,0,.028.022.056.045.083.069a2.326,2.326,0,0,1,.252.256l.046.056c-.054-.069.016.025.021.032.034.049.067.1.1.152s.059.106.085.16l.031.066c-.036-.079.007.019.014.037a2.31,2.31,0,0,1,.1.356c.006.03.011.061.016.092s0,.025,0-.016c0,.019,0,.038.006.057.006.07.009.141.01.211a.412.412,0,0,0,.825,0,2.77,2.77,0,0,0-1.813-2.572,2.733,2.733,0,0,0-3.259,3.982,2.732,2.732,0,0,0,5.072-1.41.412.412,0,0,0-.825,0" transform="translate(-0.495 -196.592)"/></g></g></svg>