<svg xmlns="http://www.w3.org/2000/svg" width="17.845" height="21.224" viewBox="0 0 17.845 21.224"><g transform="translate(-145.66 -31.583)"><path d="M232.233,42.43a5.429,5.429,0,1,0-3.837-1.588,5.425,5.425,0,0,0,3.837,1.588Zm0-9.887a4.472,4.472,0,1,1-3.155,1.311,4.459,4.459,0,0,1,3.155-1.311Z" transform="translate(-77.651)" fill="#fff"/><path d="M154.583,307.33c-5.754,0-8.923,1.961-8.923,5.525,0,2.17,3.837,3.825,8.923,3.825s8.923-1.645,8.923-3.825C163.505,309.288,160.337,307.33,154.583,307.33Zm0,8.385c-4.69,0-7.958-1.507-7.958-2.86,0-3.769,4.329-4.56,7.958-4.56s7.958.791,7.958,4.56c0,1.35-3.258,2.858-7.958,2.858Z" transform="translate(0 -263.872)" fill="#fff"/></g></svg>