<svg xmlns="http://www.w3.org/2000/svg" width="12.221" height="14.535" viewBox="0 0 12.221 14.535">
  <g id="Grupo_36053" data-name="Grupo 36053" transform="translate(-4204.89 2460.364)">
    <g id="Grupo_36052" data-name="Grupo 36052" transform="translate(4 -15)">
      <g id="noun-profile-1079819" transform="translate(4055.23 -2476.947)">
        <path id="Trazado_45475" data-name="Trazado 45475" d="M230.522,39.011a3.718,3.718,0,1,0-2.627-1.088,3.715,3.715,0,0,0,2.627,1.088Zm0-6.771a3.063,3.063,0,1,1-2.16.9,3.053,3.053,0,0,1,2.16-.9Z" transform="translate(-78.752)" fill="#fff"/>
        <path id="Trazado_45476" data-name="Trazado 45476" d="M151.77,307.33c-3.941,0-6.11,1.343-6.11,3.784,0,1.486,2.628,2.619,6.11,2.619s6.11-1.126,6.11-2.619C157.881,308.671,155.711,307.33,151.77,307.33Zm0,5.742c-3.212,0-5.45-1.032-5.45-1.959,0-2.581,2.964-3.123,5.45-3.123s5.45.542,5.45,3.123c0,.925-2.231,1.957-5.45,1.957Z" transform="translate(0 -267.615)" fill="#fff"/>
      </g>
    </g>
  </g>
</svg>
