<svg xmlns="http://www.w3.org/2000/svg" xmlns:xlink="http://www.w3.org/1999/xlink" width="24" height="24" viewBox="0 0 24 24"><defs><style>.a{clip-path:url(#b);}.b{fill:#999;}.c{fill:rgba(255,255,255,0);}</style><clipPath id="b"><rect width="24" height="24"/></clipPath></defs><g id="a" class="a"><rect class="c" width="24" height="24"/><g transform="translate(-39.69 -355.93)"><path class="b" d="M5.449-.5A5.949,5.949,0,1,1-.5,5.449,5.956,5.956,0,0,1,5.449-.5Zm0,10.9A4.949,4.949,0,1,0,.5,5.449,4.955,4.955,0,0,0,5.449,10.4Z" transform="translate(45.36 366.623) rotate(-78.847)"/><path class="b" d="M51.258,918.889H32.116v-.5a9.571,9.571,0,0,1,19.142,0Zm-18.127-1H50.243a8.571,8.571,0,0,0-17.113,0Z" transform="translate(10.074 -539.083)"/></g></g></svg>