<svg xmlns="http://www.w3.org/2000/svg" width="77.553" height="77.553" viewBox="0 0 77.553 77.553">
  <path id="Trazado_45529" data-name="Trazado 45529" d="M0,0V77.553H77.553V0ZM1.84,1.838H26.925A38.927,38.927,0,0,0,1.84,26.922Zm34.646.075L1.911,36.484A36.991,36.991,0,0,1,36.484,1.913ZM1.84,75.714V50.629A38.927,38.927,0,0,0,26.925,75.714Zm.071-34.646L36.484,75.64A36.991,36.991,0,0,1,1.911,41.068ZM37.857,74.413,2.218,38.774,37.857,3.135Zm37.858,1.3H50.629A38.932,38.932,0,0,0,75.714,50.629ZM39.7,75.7V1.851a36.936,36.936,0,0,1,0,73.85Zm36.018-48.78A38.932,38.932,0,0,0,50.629,1.838H75.715Z" fill="#fff"/>
</svg>
