<?xml version="1.0" encoding="UTF-8"?>
<svg id="Capa_1" data-name="Capa 1" xmlns="http://www.w3.org/2000/svg" viewBox="0 0 148.9 148.9">
  <defs>
    <style>
      .cls-1 {
        fill: none;
      }

      .cls-1, .cls-2 {
        stroke-width: 0px;
      }
    </style>
  </defs>
  <path class="cls-1" d="M74.45,104.91c-3.87,0-7.6-.56-11.18-1.51l.32,10.9c3.51.72,7.14,1.1,10.86,1.1,4.91,0,9.67-.67,14.2-1.91l.34-11.13c-4.55,1.62-9.43,2.55-14.54,2.55Z"/>
  <path class="cls-1" d="M94.64,99.92l-.11-3.59-.58-19.3c-.01-.29-.02-.58-.02-.87.02-1.31,1.01-2.22,1.8-2.95.18-.17.36-.34.52-.5,1.09-1.13,2.06-2.16,2.77-3.32.07-.12.13-.23.18-.34l.08-.25c.01-.07.04-.16.08-.26l.03-.1c.06-.28.08-.48.1-.67.26-2.39.17-4.88.08-7.29v-.39c-.26-6.85-.88-13.66-1.48-20.05-.05-.55.18-1.08.64-1.4.48-.34,1.12-.41,1.62-.18.47.21.76.64.81,1.17.43,4.51.75,8.25,1,11.8.33,4.66.63,9.22.56,13.71-.01.91-.04,1.9-.14,2.88-.05.47-.1.99-.27,1.49l-.06.16c-.07.3-.19.57-.31.81-.71,1.42-1.8,2.58-2.86,3.71-.53.57-1.07,1.12-1.61,1.66l-.17.16c-.2.19-.27.26-.27.31-.02.94.02,1.88.07,2.83.02.48.05.96.06,1.44l.42,13.81c10.43-7.31,17.27-19.4,17.27-33.07,0-22.27-18.12-40.39-40.39-40.39s-40.39,18.12-40.39,40.39c0,15.05,8.29,28.18,20.53,35.13l.58-20.02c-2.06-1.25-7.47-5.07-8.51-11.2-.5-2.96-.4-7.26.25-11.21.58-3.49,1.86-8.35,4.65-11.68,2.01-2.4,4.46-3.64,7.3-3.67,2.87.03,5.32,1.27,7.33,3.67,2.79,3.34,4.06,8.2,4.64,11.68.66,3.96.75,8.25.25,11.21-1.04,6.14-6.52,9.96-8.61,11.21l.69,23.64c3.58,1.04,7.36,1.63,11.27,1.63,5.17,0,10.1-1.01,14.64-2.79l.04-1.26.64-20.66c.02-.26.04-.52.02-.76-.02.01-.1-.07-.16-.13-.61-.6-1.11-1.1-1.6-1.62-1.17-1.23-2.2-2.36-2.98-3.7-.19-.33-.38-.69-.47-1.09-.04-.1-.07-.2-.1-.29-.13-.44-.18-.86-.23-1.27-.28-2.59-.19-5.24-.09-7.79v-.32c.27-7.08.91-14.21,1.49-20.33.08-.85.76-1.43,1.69-1.35.88.08,1.48.79,1.4,1.64-.37,3.87-.71,7.74-.99,11.62-.33,4.57-.62,9.05-.56,13.47l.03,1.28c.03.56.05.92.09,1.29.02.22.06.44.1.65l.04.23.4.54-.18.12.04.08c.58,1.07,1.51,2.04,2.4,2.98l.2.21c.18.19.4.39.61.59.87.81,1.95,1.81,1.94,3.25,0,.92-.04,1.84-.08,2.76l-.56,18.48-.11,3.59-.34,11.41-.1,3.4-.63,20.87c-.02.49-.03.95.05,1.38.2,1.03.96,2.17,2.16,2.27,1.17.1,2.06-.96,2.37-1.97.16-.53.14-1.12.12-1.75l-.66-22-.1-3.39-.34-11.42ZM93.95,39.75c0-.39.18-.77.52-1.08.29-.27.71-.41,1.14-.38.39.02.8.22,1.06.53.25.28.37.63.37,1.06v20.48c0,.39-.19.78-.53,1.08-.27.24-.64.37-1.04.37-.03,0-.06,0-.09,0-.39-.02-.8-.22-1.06-.52-.25-.29-.37-.64-.37-1.07v-20.48ZM93.01,60.37c0,.39-.19.78-.53,1.08-.27.24-.64.37-1.04.37-.03,0-.06,0-.09,0-.39-.02-.8-.22-1.06-.52-.25-.29-.37-.64-.37-1.07v-20.48c0-.39.18-.77.52-1.08.29-.27.7-.41,1.14-.38.39.02.8.22,1.06.53.25.28.37.63.37,1.06v20.48Z"/>
  <path class="cls-1" d="M60.14,102.45l-.1-3.43-.67-22.8c-.03-.94.47-1.82,1.28-2.29,1.51-.87,6.52-4.09,7.38-9.2.78-4.58.03-15.31-4.22-20.39-1.4-1.67-3.06-2.53-4.93-2.56-1.88.02-3.54.88-4.93,2.56-4.25,5.08-4.99,15.81-4.22,20.39.87,5.11,5.8,8.34,7.29,9.21.81.47,1.3,1.35,1.27,2.28l-.64,21.8-.1,3.48-.32,11.08-.1,3.33-.66,22.61c-.03.99.3,1.91.91,2.54.83.86,2.08.86,2.91,0,.61-.62.94-1.55.91-2.54l-.63-21.64-.1-3.32-.32-11.11Z"/>
  <path class="cls-1" d="M74.45,7.27c-29.81,0-54.07,24.26-54.07,54.07,0,22.64,13.99,42.06,33.78,50.1l.33-11.41c-14.01-7.26-23.62-21.86-23.62-38.69,0-24.03,19.55-43.58,43.58-43.58s43.58,19.55,43.58,43.58c0,15.49-8.14,29.08-20.35,36.81l.36,11.84c18.03-8.78,30.48-27.28,30.48-48.65,0-29.81-24.26-54.07-54.07-54.07Z"/>
  <path class="cls-2" d="M131.71,61.34c0-31.57-25.69-57.26-57.26-57.26S17.19,29.76,17.19,61.34c0,24.39,15.34,45.26,36.87,53.49l-.69,23.6c-.05,1.82.6,3.57,1.78,4.79,1,1.03,2.31,1.6,3.68,1.6s2.68-.57,3.68-1.6c1.19-1.22,1.84-2.96,1.79-4.79l-.61-20.86c3.49.67,7.08,1.03,10.76,1.03,4.86,0,9.59-.61,14.1-1.76l-.56,18.45c-.09,1.8-.19,3.84.88,5.57,1.04,1.68,2.73,2.66,4.56,2.66.1,0,.19,0,.29,0,1.85-.1,3.57-1.3,4.49-3.13.62-1.23.67-2.5.64-3.58l-.7-23.35c19.78-9.03,33.57-28.98,33.57-52.11ZM61.2,138.52c.03.99-.3,1.92-.91,2.54-.83.86-2.07.86-2.91,0-.61-.62-.94-1.55-.91-2.54l.66-22.61.1-3.33.32-11.08.1-3.48.64-21.8c.03-.94-.46-1.81-1.27-2.28-1.49-.87-6.42-4.09-7.29-9.21-.77-4.58-.02-15.31,4.22-20.39,1.4-1.67,3.06-2.53,4.93-2.56,1.88.02,3.54.88,4.93,2.56,4.25,5.08,5,15.81,4.22,20.39-.86,5.11-5.87,8.33-7.38,9.2-.82.47-1.31,1.35-1.28,2.29l.67,22.8.1,3.43.32,11.11.1,3.32.63,21.64ZM74.45,115.41c-3.72,0-7.35-.38-10.86-1.1l-.32-10.9c3.57.95,7.31,1.51,11.18,1.51,5.1,0,9.98-.93,14.54-2.55l-.34,11.13c-4.53,1.23-9.29,1.91-14.2,1.91ZM95.75,136.73c.02.63.04,1.22-.12,1.75-.31,1.02-1.2,2.07-2.37,1.97-1.2-.09-1.96-1.24-2.16-2.27-.08-.43-.07-.89-.05-1.38l.63-20.87.1-3.4.34-11.41.11-3.59.56-18.48c.04-.92.07-1.84.08-2.76,0-1.44-1.08-2.44-1.94-3.25-.21-.2-.43-.39-.61-.59l-.2-.21c-.89-.94-1.82-1.91-2.4-2.98l-.04-.08.18-.12-.4-.54-.04-.23c-.04-.21-.08-.43-.1-.65-.04-.37-.06-.73-.09-1.29l-.03-1.28c-.06-4.42.23-8.9.56-13.47.28-3.88.62-7.75.99-11.62.08-.85-.52-1.56-1.4-1.64-.93-.08-1.61.5-1.69,1.35-.58,6.13-1.22,13.25-1.48,20.33v.32c-.1,2.56-.2,5.2.08,7.79.05.41.1.83.23,1.27.03.1.06.2.1.29.09.4.27.76.47,1.09.78,1.35,1.81,2.47,2.98,3.7.49.52.99,1.02,1.6,1.62.06.06.13.14.16.13.02.25,0,.51-.02.76l-.64,20.66-.04,1.26c-4.55,1.78-9.47,2.79-14.64,2.79-3.92,0-7.69-.59-11.27-1.63l-.69-23.64c2.09-1.25,7.57-5.06,8.61-11.21.5-2.96.4-7.26-.25-11.21-.58-3.49-1.85-8.35-4.64-11.68-2.01-2.4-4.47-3.64-7.33-3.67-2.84.03-5.29,1.27-7.3,3.67-2.79,3.33-4.06,8.19-4.65,11.68-.66,3.96-.75,8.25-.25,11.21,1.04,6.13,6.45,9.95,8.51,11.2l-.58,20.02c-12.24-6.95-20.53-20.08-20.53-35.13,0-22.27,18.12-40.39,40.39-40.39s40.39,18.12,40.39,40.39c0,13.67-6.85,25.76-17.27,33.07l-.42-13.81c-.01-.48-.04-.96-.06-1.44-.05-.94-.09-1.89-.07-2.83,0-.06.07-.13.27-.31l.17-.16c.54-.54,1.08-1.09,1.61-1.66,1.05-1.13,2.14-2.29,2.86-3.71.12-.24.25-.51.31-.81l.06-.16c.17-.5.22-1.02.27-1.49.11-.99.13-1.97.14-2.88.07-4.5-.23-9.05-.56-13.71-.26-3.54-.57-7.29-1-11.8-.05-.53-.35-.96-.81-1.17-.5-.23-1.14-.16-1.62.18-.45.32-.69.85-.64,1.4.61,6.39,1.22,13.2,1.47,20.05v.39c.1,2.41.19,4.9-.06,7.29-.02.2-.04.4-.1.67l-.03.1c-.04.1-.07.19-.08.26l-.08.25c-.05.11-.1.22-.18.34-.71,1.17-1.68,2.2-2.77,3.32-.16.16-.34.33-.52.5-.79.73-1.77,1.64-1.8,2.95,0,.29,0,.58.02.87l.58,19.3.11,3.59.34,11.42.1,3.39.66,22ZM87.15,39.83h0s-.71-.06-.71-.06l.71.06ZM86,69.34l-.15.02.12-.1.03.08ZM100.81,69.31l.1-.08.12.1-.22-.02ZM98.03,109.98l-.36-11.84c12.21-7.73,20.35-21.32,20.35-36.81,0-24.03-19.55-43.58-43.58-43.58S30.87,37.31,30.87,61.34c0,16.83,9.61,31.44,23.62,38.69l-.33,11.41c-19.79-8.04-33.78-27.46-33.78-50.1,0-29.81,24.26-54.07,54.07-54.07s54.07,24.26,54.07,54.07c0,21.36-12.46,39.87-30.48,48.65Z"/>
  <polygon class="cls-2" points="87.15 39.83 86.44 39.77 87.15 39.84 87.15 39.83"/>
  <polygon class="cls-2" points="100.81 69.31 101.03 69.33 100.91 69.23 100.81 69.31"/>
  <polygon class="cls-2" points="86 69.34 85.98 69.26 85.86 69.36 86 69.34"/>
  <path class="cls-2" d="M91.57,38.3c-.44-.03-.84.11-1.14.38-.34.31-.52.69-.52,1.08v20.48c0,.43.12.78.37,1.07.27.3.67.5,1.06.52.03,0,.06,0,.09,0,.4,0,.77-.13,1.04-.37.34-.31.53-.69.53-1.08v-20.48c0-.43-.12-.78-.37-1.06-.27-.31-.68-.51-1.06-.53Z"/>
  <path class="cls-2" d="M95.39,61.83s.06,0,.09,0c.4,0,.77-.13,1.04-.37.34-.31.53-.69.53-1.08v-20.48c0-.43-.12-.78-.37-1.06-.27-.31-.68-.51-1.06-.53-.43-.03-.84.11-1.14.38-.34.31-.52.69-.52,1.08v20.48c0,.43.12.78.37,1.07.27.3.67.5,1.06.52Z"/>
</svg>