<svg xmlns="http://www.w3.org/2000/svg" xmlns:xlink="http://www.w3.org/1999/xlink" width="37.664" height="37" viewBox="0 0 37.664 37">
  <defs>
    <clipPath id="clip-path">
      <circle id="Elipse_1422" data-name="Elipse 1422" cx="18.5" cy="18.5" r="18.5" fill="none"/>
    </clipPath>
    <linearGradient id="linear-gradient" y1="1" x2="0.007" y2="1" gradientUnits="objectBoundingBox">
      <stop offset="0" stop-color="#61c633"/>
      <stop offset="1" stop-color="#7def5a"/>
    </linearGradient>
    <clipPath id="clip-path-2">
      <rect id="Rect치ngulo_4953" data-name="Rect치ngulo 4953" width="37.664" height="33.628" fill="none"/>
    </clipPath>
  </defs>
  <g id="Grupo_35668" data-name="Grupo 35668" transform="translate(0.664)">
    <g id="Grupo_35445" data-name="Grupo 35445" transform="translate(0 0)">
      <g id="Grupo_35444" data-name="Grupo 35444" transform="translate(0)" clip-path="url(#clip-path)">
        <rect id="Rect치ngulo_4952" data-name="Rect치ngulo 4952" width="37" height="37" transform="translate(0 0)" fill="url(#linear-gradient)"/>
      </g>
    </g>
    <g id="Grupo_35447" data-name="Grupo 35447" transform="translate(-0.664 1.686)">
      <g id="Grupo_35446" data-name="Grupo 35446" transform="translate(0)" clip-path="url(#clip-path-2)">
        <path id="Trazado_45488" data-name="Trazado 45488" d="M44.961,26.461A10.761,10.761,0,0,0,28.027,39.44L26.5,45.014l5.7-1.5a10.752,10.752,0,0,0,5.142,1.309h0a10.76,10.76,0,0,0,7.611-18.366M37.35,43.011h0a8.932,8.932,0,0,1-4.552-1.246l-.327-.194-3.385.888.9-3.3-.213-.338a8.943,8.943,0,1,1,7.576,4.189m4.905-6.7c-.269-.134-1.591-.785-1.837-.874s-.426-.134-.6.135-.695.874-.851,1.054-.314.2-.582.067a7.339,7.339,0,0,1-2.162-1.334,8.1,8.1,0,0,1-1.5-1.862c-.157-.269-.017-.415.118-.549s.269-.314.4-.471a1.829,1.829,0,0,0,.269-.449.494.494,0,0,0-.022-.471c-.067-.134-.6-1.457-.829-2s-.44-.453-.6-.461-.336-.01-.515-.01a.987.987,0,0,0-.717.336,3.013,3.013,0,0,0-.941,2.242,5.227,5.227,0,0,0,1.1,2.78,11.984,11.984,0,0,0,4.593,4.058,15.552,15.552,0,0,0,1.533.566,3.685,3.685,0,0,0,1.694.106,2.768,2.768,0,0,0,1.814-1.278,2.244,2.244,0,0,0,.157-1.278c-.067-.112-.246-.179-.515-.314" transform="translate(-17.733 -17.396)" fill="#fff" fill-rule="evenodd"/>
      </g>
    </g>
  </g>
</svg>
