<svg xmlns="http://www.w3.org/2000/svg" width="22.537" height="15.775" viewBox="0 0 22.537 15.775">
  <path id="Trazado_45498" data-name="Trazado 45498" d="M492.9,240.868a2.822,2.822,0,0,0-1.993-1.993c-1.757-.471-8.805-.471-8.805-.471s-7.048,0-8.8.471a2.822,2.822,0,0,0-1.993,1.993,31.471,31.471,0,0,0,0,10.849,2.822,2.822,0,0,0,1.993,1.993c1.757.471,8.8.471,8.8.471s7.048,0,8.805-.471a2.822,2.822,0,0,0,1.993-1.993,31.467,31.467,0,0,0,0-10.849m-13.051,8.805v-6.761l5.855,3.381Z" transform="translate(-470.83 -238.404)" fill="#fff"/>
</svg>
